<?xml version="1.0" encoding="utf-8"?>
<!-- Generator: Adobe Illustrator 19.2.1, SVG Export Plug-In . SVG Version: 6.00 Build 0)  -->
<svg version="1.1" id="Layer_1" xmlns="http://www.w3.org/2000/svg" xmlns:xlink="http://www.w3.org/1999/xlink" x="0px" y="0px"
	 viewBox="0 0 297 297" style="enable-background:new 0 0 297 297;" xml:space="preserve">
<style type="text/css">
	.st0{fill:#FFFEFD;}
	.st1{fill:#F27A47;}
	.st2{fill:#938276;}
	.st3{fill:#938277;}
	.st4{fill:#938176;}
	.st5{fill:#948377;}
	.st6{fill:#948378;}
	.st7{fill:#938175;}
</style>
<rect class="st0" width="297" height="297"/>
<g>
	<path class="st1" d="M93.3,127.9c23.8-24.1,63.6-20.9,83.2,0.1c-1,1.3-2,2.6-3,3.9c-0.5,0-1,0-1.5,0c-21.2-19.2-53.3-19-74.2,0
		c-0.4,0-0.9,0-1.4,0C95.4,130.6,94.4,129.2,93.3,127.9z"/>
	<path class="st2" d="M84.4,147.7c0-1.4,0-2.7,0-4c1.8,0,3.6,0,5.4,0c0,14.1,0,28.2,0,42.4c-1.8,0-3.5,0-5.4,0c0-5.9,0-11.7,0-17.5
		c-0.1-0.1-0.2-0.2-0.3-0.2c-0.1,0.2-0.1,0.4-0.2,0.6c-2.7,3.2-6.3,4.4-10.5,4.2c-3.2-0.1-6-1.1-8.5-3.1c-2.9-2.4-4.5-5.6-5-9.3
		c-0.6-4.1,0-8,2.3-11.6c4.8-7.5,16.7-8.3,21.8-1.7C84.1,147.5,84.2,147.5,84.4,147.7z M75,167.9c4.7,0,8.2-2.7,9.1-7.3
		c0.3-1.6,0.3-3.3,0.1-4.9c-0.6-3.7-2.7-6.4-6.4-7.3c-3.8-0.9-7.3-0.3-9.9,2.9c-1.9,2.4-2.4,5.2-2,8.3C66.3,164.6,70,167.9,75,167.9
		z"/>
	<path class="st3" d="M266,164.4c1.1,1.2,2.1,2.2,3.3,3.5c-1.1,0.9-2.2,2-3.5,2.9c-5.2,3.3-13.8,3.3-18.7-1.4
		c-3.4-3.2-4.9-7.3-4.8-11.9c0.2-5.1,2.2-9.3,6.5-12.2c5-3.3,12.4-3.2,16.9,0.3c3.4,2.6,4.8,6.3,5.2,10.4c0.1,1.3,0.1,2.6,0.2,4
		c-7.7,0-15.3,0-23,0c0,1.8,0.5,3.3,1.6,4.6c3.6,4.4,10.7,4.8,15.2,0.8C265.2,165.1,265.5,164.8,266,164.4z M248.1,155.5
		c5.7,0,11.4,0,17,0c-0.4-5.6-3.4-8.3-8.8-8.2C252.1,147.5,248.1,151.4,248.1,155.5z"/>
	<path class="st3" d="M54.7,160c-7.7,0-15.3,0-22.9,0c0.1,3.2,1.6,5.3,4.2,6.7c4,2.2,8.8,1.7,12.3-1.2c0.4-0.4,0.8-0.7,1.2-1
		c1.1,1.1,2.2,2.2,3.4,3.3c-1.9,2.3-4.2,3.8-7.1,4.6c-5.1,1.3-10.1,1-14.3-2.5c-4.9-4-6.4-9.4-5.1-15.5c1.3-6,5.1-9.9,11.2-11.1
		c5.6-1.1,10.7,0,14.3,4.9c2,2.7,2.7,5.9,2.9,9.2C54.8,158.2,54.7,159,54.7,160z M31.8,155.5c5.7,0,11.3,0,17,0c-0.1-3-1-5.5-3.7-7
		c-3.1-1.8-6.4-1.7-9.4,0.3C33.4,150.3,32,152.5,31.8,155.5z"/>
	<path class="st3" d="M188.4,164.5c1.1,1.1,2.2,2.2,3.3,3.3c-2.2,2.7-5.1,4.4-8.5,4.9c-1.6,0.4-3.2,0.3-4.7,0.3
		c-1.9,0-3.4-0.4-4.9-1.1c-5.3-2.4-8.1-6.6-8.7-12.3c-0.5-4.8,0.8-9.1,4.3-12.6c3.4-3.4,7.6-4.5,12.2-4.1c8.3,0.8,11.6,7.1,12.1,13
		c0.1,1.3,0,2.6,0,4c-7.6,0-15.2,0-22.8,0c-0.1,3.2,2.1,6.2,5.6,7.4c4.1,1.4,7.9,0.8,11.2-2.1C187.8,165,188.1,164.7,188.4,164.5z
		 M187.6,155.5c0.2-2.2-0.8-4.8-2.4-6.2c-3-2.8-8.5-2.7-11.7,0.3c-1.7,1.6-2.8,3.5-2.9,5.9C176.4,155.5,182,155.5,187.6,155.5z"/>
	<path class="st4" d="M123,172.3c-1.8,0-3.5,0-5.3,0c0-1.4,0-2.7,0-4.2c-0.2,0.2-0.4,0.3-0.4,0.4c-1.8,2.9-4.5,4.1-7.7,4.5
		c-2.3,0.3-4.6,0-6.7-1.1c-3.2-1.6-4.9-4.4-5-7.9c-0.2-6.6-0.1-13.3-0.2-19.9c0-0.1,0-0.2,0.1-0.4c1.8,0,3.5,0,5.4,0
		c0,0.4,0.1,0.8,0.1,1.2c0,5.2,0,10.4,0,15.6c0,0.7,0,1.3,0.1,2c0.5,3.1,2.4,5,5.3,5.4c3.4,0.5,6.5-1.1,7.9-4
		c0.9-1.9,1.1-3.9,1.1-5.9c0-4.3,0-8.7,0-13c0-0.4,0-0.8,0-1.2c1.8,0,3.5,0,5.4,0C123,153.2,123,162.7,123,172.3z"/>
	<path class="st5" d="M146.7,137.4c1.9,0,3.7,0,5.6,0c0,2,0,4,0,6.1c2.6,0,5.1,0,7.7,0c0,1.7,0,3.2,0,4.8c-2.5,0-5,0-7.5,0
		c0,0.3-0.1,0.4-0.1,0.6c0,4.9,0,9.7,0.1,14.6c0,0.6,0.1,1.2,0.3,1.8c0.4,1.5,1.6,2.4,3.1,2.5c0.7,0,1.5,0,2.2-0.1
		c0.7-0.1,1.4-0.3,2.2-0.5c0,1.6,0,3.2,0,4.8c-1.4,0.9-3.1,1-4.7,1c-1.5,0-3-0.2-4.5-0.6c-3-1-4.1-3.4-4.2-6.3
		c-0.1-5.5-0.1-11-0.2-16.5c0-3.6,0-7.3,0-10.9C146.7,138.3,146.7,137.9,146.7,137.4z"/>
	<path class="st6" d="M216.8,148.9c-1.6,0-3.1-0.2-4.4,0c-3.9,0.5-6.2,3.1-6.4,7.1c-0.2,4.3-0.1,8.5-0.2,12.8c0,1.1,0,2.3,0,3.5
		c-1.8,0-3.6,0-5.4,0c0-9.5,0-19,0-28.5c1.8,0,3.5,0,5.4,0c0,1.3,0,2.6,0,4.3c2.9-4.1,6.5-5.7,11.1-4.8
		C216.8,145.2,216.8,147.2,216.8,148.9z"/>
	<path class="st4" d="M223,143.7c1.8,0,3.5,0,5.3,0c0,1.4,0,2.8,0,4.4c2.8-4.1,6.4-5.7,11-4.8c0,2.1,0,4,0,5.7c-1.6,0-3.1-0.2-4.5,0
		c-3.8,0.5-6.1,3.1-6.3,7.1c-0.2,4.9-0.1,9.8-0.2,14.7c0,0.5,0,1,0,1.6c-1.8,0-3.5,0-5.4,0C223,162.8,223,153.3,223,143.7z"/>
	<path class="st7" d="M132.3,143.7c1.8,0,3.5,0,5.3,0c0,9.6,0,19.1,0,28.6c-1.8,0-3.5,0-5.3,0C132.3,162.8,132.3,153.3,132.3,143.7z
		"/>
	<path class="st5" d="M138.6,133.8c0,2-1.7,3.6-3.8,3.6c-2,0-3.6-1.7-3.6-3.7c0-2,1.7-3.7,3.7-3.7C137,130,138.6,131.7,138.6,133.8z
		"/>
	<path class="st3" d="M42.8,137.4c-1.7,0-3.4,0-5.2,0c1.2-2,2.3-3.9,3.4-5.9c2.2,0,4.4,0,6.9,0C46.2,133.6,44.5,135.5,42.8,137.4z"
		/>
</g>
</svg>
