<?xml version="1.0" encoding="utf-8"?>
<!-- Generator: Adobe Illustrator 19.2.0, SVG Export Plug-In . SVG Version: 6.00 Build 0)  -->
<svg version="1.1" id="Layer_1" xmlns="http://www.w3.org/2000/svg" xmlns:xlink="http://www.w3.org/1999/xlink" x="0px" y="0px"
	 viewBox="0 0 200 200" style="enable-background:new 0 0 200 200;" xml:space="preserve">
<style type="text/css">
	.st0{fill:url(#SVGID_1_);}
	.st1{fill:none;stroke:url(#SVGID_2_);stroke-width:8;stroke-miterlimit:10;}
	.st2{enable-background:new    ;}
	.st3{fill:#FFFFFF;}
	.st4{fill:url(#SVGID_3_);}
	.st5{fill:none;stroke:#FFFFFF;stroke-width:4;stroke-linecap:round;stroke-miterlimit:10;}
	.st6{fill:none;stroke:#FFFFFF;stroke-width:4;stroke-miterlimit:10;}
	.st7{fill:url(#SVGID_4_);}
</style>
<g id="logo">
	<g id="cercles">
		<radialGradient id="SVGID_1_" cx="100.1" cy="100" r="96.7" gradientUnits="userSpaceOnUse">
			<stop  offset="0.2759" style="stop-color:#993E00"/>
			<stop  offset="0.509" style="stop-color:#7C3200"/>
			<stop  offset="0.8273" style="stop-color:#5A2400"/>
			<stop  offset="1" style="stop-color:#4D1F00"/>
		</radialGradient>
		<circle class="st0" cx="100.1" cy="100" r="96.7"/>
		<linearGradient id="SVGID_2_" gradientUnits="userSpaceOnUse" x1="162.184" y1="162.084" x2="38.016" y2="37.916">
			<stop  offset="0" style="stop-color:#FF6700"/>
			<stop  offset="0.1151" style="stop-color:#FF6903"/>
			<stop  offset="0.2075" style="stop-color:#FF6F0D"/>
			<stop  offset="0.292" style="stop-color:#FF791E"/>
			<stop  offset="0.3719" style="stop-color:#FF8736"/>
			<stop  offset="0.4478" style="stop-color:#FF9954"/>
			<stop  offset="0.5" style="stop-color:#FFA86E"/>
			<stop  offset="0.5522" style="stop-color:#FF9954"/>
			<stop  offset="0.6281" style="stop-color:#FF8736"/>
			<stop  offset="0.708" style="stop-color:#FF791E"/>
			<stop  offset="0.7925" style="stop-color:#FF6F0D"/>
			<stop  offset="0.8849" style="stop-color:#FF6903"/>
			<stop  offset="1" style="stop-color:#FF6700"/>
		</linearGradient>
		<circle class="st1" cx="100.1" cy="100" r="83.8"/>
	</g>
	<g id="nom" class="st2">
		<path class="st3" d="M73,153.6v-13.9h5c1.8,0,3.2,0.3,4.1,1s1.4,1.6,1.4,2.9c0,0.7-0.2,1.3-0.5,1.8s-0.8,0.9-1.5,1.1
			c0.7,0.2,1.3,0.5,1.7,1.1s0.6,1.2,0.6,1.9c0,1.4-0.4,2.4-1.3,3.1c-0.9,0.7-2.1,1-3.8,1L73,153.6L73,153.6z M76.3,145.5h1.8
			c0.7,0,1.3-0.1,1.6-0.4c0.3-0.3,0.5-0.6,0.5-1.2c0-0.6-0.2-1-0.5-1.3s-0.9-0.4-1.6-0.4h-1.6v3.3H76.3z M76.3,147.7v3.3h2.2
			c0.6,0,1.1-0.1,1.4-0.4c0.3-0.3,0.5-0.7,0.5-1.2c0-1.2-0.6-1.7-1.7-1.8L76.3,147.7L76.3,147.7z"/>
		<path class="st3" d="M89.2,153.6h-3.3v-13.9h3.3V153.6z"/>
		<path class="st3" d="M100.1,147.7h-5.3v3.3h6.2v2.6h-9.6v-13.9h9.6v2.6h-6.3v2.9h5.3v2.5H100.1z"/>
		<path class="st3" d="M107.6,148.7h-1.8v4.9h-3.4v-13.9h5.5c1.7,0,2.9,0.4,3.9,1.1c0.9,0.7,1.4,1.8,1.4,3.1c0,1-0.2,1.8-0.6,2.4
			c-0.4,0.6-1,1.2-1.8,1.5l2.9,5.6v0.1h-3.6L107.6,148.7z M105.8,146.1h2.1c0.6,0,1.1-0.2,1.4-0.5s0.5-0.8,0.5-1.4s-0.2-1.1-0.5-1.4
			c-0.3-0.3-0.8-0.5-1.4-0.5h-2.1V146.1z"/>
		<path class="st3" d="M127.1,147c0,1.4-0.3,2.6-0.8,3.6s-1.2,1.9-2.1,2.4c-0.9,0.6-2,0.8-3.2,0.8s-2.2-0.3-3.2-0.8
			c-0.9-0.5-1.6-1.3-2.1-2.3s-0.8-2.2-0.8-3.5v-0.8c0-1.4,0.3-2.6,0.8-3.6s1.2-1.8,2.2-2.4s2-0.9,3.2-0.9s2.2,0.3,3.2,0.8
			c0.9,0.6,1.6,1.4,2.2,2.4c0.5,1,0.8,2.2,0.8,3.6v0.7H127.1z M123.6,146.4c0-1.4-0.2-2.4-0.7-3.2s-1.1-1.1-2-1.1
			c-1.7,0-2.6,1.3-2.7,3.8v1c0,1.4,0.2,2.4,0.7,3.1c0.5,0.7,1.1,1.1,2,1.1c0.8,0,1.5-0.4,2-1.1s0.7-1.8,0.7-3.1V146.4z"/>
	</g>
	<g id="boc">
		
			<linearGradient id="SVGID_3_" gradientUnits="userSpaceOnUse" x1="78.5256" y1="106.8783" x2="121.1838" y2="106.8783" gradientTransform="matrix(1 0 0 -1 0 202)">
			<stop  offset="0" style="stop-color:#E9AD41"/>
			<stop  offset="1" style="stop-color:#FFFF73"/>
		</linearGradient>
		<path class="st4" d="M120,72.2c3.7,17.8-1.5,37.4-7.3,44.7c-2.8,3.6-24.6,3.4-26.9,0c-7.6-11.4-8.7-38.8-5.8-44.8
			C83,66,114,82.7,120,72.2z"/>
		<path class="st5" d="M75.5,63.4c-5.9,22.4-0.5,47.6,5.8,56.7c5.4,7.8,33.2,5.3,35.5,1.1c1.7-3.1,15.9-26.2,6.8-57.8"/>
		<path class="st6" d="M126.2,75.4c16.7-6,25,23.3-4.6,36.6"/>
		<linearGradient id="SVGID_4_" gradientUnits="userSpaceOnUse" x1="86.9441" y1="56.8839" x2="115.6221" y2="73.4412">
			<stop  offset="0" style="stop-color:#DBCD8C"/>
			<stop  offset="1.144624e-002" style="stop-color:#DCCE8E"/>
			<stop  offset="0.2252" style="stop-color:#E8E0B7"/>
			<stop  offset="0.4352" style="stop-color:#F2EDD6"/>
			<stop  offset="0.6378" style="stop-color:#F9F7ED"/>
			<stop  offset="0.8298" style="stop-color:#FEFDFA"/>
			<stop  offset="1" style="stop-color:#FFFFFF"/>
		</linearGradient>
		<path class="st7" d="M80.9,67.6c12.9-1.2,37.3,11,37.3-0.1C118.2,43.5,78.5,67.8,80.9,67.6z"/>
	</g>
</g>
<g id="guides">
</g>
</svg>
