<?xml version="1.0" encoding="utf-8"?>
<!-- Generator: Adobe Illustrator 19.2.1, SVG Export Plug-In . SVG Version: 6.00 Build 0)  -->
<svg version="1.1" id="Layer_1" xmlns="http://www.w3.org/2000/svg" xmlns:xlink="http://www.w3.org/1999/xlink" x="0px" y="0px"
	 viewBox="0 0 297 297" style="enable-background:new 0 0 297 297;" xml:space="preserve">
<style type="text/css">
	.st0{fill:url(#SVGID_1_);}
	.st1{fill:#FFFFFF;}
	.st2{enable-background:new    ;}
	.st3{fill:#FFFFFF;stroke:#FFFFFF;stroke-width:4;stroke-miterlimit:10;}
	.st4{fill:#FFFFFF;stroke:#FFFFFF;stroke-width:2;stroke-miterlimit:10;}
</style>
<radialGradient id="SVGID_1_" cx="148.5" cy="149.5" r="148.5" gradientTransform="matrix(1 0 0 -1 0 298)" gradientUnits="userSpaceOnUse">
	<stop  offset="0" style="stop-color:#F1A214"/>
	<stop  offset="0.2491" style="stop-color:#CE7C0E"/>
	<stop  offset="0.5886" style="stop-color:#A34D08"/>
	<stop  offset="0.85" style="stop-color:#893104"/>
	<stop  offset="1" style="stop-color:#7F2602"/>
</radialGradient>
<rect class="st0" width="297" height="297"/>
<image style="display:none;overflow:visible;enable-background:new    ;" width="370" height="370" xlink:href="C8426FB2.jpeg"  transform="matrix(1 0 0 1 -39 -40.3333)">
</image>
<circle class="st1" cx="176.5" cy="110.9" r="5.1"/>
<circle class="st1" cx="120.8" cy="110.9" r="5.1"/>
<circle class="st1" cx="148.4" cy="149" r="5.1"/>
<circle class="st1" cx="148.6" cy="73.3" r="5.1"/>
<circle class="st1" cx="155.1" cy="83.2" r="4.3"/>
<circle class="st1" cx="155.2" cy="139.1" r="4.3"/>
<circle class="st1" cx="168.6" cy="119.2" r="3.4"/>
<circle class="st1" cx="168.6" cy="103.1" r="3.4"/>
<circle class="st1" cx="128.7" cy="103.1" r="3.4"/>
<circle class="st1" cx="128.7" cy="119.2" r="3.4"/>
<circle class="st1" cx="135.4" cy="129" r="3"/>
<circle class="st1" cx="161.9" cy="129.1" r="3"/>
<circle class="st1" cx="161.6" cy="93.2" r="3"/>
<circle class="st1" cx="135.4" cy="93.3" r="3"/>
<circle class="st1" cx="107.4" cy="111.1" r="2.5"/>
<circle class="st1" cx="135.4" cy="111.1" r="2.5"/>
<circle class="st1" cx="148.5" cy="111.1" r="2.5"/>
<circle class="st1" cx="162" cy="111.2" r="2.5"/>
<circle class="st1" cx="189.6" cy="111.2" r="2.5"/>
<circle class="st1" cx="155.2" cy="119.2" r="2.5"/>
<circle class="st1" cx="141.9" cy="119.3" r="2.5"/>
<circle class="st1" cx="148.5" cy="128.9" r="2.5"/>
<circle class="st1" cx="148.5" cy="155.5" r="2.5"/>
<circle class="st1" cx="148.5" cy="60.2" r="2.5"/>
<circle class="st1" cx="141.4" cy="83" r="4.3"/>
<circle class="st1" cx="142" cy="139" r="4.3"/>
<g class="st2">
	<path class="st3" d="M84.1,182.2l-2.1,1.6c-1.2-1.5-2.5-2.6-4.2-3.4c-1.6-0.8-3.4-1.2-5.3-1.2c-2.1,0-4.1,0.5-5.9,1.5
		s-3.2,2.4-4.2,4.1c-1,1.7-1.5,3.6-1.5,5.8c0,3.2,1.1,5.9,3.3,8.1c2.2,2.2,5,3.3,8.4,3.3c3.7,0,6.8-1.5,9.3-4.4l2.1,1.6
		c-1.3,1.7-3,3-5,3.9c-2,0.9-4.2,1.4-6.6,1.4c-4.6,0-8.3-1.5-11-4.6c-2.3-2.6-3.4-5.8-3.4-9.5c0-3.9,1.4-7.2,4.1-9.8
		c2.7-2.7,6.1-4,10.3-4c2.5,0,4.7,0.5,6.7,1.5C81.2,179,82.8,180.4,84.1,182.2z"/>
	<path class="st3" d="M108.3,177.3l12.4,26.6h-2.9l-4.2-8.7h-11.4l-4.1,8.7h-3l12.6-26.6H108.3z M107.9,182.9l-4.6,9.6h9.1
		L107.9,182.9z"/>
	<path class="st3" d="M130.1,198.9l2.3-1.4c1.6,2.9,3.4,4.4,5.5,4.4c0.9,0,1.7-0.2,2.5-0.6c0.8-0.4,1.4-1,1.8-1.7
		c0.4-0.7,0.6-1.4,0.6-2.2c0-0.9-0.3-1.8-0.9-2.6c-0.8-1.2-2.3-2.6-4.6-4.3c-2.2-1.7-3.6-2.9-4.1-3.6c-0.9-1.3-1.4-2.6-1.4-4.1
		c0-1.2,0.3-2.2,0.8-3.2c0.6-1,1.3-1.7,2.3-2.2c1-0.5,2.1-0.8,3.3-0.8c1.3,0,2.4,0.3,3.5,0.9c1.1,0.6,2.2,1.8,3.5,3.4l-2.2,1.6
		c-1-1.3-1.9-2.2-2.6-2.6c-0.7-0.4-1.5-0.6-2.3-0.6c-1.1,0-1.9,0.3-2.6,1c-0.7,0.7-1,1.5-1,2.4c0,0.6,0.1,1.1,0.4,1.7
		c0.2,0.5,0.7,1.1,1.3,1.8c0.3,0.3,1.5,1.2,3.4,2.7c2.3,1.7,3.9,3.2,4.7,4.5c0.9,1.3,1.3,2.7,1.3,4c0,1.9-0.7,3.6-2.2,5
		c-1.5,1.4-3.2,2.1-5.3,2.1c-1.6,0-3.1-0.4-4.4-1.3C132.4,202.3,131.2,200.9,130.1,198.9z"/>
	<path class="st3" d="M158.9,177.3h2.7v26.6h-2.7V177.3z"/>
	<path class="st3" d="M175.7,203.8v-26.6h0.6l17.7,20.4v-20.4h2.6v26.6H196l-17.5-20.1v20.1H175.7z"/>
	<path class="st3" d="M223.7,176.6c4,0,7.4,1.3,10.1,4c2.7,2.7,4.1,6,4.1,9.9c0,3.9-1.4,7.2-4.1,9.9s-6,4.1-9.9,4.1
		c-3.9,0-7.3-1.3-10-4c-2.7-2.7-4.1-6-4.1-9.8c0-2.6,0.6-4.9,1.9-7.1c1.2-2.2,2.9-3.9,5.1-5.1C218.9,177.2,221.2,176.6,223.7,176.6z
		 M223.8,179.2c-2,0-3.8,0.5-5.6,1.5c-1.8,1-3.1,2.4-4.1,4.1c-1,1.7-1.5,3.7-1.5,5.8c0,3.2,1.1,5.8,3.3,8s4.8,3.3,7.9,3.3
		c2.1,0,4-0.5,5.7-1.5c1.8-1,3.1-2.4,4.1-4.1c1-1.7,1.5-3.7,1.5-5.8c0-2.1-0.5-4-1.5-5.7c-1-1.7-2.4-3.1-4.2-4.1
		C227.7,179.7,225.9,179.2,223.8,179.2z"/>
</g>
<g class="st2">
	<path class="st4" d="M80,231.3l2.1-14.4h0.2l5.8,11.8l5.8-11.8h0.2l2.1,14.4h-1.4L93.4,221l-5.1,10.3h-0.4l-5.1-10.4l-1.4,10.4H80z
		"/>
	<path class="st4" d="M110.5,216.6c2.2,0,4,0.7,5.5,2.2s2.2,3.2,2.2,5.4c0,2.1-0.7,3.9-2.2,5.4s-3.2,2.2-5.4,2.2
		c-2.1,0-3.9-0.7-5.4-2.2s-2.2-3.2-2.2-5.3c0-1.4,0.3-2.7,1-3.8c0.7-1.2,1.6-2.1,2.7-2.8C107.9,216.9,109.1,216.6,110.5,216.6z
		 M110.5,218c-1.1,0-2.1,0.3-3,0.8s-1.7,1.3-2.2,2.2c-0.5,0.9-0.8,2-0.8,3.1c0,1.7,0.6,3.1,1.8,4.3c1.2,1.2,2.6,1.8,4.3,1.8
		c1.1,0,2.1-0.3,3.1-0.8c0.9-0.5,1.7-1.3,2.2-2.2c0.5-0.9,0.8-2,0.8-3.1c0-1.1-0.3-2.2-0.8-3.1c-0.5-0.9-1.3-1.7-2.2-2.2
		C112.7,218.2,111.6,218,110.5,218z"/>
	<path class="st4" d="M125.7,231.3v-14.4h0.3l9.6,11v-11h1.4v14.4h-0.3l-9.5-10.9v10.9H125.7z"/>
	<path class="st4" d="M143.7,218.3v-1.4h7.9v1.4h-3.2v13h-1.5v-13H143.7z"/>
	<path class="st4" d="M158.3,216.9h2.9c1.6,0,2.7,0.1,3.2,0.2c0.9,0.2,1.5,0.6,2.1,1.3c0.5,0.6,0.8,1.4,0.8,2.4
		c0,0.8-0.2,1.5-0.6,2.1c-0.4,0.6-0.9,1-1.6,1.3c-0.7,0.3-1.6,0.5-2.8,0.5l5.2,6.7h-1.8l-5.2-6.7h-0.8v6.7h-1.4V216.9z M159.8,218.3
		v4.9l2.5,0c1,0,1.7-0.1,2.1-0.3c0.5-0.2,0.8-0.5,1.1-0.9s0.4-0.8,0.4-1.3c0-0.5-0.1-0.9-0.4-1.3s-0.6-0.7-1-0.8s-1.1-0.3-2.1-0.3
		H159.8z"/>
	<path class="st4" d="M175,216.9h8.2v1.4h-6.8v4.5h6.7v1.4h-6.7v5.6h6.7v1.4H175V216.9z M179.9,212.8h2.1l-2.9,3h-1.3L179.9,212.8z"
		/>
	<path class="st4" d="M196.3,216.9l6.7,14.4h-1.6l-2.3-4.7H193l-2.2,4.7h-1.6l6.8-14.4H196.3z M196.1,220l-2.5,5.2h4.9L196.1,220z"
		/>
	<path class="st4" d="M209.8,216.9h1.4v13h5.5v1.4h-7V216.9z"/>
</g>
</svg>
