<?xml version="1.0" encoding="utf-8"?>
<!-- Generator: Adobe Illustrator 19.2.1, SVG Export Plug-In . SVG Version: 6.00 Build 0)  -->
<svg version="1.1" id="global" xmlns="http://www.w3.org/2000/svg" xmlns:xlink="http://www.w3.org/1999/xlink" x="0px" y="0px"
	 viewBox="0 0 2296 1056" style="enable-background:new 0 0 2296 1056;" xml:space="preserve">
<style type="text/css">
	.st0{fill:none;}
	.st1{fill:url(#SVGID_1_);}
	.st2{fill:#ED1C24;}
	.st3{fill:#DEDCDD;}
	.st4{fill:#FCFAFB;}
	.st5{fill:url(#SVGID_2_);}
	.st6{fill:url(#SVGID_3_);}
	.st7{fill:url(#SVGID_4_);}
	.st8{fill:#AD0019;}
	.st9{fill:#FFFFFF;}
	.st10{fill:url(#SVGID_5_);}
	.st11{fill:#4BACE3;}
	.st12{fill:#359AD4;}
	.st13{fill:url(#SVGID_6_);}
	.st14{fill:#EDE6E6;}
	.st15{fill:url(#SVGID_7_);}
	.st16{opacity:0.64;fill:#FFFFFF;}
	.st17{opacity:0.72;}
	.st18{fill:#68A9CC;}
</style>
<g>
	<g>
		<polygon class="st0" points="476.3,328.1 240.4,359 483,322.5 		"/>
		
			<linearGradient id="SVGID_1_" gradientUnits="userSpaceOnUse" x1="1115.2299" y1="149.675" x2="1115.2299" y2="785.5244" gradientTransform="matrix(-1 0 0 1 2270.1274 0)">
			<stop  offset="2.754150e-002" style="stop-color:#EBEBEB"/>
			<stop  offset="5.415367e-002" style="stop-color:#EDEDED"/>
			<stop  offset="0.2851" style="stop-color:#FAFAFA"/>
			<stop  offset="0.489" style="stop-color:#FFFFFF"/>
			<stop  offset="0.6246" style="stop-color:#FFFFFF"/>
			<stop  offset="0.6447" style="stop-color:#FFFFFF"/>
			<stop  offset="0.8208" style="stop-color:#FCFCFC"/>
			<stop  offset="0.9354" style="stop-color:#F4F4F4"/>
			<stop  offset="1" style="stop-color:#EBEBEB"/>
		</linearGradient>
		<path class="st1" d="M579.8,378.8c14,25.1,40.5,40.2,69.2,40.2H1878c2.7,0,5.5,0.4,8.3,0.6l-6.1,0.1l0,0.2c0,0,0,0,0,0
			c0,0,0,0,0,0l0-0.2c0,54.9,44.6,99.2,99.5,99.2h87.3l-0.2,0.1c8.1,6.7,16.3,13.6,23.3,20.1v0c-27,39.1-39.7,70.7-39.7,103.3
			c0,30.6,10.7,62.2,29.2,101.4c-61.8,40.9-142.9,67.1-201.6,67.1h-842.8L948,615.1L631.2,790.3
			c-153.7-43.5-292.8-152.8-352.4-295.6l241.4-172.3l-43.9,5.7l6.7-5.7L240.4,359l-20.7-82.5l223.9-141.6L579.8,378.8z"/>
		<path class="st2" d="M575.1,651h1035c6.4,0,11.5-5.1,11.5-11.5s-5.1-11.5-11.5-11.5h-1035c-6.4,0-11.5,5.1-11.5,11.5
			S568.8,651,575.1,651z"/>
		<path class="st2" d="M1881.1,651h90c6.4,0,11.5-5.1,11.5-11.5s-5.1-11.5-11.5-11.5h-90c-6.4,0-11.5,5.1-11.5,11.5
			S1874.8,651,1881.1,651z"/>
		<path class="st3" d="M278.8,494.7c-10-24-17.9-49-23.1-74.8L240.4,359l235.9-30.8L278.8,494.7z"/>
		<polygon class="st3" points="520.2,322.4 278.8,494.7 476.3,328.1 		"/>
		<polygon class="st4" points="442.7,133.6 443.5,135.1 219.7,276.5 183.7,133.6 		"/>
		
			<linearGradient id="SVGID_2_" gradientUnits="userSpaceOnUse" x1="389.9146" y1="150.0013" x2="389.9146" y2="544.4014" gradientTransform="matrix(-1 0 0 1 2270.1274 0)">
			<stop  offset="0" style="stop-color:#EBEBEB"/>
			<stop  offset="2.276382e-002" style="stop-color:#EDEDED"/>
			<stop  offset="0.2203" style="stop-color:#FAFAFA"/>
			<stop  offset="0.3947" style="stop-color:#FFFFFF"/>
			<stop  offset="0.6124" style="stop-color:#FFFFFF"/>
			<stop  offset="0.6447" style="stop-color:#FFFFFF"/>
			<stop  offset="0.8208" style="stop-color:#FCFCFC"/>
			<stop  offset="0.9354" style="stop-color:#F4F4F4"/>
			<stop  offset="1" style="stop-color:#EBEBEB"/>
		</linearGradient>
		<path class="st5" d="M1880.2,419.9C1880.2,419.9,1880.2,419.9,1880.2,419.9L1880.2,419.9L1880.2,419.9z"/>
		
			<linearGradient id="SVGID_3_" gradientUnits="userSpaceOnUse" x1="243.0215" y1="634.1124" x2="546.7135" y2="595.7145" gradientTransform="matrix(-1 0 0 1 2270.1274 0)">
			<stop  offset="2.754150e-002" style="stop-color:#EBEBEB"/>
			<stop  offset="5.415367e-002" style="stop-color:#EDEDED"/>
			<stop  offset="0.2851" style="stop-color:#FAFAFA"/>
			<stop  offset="0.489" style="stop-color:#FFFFFF"/>
			<stop  offset="0.6246" style="stop-color:#FFFFFF"/>
			<stop  offset="0.6447" style="stop-color:#FFFFFF"/>
			<stop  offset="0.8208" style="stop-color:#FCFCFC"/>
			<stop  offset="0.9354" style="stop-color:#F4F4F4"/>
			<stop  offset="1" style="stop-color:#EBEBEB"/>
		</linearGradient>
		<path class="st6" d="M2090.4,539.2c9.7,8.5,18.8,16.7,27.1,24.4c43.9,40.7,44,110.3-0.1,150.8c-11.3,10.4-24.1,20.2-37.7,29.2
			c-18.5-39.2-29.1-70.6-29.1-101.2C2050.6,609.9,2062.7,578.3,2090.4,539.2L2090.4,539.2z"/>
		
			<linearGradient id="SVGID_4_" gradientUnits="userSpaceOnUse" x1="179.7092" y1="590.8599" x2="219.5777" y2="590.8599" gradientTransform="matrix(-1 0 0 1 2270.1274 0)">
			<stop  offset="0" style="stop-color:#FFFFFF"/>
			<stop  offset="0.2499" style="stop-color:#FBFBFB"/>
			<stop  offset="0.5234" style="stop-color:#EDEDED"/>
			<stop  offset="0.807" style="stop-color:#D8D8D8"/>
			<stop  offset="1" style="stop-color:#C4C4C4"/>
		</linearGradient>
		<path class="st7" d="M2090.4,539.2c-27.7,39-39.8,70.7-39.9,103.3C2050.5,609.9,2062.7,578.3,2090.4,539.2z"/>
		<g>
			<g>
				<path class="st8" d="M1329.1,815.8c0,0-179.4-8.1-179.4-56.2c0-56.3,179.4-64.5,179.4-64.5V815.8z"/>
				<path class="st8" d="M1328.4,822.3c-0.5,0-45.8-2.1-90.5-10.2c-64-11.5-95-28.7-95-52.6c0-26.9,31.9-47,94.9-59.7
					c44.8-9.1,90.2-11.2,90.7-11.2c1.8-0.1,3.5,0.6,4.8,1.8c1.3,1.2,2,2.9,2,4.7v120.7c0,1.8-0.7,3.5-2,4.7
					c-1.2,1.2-2.8,1.8-4.5,1.8C1328.6,822.3,1328.5,822.3,1328.4,822.3z M1240.1,712.6c-54.4,11-84.3,27.7-84.3,47
					c0,15.7,30.7,30.2,84.2,39.8c33.8,6.1,68.1,8.7,82.1,9.6V702C1308.1,702.9,1273.8,705.8,1240.1,712.6z"/>
			</g>
			<g>
				<ellipse class="st9" cx="1328.6" cy="755.5" rx="24.3" ry="60.4"/>
				<path class="st2" d="M1297.5,755.5c0-33.4,10.7-67.2,31.1-67.2c20.4,0,31.1,33.8,31.1,67.2c0,33.4-10.7,67.2-31.1,67.2
					C1308.1,822.7,1297.5,788.9,1297.5,755.5z M1311.2,755.5c0,32.2,10.5,53.5,17.4,53.5s17.4-21.3,17.4-53.5
					c0-32.2-10.5-53.5-17.4-53.5S1311.2,723.3,1311.2,755.5z"/>
			</g>
		</g>
		<g>
			<g>
				
					<linearGradient id="SVGID_5_" gradientUnits="userSpaceOnUse" x1="1207.1711" y1="828.7764" x2="1074.111" y2="828.7764" gradientTransform="matrix(-1 0 0 1 2270.1274 0)">
					<stop  offset="0" style="stop-color:#840019"/>
					<stop  offset="0.303" style="stop-color:#880019"/>
					<stop  offset="0.6345" style="stop-color:#960019"/>
					<stop  offset="0.9785" style="stop-color:#AB0019"/>
					<stop  offset="1" style="stop-color:#AD0019"/>
				</linearGradient>
				<path class="st10" d="M1257.1,901.7c0,0-216.8-9.8-216.8-68c0-68.1,216.8-77.9,216.8-77.9V901.7z"/>
				<path class="st8" d="M1256.8,909.7c-0.5,0-55.3-2.6-109.4-12.3c-77.4-13.9-115-34.7-115-63.7c0-32.6,38.6-56.9,114.8-72.3
					c54.2-11,109.1-13.6,109.6-13.6c2.2-0.1,4.3,0.7,5.9,2.2c1.6,1.5,2.5,3.6,2.5,5.8v145.9c0,2.2-0.9,4.3-2.5,5.8
					c-1.5,1.4-3.5,2.2-5.5,2.2C1257,909.7,1256.9,909.7,1256.8,909.7z M1150.3,777.1c-65.8,13.3-102,33.4-102,56.7
					c0,18.9,37.1,36.3,101.7,47.9c40.7,7.3,81.9,10.5,99.1,11.6V764.3C1232,765.5,1190.9,768.9,1150.3,777.1z"/>
			</g>
			<g>
				<ellipse class="st9" cx="1257.5" cy="828.8" rx="29.3" ry="72.9"/>
				<path class="st2" d="M1229,883.4c-5.9-14.7-9.2-34.2-9.2-54.7c0-20.5,3.3-39.9,9.2-54.7c6.9-17.1,17-26.6,28.4-26.6
					c11.4,0,21.5,9.4,28.4,26.6c5.9,14.7,9.2,34.2,9.2,54.7c0,20.5-3.3,39.9-9.2,54.7c-6.9,17.1-17,26.6-28.4,26.6
					C1246,910,1235.9,900.6,1229,883.4z M1244.4,780.3c-5.2,12.8-8,30-8,48.5c0,18.5,2.8,35.7,8,48.5c4.5,11.2,9.8,16.2,13.1,16.2
					c3.3,0,8.6-5,13.1-16.2c5.2-12.8,8-30,8-48.5c0-18.5-2.8-35.7-8-48.5c-4.5-11.2-9.8-16.2-13.1-16.2
					C1254.2,764.1,1248.9,769.1,1244.4,780.3z"/>
			</g>
		</g>
		<circle class="st11" cx="1643" cy="519.3" r="19.9"/>
		<circle class="st11" cx="1741.7" cy="519.3" r="19.9"/>
		<circle class="st11" cx="1546.2" cy="519.3" r="19.9"/>
		<circle class="st11" cx="1449.3" cy="519.3" r="19.9"/>
		<circle class="st11" cx="1352.4" cy="519.3" r="19.9"/>
		<circle class="st11" cx="1255.6" cy="519.3" r="19.9"/>
		<circle class="st11" cx="1158.7" cy="519.3" r="19.9"/>
		<circle class="st11" cx="1061.8" cy="519.3" r="19.9"/>
		<circle class="st11" cx="965" cy="519.3" r="19.9"/>
		<circle class="st11" cx="868.1" cy="519.3" r="19.9"/>
		<circle class="st11" cx="771.2" cy="519.3" r="19.9"/>
		<circle class="st11" cx="674.4" cy="519.3" r="19.9"/>
		<circle class="st11" cx="577.5" cy="519.3" r="19.9"/>
		<g>
			<path class="st12" d="M1886.3,419.8c23.4,2,49.9,12.2,77,26.9l-50.6,67.6c-19.2-8.7-32.6-28-32.6-50.5v-44.1L1886.3,419.8z"/>
			<path class="st11" d="M2066.9,519.1L2066.9,519.1l-131.3-0.1c-8.2,0-15.9-1.6-22.9-4.8l50.6-67.6
				C1998.5,465.7,2034.8,492.5,2066.9,519.1z"/>
		</g>
		<g>
			<path class="st3" d="M1035.2,810.8H771c-45,0-92.5-7.2-139.8-20.6L948,615L1035.2,810.8z"/>
			
				<linearGradient id="SVGID_6_" gradientUnits="userSpaceOnUse" x1="1074.0952" y1="749.4576" x2="1325.427" y2="749.4576" gradientTransform="matrix(-1 0 0 1 2270.1274 0)">
				<stop  offset="0" style="stop-color:#FFFFFF"/>
				<stop  offset="0.4411" style="stop-color:#FBFBFB"/>
				<stop  offset="0.9232" style="stop-color:#EDEDED"/>
				<stop  offset="1" style="stop-color:#EBEBEB"/>
			</linearGradient>
			<path class="st13" d="M1378.1,626.7c0,0-306.4-67.5-430-11.7c-42.7,63.3-201.8,291-201.8,291h309.4L1378.1,626.7z"/>
			<path class="st14" d="M1027.7,897c2.3,0,4.5-0.8,6.4-2.4l293.4-260.3c2.1-1.9,3.3-4.6,3.2-7.4c-0.1-2.8-1.4-5.5-3.6-7.2
				c-46.1-37.1-142.6-41.7-196.1-41.2c-75.4,0.7-150.5,12.6-178.7,28.2c-4.6,2.6-6.3,8.4-3.8,13c2.6,4.6,8.4,6.3,13,3.8
				c25.3-14,98.2-25.1,169.6-25.8c78.5-0.8,140.8,10.2,174.4,30.4l-284.3,252.3c-4,3.5-4.3,9.6-0.8,13.6
				C1022.4,895.9,1025.1,897,1027.7,897z"/>
			<path class="st2" d="M771.1,933h255c14.4,0,26-11.6,26-26s-11.6-26-26-26h-255c-14.4,0-26,11.6-26,26S756.8,933,771.1,933z"/>
		</g>
		
			<linearGradient id="SVGID_7_" gradientUnits="userSpaceOnUse" x1="1861.8373" y1="366.7148" x2="2016.3616" y2="366.7148" gradientTransform="matrix(-1 0 0 1 2270.1274 0)">
			<stop  offset="0" style="stop-color:#FFFFFF"/>
			<stop  offset="0.4411" style="stop-color:#FBFBFB"/>
			<stop  offset="0.9232" style="stop-color:#EDEDED"/>
			<stop  offset="1" style="stop-color:#EBEBEB"/>
		</linearGradient>
		<polygon class="st15" points="520.2,322.8 239.6,315.4 131.8,418 333.7,418 		"/>
		<path class="st14" d="M315.4,412.2c1.1,0,2.2-0.2,3.3-0.8l167.6-82.3c2.3-1.1,3.8-3.3,4.1-5.8c0.3-2.5-0.7-5-2.7-6.6
			c-30.4-24.4-93.6-27.5-128.7-27.1c-49.4,0.5-98.6,8.3-117.2,18.5c-3.6,2-4.9,6.5-2.9,10.1c2,3.6,6.5,4.9,10.1,2.9
			c13.9-7.7,57.2-16.1,110.1-16.7c47.7-0.5,86.3,5.7,108.8,17.2l-155.8,76.5c-3.7,1.8-5.2,6.3-3.4,9.9
			C310.1,410.7,312.7,412.2,315.4,412.2z"/>
		<path class="st2" d="M131.1,430h182c6.4,0,11.5-5.1,11.5-11.5s-5.1-11.5-11.5-11.5h-182c-6.4,0-11.5,5.1-11.5,11.5
			S124.8,430,131.1,430z"/>
		<path class="st2" d="M194.1,149h246c8,0,14.5-6.5,14.5-14.5s-6.5-14.5-14.5-14.5h-246c-8,0-14.5,6.5-14.5,14.5
			S186.1,149,194.1,149z"/>
	</g>
	<path class="st16" d="M138.1,586h238c5.2,0,9.5-4.3,9.5-9.5s-4.3-9.5-9.5-9.5h-238c-5.2,0-9.5,4.3-9.5,9.5S132.9,586,138.1,586z"/>
	<g class="st17">
		<g>
			<path class="st18" d="M1837.5,649.9l-2.2,11.1h-9.5l9.4-40c0.4-1.5,1.7-2.5,3.3-2.5h8.6c1.5,0,2.8,0.9,3.2,2.5l9.4,40h-9.6
				l-2.2-11.1H1837.5z M1838.9,642.7h7.6l-2.5-13c-0.2-1.3-0.5-2.7-0.6-4h-1.4c-0.1,1.3-0.4,2.7-0.7,4L1838.9,642.7z"/>
			<path class="st18" d="M1811,661.1v-42.5h9.4v42.5H1811z"/>
			<path class="st18" d="M1773.3,661.1l2.8-13.2c0.9-4.4,3.5-5.9,5.4-6.4v-0.3c-5.2-0.7-6.8-4.6-6.8-10.5c0-9.7,4.1-12.6,13.7-12.6
				c6.5,0,9.6,0.1,14,0.6v42.5h-9.2v-16.6h-4.2c-1.9,0-2.8,0.9-3.3,3.6l-2.4,13H1773.3z M1793,637.3v-12h-4.6c-3.5,0-4.5,1.2-4.5,6
				c0,4.7,1,6,4.5,6H1793z"/>
			<path class="st18" d="M1737.9,633.1c3.1,0,5.2,0.6,7.1,2.5c-0.2-9-1.4-10.6-6-10.6c-4.1,0-5.7,0-8.5,0.1l-0.4-6.2
				c3.6-1.1,7.1-1.1,8.9-1.1c10,0,15,3,15,22.4c0,17-3.1,21.5-13.4,21.5c-10.6,0-12.9-5.4-12.9-15.3
				C1727.8,636.9,1730.1,633.1,1737.9,633.1z M1740.6,654.6c4.1,0,4.5-2.3,4.5-13c-1.7-1.3-2.8-1.7-4.4-1.7c-3.3,0-4.1,1.6-4.1,6.8
				C1736.6,652.2,1736.8,654.6,1740.6,654.6z"/>
			<path class="st18" d="M1708.9,617.9c3.8,0,7.3,0.2,12.4,1.5l-0.4,7.1c-4.7-0.5-7.3-0.6-10.8-0.6c-2.6,0-3.8,0.3-3.8,2.8
				c0,3,2.3,7,6.2,12.1l7.8,11.2c0.9,1.1,1.3,2.3,1.3,3.8v5.2h-25.7v-8.4h9.9c1.7,0,3.2,0.1,4.8,0.4l-8.4-11.3
				c-4.6-6-5.4-9.1-5.4-14C1696.8,619.7,1701.6,617.9,1708.9,617.9z"/>
			<path class="st18" d="M1690.3,618.6l-0.4,7.7h-15c0.8,1.3,1.3,2.6,1.7,4l8.3,30.8h-9.1l-10.5-37.5c-0.9-2.8,0.8-5,3.5-5H1690.3z"
				/>
			<path class="st18" d="M1648,617.8c3.8,0,7.6,0.4,11.6,1.1l-0.4,6.8c-2.5-0.1-6-0.2-9.5-0.2c-3.5,0-4.5,0.6-4.5,4.7
				c-0.1,3.3,0.3,5.7,4.1,5.7h6.5v6.4h-6.5c-3.7-0.1-4.5,1.9-4.5,5.8c0,4.9,1.3,6.2,5.7,6.2c3,0,5.2-0.1,9.5-0.4l0.3,7
				c-3.9,0.6-8.2,1.1-12.4,1.1c-9.1,0-12.4-3.8-12.4-12.6c0.1-6.2,1.5-9.7,6.4-10.6v-0.2c-4.4-0.9-5.5-4.9-5.5-10.7
				C1636.3,620.2,1639.5,617.8,1648,617.8z"/>
		</g>
	</g>
</g>
</svg>
