<?xml version="1.0" encoding="utf-8"?>
<!-- Generator: Adobe Illustrator 19.2.1, SVG Export Plug-In . SVG Version: 6.00 Build 0)  -->
<svg version="1.1" id="Ñëîé_1" xmlns="http://www.w3.org/2000/svg" xmlns:xlink="http://www.w3.org/1999/xlink" x="0px" y="0px"
	 viewBox="0 0 409.3 141" style="enable-background:new 0 0 409.3 141;" xml:space="preserve">
<style type="text/css">
	.st0{fill:#D4D4D4;}
	.st1{fill:#E6E6E6;}
	.st2{fill:#F7F7F7;}
</style>
<polygon class="st0" points="341.9,4.5 0.7,40.1 0,44.7 81.6,141 408.6,46.1 409.3,41.6 "/>
<polygon class="st1" points="342.6,0 0.7,40.1 82.2,136.5 409.3,41.6 "/>
<path class="st0" d="M26,52.3l0.4-2.7l17.8,0.1l9.4,6.9l-0.4,2.6l-18.3,2.9L26,52.3L26,52.3z M50.8,48.8l9,9.4L77,55.5l0.4-2.5
	L68,46.4l-16.7-0.2L50.8,48.8L50.8,48.8z M74.2,45.5l0.4-2.5l15.7,0.2l9.5,6.4L99.4,52l-16.1,2.5L74.2,45.5L74.2,45.5z M96,42.5
	l9.1,8.7l15.1-2.3l0.4-2.3l-9.5-6.1L96.4,40L96,42.5L96,42.5z M116.6,39.6l0.4-2.3l13.8,0.3l9.5,5.9l-0.4,2.2l-14.2,2.2L116.6,39.6
	L116.6,39.6z M135.9,36.8l9.2,8.1l13.3-2.1l0.3-2.2l-9.5-5.7l-13-0.4L135.9,36.8L135.9,36.8z M154.1,34.3l0.3-2.2l12.3,0.4l9.5,5.5
	l-0.3,2.1l-12.6,2L154.1,34.3L154.1,34.3z M171.4,31.9l9.1,7.5l11.9-1.8l0.3-2.1l-9.4-5.3l-11.6-0.5L171.4,31.9L171.4,31.9z
	 M187.1,29.7l0.3-2.1l11,0.5l9.4,5.2l-0.3,2L196.2,37L187.1,29.7L187.1,29.7z M202.6,27.5l9.1,7.1l10.7-1.7l0.3-1.9l-9.3-5L203,25.5
	L202.6,27.5L202.6,27.5z M217.2,25.4l0.3-2l9.9,0.5l9.3,4.9l-0.3,1.9l-10.1,1.6L217.2,25.4L217.2,25.4z M231.2,23.5l8.9,6.7l9.6-1.5
	l0.3-1.8l-9.2-4.7l-9.4-0.6L231.2,23.5L231.2,23.5z M244.4,21.6l0.3-1.9l9,0.6l9.1,4.6l-0.3,1.8l-9.2,1.4L244.4,21.6L244.4,21.6z
	 M257.1,19.8l8.8,6.3l8.7-1.3l0.3-1.7l-9-4.5l-8.5-0.6L257.1,19.8L257.1,19.8z M269.1,18.2l0.3-1.8l8.1,0.6l8.9,4.3l-0.3,1.7
	l-8.3,1.3L269.1,18.2L269.1,18.2z M282.8,16.2l8.6,6l7.9-1.2l0.3-1.7l-8.8-4.2l-7.7-0.6L282.8,16.2L282.8,16.2z M293.7,14.7L294,13
	l7.3,0.6l8.7,4.1l-0.3,1.6l-7.5,1.2L293.7,14.7L293.7,14.7z M304.1,13.2l8.5,5.7l7.2-1.1l0.2-1.6l-8.7-4l-7-0.6L304.1,13.2
	L304.1,13.2z M316,11.6l0.3-1.6l6.7,0.6l8.5,3.9l-0.2,1.5l-6.8,1.1L316,11.6L316,11.6z M325.5,10.3l8.3,5.4l6.5-1l0.2-1.5L332,9.4
	l-6.4-0.6L325.5,10.3L325.5,10.3z M334.5,9l0.2-1.5l6.2,0.6l8.4,3.7l-0.2,1.5l-6.3,1L334.5,9L334.5,9z M343.3,7.8l8.1,5.2l6.1-0.9
	l0.2-1.4l-8.3-3.6l-5.9-0.6L343.3,7.8L343.3,7.8z M68.3,60.5l-30,2.3l-0.4,2.6l9.3,10.2l30.6-5.4l0.4-2.5L68.3,60.5L68.3,60.5z
	 M74.7,59.4l0.4-2.5l16.2-0.2l9.9,7l-0.4,2.4L84.1,69L74.7,59.4L74.7,59.4z M97.4,55.8l9.5,9.2l15.6-2.8l0.4-2.3l-9.9-6.7L97.4,55.8
	L97.4,55.8z M118.7,52.4l0.4-2.3h14.3l9.9,6.4l-0.3,2.2l-14.6,2.6L118.7,52.4L118.7,52.4z M138.6,49.2l9.5,8.6l13.8-2.4l0.3-2.2
	l-9.9-6.2h-13.4L138.6,49.2L138.6,49.2z M157.5,46.1l0.3-2.2l12.6,0.1l9.8,6l-0.3,2.1L167,54.4L157.5,46.1L157.5,46.1z M175.1,43.3
	l9.5,8l12.2-2.2l0.3-2l-9.8-5.8l-11.9-0.2L175.1,43.3L175.1,43.3z M191.3,40.7l0.3-2.1l11.2,0.2l9.7,5.6l-0.3,2l-11.6,2L191.3,40.7
	L191.3,40.7z M207.1,38.2l9.4,7.5l10.9-1.9l0.3-1.9l-9.6-5.4l-10.6-0.2L207.1,38.2L207.1,38.2z M222.1,35.8l0.3-1.9l10.1,0.3
	l9.6,5.2l-0.3,1.9L231.4,43L222.1,35.8L222.1,35.8z M236.3,33.5l9.2,7l9.8-1.7l0.3-1.8l-9.5-5.1l-9.6-0.3L236.3,33.5L236.3,33.5z
	 M249.8,31.3l0.3-1.8l9.1,0.3l9.4,4.9l-0.3,1.8l-9.3,1.6L249.8,31.3L249.8,31.3z M262.6,29.3l9.1,6.6l8.9-1.6l0.3-1.7l-9.3-4.8
	l-8.6-0.4L262.6,29.3L262.6,29.3z M274.8,27.3l12.1,8.6l-5.7-0.6l-0.3,1.7l9.3,6.8l19.9-4l0.3-1.6l-10.9-5.9L289,25l-13.9,0.5
	L274.8,27.3L274.8,27.3z M294.3,24.2l0.3-1.7l7.6,0.4l9.1,4.4L311,29l-7.8,1.4L294.3,24.2L294.3,24.2z M305.1,22.5l8.8,6l7.5-1.3
	l0.2-1.6l-9-4.3l-7.3-0.4L305.1,22.5L305.1,22.5z M315.4,20.8l0.3-1.6l6.9,0.4l8.9,4.2l-0.2,1.5l-7.1,1.3L315.4,20.8L315.4,20.8z
	 M327.2,19l8.6,5.7l6.8-1.2l0.2-1.5l-8.8-4.1l-6.6-0.5L327.2,19L327.2,19z M336.5,17.5l0.2-1.5l6.3,0.5l8.7,4l-0.2,1.5l-6.5,1.1
	L336.5,17.5L336.5,17.5z M345.5,16l8.5,5.4l6.2-1.1l0.2-1.4l-8.6-3.9l-6.1-0.5L345.5,16L345.5,16z M354.1,14.6l0.2-1.4l5.8,0.5
	l8.5,3.8l-0.2,1.4l-6,1L354.1,14.6L354.1,14.6z M50.3,79.1l0.4-2.6l41.9-5.2l10.2,7.6l-0.4,2.4L60,89.8L50.3,79.1L50.3,79.1z
	 M99,70.2l9.8,9.8l16.2-3.2l0.4-2.3l-10.2-7.3l-15.7,0.6L99,70.2L99,70.2z M120.9,66.2l0.4-2.3l14.8-0.5l10.2,7l-0.3,2.2l-15.1,3
	L120.9,66.2L120.9,66.2z M141.5,62.4l9.9,9.1l14.2-2.8l0.3-2.1l-10.2-6.7l-13.8,0.4L141.5,62.4L141.5,62.4z M160.9,58.9l0.3-2.2
	l13-0.3l10.1,6.5L184,65l-13.3,2.7L160.9,58.9L160.9,58.9z M179.1,55.6l9.8,8.4l12.5-2.5l0.3-2l-10.1-6.2l-12.2,0.2L179.1,55.6
	L179.1,55.6z M196.2,52.4l0.3-2l11.5-0.1l10,6l-0.3,1.9L206,60.6L196.2,52.4L196.2,52.4z M211.8,49.6l9.7,7.9l11.2-2.2l0.3-1.9
	l-10-5.8l-10.9,0.1L211.8,49.6L211.8,49.6z M227.2,46.8l0.3-1.9h10.3l9.9,5.6l-0.3,1.8l-10.6,2.1L227.2,46.8L227.2,46.8z
	 M241.7,44.2l9.6,7.4l10-2l0.3-1.8l-9.8-5.4H242L241.7,44.2L241.7,44.2z M255.4,41.6l0.3-1.8l9.3,0.1l9.7,5.3l-0.3,1.7l-9.5,1.9
	L255.4,41.6L255.4,41.6z M268.5,39.3l0.3-1.8l8.8,0.1l9.6,5.1l-0.3,1.7l-9,1.8L268.5,39.3L268.5,39.3z M338.6,26.5l0.2-1.5l6.5,0.3
	l9,4.3l-0.2,1.4l-6.7,1.3L338.6,26.5L338.6,26.5z M347.9,24.9l8.8,5.7l6.4-1.3l0.2-1.4l-8.9-4.2l-6.3-0.3L347.9,24.9L347.9,24.9z
	 M356.7,23.3l0.2-1.4l6,0.3l8.8,4.1l-0.2,1.4l-6.1,1.2L356.7,23.3L356.7,23.3z M365.2,21.7l8.6,5.4l5.9-1.2l0.2-1.3l-8.7-4l-5.8-0.3
	L365.2,21.7L365.2,21.7z M18.3,43.9l4.8,5.3l18.2-2.5l0.4-2.6l-5.2-2.5l-17.7-0.4L18.3,43.9L18.3,43.9z M43,40.7l0.4-2.6L60,38.5
	l5.3,2.4L65,43.5l-17.1,2.3L43,40.7L43,40.7z M66.4,37.8l4.9,4.9l16-2.2l0.4-2.5l-5.3-2.3l-15.6-0.5L66.4,37.8L66.4,37.8z M88.1,35
	l0.4-2.5l14.6,0.5l5.3,2.2l-0.4,2.4l-15.1,2L88.1,35L88.1,35z M108.7,32.3l5,4.5l14.2-1.9l0.4-2.3l-5.3-2.1L109,30L108.7,32.3
	L108.7,32.3z M128,29.9l0.4-2.3l13,0.6l5.3,2l-0.3,2.2L133,34.2L128,29.9L128,29.9z M146.2,27.5l5,4.2l12.6-1.7l0.3-2.2l-5.3-2
	l-12.3-0.6L146.2,27.5L146.2,27.5z M163.5,25.3l0.3-2.2l11.6,0.6l5.3,1.9l-0.3,2.1l-11.9,1.6L163.5,25.3L163.5,25.3z M179.2,23.3
	l4.9,4l11.3-1.5l0.3-2l-5.3-1.8l-11-0.7L179.2,23.3L179.2,23.3z M194.8,21.3l0.3-2.1l10.4,0.7l5.2,1.8l-0.3,2l-10.8,1.5L194.8,21.3
	L194.8,21.3z M209.4,19.5l4.9,3.7l10.2-1.4l0.3-1.9l-5.2-1.7l-9.9-0.7L209.4,19.5L209.4,19.5z M223.4,17.7l0.3-1.9l9.4,0.7l5.1,1.7
	L238,20l-9.7,1.3L223.4,17.7L223.4,17.7z M236.7,16l4.8,3.5l9.3-1.2l0.3-1.8l-5.1-1.6l-9-0.7L236.7,16L236.7,16z M249.4,14.3
	l0.3-1.8l8.6,0.7l5,1.6l-0.3,1.8l-8.8,1.2L249.4,14.3L249.4,14.3z M261.5,12.8l4.8,3.3l8.4-1.1l0.3-1.7l-5-1.5l-8.1-0.7L261.5,12.8
	L261.5,12.8z M275.3,11l0.3-1.7l7.7,0.7l4.9,1.5l-0.3,1.7l-8,1.1L275.3,11L275.3,11z M286.2,9.6l4.7,3.2l7.6-1l0.3-1.7l-4.9-1.5
	l-7.4-0.7L286.2,9.6L286.2,9.6z M296.7,8.3l0.3-1.7l7.1,0.7l4.8,1.4l-0.3,1.6l-7.3,1L296.7,8.3L296.7,8.3z M63.3,93.4l0.4-2.5
	l53.5-8.6l10.7,7.9l-0.4,2.3l-54,12.2L63.3,93.4L63.3,93.4z M123.3,81l0.4-2.3l15.3-0.9l10.6,7.6l-0.3,2.2l-15.6,3.5L123.3,81
	L123.3,81z M144.6,76.6l10.3,9.7l14.6-3.3l0.3-2.1l-10.6-7.3L145,74.4L144.6,76.6L144.6,76.6z M164.5,72.5l0.3-2.1l13.4-0.7l10.5,7
	l-0.3,2l-13.7,3.1L164.5,72.5L164.5,72.5z M183.3,68.7l10.2,9l12.9-2.9l0.3-2L196.2,66l-12.6,0.6L183.3,68.7L183.3,68.7z
	 M200.8,65.1l0.3-2l11.8-0.5l10.4,6.5L223,71l-12,2.7L200.8,65.1L200.8,65.1z M216.9,61.8l10.1,8.4l11.4-2.6l0.3-1.9l-10.3-6.3
	l-11.2,0.4L216.9,61.8L216.9,61.8z M232.6,58.5l0.3-1.9l10.5-0.3l10.2,6.1l-0.3,1.8l-10.8,2.4L232.6,58.5L232.6,58.5z M247.3,55.5
	l9.9,7.8l10.2-2.3l0.3-1.8l-10.1-5.9l-10,0.3L247.3,55.5L247.3,55.5z M261.4,52.6l0.3-1.8l9.5-0.2l10,5.7l-0.3,1.7l-9.7,2.2
	L261.4,52.6L261.4,52.6z M274.7,49.9l9.8,7.3l9.2-2.1l0.3-1.7l-9.9-5.5l-9,0.2L274.7,49.9L274.7,49.9z M287.3,47.3l0.3-1.7l25.6-3.6
	l9.7,5.1l-0.2,1.5L297,54.4L287.3,47.3L287.3,47.3z M77,108.4l10.7,11.8l30-7.6l0.4-2.3l-11.1-8.8L77.3,106L77,108.4L77,108.4z
	 M176.9,85.3l0.3-2.1l51.1-9.8l43.3-10l10.4,6.2l-0.3,1.7l-43.1,10.8l-51,12.9L176.9,85.3L176.9,85.3z M350.5,34.4l9.1,6l6.6-1.5
	l0.2-1.4l-9.2-4.5l-6.4-0.1L350.5,34.4L350.5,34.4z M359.6,32.5l0.2-1.4l6.2,0.1l9.1,4.4l-0.2,1.4l-6.3,1.4L359.6,32.5L359.6,32.5z
	 M368.3,30.7l8.9,5.7l6-1.4l0.2-1.3l-9-4.3l-5.9-0.1L368.3,30.7L368.3,30.7z M376.7,29l0.2-1.4l5.7,0.2l8.9,4.2l-0.2,1.3l-5.8,1.3
	L376.7,29L376.7,29z M362.6,42.4l0.2-1.4l6.3-0.1l9.5,4.7l-0.2,1.3l-6.5,1.6L362.6,42.4L362.6,42.4z M371.5,40.3l9.2,6l6.2-1.6
	l0.2-1.3l-9.4-4.6l-6.1,0.1L371.5,40.3L371.5,40.3z M380.1,38.3l0.2-1.3l5.8-0.1l9.2,4.5l-0.2,1.3l-5.9,1.5L380.1,38.3L380.1,38.3z
	 M388.4,36.4l9,5.7l5.7-1.4l0.2-1.2l-9.1-4.4h-5.6L388.4,36.4L388.4,36.4z M328.9,38.8l0.2-1.5h7.1l9.5,4.8l-0.2,1.5l-7.3,1.6
	L328.9,38.8L328.9,38.8z M330.9,49.7l0.2-1.5l7.4-0.2l9.8,5.2l-0.2,1.4l-7.5,1.9L330.9,49.7L330.9,49.7z M341.3,47.3l9.6,6.6
	l7.2-1.8l0.2-1.4l-9.7-5l-7,0.2L341.3,47.3L341.3,47.3z M351.3,45l9.5,6.4l6.8-1.7l0.2-1.4l-9.6-4.9l-6.7,0.2L351.3,45L351.3,45z
	 M114.2,99.8l10.7,11L152,104l0.3-2.2l-11.1-8.3l-26.7,4L114.2,99.8L114.2,99.8z M147.1,92.2l10.7,10.3l24.4-6.2l0.3-2.1l-11-7.8
	l-24,3.6L147.1,92.2L147.1,92.2z M275.4,62.5l10.2,7.8l15.5-3.9l0.3-1.6L291,58.9l-15.3,1.9L275.4,62.5L275.4,62.5z M294.8,58
	l10,7.4l14.3-3.6l0.2-1.6l-10.1-5.6L295,56.3L294.8,58L294.8,58z M312.4,54l9.9,7.1l13.2-3.3l0.2-1.5l-10-5.4l-13.1,1.5L312.4,54z"
	/>
<path class="st2" d="M26.4,49.6c6-0.8,12.1-1.7,18.2-2.5c2.9,3.2,5.9,6.3,9,9.5c-6.1,0.9-12.2,1.9-18.3,2.8
	C32.3,56.1,29.3,52.9,26.4,49.6L26.4,49.6z M51.2,46.2c3,3.1,6,6.3,9,9.4c5.8-0.9,11.6-1.8,17.2-2.6c-3-3.1-6-6.1-9-9.1
	C62.7,44.6,57,45.4,51.2,46.2L51.2,46.2z M74.6,43c5.4-0.7,10.7-1.5,16.1-2.2c3,2.9,6,5.8,9.1,8.8c-5.4,0.8-10.7,1.6-16.1,2.4
	C80.6,49,77.6,46,74.6,43L74.6,43z M96.4,40c3,2.9,6.1,5.8,9.1,8.7c5.1-0.8,10.2-1.5,15.1-2.3c-3.1-2.9-6.1-5.7-9.1-8.5
	C106.5,38.6,101.4,39.3,96.4,40L96.4,40z M117,37.2c4.8-0.7,9.5-1.3,14.2-1.9c3,2.7,6.1,5.4,9.1,8.2c-4.7,0.7-9.4,1.4-14.2,2.2
	C123,42.8,120,40,117,37.2L117,37.2z M136.3,34.6c3,2.7,6.1,5.4,9.2,8.1c4.5-0.7,9-1.4,13.3-2c-3.1-2.7-6.1-5.3-9.1-7.9
	C145.3,33.3,140.7,34,136.3,34.6L136.3,34.6z M154.5,32.1c4.3-0.6,8.4-1.2,12.6-1.7c3,2.5,6,5.1,9.1,7.7c-4.2,0.6-8.3,1.3-12.6,1.9
	C160.6,37.3,157.5,34.7,154.5,32.1L154.5,32.1z M171.7,29.7c3,2.5,6.1,5,9.1,7.6c4-0.6,8-1.2,11.9-1.8c-3-2.5-6.1-5-9.1-7.4
	C179.7,28.6,175.7,29.2,171.7,29.7L171.7,29.7z M187.4,27.6c3.8-0.5,7.6-1,11.3-1.6c3,2.4,6,4.8,9.1,7.2c-3.7,0.6-7.4,1.1-11.3,1.7
	C193.5,32.5,190.5,30,187.4,27.6L187.4,27.6z M202.9,25.5c3,2.4,6,4.7,9,7.1c3.5-0.5,7.1-1.1,10.7-1.6c-3-2.3-6-4.7-9-7
	C210.1,24.5,206.5,25,202.9,25.5L202.9,25.5z M217.6,23.5c3.4-0.5,6.9-0.9,10.2-1.4c3,2.2,5.9,4.5,9,6.8c-3.3,0.5-6.7,1-10.1,1.5
	C223.6,28.1,220.5,25.8,217.6,23.5L217.6,23.5z M231.5,21.6c3,2.2,5.9,4.5,8.9,6.7c3.2-0.5,6.4-1,9.6-1.5c-3-2.2-5.9-4.4-8.9-6.6
	C238,20.7,234.7,21.1,231.5,21.6L231.5,21.6z M244.7,19.7c3.1-0.4,6.2-0.8,9.2-1.3c2.9,2.1,5.8,4.3,8.8,6.4c-3,0.5-6.1,0.9-9.2,1.4
	C250.6,24.1,247.7,21.9,244.7,19.7L244.7,19.7z M257.4,18c2.9,2.1,5.8,4.2,8.8,6.4c2.9-0.4,5.8-0.9,8.7-1.3
	c-2.9-2.1-5.9-4.2-8.7-6.2C263.2,17.2,260.3,17.6,257.4,18L257.4,18z M269.4,16.4c2.8-0.4,5.6-0.8,8.4-1.1c2.9,2,5.8,4,8.7,6.1
	c-2.7,0.4-5.5,0.8-8.3,1.3C275.2,20.5,272.2,18.4,269.4,16.4L269.4,16.4z M283.1,14.5c2.9,2,5.7,4,8.6,6c2.6-0.4,5.3-0.8,7.9-1.2
	c-2.9-2-5.7-3.9-8.6-5.9C288.4,13.8,285.7,14.1,283.1,14.5L283.1,14.5z M293.9,13c2.6-0.3,5.1-0.7,7.6-1c2.8,1.9,5.6,3.8,8.5,5.8
	c-2.5,0.4-5,0.8-7.5,1.1C299.6,16.9,296.8,15,293.9,13L293.9,13z M304.4,11.6c2.8,1.9,5.6,3.8,8.5,5.7c2.4-0.4,4.8-0.7,7.2-1.1
	c-2.8-1.9-5.6-3.8-8.4-5.6C309.2,10.9,306.8,11.3,304.4,11.6L304.4,11.6z M316.3,10c2.3-0.3,4.6-0.6,6.9-0.9
	c2.8,1.8,5.5,3.6,8.3,5.5c-2.3,0.3-4.5,0.7-6.8,1C321.8,13.7,319,11.8,316.3,10L316.3,10z M325.7,8.7c2.7,1.8,5.5,3.6,8.3,5.4
	c2.2-0.3,4.4-0.7,6.5-1c-2.7-1.8-5.5-3.6-8.2-5.3C330.1,8.1,327.9,8.4,325.7,8.7L325.7,8.7z M334.8,7.5c2.2-0.3,4.3-0.6,6.4-0.9
	c2.7,1.7,5.4,3.5,8.1,5.2c-2.1,0.3-4.2,0.6-6.3,1C340.2,11,337.5,9.2,334.8,7.5L334.8,7.5z M343.5,6.3c2.7,1.7,5.4,3.5,8.1,5.2
	c2-0.3,4.1-0.6,6.1-0.9c-2.7-1.7-5.4-3.4-8.1-5.1C347.6,5.7,345.6,6,343.5,6.3L343.5,6.3z M68.7,58c-9.9,1.6-20.1,3.2-30.4,4.8
	c3.1,3.4,6.2,6.8,9.3,10.3c10.4-1.8,20.6-3.6,30.5-5.3C75,64.4,71.8,61.2,68.7,58L68.7,58z M75.1,57c5.6-0.9,11.2-1.8,16.6-2.6
	c3.1,3.1,6.3,6.2,9.5,9.4c-5.5,0.9-11.1,1.9-16.7,2.9C81.4,63.4,78.3,60.1,75.1,57L75.1,57z M97.8,53.4c3.1,3.1,6.3,6.2,9.5,9.3
	c5.3-0.9,10.5-1.8,15.6-2.7c-3.2-3-6.4-6-9.5-9C108.3,51.7,103.1,52.6,97.8,53.4L97.8,53.4z M119.1,50c4.9-0.8,9.8-1.5,14.6-2.3
	c3.1,2.9,6.3,5.8,9.5,8.7c-4.8,0.8-9.8,1.7-14.6,2.5C125.4,56,122.2,53,119.1,50L119.1,50z M139,46.9c3.2,2.8,6.3,5.7,9.5,8.6
	c4.7-0.8,9.2-1.6,13.7-2.4c-3.2-2.8-6.4-5.6-9.5-8.4C148.2,45.5,143.6,46.2,139,46.9L139,46.9z M157.8,44c4.3-0.7,8.6-1.4,13-2
	c3.1,2.7,6.3,5.4,9.5,8.1c-4.3,0.7-8.6,1.5-12.9,2.2C164.1,49.5,160.9,46.7,157.8,44L157.8,44z M175.4,41.2c3.2,2.6,6.3,5.3,9.5,8
	c4.1-0.7,8.2-1.4,12.2-2.1c-3.2-2.6-6.3-5.2-9.4-7.8C183.6,39.9,179.5,40.5,175.4,41.2L175.4,41.2z M191.6,38.7
	c3.9-0.6,7.7-1.2,11.6-1.8c3.1,2.5,6.2,5,9.4,7.6c-3.9,0.7-7.7,1.3-11.6,2C197.9,43.8,194.7,41.2,191.6,38.7L191.6,38.7z
	 M207.4,36.2c3.1,2.5,6.2,5,9.4,7.5c3.7-0.6,7.4-1.3,10.9-1.9c-3.1-2.5-6.3-4.9-9.3-7.4C214.8,35,211.1,35.6,207.4,36.2L207.4,36.2z
	 M222.4,33.8c3.5-0.6,7-1.1,10.4-1.6c3.1,2.4,6.1,4.7,9.3,7.1c-3.4,0.6-6.8,1.2-10.3,1.8C228.5,38.7,225.4,36.2,222.4,33.8
	L222.4,33.8z M236.6,31.6c3.1,2.3,6.1,4.7,9.2,7.1c3.3-0.6,6.6-1.1,9.8-1.7c-3.1-2.3-6.2-4.6-9.2-6.9
	C243.2,30.6,239.9,31.1,236.6,31.6L236.6,31.6z M250.1,29.5c3.2-0.5,6.3-1,9.4-1.5c3,2.2,6.1,4.5,9.1,6.7c-3.1,0.5-6.2,1.1-9.3,1.6
	C256.2,34.1,253.1,31.8,250.1,29.5L250.1,29.5z M262.9,27.5c3,2.2,6.1,4.4,9.1,6.7c3-0.5,5.9-1,8.9-1.5c-3-2.2-6-4.4-9-6.5
	C268.9,26.6,265.9,27,262.9,27.5L262.9,27.5z M275.1,25.6c4,2.9,8,5.7,12,8.7c-2,0.4-3.9,0.7-6,1.1c3.1,2.3,6.2,4.5,9.3,6.8
	c6.8-1.3,13.4-2.6,19.9-3.9c-3.6-2.5-7.1-5-10.7-7.5c-3.5-2.5-7-4.9-10.4-7.3C284.7,24.1,280,24.8,275.1,25.6L275.1,25.6z
	 M294.6,22.5c2.6-0.4,5.3-0.8,7.9-1.2c2.9,2,5.8,4,8.8,6.1c-2.6,0.4-5.2,0.9-7.8,1.3C300.5,26.7,297.6,24.6,294.6,22.5L294.6,22.5z
	 M305.3,20.9c2.9,2,5.8,4,8.8,6c2.5-0.4,5-0.9,7.5-1.3c-2.9-2-5.8-4-8.7-5.9C310.4,20.1,307.9,20.5,305.3,20.9L305.3,20.9z
	 M315.7,19.2c2.4-0.4,4.8-0.7,7.2-1.1c2.9,1.9,5.7,3.8,8.6,5.8c-2.4,0.4-4.8,0.8-7.1,1.2C321.4,23.2,318.5,21.2,315.7,19.2
	L315.7,19.2z M327.4,17.4c2.8,1.9,5.7,3.8,8.6,5.7c2.3-0.4,4.5-0.8,6.8-1.2c-2.9-1.9-5.7-3.8-8.5-5.6C332,16.7,329.7,17,327.4,17.4
	L327.4,17.4z M336.8,15.9c2.2-0.3,4.4-0.7,6.5-1c2.8,1.8,5.6,3.6,8.5,5.5c-2.2,0.4-4.3,0.7-6.5,1.1
	C342.4,19.7,339.6,17.8,336.8,15.9L336.8,15.9z M345.7,14.5c2.8,1.8,5.6,3.6,8.4,5.5c2.1-0.4,4.2-0.7,6.2-1.1
	c-2.8-1.8-5.6-3.6-8.4-5.4C350,13.9,347.8,14.2,345.7,14.5L345.7,14.5z M354.4,13.2c2-0.3,4-0.6,6.1-0.9c2.7,1.7,5.5,3.5,8.3,5.3
	c-2,0.3-4,0.7-6,1C359.9,16.7,357.1,15,354.4,13.2L354.4,13.2z M50.7,76.5c14.6-2.6,28.7-5.2,42.3-7.6c3.3,3.3,6.5,6.6,9.8,10
	c-13.6,2.7-27.8,5.5-42.4,8.3C57.1,83.6,53.9,80.1,50.7,76.5L50.7,76.5z M99.4,67.8c3.2,3.3,6.5,6.5,9.8,9.9
	c5.4-1.1,10.8-2.1,16.2-3.2c-3.3-3.2-6.6-6.4-9.9-9.6C110.1,65.9,104.8,66.8,99.4,67.8L99.4,67.8z M121.2,63.9
	c5.1-0.9,10.2-1.8,15.1-2.7c3.3,3.1,6.5,6.1,9.9,9.2c-4.9,1-10,2-15.1,3C127.8,70.1,124.5,67,121.2,63.9L121.2,63.9z M141.9,60.2
	c3.3,3,6.5,6.1,9.9,9.1c4.8-0.9,9.5-1.9,14.2-2.8c-3.3-3-6.6-5.9-9.9-8.9C151.4,58.5,146.6,59.3,141.9,60.2L141.9,60.2z M161.2,56.7
	c4.5-0.8,9-1.6,13.3-2.4c3.2,2.8,6.5,5.7,9.8,8.6c-4.3,0.8-8.8,1.7-13.3,2.6C167.8,62.5,164.5,59.6,161.2,56.7L161.2,56.7z
	 M179.4,53.5c3.2,2.8,6.5,5.6,9.8,8.5c4.3-0.8,8.4-1.6,12.5-2.5c-3.3-2.8-6.6-5.5-9.8-8.3C187.8,52,183.6,52.7,179.4,53.5
	L179.4,53.5z M196.5,50.4c3.9-0.7,7.9-1.4,11.8-2.1c3.2,2.6,6.5,5.3,9.7,8c-3.9,0.8-7.9,1.5-11.8,2.3
	C203,55.8,199.7,53.1,196.5,50.4L196.5,50.4z M212.1,47.6c3.2,2.6,6.5,5.3,9.7,7.9c3.8-0.7,7.5-1.5,11.2-2.2
	c-3.3-2.6-6.5-5.2-9.7-7.7C219.7,46.3,215.9,46.9,212.1,47.6L212.1,47.6z M227.5,44.9c3.5-0.6,7.1-1.3,10.6-1.9
	c3.2,2.5,6.4,5,9.6,7.5c-3.5,0.7-7.1,1.4-10.6,2.1C233.9,50,230.7,47.4,227.5,44.9L227.5,44.9z M241.9,42.3c3.2,2.5,6.4,4.9,9.6,7.4
	c3.4-0.7,6.7-1.3,10-2c-3.2-2.4-6.4-4.9-9.5-7.3C248.7,41.1,245.3,41.7,241.9,42.3L241.9,42.3z M255.7,39.8c3.2-0.6,6.4-1.1,9.6-1.7
	c3.1,2.3,6.3,4.7,9.4,7.1c-3.2,0.6-6.3,1.2-9.5,1.9C262,44.6,258.9,42.2,255.7,39.8L255.7,39.8z M268.8,37.5c3-0.5,6.1-1.1,9.1-1.6
	c3.1,2.3,6.2,4.6,9.4,6.9c-2.9,0.6-6,1.2-9,1.8C275,42.2,271.9,39.8,268.8,37.5L268.8,37.5z M338.9,25c2.3-0.4,4.5-0.8,6.8-1.2
	c2.9,1.9,5.8,3.8,8.8,5.8c-2.2,0.4-4.4,0.9-6.7,1.3C344.8,29,341.8,27,338.9,25L338.9,25z M348.1,23.4c2.9,1.9,5.8,3.8,8.8,5.7
	c2.1-0.4,4.2-0.8,6.4-1.2c-2.9-1.9-5.8-3.8-8.7-5.6C352.4,22.6,350.3,23,348.1,23.4L348.1,23.4z M357,21.8c2.1-0.4,4.2-0.7,6.2-1.1
	c2.8,1.8,5.7,3.7,8.5,5.5c-2,0.4-4.1,0.8-6.1,1.2C362.7,25.6,359.8,23.7,357,21.8L357,21.8z M365.5,20.3c2.9,1.8,5.7,3.6,8.6,5.5
	c1.9-0.4,3.9-0.8,5.9-1.1c-2.8-1.8-5.7-3.6-8.5-5.4C369.4,19.6,367.5,20,365.5,20.3L365.5,20.3z M18.8,41.2c1.6,1.8,3.2,3.5,4.8,5.3
	c6.1-0.8,12.1-1.6,18.2-2.4c-1.6-1.7-3.2-3.4-4.8-5.1C30.8,39.7,24.8,40.4,18.8,41.2L18.8,41.2z M43.4,38.1c5.8-0.7,11.5-1.4,17-2.1
	c1.6,1.6,3.2,3.3,4.9,4.9c-5.6,0.7-11.3,1.5-17.1,2.3C46.7,41.5,45,39.8,43.4,38.1L43.4,38.1z M66.8,35.2c1.6,1.6,3.2,3.2,4.9,4.9
	c5.4-0.7,10.7-1.4,16-2.1c-1.6-1.6-3.3-3.2-4.9-4.7C77.4,33.9,72.1,34.6,66.8,35.2L66.8,35.2z M88.5,32.5c5-0.6,10.1-1.3,15-1.9
	c1.6,1.5,3.3,3,5,4.6c-4.9,0.6-10,1.3-15,2C91.7,35.7,90.1,34.1,88.5,32.5L88.5,32.5z M109,30c1.6,1.5,3.3,3,5,4.5
	c4.8-0.6,9.5-1.2,14.2-1.9c-1.7-1.5-3.3-2.9-4.9-4.4C118.5,28.8,113.8,29.4,109,30L109,30z M128.4,27.6c4.5-0.6,9-1.1,13.3-1.7
	c1.6,1.4,3.3,2.8,5,4.3c-4.4,0.6-8.9,1.2-13.3,1.8C131.7,30.5,130,29,128.4,27.6L128.4,27.6z M146.6,25.3c1.6,1.4,3.3,2.8,4.9,4.2
	c4.3-0.6,8.4-1.1,12.6-1.7c-1.6-1.4-3.3-2.8-4.9-4.1C155,24.3,150.8,24.8,146.6,25.3L146.6,25.3z M163.8,23.2c4-0.5,8-1,12-1.5
	c1.7,1.3,3.3,2.7,4.9,4c-3.9,0.5-8,1.1-11.9,1.6C167.1,25.9,165.5,24.5,163.8,23.2L163.8,23.2z M179.5,21.2c1.7,1.3,3.3,2.7,4.9,4
	c3.8-0.5,7.6-1,11.3-1.5c-1.7-1.3-3.3-2.6-4.9-3.9C187.2,20.3,183.4,20.7,179.5,21.2L179.5,21.2z M195.1,19.3
	c3.6-0.4,7.2-0.9,10.8-1.3c1.6,1.3,3.3,2.5,4.9,3.8c-3.6,0.5-7.2,0.9-10.8,1.4C198.4,21.9,196.7,20.6,195.1,19.3L195.1,19.3z
	 M209.8,17.5c1.6,1.2,3.3,2.5,4.9,3.8c3.4-0.5,6.9-0.9,10.2-1.3c-1.6-1.2-3.2-2.4-4.9-3.7C216.6,16.6,213.2,17,209.8,17.5
	L209.8,17.5z M223.8,15.7c3.2-0.4,6.5-0.8,9.7-1.2c1.6,1.2,3.2,2.4,4.8,3.6c-3.2,0.4-6.4,0.9-9.7,1.3
	C227,18.2,225.4,16.9,223.8,15.7L223.8,15.7z M237,14.1c1.6,1.2,3.2,2.4,4.8,3.5c3.1-0.4,6.2-0.8,9.3-1.2c-1.6-1.2-3.2-2.3-4.8-3.5
	C243.3,13.3,240.1,13.7,237,14.1L237,14.1z M249.7,12.5c3-0.4,5.9-0.7,8.8-1.1c1.6,1.1,3.2,2.3,4.8,3.4c-2.9,0.4-5.9,0.8-8.8,1.2
	C252.9,14.8,251.3,13.7,249.7,12.5L249.7,12.5z M261.8,11c1.6,1.1,3.2,2.2,4.8,3.4c2.8-0.4,5.6-0.7,8.4-1.1
	c-1.6-1.1-3.2-2.2-4.7-3.3C267.4,10.3,264.6,10.7,261.8,11L261.8,11z M275.6,9.3c2.7-0.3,5.3-0.7,8-1c1.6,1.1,3.1,2.1,4.7,3.2
	c-2.7,0.4-5.3,0.7-8,1.1C278.7,11.5,277.1,10.4,275.6,9.3L275.6,9.3z M286.5,7.9c1.5,1.1,3.1,2.1,4.7,3.2c2.6-0.3,5.1-0.7,7.6-1
	c-1.6-1-3.1-2.1-4.6-3.1C291.6,7.3,289.1,7.6,286.5,7.9L286.5,7.9z M297,6.6c2.4-0.3,4.9-0.6,7.3-0.9c1.5,1,3.1,2,4.6,3.1
	c-2.4,0.3-4.9,0.6-7.3,1C300,8.7,298.5,7.7,297,6.6L297,6.6z M63.7,90.9c18.9-3.8,36.8-7.5,53.9-10.9c3.4,3.4,6.8,6.8,10.3,10.2
	c-17.1,3.8-35.1,7.8-54,12C70.5,98.4,67.1,94.6,63.7,90.9L63.7,90.9z M123.6,78.7c5.3-1.1,10.5-2.1,15.6-3.2
	c3.4,3.2,6.8,6.5,10.3,9.8c-5.1,1.1-10.3,2.3-15.6,3.5C130.5,85.5,127,82.1,123.6,78.7L123.6,78.7z M145,74.4
	c3.4,3.2,6.8,6.4,10.3,9.7c4.9-1.1,9.8-2.2,14.6-3.2c-3.4-3.2-6.8-6.3-10.3-9.4C154.7,72.4,149.8,73.4,145,74.4L145,74.4z
	 M164.8,70.4c4.7-0.9,9.2-1.9,13.7-2.8c3.4,3,6.8,6,10.2,9.1c-4.5,1-9,2-13.7,3C171.6,76.6,168.2,73.5,164.8,70.4L164.8,70.4z
	 M183.6,66.6c3.4,3,6.8,6,10.2,9c4.3-0.9,8.6-1.9,12.9-2.8c-3.4-2.9-6.8-5.9-10.1-8.8C192.2,64.9,187.9,65.7,183.6,66.6L183.6,66.6z
	 M201.1,63.1c4.1-0.8,8.1-1.6,12.1-2.4c3.4,2.8,6.7,5.6,10.1,8.5c-3.9,0.9-8,1.8-12,2.7C207.9,68.8,204.5,65.9,201.1,63.1
	L201.1,63.1z M217.2,59.8c3.3,2.8,6.7,5.6,10.1,8.4c3.8-0.8,7.6-1.7,11.4-2.5c-3.4-2.8-6.7-5.5-10-8.2C224.8,58.3,221,59,217.2,59.8
	L217.2,59.8z M232.9,56.7c3.6-0.7,7.3-1.5,10.8-2.2c3.3,2.6,6.6,5.3,10,7.9c-3.5,0.8-7.2,1.6-10.8,2.4
	C239.5,62,236.2,59.3,232.9,56.7L232.9,56.7z M247.6,53.7c3.3,2.6,6.6,5.2,9.9,7.8c3.5-0.8,6.9-1.5,10.2-2.3
	c-3.3-2.6-6.6-5.1-9.9-7.7C254.5,52.3,251.1,53,247.6,53.7L247.6,53.7z M261.7,50.8c3.3-0.7,6.5-1.3,9.7-2c3.2,2.5,6.5,4.9,9.8,7.4
	c-3.2,0.7-6.4,1.4-9.7,2.1C268.2,55.9,264.9,53.3,261.7,50.8L261.7,50.8z M274.9,48.2c3.2,2.4,6.5,4.9,9.7,7.4
	c3.1-0.7,6.2-1.4,9.2-2c-3.2-2.4-6.5-4.8-9.7-7.2C281.1,46.9,278.1,47.5,274.9,48.2L274.9,48.2z M287.6,45.6
	c8.9-1.8,17.5-3.5,25.9-5.2c3.1,2.2,6.3,4.4,9.5,6.7c-8.3,1.8-16.8,3.7-25.7,5.7C294,50.4,290.8,48,287.6,45.6L287.6,45.6z
	 M77.3,106c3.5,3.9,7.1,7.8,10.7,11.8c10.2-2.5,20.3-5,30-7.5c-3.6-3.8-7.2-7.5-10.7-11.2C97.6,101.3,87.5,103.6,77.3,106L77.3,106z
	 M177.3,83.2c18.2-4.1,35.3-8,51.4-11.7c15.3-3.5,29.6-6.7,43.3-9.9c3.4,2.6,6.8,5.3,10.2,7.9c-13.6,3.4-27.9,6.9-43,10.7
	c-16,4-33.1,8.2-51.2,12.7C184.3,89.7,180.8,86.4,177.3,83.2L177.3,83.2z M350.7,32.9c3,2,6,4,9.1,6.1c2.2-0.5,4.4-1,6.6-1.5
	c-3-2-6-4-9-6C355.1,32,352.9,32.4,350.7,32.9L350.7,32.9z M359.8,31.1c2.1-0.4,4.2-0.9,6.4-1.3c2.9,1.9,5.9,3.9,8.9,5.8
	c-2.1,0.5-4.2,0.9-6.3,1.4C365.8,35,362.8,33,359.8,31.1L359.8,31.1z M368.5,29.3c2.9,1.9,5.9,3.8,8.9,5.8c2-0.4,4-0.9,6-1.3
	c-3-1.9-5.9-3.8-8.8-5.7C372.6,28.5,370.6,28.9,368.5,29.3L368.5,29.3z M376.9,27.6c1.9-0.4,3.9-0.8,5.9-1.2
	c2.9,1.8,5.8,3.7,8.7,5.5c-2,0.4-3.9,0.9-5.8,1.3C382.7,31.4,379.8,29.5,376.9,27.6L376.9,27.6z M362.8,41c2.2-0.5,4.4-1,6.6-1.5
	c3.1,2,6.2,4.1,9.3,6.1c-2.1,0.5-4.3,1.1-6.5,1.6C369,45.1,365.9,43.1,362.8,41L362.8,41z M371.8,39c3.1,2,6.1,4,9.2,6.1
	c2.1-0.5,4.2-1,6.2-1.5c-3.1-2-6.1-4-9.1-6C375.9,38,373.9,38.5,371.8,39L371.8,39z M380.4,37c2-0.5,4-0.9,6-1.4c3,1.9,6,3.9,9,5.8
	c-2,0.5-3.9,1-5.9,1.5C386.4,40.9,383.4,39,380.4,37L380.4,37z M388.6,35.1c3,1.9,6,3.8,9,5.8c1.9-0.5,3.8-0.9,5.7-1.4
	c-3-1.9-6-3.8-8.9-5.7C392.5,34.3,390.5,34.7,388.6,35.1L388.6,35.1z M329.1,37.2c2.5-0.5,4.9-1,7.3-1.5c3,2.1,6.2,4.2,9.2,6.3
	c-2.4,0.5-4.8,1.1-7.3,1.6C335.3,41.5,332.2,39.4,329.1,37.2L329.1,37.2z M331.2,48.2c2.5-0.6,5.1-1.2,7.6-1.7
	c3.2,2.2,6.4,4.4,9.6,6.7c-2.5,0.6-5,1.2-7.5,1.9C337.6,52.7,334.4,50.4,331.2,48.2L331.2,48.2z M341.5,45.8
	c3.2,2.2,6.4,4.4,9.6,6.6c2.4-0.6,4.8-1.2,7.2-1.8c-3.2-2.2-6.4-4.3-9.5-6.5C346.4,44.7,344,45.3,341.5,45.8L341.5,45.8z
	 M351.5,43.6c3.1,2.1,6.3,4.3,9.4,6.4c2.3-0.6,4.5-1.1,6.8-1.7c-3.2-2.1-6.3-4.2-9.4-6.3C356.1,42.5,353.8,43,351.5,43.6L351.5,43.6
	z M114.6,97.5c3.6,3.6,7.1,7.3,10.7,11c9.2-2.3,18.3-4.5,27.1-6.7c-3.6-3.5-7.2-7-10.7-10.5C132.9,93.3,123.9,95.4,114.6,97.5
	L114.6,97.5z M147.5,90c3.6,3.4,7.1,6.9,10.7,10.4c8.4-2.1,16.5-4.1,24.4-6.1c-3.6-3.3-7.2-6.6-10.7-9.9
	C164,86.2,155.9,88.1,147.5,90L147.5,90z M275.7,60.8c3.4,2.6,6.7,5.2,10.2,7.9c5.3-1.3,10.4-2.6,15.5-3.8c-3.4-2.5-6.7-5.1-10-7.6
	C286.2,58.4,281,59.6,275.7,60.8L275.7,60.8z M295.1,56.4c3.3,2.5,6.6,5,10,7.5c4.9-1.2,9.6-2.4,14.3-3.5c-3.3-2.4-6.6-4.8-9.9-7.2
	C304.8,54.2,300,55.3,295.1,56.4L295.1,56.4z M312.7,52.4c3.3,2.4,6.5,4.8,9.9,7.2c4.5-1.1,8.9-2.2,13.2-3.3
	c-3.2-2.3-6.5-4.6-9.7-6.9C321.7,50.3,317.2,51.3,312.7,52.4z"/>
</svg>
