<?xml version="1.0" encoding="utf-8"?>
<!-- Generator: Adobe Illustrator 19.2.1, SVG Export Plug-In . SVG Version: 6.00 Build 0)  -->
<svg version="1.1" id="Layer_1" xmlns="http://www.w3.org/2000/svg" xmlns:xlink="http://www.w3.org/1999/xlink" x="0px" y="0px"
	 viewBox="0 0 339 339" style="enable-background:new 0 0 339 339;" xml:space="preserve">
<g>
	<g>
		<path d="M170.3,170.9c0,0,2.2,17,3.6,35.9c1.4,18.9-2,35.9-2.6,48.2c-0.5,10.6-0.3,28.3-0.2,33.2h0c0,0,0,0,0,0
			c0,0.6-0.5,1.1-1.2,1.3h-0.8c-0.7-0.1-1.2-0.7-1.2-1.3c0,0,0,0,0,0h0c0.1-4.9,0.3-22.6-0.2-33.2c-0.6-12.4-4-29.3-2.6-48.2
			c1.4-18.9,3.6-35.9,3.6-35.9l0.8-1.4L170.3,170.9z"/>
	</g>
</g>
</svg>
