<?xml version="1.0" encoding="utf-8"?>
<!-- Generator: Adobe Illustrator 19.2.1, SVG Export Plug-In . SVG Version: 6.00 Build 0)  -->
<svg version="1.1" id="Layer_1" xmlns="http://www.w3.org/2000/svg" xmlns:xlink="http://www.w3.org/1999/xlink" x="0px" y="0px"
	 viewBox="0 0 339 339" style="enable-background:new 0 0 339 339;" xml:space="preserve">
<style type="text/css">
	.st0{fill:url(#SVGID_1_);}
	.st1{fill:url(#SVGID_2_);}
	.st2{fill:#121212;}
	.st3{fill:url(#SVGID_3_);}
	.st4{fill:#6D6D6D;}
	.st5{fill:#585858;}
	.st6{fill:#B2B2B2;}
	.st7{display:none;}
	.st8{fill:#1A1A1A;}
	.st9{fill:#606060;}
	.st10{display:none;opacity:0.4;fill:url(#SVGID_4_);enable-background:new    ;}
</style>
<g>
	<g>
		
			<linearGradient id="SVGID_1_" gradientUnits="userSpaceOnUse" x1="169.5" y1="-112" x2="169.5" y2="-451" gradientTransform="matrix(1 0 0 -1 0 -112)">
			<stop  offset="0" style="stop-color:#181818"/>
			<stop  offset="1" style="stop-color:#383838"/>
		</linearGradient>
		<circle class="st0" cx="169.5" cy="169.5" r="169.5"/>
		
			<linearGradient id="SVGID_2_" gradientUnits="userSpaceOnUse" x1="54.8834" y1="-177.5077" x2="284.1166" y2="-387.0923" gradientTransform="matrix(1 0 0 -1 0 -112)">
			<stop  offset="0" style="stop-color:#97BAFF"/>
			<stop  offset="0.5123" style="stop-color:#0000FF"/>
			<stop  offset="1" style="stop-color:#97BAFF"/>
		</linearGradient>
		<circle class="st1" cx="169.5" cy="170.3" r="155.3"/>
		<circle class="st2" cx="169.5" cy="169.5" r="149.7"/>
		
			<radialGradient id="SVGID_3_" cx="169.5" cy="-281.5" r="159.0847" gradientTransform="matrix(1 0 0 -1 0 -112)" gradientUnits="userSpaceOnUse">
			<stop  offset="4.301080e-002" style="stop-color:#FFFFFF"/>
			<stop  offset="0.371" style="stop-color:#FFFFFF"/>
			<stop  offset="0.6505" style="stop-color:#FFFFFF"/>
			<stop  offset="1" style="stop-color:#FFFFFF"/>
		</radialGradient>
		<circle class="st3" cx="169.5" cy="169.5" r="142.7"/>
		<g>
			<g>
				<path class="st4" d="M169.5,237.5c-37.5,0-68-30.5-68-68s30.5-68,68-68s68,30.5,68,68S207,237.5,169.5,237.5z M169.5,101.9
					c-37.3,0-67.6,30.3-67.6,67.6s30.3,67.6,67.6,67.6s67.6-30.3,67.6-67.6S206.7,101.9,169.5,101.9z"/>
			</g>
			<g>
				<path class="st4" d="M169.5,233.4c-35.3,0-63.9-28.7-63.9-63.9c0-35.3,28.7-63.9,63.9-63.9c35.3,0,63.9,28.7,63.9,63.9
					S204.7,233.4,169.5,233.4z M169.5,105.9c-35,0-63.5,28.5-63.5,63.5s28.5,63.5,63.5,63.5s63.5-28.5,63.5-63.5
					S204.5,105.9,169.5,105.9z"/>
			</g>
			<g>
				<rect x="168.9" y="101.6" class="st4" width="1.2" height="4.1"/>
				<rect x="168.9" y="233.3" class="st4" width="1.2" height="4.1"/>
			</g>
			<g>
				
					<rect x="162" y="102" transform="matrix(0.9945 -0.1043 0.1043 0.9945 -9.9655 17.5267)" class="st4" width="1.2" height="4.1"/>
				
					<rect x="175.7" y="232.9" transform="matrix(0.9945 -0.105 0.105 0.9945 -23.6952 19.8102)" class="st4" width="1.2" height="4.1"/>
			</g>
			<g>
				
					<rect x="155.2" y="103" transform="matrix(0.9782 -0.2077 0.2077 0.9782 -18.4213 34.6506)" class="st4" width="1.2" height="4.1"/>
				
					<rect x="182.5" y="231.8" transform="matrix(0.978 -0.2085 0.2085 0.978 -44.7334 43.3159)" class="st4" width="1.2" height="4.1"/>
			</g>
			<g>
				
					<rect x="148.5" y="104.8" transform="matrix(0.9511 -0.3088 0.3088 0.9511 -25.7079 51.2643)" class="st4" width="1.2" height="4.1"/>
				
					<rect x="189.2" y="230" transform="matrix(0.9516 -0.3075 0.3075 0.9516 -62.1594 69.6063)" class="st4" width="1.2" height="4.1"/>
			</g>
			<g>
				
					<rect x="142.1" y="107.3" transform="matrix(0.9135 -0.4068 0.4068 0.9135 -32.1429 67.5074)" class="st4" width="1.2" height="4.1"/>
				
					<rect x="195.6" y="227.6" transform="matrix(0.9139 -0.406 0.406 0.9139 -76.3391 99.4336)" class="st4" width="1.2" height="4.1"/>
			</g>
			<g>
				<rect x="135.9" y="110.4" transform="matrix(0.866 -0.5 0.5 0.866 -37.9338 83.3129)" class="st4" width="1.2" height="4.1"/>
				
					<rect x="201.8" y="224.4" transform="matrix(0.8658 -0.5003 0.5003 0.8658 -86.1366 131.6415)" class="st4" width="1.2" height="4.1"/>
			</g>
			<g>
				
					<rect x="130.2" y="114.2" transform="matrix(0.8092 -0.5875 0.5875 0.8092 -43.3472 99.0241)" class="st4" width="1.2" height="4.1"/>
				
					<rect x="207.5" y="220.7" transform="matrix(0.8092 -0.5875 0.5875 0.8092 -91.1634 164.7449)" class="st4" width="1.2" height="4.1"/>
			</g>
			<g>
				
					<rect x="124.8" y="118.5" transform="matrix(0.7433 -0.669 0.669 0.7433 -48.4535 114.8367)" class="st4" width="1.2" height="4.1"/>
				
					<rect x="212.9" y="216.4" transform="matrix(0.7437 -0.6685 0.6685 0.7437 -91.3317 198.7086)" class="st4" width="1.2" height="4.1"/>
			</g>
			<g>
				
					<rect x="119.9" y="123.4" transform="matrix(0.6698 -0.7425 0.7425 0.6698 -53.3699 130.8618)" class="st4" width="1.2" height="4.1"/>
				
					<rect x="217.8" y="211.5" transform="matrix(0.6705 -0.7419 0.7419 0.6705 -86.4827 232.3984)" class="st4" width="1.2" height="4.1"/>
			</g>
			<g>
				
					<rect x="115.6" y="128.7" transform="matrix(0.5884 -0.8086 0.8086 0.5884 -57.8774 147.7641)" class="st4" width="1.2" height="4.1"/>
				
					<rect x="222.1" y="206.1" transform="matrix(0.5884 -0.8086 0.8086 0.5884 -76.6381 265.7426)" class="st4" width="1.2" height="4.1"/>
			</g>
			<g>
				
					<rect x="111.8" y="134.6" transform="matrix(0.5009 -0.8655 0.8655 0.5009 -62.1954 165.5138)" class="st4" width="1.2" height="4.1"/>
				
					<rect x="225.9" y="200.3" transform="matrix(0.5004 -0.8658 0.8658 0.5004 -61.9958 297.1829)" class="st4" width="1.2" height="4.1"/>
			</g>
			<g>
				
					<rect x="108.8" y="140.7" transform="matrix(0.4076 -0.9132 0.9132 0.4076 -65.5058 184.4737)" class="st4" width="1.2" height="4.1"/>
				
					<rect x="229" y="194.2" transform="matrix(0.4079 -0.913 0.913 0.4079 -43.2533 325.7874)" class="st4" width="1.2" height="4.1"/>
			</g>
			<g>
				
					<rect x="106.3" y="147.1" transform="matrix(0.3094 -0.9509 0.9509 0.3094 -68.0667 204.6334)" class="st4" width="1.2" height="4.1"/>
				
					<rect x="231.5" y="187.8" transform="matrix(0.3101 -0.9507 0.9507 0.3101 -20.376 351.7017)" class="st4" width="1.2" height="4.1"/>
			</g>
			<g>
				
					<rect x="104.5" y="153.8" transform="matrix(0.2084 -0.978 0.978 0.2084 -69.2028 226.1359)" class="st4" width="1.2" height="4.1"/>
				
					<rect x="233.3" y="181.2" transform="matrix(0.2096 -0.9778 0.9778 0.2096 5.6769 373.4828)" class="st4" width="1.2" height="4.1"/>
			</g>
			<g>
				
					<rect x="103.5" y="160.5" transform="matrix(0.1046 -0.9945 0.9945 0.1046 -68.5168 249.0617)" class="st4" width="1.2" height="4.1"/>
				<polygon class="st4" points="236.9,177.2 237,176 233,175.5 232.8,176.8 				"/>
			</g>
			<g>
				<rect x="101.6" y="168.9" class="st4" width="4.1" height="1.2"/>
				
					<rect x="234.6" y="167.5" transform="matrix(1.517829e-003 -1 1 1.517829e-003 65.3861 404.4892)" class="st4" width="1.2" height="4.1"/>
			</g>
			<g>
				
					<rect x="102" y="175.7" transform="matrix(0.9946 -0.1042 0.1042 0.9946 -17.8041 11.8017)" class="st4" width="4.1" height="1.2"/>
				
					<rect x="232.9" y="162" transform="matrix(0.9946 -0.1035 0.1035 0.9946 -15.5672 25.1906)" class="st4" width="4.1" height="1.2"/>
			</g>
			<g>
				
					<rect x="103" y="182.5" transform="matrix(0.9783 -0.2073 0.2073 0.9783 -35.6745 25.7543)" class="st4" width="4.1" height="1.2"/>
				
					<rect x="231.8" y="155.2" transform="matrix(0.9783 -0.2071 0.2071 0.9783 -27.1961 51.8082)" class="st4" width="4.1" height="1.2"/>
			</g>
			<g>
				
					<rect x="104.8" y="189.2" transform="matrix(0.9515 -0.3075 0.3075 0.9515 -53.1857 42.0531)" class="st4" width="4.1" height="1.2"/>
				
					<rect x="230" y="148.5" transform="matrix(0.9513 -0.3082 0.3082 0.9513 -34.6565 78.7761)" class="st4" width="4.1" height="1.2"/>
			</g>
			<g>
				
					<rect x="107.3" y="195.6" transform="matrix(0.9136 -0.4066 0.4066 0.9136 -70.3266 61.4135)" class="st4" width="4.1" height="1.2"/>
				
					<rect x="227.6" y="142.1" transform="matrix(0.914 -0.4056 0.4056 0.914 -38.1398 105.4123)" class="st4" width="4.1" height="1.2"/>
			</g>
			<g>
				
					<rect x="110.4" y="201.8" transform="matrix(0.8664 -0.4994 0.4994 0.8664 -86.0524 83.2016)" class="st4" width="4.1" height="1.2"/>
				
					<rect x="224.4" y="135.9" transform="matrix(0.8665 -0.4992 0.4992 0.8665 -37.9035 131.2696)" class="st4" width="4.1" height="1.2"/>
			</g>
			<g>
				
					<rect x="114.2" y="207.5" transform="matrix(0.8095 -0.5872 0.5872 0.8095 -100.0388 107.9224)" class="st4" width="4.1" height="1.2"/>
				
					<rect x="220.7" y="130.2" transform="matrix(0.8097 -0.5869 0.5869 0.8097 -34.3736 155.6301)" class="st4" width="4.1" height="1.2"/>
			</g>
			<g>
				
					<rect x="118.5" y="212.9" transform="matrix(0.7441 -0.6681 0.6681 0.7441 -111.781 135.1762)" class="st4" width="4.1" height="1.2"/>
				
					<rect x="216.4" y="124.8" transform="matrix(0.7441 -0.668 0.668 0.7441 -27.8681 178.0227)" class="st4" width="4.1" height="1.2"/>
			</g>
			<g>
				
					<rect x="123.4" y="217.8" transform="matrix(0.6693 -0.743 0.743 0.6693 -120.7869 165.4473)" class="st4" width="4.1" height="1.2"/>
				
					<rect x="211.5" y="119.9" transform="matrix(0.6701 -0.7423 0.7423 0.6701 -18.9671 198.2827)" class="st4" width="4.1" height="1.2"/>
			</g>
			<g>
				
					<rect x="128.7" y="222.1" transform="matrix(0.5887 -0.8083 0.8083 0.5887 -126.2191 197.2429)" class="st4" width="4.1" height="1.2"/>
				
					<rect x="206.1" y="115.6" transform="matrix(0.5886 -0.8084 0.8084 0.5886 -8.2961 216.0526)" class="st4" width="4.1" height="1.2"/>
			</g>
			<g>
				
					<rect x="134.5" y="225.9" transform="matrix(0.4998 -0.8661 0.8661 0.4998 -127.8894 231.5422)" class="st4" width="4.1" height="1.2"/>
				
					<rect x="200.3" y="111.8" transform="matrix(0.5013 -0.8653 0.8653 0.5013 3.6111 231.1375)" class="st4" width="4.1" height="1.2"/>
			</g>
			<g>
				
					<rect x="140.6" y="229" transform="matrix(0.4072 -0.9133 0.9133 0.4072 -125.091 266.4173)" class="st4" width="4.1" height="1.2"/>
				
					<rect x="194.2" y="108.7" transform="matrix(0.4076 -0.9132 0.9132 0.4076 16.4979 243.9408)" class="st4" width="4.1" height="1.2"/>
			</g>
			<g>
				
					<rect x="147.2" y="231.5" transform="matrix(0.3084 -0.9513 0.9513 0.3084 -117.5853 302.4668)" class="st4" width="4.1" height="1.2"/>
				
					<rect x="187.7" y="106.2" transform="matrix(0.3098 -0.9508 0.9508 0.3098 29.4093 254.1102)" class="st4" width="4.1" height="1.2"/>
			</g>
			<g>
				
					<rect x="153.7" y="233.3" transform="matrix(0.2083 -0.9781 0.9781 0.2083 -105.4095 337.5245)" class="st4" width="4.1" height="1.2"/>
				
					<rect x="181.1" y="104.5" transform="matrix(0.2086 -0.978 0.978 0.2086 42.1365 262.3148)" class="st4" width="4.1" height="1.2"/>
			</g>
			<g>
				
					<rect x="160.5" y="234.3" transform="matrix(0.1034 -0.9946 0.9946 0.1034 -87.9147 372.2782)" class="st4" width="4.1" height="1.2"/>
				
					<rect x="174.3" y="103.4" transform="matrix(0.1051 -0.9945 0.9945 0.1051 54.4157 268.4325)" class="st4" width="4.1" height="1.2"/>
			</g>
			<g>
				<rect x="167.8" y="233.3" class="st4" width="3.3" height="4.1"/>
				<rect x="167.8" y="101.6" class="st4" width="3.3" height="4.1"/>
			</g>
			<g>
				
					<rect x="200.8" y="224.4" transform="matrix(0.866 -0.5001 0.5001 0.866 -86.1133 131.6003)" class="st4" width="3.3" height="4.1"/>
				
					<rect x="134.9" y="110.4" transform="matrix(0.8661 -0.4998 0.4998 0.8661 -37.9217 83.3008)" class="st4" width="3.3" height="4.1"/>
			</g>
			<g>
				
					<rect x="224.9" y="200.4" transform="matrix(0.4996 -0.8662 0.8662 0.4996 -61.9714 297.5241)" class="st4" width="3.3" height="4.1"/>
				
					<rect x="110.8" y="134.5" transform="matrix(0.5002 -0.8659 0.8659 0.5002 -62.0354 165.5948)" class="st4" width="3.3" height="4.1"/>
			</g>
			<g>
				<rect x="233.3" y="167.8" class="st4" width="4.1" height="3.3"/>
				<rect x="101.6" y="167.8" class="st4" width="4.1" height="3.3"/>
			</g>
			<g>
				
					<rect x="224.4" y="134.9" transform="matrix(0.8659 -0.5002 0.5002 0.8659 -37.935 131.5787)" class="st4" width="4.1" height="3.3"/>
				
					<rect x="110.4" y="200.8" transform="matrix(0.8662 -0.4997 0.4997 0.8662 -86.1203 83.2757)" class="st4" width="4.1" height="3.3"/>
			</g>
			<g>
				<rect x="200.3" y="110.9" transform="matrix(0.5 -0.866 0.866 0.5 3.6948 231.553)" class="st4" width="4.1" height="3.3"/>
				
					<rect x="134.5" y="224.7" transform="matrix(0.5003 -0.8658 0.8658 0.5003 -127.8042 231.3377)" class="st4" width="4.1" height="3.3"/>
			</g>
			<g>
				
					<rect x="74.8" y="83.2" transform="matrix(0.6694 -0.7429 0.7429 0.6694 -38.1342 84.2953)" class="st4" width="1.7" height="3.6"/>
				
					<rect x="262.5" y="252.1" transform="matrix(0.6688 -0.7434 0.7434 0.6688 -101.5365 279.8299)" class="st4" width="1.7" height="3.6"/>
			</g>
		</g>
		<g>
			<g>
				<path class="st5" d="M169.5,297.7c-34.2,0-66.4-13.3-90.6-37.5s-37.5-56.4-37.5-90.6S54.7,103.2,78.9,79s56.4-37.5,90.6-37.5
					s66.4,13.3,90.6,37.5s37.5,56.4,37.5,90.6s-13.3,66.4-37.5,90.6C235.9,284.3,203.7,297.7,169.5,297.7z M169.5,41.7
					C99,41.7,41.7,99,41.7,169.5S99,297.3,169.5,297.3S297.3,240,297.3,169.5S239.9,41.7,169.5,41.7z"/>
			</g>
			<g>
				<path class="st5" d="M169.5,294.1c-33.3,0-64.6-13-88.1-36.5s-36.5-54.8-36.5-88.1s13-64.6,36.5-88.1s54.8-36.5,88.1-36.5
					s64.6,13,88.1,36.5s36.5,54.8,36.5,88.1s-13,64.6-36.5,88.1C234.1,281.2,202.8,294.1,169.5,294.1z M169.5,45.2
					C101,45.2,45.2,101,45.2,169.5s55.7,124.3,124.3,124.3c68.5,0,124.3-55.7,124.3-124.3C293.7,101,238,45.2,169.5,45.2z"/>
			</g>
			<g>
				<rect x="168.6" y="41.5" class="st5" width="1.7" height="3.6"/>
				<rect x="168.6" y="293.9" class="st5" width="1.7" height="3.6"/>
			</g>
			<g>
				
					<rect x="155.5" y="42.1" transform="matrix(0.9945 -0.1047 0.1047 0.9945 -3.737 16.6111)" class="st5" width="1.7" height="3.6"/>
				
					<rect x="181.8" y="293.2" transform="matrix(0.9945 -0.1047 0.1047 0.9945 -29.8826 20.7448)" class="st5" width="1.7" height="3.6"/>
			</g>
			<g>
				
					<rect x="142.4" y="44.2" transform="matrix(0.9781 -0.208 0.208 0.9781 -6.4349 30.8021)" class="st5" width="1.7" height="3.6"/>
				
					<rect x="194.9" y="291.2" transform="matrix(0.9781 -0.2081 0.2081 0.9781 -56.6878 47.1501)" class="st5" width="1.7" height="3.6"/>
			</g>
			<g>
				
					<rect x="129.6" y="47.6" transform="matrix(0.9512 -0.3085 0.3085 0.9512 -8.8765 42.6534)" class="st5" width="1.7" height="3.6"/>
				
					<rect x="207.7" y="287.7" transform="matrix(0.951 -0.3092 0.3092 0.951 -79.2942 78.6706)" class="st5" width="1.7" height="3.6"/>
			</g>
			<g>
				
					<rect x="117.3" y="52.4" transform="matrix(0.9138 -0.4061 0.4061 0.9138 -11.8308 52.651)" class="st5" width="1.7" height="3.6"/>
				
					<rect x="220" y="283" transform="matrix(0.9135 -0.4068 0.4068 0.9135 -96.7572 114.4731)" class="st5" width="1.7" height="3.6"/>
			</g>
			<g>
				
					<rect x="105.5" y="58.4" transform="matrix(0.8663 -0.4996 0.4996 0.8663 -15.8562 61.1818)" class="st5" width="1.7" height="3.6"/>
				
					<rect x="231.8" y="277" transform="matrix(0.8661 -0.4998 0.4998 0.8661 -108.202 153.6034)" class="st5" width="1.7" height="3.6"/>
			</g>
			<g>
				
					<rect x="94.4" y="65.6" transform="matrix(0.8091 -0.5876 0.5876 0.8091 -21.4301 68.826)" class="st5" width="1.7" height="3.6"/>
				
					<rect x="242.8" y="269.8" transform="matrix(0.8091 -0.5876 0.5876 0.8091 -113.0849 195.0007)" class="st5" width="1.7" height="3.6"/>
			</g>
			<g>
				
					<rect x="84.2" y="73.9" transform="matrix(0.7435 -0.6688 0.6688 0.7435 -28.8206 76.3122)" class="st5" width="1.7" height="3.6"/>
				
					<rect x="253.1" y="261.5" transform="matrix(0.7434 -0.6688 0.6688 0.7434 -110.9412 237.3967)" class="st5" width="1.7" height="3.6"/>
			</g>
			<g>
				
					<rect x="66.5" y="93.5" transform="matrix(0.5878 -0.809 0.809 0.5878 -49.3523 93.7767)" class="st5" width="1.7" height="3.6"/>
				
					<rect x="270.8" y="241.9" transform="matrix(0.5879 -0.8089 0.8089 0.5879 -85.1921 320.1904)" class="st5" width="1.7" height="3.6"/>
			</g>
			<g>
				
					<rect x="59.3" y="104.6" transform="matrix(0.5005 -0.8657 0.8657 0.5005 -62.1035 105.227)" class="st5" width="1.7" height="3.6"/>
				<rect x="278" y="230.8" transform="matrix(0.5 -0.866 0.866 0.5 -61.989 357.8237)" class="st5" width="1.7" height="3.6"/>
			</g>
			<g>
				
					<rect x="53.3" y="116.3" transform="matrix(0.4073 -0.9133 0.9133 0.4073 -75.738 119.4222)" class="st5" width="1.7" height="3.6"/>
				
					<rect x="284" y="218.9" transform="matrix(0.4064 -0.9137 0.9137 0.4064 -32.6112 391.2526)" class="st5" width="1.7" height="3.6"/>
			</g>
			<g>
				
					<rect x="48.5" y="128.6" transform="matrix(0.3097 -0.9508 0.9508 0.3097 -89.8866 136.9549)" class="st5" width="1.7" height="3.6"/>
				
					<rect x="288.7" y="206.7" transform="matrix(0.3092 -0.951 0.951 0.3092 1.7363 419.4287)" class="st5" width="1.7" height="3.6"/>
			</g>
			<g>
				
					<rect x="45.1" y="141.4" transform="matrix(0.2087 -0.978 0.978 0.2087 -103.6129 158.273)" class="st5" width="1.7" height="3.6"/>
				
					<rect x="292.1" y="193.9" transform="matrix(0.2087 -0.978 0.978 0.2087 40.4199 441.3177)" class="st5" width="1.7" height="3.6"/>
			</g>
			<g>
				
					<rect x="43.2" y="154.5" transform="matrix(0.1054 -0.9944 0.9944 0.1054 -116.0535 183.5954)" class="st5" width="1.7" height="3.6"/>
				
					<rect x="294.1" y="180.9" transform="matrix(0.1046 -0.9945 0.9945 0.1046 82.4001 456.9089)" class="st5" width="1.7" height="3.6"/>
			</g>
			<g>
				<rect x="41.4" y="168.6" class="st5" width="3.6" height="1.7"/>
				<rect x="293.9" y="168.6" class="st5" width="3.6" height="1.7"/>
			</g>
			<g>
				
					<rect x="42.1" y="181.8" transform="matrix(0.9946 -0.104 0.104 0.9946 -18.7575 5.556)" class="st5" width="3.6" height="1.7"/>
				
					<rect x="293.2" y="155.5" transform="matrix(0.9945 -0.1046 0.1046 0.9945 -14.7359 31.7147)" class="st5" width="3.6" height="1.7"/>
			</g>
			<g>
				
					<rect x="44.2" y="194.9" transform="matrix(0.9784 -0.2069 0.2069 0.9784 -39.5054 13.7529)" class="st5" width="3.6" height="1.7"/>
				
					<rect x="291.2" y="142.4" transform="matrix(0.9781 -0.2081 0.2081 0.9781 -23.3959 64.1094)" class="st5" width="3.6" height="1.7"/>
			</g>
			<g>
				
					<rect x="47.6" y="207.7" transform="matrix(0.9514 -0.308 0.308 0.9514 -61.832 25.3529)" class="st5" width="3.6" height="1.7"/>
				
					<rect x="287.7" y="129.6" transform="matrix(0.9511 -0.309 0.309 0.9511 -26.1417 95.8391)" class="st5" width="3.6" height="1.7"/>
			</g>
			<g>
				
					<rect x="52.4" y="220" transform="matrix(0.9139 -0.4059 0.4059 0.9139 -84.9794 41.0117)" class="st5" width="3.6" height="1.7"/>
				
					<rect x="283" y="117.3" transform="matrix(0.9136 -0.4065 0.4065 0.9136 -23.4345 125.9733)" class="st5" width="3.6" height="1.7"/>
			</g>
			<g>
				
					<rect x="58.4" y="231.8" transform="matrix(0.8664 -0.4994 0.4994 0.8664 -108.1483 61.1525)" class="st5" width="3.6" height="1.7"/>
				<rect x="277" y="105.5" transform="matrix(0.866 -0.5 0.5 0.866 -15.8214 153.649)" class="st5" width="3.6" height="1.7"/>
			</g>
			<g>
				
					<rect x="65.6" y="242.8" transform="matrix(0.8099 -0.5866 0.5866 0.8099 -130.1093 85.8671)" class="st5" width="3.6" height="1.7"/>
				
					<rect x="269.8" y="94.4" transform="matrix(0.8092 -0.5876 0.5876 0.8092 -4.1338 177.7703)" class="st5" width="3.6" height="1.7"/>
			</g>
			<g>
				
					<rect x="73.9" y="253.1" transform="matrix(0.7442 -0.6679 0.6679 0.7442 -150.2537 115.5205)" class="st5" width="3.6" height="1.7"/>
				
					<rect x="261.5" y="84.2" transform="matrix(0.7432 -0.6691 0.6691 0.7432 10.7019 198.0162)" class="st5" width="3.6" height="1.7"/>
			</g>
			<g>
				
					<rect x="83.2" y="262.5" transform="matrix(0.6696 -0.7427 0.7427 0.6696 -167.5312 150.1327)" class="st5" width="3.6" height="1.7"/>
				
					<rect x="252.2" y="74.8" transform="matrix(0.6694 -0.7429 0.7429 0.6694 27.7821 213.7373)" class="st5" width="3.6" height="1.7"/>
			</g>
			<g>
				
					<rect x="93.6" y="270.8" transform="matrix(0.5876 -0.8092 0.8092 0.5876 -180.4576 189.2051)" class="st5" width="3.6" height="1.7"/>
				
					<rect x="241.9" y="66.5" transform="matrix(0.5876 -0.8091 0.8091 0.5876 46.001 224.9557)" class="st5" width="3.6" height="1.7"/>
			</g>
			<g>
				
					<rect x="104.5" y="277.9" transform="matrix(0.5012 -0.8653 0.8653 0.5012 -188.15 231.0542)" class="st5" width="3.6" height="1.7"/>
				
					<rect x="230.8" y="59.3" transform="matrix(0.4995 -0.8663 0.8663 0.4995 64.3101 231.6079)" class="st5" width="3.6" height="1.7"/>
			</g>
			<g>
				
					<rect x="116.3" y="283.9" transform="matrix(0.4074 -0.9132 0.9132 0.4074 -190.0477 276.6097)" class="st5" width="3.6" height="1.7"/>
				
					<rect x="219" y="53.3" transform="matrix(0.4063 -0.9137 0.9137 0.4063 81.578 233.8548)" class="st5" width="3.6" height="1.7"/>
			</g>
			<g>
				
					<rect x="128.7" y="288.7" transform="matrix(0.3101 -0.9507 0.9507 0.3101 -185.2209 323.864)" class="st5" width="3.6" height="1.7"/>
				
					<rect x="206.8" y="48.5" transform="matrix(0.309 -0.9511 0.9511 0.309 97.1639 232.5191)" class="st5" width="3.6" height="1.7"/>
			</g>
			<g>
				
					<rect x="141.4" y="292.1" transform="matrix(0.208 -0.9781 0.9781 0.208 -173.1507 372.1028)" class="st5" width="3.6" height="1.7"/>
				
					<rect x="194" y="45.2" transform="matrix(0.208 -0.9781 0.9781 0.208 110.0742 227.9799)" class="st5" width="3.6" height="1.7"/>
			</g>
			<g>
				
					<rect x="154.6" y="294.1" transform="matrix(0.1057 -0.9944 0.9944 0.1057 -153.4604 419.3219)" class="st5" width="3.6" height="1.7"/>
				
					<rect x="180.8" y="43.1" transform="matrix(0.104 -0.9946 0.9946 0.104 119.939 220.9708)" class="st5" width="3.6" height="1.7"/>
			</g>
			<g>
				<polygon class="st5" points="171.5,293.9 167.5,293.9 167.5,297.5 171.5,297.5 				"/>
				<rect x="167.5" y="41.5" class="st5" width="4" height="3.6"/>
			</g>
			<g>
				<polygon class="st5" points="233.4,276.2 230,278.3 231.8,281.4 235.2,279.3 				"/>
				<rect x="104.4" y="58.4" transform="matrix(0.866 -0.5 0.5 0.866 -15.8487 61.2658)" class="st5" width="4" height="3.6"/>
			</g>
			<g>
				<polygon class="st5" points="278.2,230 276.2,233.4 279.3,235.2 281.3,231.8 				"/>
				<rect x="58.2" y="104.6" transform="matrix(0.5 -0.866 0.866 0.5 -62.0062 105.3087)" class="st5" width="4" height="3.6"/>
			</g>
			<g>
				<polygon class="st5" points="293.9,167.5 293.9,171.5 297.5,171.5 297.5,167.5 				"/>
				<rect x="41.4" y="167.5" class="st5" width="3.6" height="4"/>
			</g>
			<g>
				<polygon class="st5" points="276.2,105.5 278.3,109 281.3,107.2 279.3,103.7 				"/>
				
					<rect x="58.4" y="230.6" transform="matrix(0.8659 -0.5002 0.5002 0.8659 -108.2782 61.3047)" class="st5" width="3.6" height="4"/>
			</g>
			<g>
				<polygon class="st5" points="230,60.7 233.4,62.7 235.2,59.6 231.8,57.6 				"/>
				
					<rect x="104.6" y="276.8" transform="matrix(0.4999 -0.8661 0.8661 0.4999 -188.2346 231.619)" class="st5" width="3.6" height="4"/>
			</g>
		</g>
		<g>
			<path class="st6" d="M272.5,109.2l-0.7,0.4c-0.3-0.4-0.6-0.6-1-0.7s-0.9-0.1-1.6,0.1c-0.9,0.2-2.1,0.7-3.6,1.4
				c-1.1,0.6-2.3,1.2-3.7,2L240,125.1c-1.6,1-2.9,1.7-3.8,2.3c-0.9,0.6-1.6,1.1-2.1,1.6c-0.7,0.6-1.1,1.2-1.4,1.7
				c-0.2,0.5-0.2,1-0.1,1.5l-0.7,0.4l-3.8-6.5l0.7-0.4c0.3,0.4,0.6,0.6,1,0.7s0.9,0.1,1.6-0.1c0.8-0.1,1.6-0.5,2.7-1
				c1-0.5,2.5-1.3,4.6-2.5l21.9-12.6c2-1.2,3.5-2.1,4.5-2.7c0.9-0.6,1.6-1.2,2.2-1.8c0.5-0.5,0.8-1,0.9-1.4s0.1-0.8-0.1-1.2l0.7-0.4
				L272.5,109.2z"/>
			<path class="st6" d="M277,116.9l-0.7,0.4c-0.3-0.4-0.6-0.6-1-0.7s-0.9-0.1-1.6,0.1c-0.9,0.2-2.1,0.7-3.6,1.4
				c-1.1,0.6-2.3,1.2-3.7,2l-21.9,12.6c-1.6,1-2.9,1.7-3.8,2.3c-0.9,0.6-1.6,1.1-2.1,1.6c-0.7,0.6-1.1,1.2-1.4,1.7
				c-0.2,0.5-0.2,1-0.1,1.5l-0.7,0.4l-3.8-6.5l0.7-0.4c0.3,0.4,0.6,0.6,1,0.7c0.4,0.1,0.9,0.1,1.6-0.1c0.8-0.1,1.6-0.5,2.7-1
				c1-0.5,2.5-1.3,4.6-2.5l21.9-12.6c2-1.2,3.5-2.1,4.5-2.7c0.9-0.6,1.6-1.2,2.2-1.8c0.5-0.5,0.8-1,0.9-1.4s0.1-0.8-0.1-1.2l0.7-0.4
				L277,116.9z"/>
		</g>
		<g>
			<path class="st6" d="M232.3,68.2l-0.4,0.7c-0.4-0.2-0.8-0.2-1.2-0.1s-0.8,0.4-1.4,0.9c-0.7,0.6-1.5,1.6-2.4,3
				c-0.6,1-1.4,2.2-2.2,3.6l-12.6,21.9c-0.9,1.6-1.7,3-2.2,3.9c-0.5,1-0.8,1.8-1.1,2.4c-0.3,0.9-0.4,1.6-0.3,2.2
				c0.1,0.5,0.3,1,0.7,1.3l-0.4,0.7l-6.5-3.8l0.4-0.7c0.4,0.2,0.8,0.2,1.2,0.1s0.8-0.4,1.4-0.9c0.6-0.5,1.2-1.2,1.8-2.2
				c0.6-0.9,1.5-2.4,2.7-4.5L222.6,75c1.2-2,2-3.6,2.5-4.6s0.8-1.9,1-2.7c0.1-0.7,0.2-1.2,0.1-1.6c-0.1-0.4-0.3-0.7-0.7-1l0.4-0.7
				L232.3,68.2z"/>
			<g>
				<path class="st6" d="M288.4,164.2h-0.8c-0.1-0.4-0.3-0.8-0.5-1.1c-0.3-0.3-0.8-0.5-1.4-0.7c-0.9-0.3-2.2-0.5-3.8-0.6
					c-1.2,0-2.6-0.1-4.2-0.1h-25.3c-1.9,0-3.4,0-4.5,0.1s-2,0.2-2.6,0.3c-0.9,0.2-1.6,0.5-2,0.8s-0.7,0.8-0.8,1.3h-0.8v-7.5h0.8
					c0.1,0.5,0.3,0.8,0.6,1.1s0.8,0.5,1.4,0.7c0.7,0.3,1.7,0.4,2.8,0.5s2.9,0.1,5.2,0.1h25.3c2.4,0,4.1,0,5.2-0.1s2-0.3,2.8-0.5
					c0.7-0.2,1.1-0.5,1.4-0.7c0.3-0.3,0.5-0.6,0.5-1.1h0.8L288.4,164.2L288.4,164.2z"/>
				<path class="st6" d="M288.4,172.3h-0.8c-0.1-0.4-0.3-0.8-0.5-1.1c-0.3-0.3-0.8-0.5-1.4-0.8c-0.9-0.3-2.2-0.5-3.8-0.6
					c-1.2,0-2.6-0.1-4.2-0.1h-25.3c-1.9,0-3.4,0-4.5,0.1s-2,0.2-2.6,0.3c-0.9,0.2-1.6,0.5-2,0.8s-0.7,0.8-0.8,1.3h-0.8v-7.5h0.8
					c0.1,0.5,0.3,0.8,0.6,1.1s0.8,0.5,1.4,0.7c0.7,0.3,1.7,0.4,2.8,0.5s2.9,0.1,5.2,0.1h25.3c2.4,0,4.1,0,5.2-0.1s2-0.3,2.8-0.5
					c0.7-0.2,1.1-0.5,1.4-0.7c0.3-0.3,0.5-0.6,0.5-1.1h0.8L288.4,172.3L288.4,172.3z"/>
				<path class="st6" d="M288.4,180.4h-0.8c-0.1-0.4-0.3-0.8-0.5-1.1c-0.3-0.3-0.8-0.5-1.4-0.8c-0.9-0.3-2.2-0.5-3.8-0.6
					c-1.2,0-2.6-0.1-4.2-0.1h-25.3c-1.9,0-3.4,0-4.5,0.1s-2,0.2-2.6,0.3c-0.9,0.2-1.6,0.5-2,0.8s-0.7,0.8-0.8,1.3h-0.8v-7.5h0.8
					c0.1,0.5,0.3,0.8,0.6,1.1s0.8,0.5,1.4,0.7c0.7,0.3,1.7,0.4,2.8,0.5s2.9,0.1,5.2,0.1h25.3c2.4,0,4.1,0,5.2-0.1s2-0.3,2.8-0.5
					c0.7-0.2,1.1-0.5,1.4-0.7c0.3-0.3,0.5-0.6,0.5-1.1h0.8L288.4,180.4L288.4,180.4z"/>
			</g>
		</g>
		<g>
			<path class="st6" d="M276.7,221.6l-0.7-0.4c0.2-0.4,0.2-0.8,0.1-1.2s-0.4-0.8-0.9-1.4c-0.6-0.7-1.6-1.5-3-2.4
				c-1-0.6-2.2-1.4-3.6-2.2l-21.9-12.6c-1.6-0.9-3-1.7-3.9-2.2c-1-0.5-1.8-0.8-2.4-1.1c-0.9-0.3-1.6-0.4-2.2-0.3
				c-0.5,0.1-1,0.3-1.3,0.7l-0.7-0.4l3.8-6.5l0.7,0.4c-0.2,0.4-0.2,0.8-0.1,1.2c0.1,0.4,0.4,0.8,0.9,1.4c0.5,0.6,1.2,1.2,2.2,1.8
				c0.9,0.6,2.4,1.5,4.5,2.7l21.9,12.6c2,1.2,3.6,2,4.6,2.5s1.9,0.8,2.7,1c0.7,0.1,1.2,0.2,1.6,0.1c0.4-0.1,0.7-0.3,1-0.7l0.7,0.4
				L276.7,221.6z"/>
			<path class="st6" d="M272.7,228.6l-0.7-0.4c0.2-0.4,0.2-0.8,0.1-1.2s-0.4-0.8-0.9-1.4c-0.6-0.7-1.6-1.5-3-2.4
				c-1-0.6-2.2-1.4-3.6-2.2l-21.9-12.6c-1.6-0.9-3-1.7-3.9-2.2c-1-0.5-1.8-0.8-2.4-1.1c-0.9-0.3-1.6-0.4-2.2-0.3
				c-0.5,0.1-1,0.3-1.3,0.7l-0.7-0.4l3.8-6.5l0.7,0.4c-0.2,0.4-0.2,0.8-0.1,1.2c0.1,0.4,0.4,0.8,0.9,1.3c0.5,0.6,1.2,1.2,2.2,1.8
				c0.9,0.6,2.4,1.5,4.5,2.7l21.9,12.6c2,1.2,3.6,2,4.6,2.5s1.9,0.8,2.7,0.9c0.7,0.1,1.2,0.2,1.6,0.1c0.4-0.1,0.7-0.3,1-0.7l0.7,0.4
				L272.7,228.6z"/>
			<path class="st6" d="M268.6,235.6l-0.7-0.4c0.2-0.4,0.2-0.8,0.1-1.2s-0.4-0.8-0.9-1.4c-0.6-0.7-1.6-1.5-3-2.4
				c-1-0.6-2.2-1.4-3.6-2.2l-21.9-12.6c-1.6-0.9-3-1.7-3.9-2.2c-1-0.5-1.8-0.8-2.4-1.1c-0.9-0.3-1.6-0.4-2.2-0.3
				c-0.5,0.1-1,0.3-1.3,0.7l-0.7-0.4l3.8-6.5l0.7,0.4c-0.2,0.4-0.2,0.8-0.1,1.2c0.1,0.4,0.4,0.8,0.9,1.4c0.5,0.6,1.2,1.2,2.2,1.8
				c0.9,0.6,2.4,1.5,4.5,2.7l21.9,12.6c2,1.2,3.6,2,4.6,2.5s1.9,0.8,2.7,0.9c0.7,0.1,1.2,0.2,1.6,0.1c0.4-0.1,0.7-0.3,1-0.7l0.7,0.4
				L268.6,235.6z"/>
			<path class="st6" d="M264.6,242.6l-0.7-0.4c0.2-0.4,0.2-0.8,0.1-1.2s-0.4-0.8-0.9-1.4c-0.6-0.7-1.6-1.5-3-2.4
				c-1-0.6-2.2-1.4-3.6-2.2l-21.9-12.6c-1.6-0.9-3-1.7-3.9-2.2c-1-0.5-1.8-0.8-2.4-1.1c-0.9-0.3-1.6-0.4-2.2-0.3
				c-0.5,0.1-1,0.3-1.3,0.7l-0.7-0.4l3.8-6.5l0.7,0.4c-0.2,0.4-0.2,0.8-0.1,1.2c0.1,0.4,0.4,0.8,0.9,1.4c0.5,0.6,1.2,1.2,2.2,1.8
				c0.9,0.6,2.4,1.5,4.5,2.7l21.9,12.6c2,1.2,3.6,2,4.6,2.5s1.9,0.8,2.7,1c0.7,0.1,1.2,0.2,1.6,0.1c0.4-0.1,0.7-0.3,1-0.7l0.7,0.4
				L264.6,242.6z"/>
		</g>
		<g>
			<path class="st6" d="M213.3,228.3c-0.4,0.2-0.7,0.6-0.8,1.1s-0.1,1.1,0.1,1.9c0.3,1.3,1.3,4,3.1,8.3l13.5,32.7l-0.4,0.2l-21.2-27
				c-1.7-2.1-2.9-3.7-3.7-4.7s-1.5-1.8-2-2.3c-0.8-0.7-1.4-1.3-1.9-1.5c-0.5-0.3-1-0.4-1.4-0.2l-0.4-0.7l4.5-2.6l0.4,0.7
				c-0.3,0.2-0.4,0.3-0.5,0.6c-0.1,0.2-0.1,0.6,0,1s0.3,1,0.5,1.7c0.3,0.7,0.7,1.4,1.1,2.2c0.8,1.3,2.2,3.4,4.3,6.1l15.1,19.3
				l-10.8-25.7c-0.6-1.4-1-2.3-1.2-2.8c-0.2-0.4-0.4-0.9-0.7-1.4c-0.4-0.7-0.9-1.4-1.4-1.9s-0.9-0.9-1.3-1.1c-0.4-0.2-0.9-0.2-1.5,0
				l-0.4-0.7l6.7-3.9L213.3,228.3z"/>
		</g>
		<g>
			<path class="st6" d="M157.3,241.6h7.8v0.8c-0.6,0.2-1,0.4-1.3,0.8c-0.2,0.3-0.4,0.9-0.6,1.6c-0.1,0.7-0.2,1.5-0.2,2.3
				c0,0.6,0,1.1,0.1,1.6c0,0.5,0.2,1.5,0.4,3l3.5,27.6l3.4-24.2c0.5-3.4,0.7-5.9,0.7-7.4c0-0.9,0-1.7-0.1-2.4
				c-0.1-0.8-0.2-1.3-0.4-1.8c-0.2-0.4-0.3-0.7-0.5-0.8c-0.2-0.2-0.4-0.2-0.7-0.2v-0.8h5.3v0.8c-0.4,0.1-0.8,0.4-1.1,0.9
				s-0.6,1.3-0.9,2.3c-0.2,0.7-0.4,1.7-0.6,3c-0.2,1.3-0.5,3.2-0.9,5.9l-4.8,33.9h-0.5l-4.7-35.1c-0.6-4.6-1.1-7.5-1.5-8.8
				c-0.2-0.8-0.5-1.3-0.9-1.7c-0.3-0.4-0.8-0.5-1.3-0.5v-0.8L157.3,241.6L157.3,241.6z"/>
			<path class="st6" d="M181.7,241.6v0.8c-0.4,0.1-0.8,0.3-1.1,0.5c-0.3,0.3-0.5,0.8-0.7,1.4c-0.3,0.9-0.5,2.2-0.6,3.8
				c0,1.2-0.1,2.6-0.1,4.2v25.3c0,1.9,0,3.4,0.1,4.5s0.2,2,0.3,2.6c0.2,0.9,0.5,1.6,0.8,2s0.8,0.7,1.3,0.8v0.8h-7.5v-0.8
				c0.5-0.1,0.8-0.3,1.1-0.6c0.3-0.3,0.5-0.8,0.7-1.4c0.3-0.7,0.4-1.7,0.5-2.8c0.1-1.1,0.1-2.9,0.1-5.2v-25.3c0-2.4,0-4.1-0.1-5.2
				c-0.1-1.1-0.3-2-0.5-2.8c-0.2-0.7-0.5-1.1-0.7-1.4c-0.3-0.3-0.7-0.5-1.1-0.5v-0.8h7.5V241.6z"/>
		</g>
		<g>
			<path class="st6" d="M118.8,223.1l6.7,3.9l-0.4,0.7c-0.6-0.2-1.1-0.1-1.5,0c-0.4,0.2-0.8,0.5-1.3,1.1c-0.5,0.5-0.9,1.2-1.4,1.9
				c-0.3,0.5-0.5,1-0.7,1.4s-0.6,1.3-1.2,2.8l-10.8,25.7l15.1-19.3c2.1-2.7,3.6-4.7,4.3-6.1c0.4-0.8,0.8-1.5,1.1-2.2
				s0.5-1.3,0.5-1.7c0.1-0.4,0-0.7,0-1c-0.1-0.2-0.3-0.4-0.5-0.6l0.4-0.7l4.5,2.6l-0.4,0.7c-0.4-0.1-0.9,0-1.4,0.2
				c-0.5,0.3-1.2,0.8-1.9,1.5c-0.5,0.5-1.2,1.3-2,2.3s-2.1,2.5-3.7,4.7L103,268l-0.4-0.2l13.5-32.7c1.8-4.3,2.8-7.1,3.1-8.3
				c0.2-0.8,0.2-1.4,0.1-1.9s-0.4-0.8-0.8-1.1L118.8,223.1z"/>
			<path class="st6" d="M140.3,235.5l-0.4,0.7c-0.4-0.2-0.8-0.2-1.2-0.1c-0.4,0.1-0.8,0.4-1.4,0.9c-0.7,0.6-1.5,1.6-2.4,3
				c-0.6,1-1.4,2.2-2.2,3.6l-12.6,21.9c-0.9,1.6-1.7,3-2.2,3.9c-0.5,1-0.8,1.8-1.1,2.4c-0.3,0.9-0.4,1.6-0.3,2.2
				c0.1,0.5,0.3,1,0.7,1.3l-0.4,0.7l-6.5-3.8l0.4-0.7c0.4,0.2,0.8,0.2,1.2,0.1c0.4-0.1,0.8-0.4,1.4-0.9s1.2-1.2,1.8-2.2
				c0.6-0.9,1.5-2.4,2.7-4.5l12.6-21.9c1.2-2,2-3.6,2.5-4.6s0.8-1.9,1-2.7c0.1-0.7,0.2-1.2,0.1-1.6c-0.1-0.4-0.3-0.7-0.7-1l0.4-0.7
				L140.3,235.5z"/>
			<path class="st6" d="M147.2,239.5l-0.4,0.7c-0.4-0.2-0.8-0.2-1.2-0.1c-0.4,0.1-0.8,0.4-1.4,0.9c-0.7,0.6-1.5,1.6-2.4,3
				c-0.6,1-1.4,2.2-2.2,3.6L127,269.5c-1,1.6-1.7,3-2.2,3.9c-0.5,1-0.8,1.8-1.1,2.4c-0.3,0.9-0.4,1.6-0.3,2.2c0.1,0.5,0.3,1,0.7,1.3
				l-0.4,0.7l-6.5-3.8l0.4-0.7c0.4,0.2,0.8,0.2,1.2,0.1c0.4-0.1,0.8-0.4,1.4-0.9s1.2-1.2,1.8-2.2c0.6-0.9,1.5-2.4,2.7-4.5l12.6-21.9
				c1.2-2,2-3.6,2.5-4.6s0.8-1.9,1-2.7c0.1-0.7,0.2-1.2,0.1-1.6c-0.1-0.4-0.3-0.7-0.7-1l0.4-0.7L147.2,239.5z"/>
		</g>
		<g>
			<path class="st6" d="M96.9,187.7l3.9,6.7l-0.7,0.4c-0.4-0.4-0.9-0.7-1.3-0.7s-1,0.1-1.7,0.3s-1.4,0.6-2.1,1
				c-0.5,0.3-1,0.6-1.3,0.8c-0.4,0.3-1.2,0.9-2.4,1.8l-22.2,16.8l22.7-9.2c3.2-1.3,5.5-2.3,6.8-3.1c0.8-0.4,1.4-0.9,2-1.3
				c0.6-0.5,1-0.9,1.3-1.2s0.4-0.6,0.5-0.9c0-0.2,0-0.5-0.2-0.8l0.7-0.4l2.6,4.5l-0.7,0.4c-0.3-0.3-0.8-0.5-1.4-0.5
				s-1.4,0.1-2.4,0.4c-0.7,0.2-1.7,0.5-2.9,1s-3.1,1.2-5.5,2.2l-31.8,12.8l-0.2-0.4l28-21.6c3.7-2.8,6-4.7,6.8-5.7
				c0.6-0.6,0.9-1.1,1-1.6s0.1-0.9-0.2-1.4L96.9,187.7z"/>
			<path class="st6" d="M109.3,209.2l-0.7,0.4c-0.3-0.4-0.6-0.6-1-0.7c-0.4-0.1-0.9-0.1-1.6,0.1c-0.9,0.2-2.1,0.7-3.6,1.4
				c-1.1,0.6-2.3,1.2-3.7,2L76.8,225c-1.6,1-2.9,1.7-3.8,2.3s-1.6,1.1-2.1,1.6c-0.7,0.6-1.1,1.2-1.4,1.7c-0.2,0.5-0.2,1-0.1,1.5
				l-0.7,0.4l-3.8-6.5l0.7-0.4c0.3,0.4,0.6,0.6,1,0.7c0.4,0.1,0.9,0.1,1.6-0.1c0.8-0.1,1.6-0.5,2.7-1c1-0.5,2.5-1.3,4.6-2.5
				l21.9-12.6c2-1.2,3.5-2.1,4.5-2.7c0.9-0.6,1.6-1.2,2.2-1.8c0.5-0.5,0.8-1,0.9-1.4s0.1-0.8-0.1-1.2l0.7-0.4L109.3,209.2z"/>
			<path class="st6" d="M113.4,216.2l-0.7,0.4c-0.3-0.4-0.6-0.6-1-0.7c-0.4-0.1-0.9-0.1-1.6,0.1c-0.9,0.2-2.1,0.7-3.6,1.4
				c-1.1,0.6-2.3,1.2-3.7,2L80.9,232c-1.6,0.9-2.9,1.7-3.8,2.3s-1.6,1.1-2.1,1.6c-0.7,0.6-1.1,1.2-1.4,1.7c-0.2,0.5-0.2,1-0.1,1.5
				l-0.7,0.4L69,233l0.7-0.4c0.3,0.4,0.6,0.6,1,0.7c0.4,0.1,0.9,0.1,1.6-0.1c0.8-0.1,1.6-0.5,2.7-0.9c1-0.5,2.5-1.3,4.6-2.5
				l21.9-12.7c2-1.2,3.5-2.1,4.5-2.7c0.9-0.6,1.6-1.2,2.2-1.8c0.5-0.5,0.8-1,0.9-1.4s0.1-0.8-0.1-1.2l0.7-0.4L113.4,216.2z"/>
			<path class="st6" d="M117.4,223.2l-0.7,0.4c-0.3-0.4-0.6-0.6-1-0.7c-0.4-0.1-0.9-0.1-1.6,0.1c-0.9,0.2-2.1,0.7-3.6,1.4
				c-1.1,0.6-2.3,1.2-3.7,2L84.9,239c-1.6,0.9-2.9,1.7-3.8,2.3s-1.6,1.1-2.1,1.6c-0.7,0.6-1.1,1.2-1.4,1.7c-0.2,0.5-0.2,1-0.1,1.5
				l-0.7,0.4L73,240l0.7-0.4c0.3,0.4,0.6,0.6,1,0.7c0.4,0.1,0.9,0.1,1.6-0.1c0.8-0.1,1.6-0.5,2.7-1c1-0.5,2.5-1.3,4.6-2.5l21.9-12.6
				c2-1.2,3.5-2.1,4.5-2.7c0.9-0.6,1.6-1.2,2.2-1.8c0.5-0.5,0.8-1,0.9-1.4s0.1-0.8-0.1-1.2l0.7-0.4L117.4,223.2z"/>
		</g>
		<g>
			<path class="st6" d="M97.4,157.2v7.8h-0.8c0-0.5-0.1-1-0.4-1.3c-0.4-0.5-1.3-0.7-2.5-0.7c-1.3,0-3.2,0.3-6,1l-8.8,2.1l6.5,1.8
				c2.5,0.7,4.3,1.2,5.3,1.4s2,0.3,2.8,0.3c1.2,0,2-0.2,2.5-0.7c0.2-0.2,0.4-0.6,0.5-1.1h0.8v5.4h-0.8c0-0.6-0.2-1.1-0.7-1.4
				c-0.7-0.5-2.6-1.2-5.7-2L87,169l-9.2-2.6l-17.5,4.1c-3.1,0.7-5.4,1.4-6.8,1.9c-0.7,0.3-1.2,0.6-1.5,0.9c-0.3,0.3-0.5,0.7-0.5,1.2
				h-0.8v-8.2h0.8c0.2,0.6,0.5,1.1,1,1.4c0.7,0.5,1.6,0.7,2.9,0.7c0.4,0,0.9,0,1.5-0.1s1.4-0.3,2.6-0.5l12.7-2.9L62,162
				c-1.5-0.4-2.8-0.7-3.8-0.9s-2-0.3-2.8-0.3c-1.2,0-2.2,0.2-2.9,0.5s-1.1,0.8-1.1,1.4h-0.8V157h0.8c0.2,0.4,0.6,0.8,1,1.1
				s1.2,0.6,2.2,1c1.5,0.6,4.1,1.4,7.7,2.4l10.9,3.1l16-3.7l2.6-0.6c1.9-0.5,3.2-0.8,3.8-1.2c0.5-0.3,0.8-0.8,1-1.4
				c0-0.1,0-0.2,0.1-0.4h0.7V157.2z"/>
			<path class="st6" d="M97.4,182.2h-0.8c-0.1-0.4-0.3-0.8-0.5-1.1c-0.3-0.3-0.8-0.5-1.4-0.8c-0.9-0.3-2.2-0.5-3.8-0.6
				c-1.2,0-2.6-0.1-4.2-0.1H61.4c-1.9,0-3.4,0-4.5,0.1s-2,0.2-2.6,0.3c-0.9,0.2-1.6,0.5-2,0.8s-0.7,0.8-0.8,1.3h-0.8v-7.5h0.8
				c0.1,0.5,0.3,0.8,0.6,1.1s0.8,0.5,1.4,0.7c0.7,0.3,1.7,0.4,2.8,0.5s2.9,0.1,5.2,0.1h25.3c2.4,0,4.1,0,5.2-0.1s2-0.3,2.8-0.5
				c0.7-0.2,1.1-0.5,1.4-0.7s0.5-0.7,0.5-1.1h0.8v7.6H97.4z"/>
		</g>
		<g>
			<path class="st6" d="M111.5,126.2l-3.9,6.7l-0.7-0.4c0.3-0.5,0.4-0.9,0.3-1.3c-0.1-0.6-0.7-1.2-1.8-1.8c-1.1-0.6-3-1.3-5.7-2.1
				l-8.6-2.6l4.7,4.8c1.8,1.9,3.2,3.2,3.9,3.9c0.8,0.7,1.5,1.3,2.3,1.7c1,0.6,1.9,0.8,2.5,0.7c0.3-0.1,0.6-0.3,1-0.7l0.7,0.4
				l-2.7,4.7l-0.7-0.4c0.3-0.5,0.3-1,0.1-1.5c-0.3-0.8-1.6-2.3-3.9-4.6l-2.4-2.4l-6.7-6.8l-17.2-5.3c-3.1-0.9-5.3-1.5-6.8-1.7
				c-0.8-0.1-1.3-0.1-1.7,0c-0.4,0.1-0.8,0.3-1.1,0.7l-0.7-0.4l4.1-7.1l0.7,0.4c-0.1,0.7-0.1,1.2,0.1,1.7c0.4,0.8,1.1,1.4,2.1,2.1
				c0.4,0.2,0.8,0.4,1.4,0.6c0.5,0.2,1.4,0.5,2.5,0.8l12.4,3.9l-7.2-7.4c-1.1-1.1-2.1-2-2.9-2.7s-1.6-1.2-2.3-1.7
				c-1.1-0.6-2-1-2.7-1c-0.7-0.1-1.3,0.2-1.7,0.7l-0.7-0.4l2.9-5l0.7,0.4c0,0.5,0.1,1,0.3,1.4c0.2,0.5,0.7,1.1,1.4,2
				c1,1.2,2.9,3.2,5.5,5.9l7.9,8.1l15.7,4.8l2.6,0.8c1.9,0.6,3.2,0.9,3.8,0.9c0.6,0,1.1-0.2,1.6-0.7c0-0.1,0.1-0.2,0.2-0.3
				L111.5,126.2z"/>
		</g>
		<g>
			<path class="st6" d="M137.9,104.6l-0.4-0.7c0.4-0.3,0.6-0.6,0.7-1c0.1-0.4,0.1-0.9-0.1-1.6c-0.2-0.9-0.7-2.1-1.4-3.6
				c-0.6-1.1-1.2-2.3-2-3.7L122,72.1c-0.9-1.6-1.7-2.9-2.3-3.8c-0.6-0.9-1.1-1.6-1.6-2.1c-0.6-0.7-1.2-1.1-1.7-1.4
				c-0.5-0.2-1-0.2-1.5-0.1l-0.4-0.7l6.5-3.8l0.4,0.7c-0.4,0.3-0.6,0.6-0.7,1s-0.1,0.9,0.1,1.6c0.1,0.8,0.5,1.6,1,2.7
				c0.5,1,1.3,2.5,2.5,4.6l12.6,21.9c1.2,2,2.1,3.5,2.7,4.5c0.6,0.9,1.2,1.6,1.8,2.2c0.5,0.5,1,0.8,1.4,0.9s0.8,0.1,1.2-0.1l0.4,0.7
				L137.9,104.6z"/>
			<path class="st6" d="M137.4,104.9l-6.7,3.9l-0.4-0.7c0.5-0.3,0.8-0.6,0.9-1c0.2-0.6,0-1.4-0.6-2.5s-1.9-2.7-3.8-4.7l-6.2-6.6
				l1.7,6.5c0.7,2.6,1.1,4.3,1.5,5.3c0.3,1,0.7,1.9,1.1,2.6c0.6,1.1,1.2,1.7,1.8,1.8c0.3,0.1,0.7,0.1,1.2-0.1l0.4,0.7l-4.7,2.7
				l-0.4-0.7c0.5-0.3,0.8-0.7,0.9-1.3c0.1-0.9-0.3-2.8-1.1-6l-0.9-3.3l-2.4-9.3L107.4,79c-2.2-2.3-3.9-4-5.1-4.9
				c-0.6-0.5-1.1-0.8-1.5-0.9s-0.8-0.1-1.3,0.1l-0.4-0.7l7.1-4.1l0.4,0.7c-0.4,0.5-0.7,1-0.7,1.5c-0.1,0.8,0.2,1.8,0.8,2.9
				c0.2,0.4,0.5,0.8,0.9,1.2c0.4,0.4,0.9,1.1,1.7,2l8.8,9.6l-2.5-10c-0.4-1.5-0.8-2.8-1.1-3.8c-0.3-1-0.7-1.8-1.2-2.6
				c-0.6-1.1-1.2-1.8-1.8-2.2c-0.6-0.4-1.2-0.5-1.8-0.3l-0.4-0.7l5-2.9l0.4,0.7c-0.3,0.4-0.4,0.9-0.4,1.4s0,1.3,0.2,2.4
				c0.3,1.6,0.9,4.2,1.8,7.9l2.8,11l11.1,12l1.9,2c1.4,1.5,2.3,2.4,2.9,2.7c0.5,0.3,1.1,0.3,1.7,0.1c0.1,0,0.2-0.1,0.3-0.1
				L137.4,104.9z"/>
		</g>
		<g>
			<path class="st6" d="M153.1,50.8h7.8v0.8c-0.5,0-1,0.1-1.3,0.4c-0.5,0.4-0.7,1.3-0.7,2.5c0,1.3,0.3,3.3,1,6l2.1,8.8l1.8-6.5
				c0.7-2.5,1.2-4.3,1.4-5.3s0.3-2,0.3-2.8c0-1.2-0.2-2-0.7-2.5c-0.2-0.2-0.6-0.4-1.1-0.5v-0.8h5.4v0.8c-0.6,0-1.1,0.2-1.4,0.7
				c-0.5,0.7-1.2,2.6-2,5.7l-0.9,3.3l-2.6,9.2l4.1,17.5c0.7,3.1,1.4,5.4,1.9,6.8c0.3,0.7,0.6,1.2,0.9,1.5c0.3,0.3,0.7,0.5,1.2,0.5
				v0.8H162v-0.8c0.6-0.2,1.1-0.5,1.4-1c0.5-0.7,0.7-1.6,0.7-2.9c0-0.4,0-0.9-0.1-1.5s-0.3-1.4-0.5-2.6l-2.9-12.7l-2.8,10
				c-0.4,1.5-0.7,2.8-0.9,3.8s-0.3,2-0.3,2.8c0,1.2,0.2,2.2,0.5,2.9c0.3,0.7,0.8,1.1,1.4,1.2v0.8h-5.7v-0.8c0.4-0.2,0.8-0.6,1.1-1
				s0.6-1.2,1-2.2c0.6-1.5,1.4-4.1,2.4-7.7l3.1-10.9l-3.7-16l-0.6-2.6c-0.5-1.9-0.8-3.2-1.2-3.8c-0.3-0.5-0.8-0.8-1.4-1
				c-0.1,0-0.2,0-0.4-0.1V50.8z"/>
			<path class="st6" d="M177.7,50.8v0.8c-0.4,0.1-0.8,0.3-1.1,0.5c-0.3,0.3-0.5,0.8-0.8,1.4c-0.3,0.9-0.5,2.2-0.6,3.8
				c0,1.2-0.1,2.6-0.1,4.2v25.3c0,1.9,0,3.4,0.1,4.5s0.2,2,0.3,2.6c0.2,0.9,0.5,1.6,0.8,2s0.8,0.7,1.3,0.8v0.8h-7.5v-0.8
				c0.5-0.1,0.8-0.3,1.1-0.6c0.3-0.3,0.5-0.8,0.7-1.4c0.3-0.7,0.4-1.7,0.5-2.8c0.1-1.1,0.1-2.9,0.1-5.2V61.6c0-2.4,0-4.1-0.1-5.2
				c-0.1-1.1-0.3-2-0.5-2.8c-0.2-0.7-0.5-1.1-0.7-1.4c-0.3-0.3-0.6-0.5-1.1-0.5v-0.8L177.7,50.8L177.7,50.8z"/>
			<path class="st6" d="M185.4,50.8v0.8c-0.4,0.1-0.8,0.3-1.1,0.5c-0.3,0.3-0.5,0.8-0.7,1.4c-0.3,0.9-0.5,2.2-0.6,3.8
				c0,1.2-0.1,2.6-0.1,4.2v25.3c0,1.9,0,3.4,0.1,4.5s0.2,2,0.3,2.6c0.2,0.9,0.5,1.6,0.8,2s0.8,0.7,1.3,0.8v0.8h-7.5v-0.8
				c0.5-0.1,0.8-0.3,1.1-0.6c0.3-0.3,0.5-0.8,0.7-1.4c0.3-0.7,0.4-1.7,0.5-2.8c0.1-1.1,0.1-2.9,0.1-5.2V61.6c0-2.4,0-4.1-0.1-5.2
				c-0.1-1.1-0.3-2-0.5-2.8c-0.2-0.7-0.5-1.1-0.7-1.4c-0.3-0.3-0.6-0.5-1.1-0.5v-0.8L185.4,50.8L185.4,50.8z"/>
		</g>
		<path class="st7" d="M169.5,173.3v-3.8l-4.1-0.2l-24.9,25.4c-0.5-0.2-0.9-0.4-1.4-0.6c-3.5-1.2-7.6-0.3-10.4,2.6
			c-0.3,0.3-0.5,0.5-0.7,0.8l0,0c-0.1,0.1-0.2,0.3-0.3,0.4l0,0c-0.5,0.7-0.9,1.5-1.2,2.3c-0.3,0.6-0.5,1.5-0.7,2.8
			c-0.8,5.4-8.5,16.3-12.7,20.6c-1,1.1-1.9,2-2.6,2.9l-4,4c-0.6,0.6-0.6,1.6,0,2.2l0.7,0.7c0.6,0.6,1.6,0.6,2.2,0l4-4
			c0.9-0.8,1.8-1.6,2.8-2.7c4.3-4.2,14.9-12.2,20.4-13.1c1.3-0.2,2.2-0.5,2.8-0.8c0.8-0.3,1.5-0.7,2.2-1.3l0,0
			c0.1-0.1,0.3-0.2,0.4-0.3l0,0c0.1-0.1,0.3-0.2,0.4-0.3l0,0c0.1-0.1,0.3-0.2,0.4-0.4c3.2-3.3,3.8-8.1,1.8-11.9L169.5,173.3z"/>
		<path class="st7" d="M170.3,170.9c0,0,2.2,17,3.6,35.9c1.4,18.9-2,35.9-2.6,48.2c-0.5,10.6-0.3,28.3-0.2,33.2l0,0l0,0
			c0,0.6-0.5,1.1-1.2,1.3h-0.8c-0.7-0.1-1.2-0.7-1.2-1.3l0,0l0,0c0.1-4.9,0.3-22.6-0.2-33.2c-0.6-12.4-4-29.3-2.6-48.2
			s3.6-35.9,3.6-35.9l0.8-1.4L170.3,170.9z"/>
		<circle class="st8" cx="169.5" cy="169.5" r="12.1"/>
		<circle cx="169.5" cy="169.5" r="8.8"/>
		<circle class="st9" cx="169.5" cy="169.5" r="8.1"/>
		
			<radialGradient id="SVGID_4_" cx="168.6946" cy="-237.6776" r="144.2717" gradientTransform="matrix(1 0 0 -1 0 -112)" gradientUnits="userSpaceOnUse">
			<stop  offset="0" style="stop-color:#FFFFFF"/>
			<stop  offset="0.128" style="stop-color:#E9E9E9"/>
			<stop  offset="0.3941" style="stop-color:#B2B2B2"/>
			<stop  offset="0.772" style="stop-color:#595959"/>
			<stop  offset="1" style="stop-color:#202020"/>
		</radialGradient>
		<circle class="st10" cx="169.5" cy="169.5" r="144.3"/>
	</g>
</g>
</svg>
