<?xml version="1.0" encoding="utf-8"?>
<!-- Generator: Adobe Illustrator 19.2.1, SVG Export Plug-In . SVG Version: 6.00 Build 0)  -->
<svg version="1.1" id="Layer_1" xmlns="http://www.w3.org/2000/svg" xmlns:xlink="http://www.w3.org/1999/xlink" x="0px" y="0px"
	 viewBox="0 0 298 420" style="enable-background:new 0 0 298 420;" xml:space="preserve">
<style type="text/css">
	.st0{fill:#131313;}
	.st1{fill:#1572B6;}
	.st2{fill:#33A9DC;}
	.st3{fill:#EBEBEB;}
	.st4{fill:#FFFFFF;}
</style>
<title>Slice 1</title>
<description>CSS SVG Logo source http://jaspreetchahal.org</description>
<g id="Page_1">
	<g id="Layer_1_1_">
		<path id="Shape" class="st0" d="M233.2,15.7h-24.7l25.7,27.9v13.3h-52.9V41.3h25.7l-25.7-27.9V0.1h51.9V15.7L233.2,15.7z
			 M170.8,15.7h-24.7l25.7,27.9v13.3h-52.9V41.3h25.7l-25.7-27.9V0.1h51.9V15.7L170.8,15.7z M109,16.3H82.4v24.3H109v16.2H63.4V0.1
			H109V16.3L109,16.3z"/>
		<path id="Shape_1_" class="st1" d="M27.1,386.3L0.1,82.7h297.4l-27.1,303.6L148.6,420L27.1,386.3z"/>
		<path id="Shape_2_" class="st2" d="M148.8,394.2l98.4-27.3l23.2-259.4H148.8V394.2z"/>
		<g id="Group" transform="translate(55.000000, 142.000000)">
			<path id="Shape_4_" class="st3" d="M96,171.7l-2.2,0.6l-41.4-11.2l-2.7-29.7H29.6H12.4l5.2,58.5L93.8,211l1.8-0.5L96,171.7z"/>
			<path id="Shape_5_" class="st4" d="M139.9,111.2l-4.5,49.9l-41.6,11.2l0,38.7l76.4-21.2l0.6-6.3l6.5-72.4H139.9z"/>
			<path id="Shape_6_" class="st3" d="M110.6,0.1v23.1v14v0.1H4.7H4.6L3.7,29l-2-18.9l-1-10H110.6z"/>
			<path id="Shape_7_" class="st3" d="M111.7,75.5v23.1v14v0.1H54.4h-0.2l-1-8.4l-2.4-18.9l-1.3-10H111.7z"/>
			<path id="Shape_3_" class="st4" d="M93.8,75.5h49.3l3.4-38.1H93.8V0.1h0.1h93.2l-0.9,10l-9.2,102.6H93.8V75.5z"/>
		</g>
	</g>
</g>
</svg>
