<?xml version="1.0" encoding="utf-8"?>
<!-- Generator: Adobe Illustrator 19.2.1, SVG Export Plug-In . SVG Version: 6.00 Build 0)  -->
<svg version="1.1" id="Layer_1" xmlns="http://www.w3.org/2000/svg" xmlns:xlink="http://www.w3.org/1999/xlink" x="0px" y="0px"
	 viewBox="0 0 339 339" style="enable-background:new 0 0 339 339;" xml:space="preserve">
<g>
	<g>
		<path d="M169.5,173.3l0-3.8l-4.1-0.2l-24.9,25.4c-0.5-0.2-0.9-0.4-1.4-0.6c-3.5-1.2-7.6-0.3-10.4,2.6c-0.3,0.3-0.5,0.5-0.7,0.8
			c0,0,0,0,0,0c-0.1,0.1-0.2,0.3-0.3,0.4h0c-0.5,0.7-0.9,1.5-1.2,2.3c-0.3,0.6-0.5,1.5-0.7,2.8c-0.8,5.4-8.5,16.3-12.7,20.6
			c-1,1.1-1.9,2-2.6,2.9l-4,4c-0.6,0.6-0.6,1.6,0,2.2l0.7,0.7c0.6,0.6,1.6,0.6,2.2,0l4-4c0.9-0.8,1.8-1.6,2.8-2.7
			c4.3-4.2,14.9-12.2,20.4-13.1c1.3-0.2,2.2-0.5,2.8-0.8c0.8-0.3,1.5-0.7,2.2-1.3c0,0,0,0,0,0c0.1-0.1,0.3-0.2,0.4-0.3c0,0,0,0,0,0
			c0.1-0.1,0.3-0.2,0.4-0.3c0,0,0,0,0,0c0.1-0.1,0.3-0.2,0.4-0.4c3.2-3.3,3.8-8.1,1.8-11.9L169.5,173.3z"/>
	</g>
</g>
</svg>
