<?xml version="1.0" encoding="utf-8"?>
<!-- Generator: Adobe Illustrator 19.2.1, SVG Export Plug-In . SVG Version: 6.00 Build 0)  -->
<svg version="1.1" id="Layer_1" xmlns="http://www.w3.org/2000/svg" xmlns:xlink="http://www.w3.org/1999/xlink" x="0px" y="0px"
	 viewBox="0 0 420 420" style="enable-background:new 0 0 420 420;" xml:space="preserve">
<style type="text/css">
	.st0{display:none;fill:url(#SVGID_1_);}
	.st1{opacity:0.3;fill:url(#SVGID_2_);enable-background:new    ;}
	.st2{opacity:0.7;}
	.st3{fill:#FFFFFF;}
	.st4{opacity:0.7;fill:#FFFFFF;enable-background:new    ;}
	.st5{opacity:0.5;fill:#FFFFFF;enable-background:new    ;}
	.st6{opacity:0.5;fill:url(#SVGID_3_);enable-background:new    ;}
	.st7{opacity:0.5;fill:url(#SVGID_4_);enable-background:new    ;}
	.st8{opacity:0.5;fill:url(#SVGID_5_);enable-background:new    ;}
	.st9{opacity:0.5;fill:url(#SVGID_6_);enable-background:new    ;}
	.st10{opacity:0.5;fill:url(#SVGID_7_);enable-background:new    ;}
	.st11{opacity:0.5;fill:url(#SVGID_8_);enable-background:new    ;}
	.st12{opacity:0.5;fill:url(#SVGID_9_);enable-background:new    ;}
	.st13{opacity:0.5;fill:url(#SVGID_10_);enable-background:new    ;}
	.st14{opacity:0.5;fill:url(#SVGID_11_);enable-background:new    ;}
	.st15{opacity:0.5;fill:url(#SVGID_12_);enable-background:new    ;}
	.st16{opacity:0.5;fill:url(#SVGID_13_);enable-background:new    ;}
	.st17{opacity:0.5;fill:url(#SVGID_14_);enable-background:new    ;}
	.st18{opacity:0.5;fill:url(#SVGID_15_);enable-background:new    ;}
	.st19{opacity:0.4;fill:url(#SVGID_16_);enable-background:new    ;}
	.st20{opacity:0.3;fill:url(#SVGID_17_);enable-background:new    ;}
	.st21{opacity:0.2;fill:url(#SVGID_18_);enable-background:new    ;}
	.st22{opacity:0.8;fill:url(#SVGID_19_);enable-background:new    ;}
	.st23{opacity:0.8;fill:url(#SVGID_20_);enable-background:new    ;}
	.st24{opacity:0.8;fill:url(#SVGID_21_);enable-background:new    ;}
	.st25{opacity:0.8;fill:url(#SVGID_22_);enable-background:new    ;}
	.st26{opacity:0.8;fill:url(#SVGID_23_);enable-background:new    ;}
	.st27{opacity:0.8;fill:url(#SVGID_24_);enable-background:new    ;}
	.st28{opacity:0.8;fill:url(#SVGID_25_);enable-background:new    ;}
	.st29{opacity:0.8;fill:url(#SVGID_26_);enable-background:new    ;}
	.st30{opacity:0.8;fill:url(#SVGID_27_);enable-background:new    ;}
	.st31{fill:#C4C4C4;}
	.st32{fill:url(#SVGID_28_);}
	.st33{fill:url(#SVGID_29_);}
	.st34{fill:url(#SVGID_30_);}
	.st35{fill:url(#SVGID_31_);}
	.st36{fill:url(#SVGID_32_);}
	.st37{fill:url(#SVGID_33_);}
	.st38{opacity:0.7;fill:url(#SVGID_34_);enable-background:new    ;}
	.st39{fill:url(#SVGID_35_);}
	.st40{fill:url(#SVGID_36_);}
	.st41{fill:url(#SVGID_37_);}
	.st42{display:none;opacity:0.25;fill:url(#SVGID_38_);enable-background:new    ;}
</style>
<g>
	
		<radialGradient id="SVGID_1_" cx="133.6093" cy="72.2946" r="262.8539" gradientTransform="matrix(0.9462 -0.3236 -0.1981 -0.5793 86.4758 283.7078)" gradientUnits="userSpaceOnUse">
		<stop  offset="4.110230e-003" style="stop-color:#C8C8C8"/>
		<stop  offset="0.1534" style="stop-color:#D3D3D3"/>
		<stop  offset="0.4708" style="stop-color:#EFEFEF"/>
		<stop  offset="0.9276" style="stop-color:#FFFFFF"/>
		<stop  offset="1" style="stop-color:#FFFFFF"/>
	</radialGradient>
	<rect class="st0" width="420" height="420"/>
	
		<radialGradient id="SVGID_2_" cx="133.6093" cy="72.2946" r="262.8539" gradientTransform="matrix(0.9462 -0.3236 -0.1981 -0.5793 86.4758 283.7078)" gradientUnits="userSpaceOnUse">
		<stop  offset="4.110230e-003" style="stop-color:#E7E7E7"/>
		<stop  offset="0.1534" style="stop-color:#DCDCDC"/>
		<stop  offset="0.4708" style="stop-color:#C0C0C0"/>
		<stop  offset="0.9276" style="stop-color:#939393"/>
		<stop  offset="1" style="stop-color:#8B8B8B"/>
	</radialGradient>
	<rect class="st1" width="420" height="420"/>
	<g class="st2">
		<path class="st3" d="M414.6,276.3c-0.1-2-0.5-4-1.1-5.9s-1.4-3.5-2.3-4.8s-1.9-2.3-3-2.9s-2.3-0.9-3.5-0.8s-2.4,0.7-3.6,1.7
			s-2.2,2.4-2.9,4.1c-0.8,1.7-1.4,3.6-1.8,5.6c-0.4,2.1-0.5,4.2-0.4,6.4c0.1,2.2,0.5,4.4,1.2,6.4c0.3,0.9,0.6,1.8,1,2.6
			c-0.1-0.2-0.2-0.3-0.2-0.5l0,0c0.1,0.2,0.2,0.3,0.2,0.5c0,0.1,0.1,0.2,0.1,0.3c0.2,0.3,0.4,0.7,0.5,1c-0.2-0.3-0.4-0.6-0.5-1
			c0.4,0.8,0.9,1.5,1.3,2.1c1,1.3,2.1,2.2,3.3,2.7c1.2,0.5,2.4,0.6,3.6,0.3c1.2-0.3,2.4-1,3.5-2.2c1.1-1.1,2-2.6,2.7-4.3
			c0.7-1.7,1.2-3.5,1.5-5.5C414.7,280.4,414.7,278.3,414.6,276.3z"/>
		<path class="st3" d="M397.9,287.9L397.9,287.9L397.9,287.9L397.9,287.9z"/>
		<path class="st3" d="M397.7,287.4L397.7,287.4L397.7,287.4L397.7,287.4z"/>
		<path class="st3" d="M394.7,209.3c-0.6-2-1.5-3.8-2.5-5.4c-1-1.5-2.1-2.8-3.4-3.7c-1.2-0.9-2.6-1.5-3.9-1.7c-1.4-0.2-2.7,0-4,0.7
			s-2.5,1.8-3.4,3.2s-1.6,3.2-2.1,5.1c-0.4,1.9-0.6,4.1-0.5,6.3s0.5,4.5,1.2,6.7s1.7,4.1,2.8,5.7c1.1,1.6,2.4,2.8,3.7,3.6
			c1.3,0.8,2.7,1.3,4.1,1.3c1.3,0,2.7-0.4,3.9-1.2c1.2-0.8,2.3-2.1,3.1-3.5c0.8-1.5,1.4-3.2,1.8-5s0.5-3.8,0.4-5.9
			C395.7,213.5,395.3,211.4,394.7,209.3z"/>
		<path class="st3" d="M375.5,150c-0.1-2-0.5-4.2-1.2-6.4s-1.6-4.2-2.7-6s-2.4-3.4-3.7-4.6c-1.4-1.3-2.9-2.2-4.4-2.8
			s-3.1-0.8-4.6-0.5s-2.8,1.1-3.9,2.2c-1.1,1.1-1.9,2.7-2.4,4.5s-0.8,3.9-0.7,6.1c0.1,2.2,0.5,4.6,1.3,7s1.8,4.5,3,6.4
			s2.6,3.4,4.1,4.6c1.5,1.2,3,2,4.6,2.4c1.5,0.4,3,0.4,4.5-0.1c1.4-0.5,2.6-1.4,3.5-2.6c0.9-1.2,1.6-2.7,2.1-4.5
			C375.4,154,375.6,152.1,375.5,150z"/>
		<path class="st3" d="M370.6,312c-0.8-2.3-1.8-4.1-3.1-5.5c-1.3-1.4-2.7-2.5-4.3-3c-1.6-0.6-3.3-0.6-5.1-0.2
			c-1.8,0.4-3.6,1.4-5.3,2.9c-1.8,1.6-3.3,3.5-4.5,5.8c-1.3,2.3-2.2,4.9-2.9,7.6c-0.6,2.7-0.9,5.6-0.9,8.3c0.1,2.8,0.6,5.5,1.4,7.9
			c0.9,2.4,2.1,4.4,3.5,5.8s3.1,2.3,4.8,2.7c1.7,0.4,3.5,0.2,5.3-0.5s3.5-1.9,5.2-3.7c1.6-1.7,3-3.8,4.1-6.1
			c1.1-2.3,1.9-4.7,2.4-7.2s0.7-5.1,0.6-7.6C371.8,316.7,371.4,314.2,370.6,312z"/>
		<path class="st3" d="M346.9,246.5c-0.1-2.5-0.5-5.1-1.4-7.5c-0.8-2.5-2-4.6-3.4-6.4c-1.4-1.8-3.1-3.2-4.9-4.2s-3.8-1.6-5.8-1.6
			c-2-0.1-4.1,0.4-6.1,1.5s-3.8,2.6-5.3,4.6s-2.6,4.3-3.4,6.8c-0.8,2.6-1.2,5.3-1.1,8.1s0.5,5.6,1.5,8.3c1,2.7,2.3,5,4,6.8
			c1.6,1.8,3.5,3.1,5.4,4c2,0.8,4,1.1,6.1,0.9c2-0.2,4.1-1,6-2.3s3.5-3,4.7-5c1.3-2,2.2-4.2,2.8-6.6
			C346.7,251.5,347,249,346.9,246.5z"/>
		<path class="st4" d="M254.4,79.4c2.1,2.8,4.5,5.3,7.1,7.4s5.3,3.7,8.1,4.7c2.7,1.1,5.4,1.6,8,1.5c2.5-0.1,4.7-0.8,6.5-2
			c1.7-1.2,3.1-2.8,4-4.8s1.4-4.3,1.3-6.9c0-2.6-0.5-5.4-1.5-8.3c-1-3-2.5-5.8-4.3-8.5c-1.8-2.7-3.9-5.1-6.2-7.2
			c-2.4-2.1-4.9-3.9-7.6-5.3c-2.7-1.4-5.5-2.2-8.2-2.5c-2.8-0.3-5.2,0.2-7.3,1.2c-2.1,1-3.7,2.6-4.9,4.6c-1.2,2.1-1.8,4.6-1.8,7.4
			c0,2.8,0.5,6,1.7,9.3C250.6,73.4,252.3,76.6,254.4,79.4z"/>
		<path class="st3" d="M302.8,364.8c-1.9-1.6-4.1-2.5-6.6-2.8s-5.2,0-8,1s-5.7,2.8-8.6,5.3s-5.5,5.6-7.6,9c-2.2,3.4-3.9,7.2-5.1,11
			s-1.8,7.7-1.9,11.5c0,3.7,0.6,7.2,1.9,10.3c1.3,3,3.2,5.3,5.4,6.7c2.2,1.5,4.8,2.1,7.6,2.1c2.7-0.1,5.6-0.9,8.5-2.4
			c2.8-1.5,5.7-3.6,8.4-6.5c2.6-2.8,4.9-5.9,6.7-9.3c1.8-3.3,3.2-6.8,4.1-10.2c0.9-3.4,1.3-6.9,1.3-10.1s-0.6-6.3-1.7-9.1
			C306.2,368.5,304.6,366.4,302.8,364.8z"/>
		<path class="st5" d="M271.6,300.9c1.1-3.2,1.7-6.6,1.7-9.9s-0.6-6.6-1.8-9.6c-1.2-3.1-3-5.7-5.1-7.7c-2.2-2.1-4.8-3.7-7.6-4.6
			c-2.9-1-6-1.4-9.3-1.1s-6.8,1.3-10.2,3c-3.5,1.8-6.5,4.2-9.1,7.1s-4.7,6.2-6.2,9.8c-1.5,3.6-2.3,7.4-2.4,11.2
			c-0.1,3.8,0.6,7.5,2,11c1.5,3.4,3.7,6.2,6.3,8.3c2.6,2.1,5.6,3.5,8.9,4.1c3.2,0.7,6.6,0.6,10-0.2c3.4-0.8,6.7-2.2,9.9-4.4
			c3.1-2.1,5.8-4.7,8-7.7C268.8,307.3,270.5,304.1,271.6,300.9z"/>
		<path class="st3" d="M125.6,77c3.6,3.9,7.9,7.3,12.5,10.1c4.5,2.8,9.4,4.9,14.3,6.4c4.8,1.4,9.6,2.1,14.2,1.9
			c4.5-0.2,8.4-1.1,11.5-2.7s5.6-3.7,7.3-6.3c1.7-2.6,2.6-5.6,2.8-9s-0.5-7-2-11c-1.6-3.9-3.9-7.7-6.8-11.2
			c-2.9-3.6-6.5-6.8-10.4-9.7c-4-2.9-8.4-5.4-13-7.3c-4.7-1.9-9.6-3.2-14.6-3.7s-9.5,0-13.3,1.2c-3.9,1.2-7.1,3.3-9.4,6
			s-3.7,6.1-4,10s0.4,8.2,2.4,12.7C119,68.8,122,73.1,125.6,77z"/>
		<path class="st3" d="M127.5,402.9c4.3-4.9,7.8-10.1,10.2-15.2c2.4-5,3.8-10.1,4-14.8c0.3-4.8-0.5-9.3-2.5-13.3
			c-2-4.1-5.1-7.3-9-9.7c-4-2.4-8.8-3.9-14.1-4.6c-5.5-0.6-11.6-0.3-18,1c-6.6,1.4-13.6,3.8-20.6,7.4c-7.2,3.7-13.7,8.2-19.3,13.3
			c-5.7,5.2-10.4,10.9-13.9,16.8c-3.5,6-5.7,12.1-6.3,17.9s0.4,11.3,3.1,16.1c0.4,0.7,0.9,1.4,1.4,2.1h64.1c1.6-1,3.2-2,4.8-3.1
			C117.7,412.7,123.1,407.9,127.5,402.9z"/>
		<path class="st5" d="M9.2,279c8.5-0.6,17.1-2.3,25.2-5c7.9-2.7,14.8-6.2,20.4-10.1c5.5-3.9,9.8-8.3,12.9-12.9
			c3-4.6,4.9-9.4,5.3-14.3c0.5-4.9-0.4-9.8-2.8-14.6S64,213,59.3,209.5c-4.8-3.6-10.7-6.6-17.4-8.9c-6.8-2.3-14.4-3.7-22.5-4.2
			C13.2,196,6.7,196.2,0,197v82.2C3,279.3,6.1,279.3,9.2,279z"/>
	</g>
	
		<linearGradient id="SVGID_3_" gradientUnits="userSpaceOnUse" x1="-55.2838" y1="294.7042" x2="400.2457" y2="433.0126" gradientTransform="matrix(1 0 0 -1 0 422)">
		<stop  offset="0" style="stop-color:#B7B7B7"/>
		<stop  offset="1" style="stop-color:#939393"/>
	</linearGradient>
	<polygon class="st6" points="420,52 420,50.7 0,41.5 0,44.7 	"/>
	
		<linearGradient id="SVGID_4_" gradientUnits="userSpaceOnUse" x1="41.0994" y1="-22.7503" x2="496.6308" y2="115.5587" gradientTransform="matrix(1 0 0 -1 0 422)">
		<stop  offset="0" style="stop-color:#B7B7B7"/>
		<stop  offset="1" style="stop-color:#939393"/>
	</linearGradient>
	<polygon class="st7" points="278.1,420 420,284.1 420,282.5 275.5,420 	"/>
	
		<linearGradient id="SVGID_5_" gradientUnits="userSpaceOnUse" x1="35.8286" y1="-5.3888" x2="491.3576" y2="132.9194" gradientTransform="matrix(1 0 0 -1 0 422)">
		<stop  offset="0" style="stop-color:#B7B7B7"/>
		<stop  offset="1" style="stop-color:#939393"/>
	</linearGradient>
	<polygon class="st8" points="232.9,420 420,259.8 420,258.3 229.7,420 	"/>
	
		<linearGradient id="SVGID_6_" gradientUnits="userSpaceOnUse" x1="29.4692" y1="15.5605" x2="484.999" y2="153.8689" gradientTransform="matrix(1 0 0 -1 0 422)">
		<stop  offset="0" style="stop-color:#B7B7B7"/>
		<stop  offset="1" style="stop-color:#939393"/>
	</linearGradient>
	<polygon class="st9" points="168.2,420 172.1,420 420,232.5 420,231 	"/>
	
		<linearGradient id="SVGID_7_" gradientUnits="userSpaceOnUse" x1="24.0725" y1="33.3351" x2="479.6006" y2="171.6431" gradientTransform="matrix(1 0 0 -1 0 422)">
		<stop  offset="0" style="stop-color:#B7B7B7"/>
		<stop  offset="1" style="stop-color:#939393"/>
	</linearGradient>
	<polygon class="st10" points="106.8,420 420,213.4 420,212 102.1,420 	"/>
	
		<linearGradient id="SVGID_8_" gradientUnits="userSpaceOnUse" x1="17.1718" y1="56.0636" x2="472.7007" y2="194.3718" gradientTransform="matrix(1 0 0 -1 0 422)">
		<stop  offset="0" style="stop-color:#B7B7B7"/>
		<stop  offset="1" style="stop-color:#939393"/>
	</linearGradient>
	<polygon class="st11" points="420,191.2 420,189.8 10.7,420 16.4,420 	"/>
	
		<linearGradient id="SVGID_9_" gradientUnits="userSpaceOnUse" x1="-4.4415" y1="114.391" x2="451.0597" y2="252.6908" gradientTransform="matrix(1 0 0 -1 0 422)">
		<stop  offset="0" style="stop-color:#B7B7B7"/>
		<stop  offset="1" style="stop-color:#939393"/>
	</linearGradient>
	<polygon class="st12" points="420,161.7 420,160.3 0,321.5 0,324.7 	"/>
	
		<linearGradient id="SVGID_10_" gradientUnits="userSpaceOnUse" x1="-15.41" y1="161.8107" x2="440.134" y2="300.1236" gradientTransform="matrix(1 0 0 -1 0 422)">
		<stop  offset="0" style="stop-color:#B7B7B7"/>
		<stop  offset="1" style="stop-color:#939393"/>
	</linearGradient>
	<polygon class="st13" points="420,129.8 420,128.5 0,253.7 0,257 	"/>
	
		<linearGradient id="SVGID_11_" gradientUnits="userSpaceOnUse" x1="-35.8523" y1="230.7041" x2="419.6772" y2="369.0124" gradientTransform="matrix(1 0 0 -1 0 422)">
		<stop  offset="0" style="stop-color:#B7B7B7"/>
		<stop  offset="1" style="stop-color:#939393"/>
	</linearGradient>
	<polygon class="st14" points="420,89.3 420,88 0,144 0,147.4 	"/>
	
		<linearGradient id="SVGID_12_" gradientUnits="userSpaceOnUse" x1="-45.6794" y1="263.0703" x2="409.8477" y2="401.378" gradientTransform="matrix(1 0 0 -1 0 422)">
		<stop  offset="0" style="stop-color:#B7B7B7"/>
		<stop  offset="1" style="stop-color:#939393"/>
	</linearGradient>
	<polygon class="st15" points="420,70.5 420,69.2 0,92.1 0,95.4 	"/>
	
		<linearGradient id="SVGID_13_" gradientUnits="userSpaceOnUse" x1="97.7816" y1="211.4351" x2="105.9365" y2="214.1962" gradientTransform="matrix(1 0 0 -1 0 422)">
		<stop  offset="0" style="stop-color:#B7B7B7"/>
		<stop  offset="1" style="stop-color:#939393"/>
	</linearGradient>
	<polygon class="st16" points="172.1,420 30,0 26.8,0 168.9,420 	"/>
	
		<linearGradient id="SVGID_14_" gradientUnits="userSpaceOnUse" x1="145.6813" y1="205.5606" x2="195.7535" y2="222.5142" gradientTransform="matrix(1 0 0 -1 0 422)">
		<stop  offset="0" style="stop-color:#B7B7B7"/>
		<stop  offset="1" style="stop-color:#939393"/>
	</linearGradient>
	<polygon class="st17" points="246,420 86.4,0 83.4,0 243,420 	"/>
	
		<linearGradient id="SVGID_15_" gradientUnits="userSpaceOnUse" x1="213.7825" y1="198.4677" x2="282.87" y2="221.8596" gradientTransform="matrix(1 0 0 -1 0 422)">
		<stop  offset="0" style="stop-color:#B7B7B7"/>
		<stop  offset="1" style="stop-color:#939393"/>
	</linearGradient>
	<polygon class="st18" points="332.1,420 177.4,0 175.4,0 330,420 	"/>
	
		<linearGradient id="SVGID_16_" gradientUnits="userSpaceOnUse" x1="303.2035" y1="202.5547" x2="339.433" y2="214.8214" gradientTransform="matrix(1 0 0 -1 0 422)">
		<stop  offset="0" style="stop-color:#B7B7B7"/>
		<stop  offset="1" style="stop-color:#939393"/>
	</linearGradient>
	<polygon class="st19" points="406,420 258.2,0 256.2,0 404,420 	"/>
	
		<linearGradient id="SVGID_17_" gradientUnits="userSpaceOnUse" x1="336.7688" y1="224.3004" x2="357.9584" y2="231.4749" gradientTransform="matrix(1 0 0 -1 0 422)">
		<stop  offset="0" style="stop-color:#B7B7B7"/>
		<stop  offset="1" style="stop-color:#939393"/>
	</linearGradient>
	<polygon class="st20" points="420,378.1 289.5,0 287.5,0 420,383.9 	"/>
	
		<linearGradient id="SVGID_18_" gradientUnits="userSpaceOnUse" x1="369.6473" y1="332.3546" x2="394.1889" y2="340.6639" gradientTransform="matrix(1 0 0 -1 0 422)">
		<stop  offset="0" style="stop-color:#B7B7B7"/>
		<stop  offset="1" style="stop-color:#939393"/>
	</linearGradient>
	<polygon class="st21" points="420,156.6 370,0 368,0 420,162.8 	"/>
	<circle class="st4" cx="122.5" cy="277.7" r="7.8"/>
	<circle class="st4" cx="158.3" cy="385" r="7.8"/>
	<circle class="st4" cx="58.6" cy="90.8" r="7.8"/>
	<circle class="st4" cx="203.6" cy="313.4" r="6.8"/>
	<circle class="st4" cx="287" cy="300.3" r="5.9"/>
	<circle class="st4" cx="206.9" cy="82.8" r="5.9"/>
	<circle class="st4" cx="284.5" cy="78.2" r="5.1"/>
	<circle class="st4" cx="326.8" cy="197.6" r="5.1"/>
	<circle class="st4" cx="397.8" cy="91.3" r="3.4"/>
	
		<radialGradient id="SVGID_19_" cx="122.5351" cy="144.3208" r="7.7578" gradientTransform="matrix(1 0 0 -1 0 422)" gradientUnits="userSpaceOnUse">
		<stop  offset="0" style="stop-color:#EBEBEB"/>
		<stop  offset="0.4839" style="stop-color:#E5E5E5"/>
		<stop  offset="1" style="stop-color:#C1C1C1"/>
	</radialGradient>
	<circle class="st22" cx="122.5" cy="277.7" r="7.8"/>
	
		<radialGradient id="SVGID_20_" cx="158.3" cy="37.0395" r="7.7557" gradientTransform="matrix(1 0 0 -1 0 422)" gradientUnits="userSpaceOnUse">
		<stop  offset="0" style="stop-color:#EBEBEB"/>
		<stop  offset="0.4839" style="stop-color:#E5E5E5"/>
		<stop  offset="1" style="stop-color:#C1C1C1"/>
	</radialGradient>
	<circle class="st23" cx="158.3" cy="385" r="7.8"/>
	
		<radialGradient id="SVGID_21_" cx="58.5683" cy="331.1829" r="7.7579" gradientTransform="matrix(1 0 0 -1 0 422)" gradientUnits="userSpaceOnUse">
		<stop  offset="0" style="stop-color:#EBEBEB"/>
		<stop  offset="0.4839" style="stop-color:#E5E5E5"/>
		<stop  offset="1" style="stop-color:#C1C1C1"/>
	</radialGradient>
	<circle class="st24" cx="58.6" cy="90.8" r="7.8"/>
	
		<radialGradient id="SVGID_22_" cx="203.6249" cy="108.561" r="6.7676" gradientTransform="matrix(1 0 0 -1 0 422)" gradientUnits="userSpaceOnUse">
		<stop  offset="0" style="stop-color:#EBEBEB"/>
		<stop  offset="0.4839" style="stop-color:#E5E5E5"/>
		<stop  offset="1" style="stop-color:#C1C1C1"/>
	</radialGradient>
	<circle class="st25" cx="203.6" cy="313.4" r="6.8"/>
	
		<radialGradient id="SVGID_23_" cx="287.0122" cy="121.6625" r="5.9216" gradientTransform="matrix(1 0 0 -1 0 422)" gradientUnits="userSpaceOnUse">
		<stop  offset="0" style="stop-color:#EBEBEB"/>
		<stop  offset="0.4839" style="stop-color:#E5E5E5"/>
		<stop  offset="1" style="stop-color:#C1C1C1"/>
	</radialGradient>
	<circle class="st26" cx="287" cy="300.3" r="5.9"/>
	
		<radialGradient id="SVGID_24_" cx="206.9296" cy="339.248" r="5.9219" gradientTransform="matrix(1 0 0 -1 0 422)" gradientUnits="userSpaceOnUse">
		<stop  offset="0" style="stop-color:#EBEBEB"/>
		<stop  offset="0.4839" style="stop-color:#E5E5E5"/>
		<stop  offset="1" style="stop-color:#C1C1C1"/>
	</radialGradient>
	<circle class="st27" cx="206.9" cy="82.8" r="5.9"/>
	
		<radialGradient id="SVGID_25_" cx="284.5" cy="343.7807" r="5.0725" gradientTransform="matrix(1 0 0 -1 0 422)" gradientUnits="userSpaceOnUse">
		<stop  offset="0" style="stop-color:#EBEBEB"/>
		<stop  offset="0.4839" style="stop-color:#E5E5E5"/>
		<stop  offset="1" style="stop-color:#C1C1C1"/>
	</radialGradient>
	<circle class="st28" cx="284.5" cy="78.2" r="5.1"/>
	
		<radialGradient id="SVGID_26_" cx="326.8" cy="224.4113" r="5.0769" gradientTransform="matrix(1 0 0 -1 0 422)" gradientUnits="userSpaceOnUse">
		<stop  offset="0" style="stop-color:#EBEBEB"/>
		<stop  offset="0.4839" style="stop-color:#E5E5E5"/>
		<stop  offset="1" style="stop-color:#C1C1C1"/>
	</radialGradient>
	<circle class="st29" cx="326.8" cy="197.6" r="5.1"/>
	
		<radialGradient id="SVGID_27_" cx="397.8193" cy="330.6855" r="3.3838" gradientTransform="matrix(1 0 0 -1 0 422)" gradientUnits="userSpaceOnUse">
		<stop  offset="0" style="stop-color:#EBEBEB"/>
		<stop  offset="0.4839" style="stop-color:#E5E5E5"/>
		<stop  offset="1" style="stop-color:#C1C1C1"/>
	</radialGradient>
	<circle class="st30" cx="397.8" cy="91.3" r="3.4"/>
	<path class="st31" d="M391.3,163.5l-5.9-18.1l-26.5,8.5l-68.5,22.4l-7.7-19.7l-28.9,7.7l-5.7-14c1-0.6,1.8-1.3,2.4-2.1
		c0.7-0.8,1.2-1.7,1.5-2.7s0.5-2.1,0.4-3.2c-0.1-1.1-0.3-2.3-0.8-3.4c-0.6-1.4-1.4-2.7-2.4-3.8s-2.3-2.1-3.6-2.9
		c-1.4-0.8-2.8-1.3-4.4-1.6c-1.5-0.3-3.1-0.3-4.7-0.1c-1.6,0.3-2.9,0.8-4.1,1.6c-1.2,0.8-2.1,1.8-2.7,3c-0.7,1.2-1,2.5-1.1,3.9
		s0.2,2.9,0.8,4.4c0.5,1.2,1.2,2.4,2.1,3.4c0.9,1,1.9,1.9,3,2.6c1.1,0.7,2.3,1.3,3.5,1.7s2.5,0.7,3.8,0.7l5.8,14.1l-32.6,8.7
		c-0.9-1.1-1.9-2.1-3.1-2.9c-1.2-0.8-2.6-1.5-4-2s-3-0.8-4.6-0.9c-1.6-0.1-3.2,0.1-4.8,0.5c-1.9,0.5-3.6,1.2-5,2.2s-2.5,2.2-3.4,3.6
		c-0.8,1.4-1.3,2.9-1.4,4.5c-0.1,1.6,0.2,3.2,0.9,4.9c0.7,1.6,1.8,3,3.1,4.2s2.9,2.1,4.6,2.8c1.7,0.7,3.5,1.1,5.4,1.2
		c1.9,0.1,3.7-0.1,5.6-0.7c1.4-0.4,2.7-1,3.8-1.8c1.1-0.7,2-1.6,2.8-2.6s1.3-2,1.7-3.1s0.6-2.3,0.5-3.5l62.2-17.6l5.7,14.5l2.1,5.4
		l5.1-1.7l91.5-31.5l6,18.2l30-12.6v-4L391.3,163.5z M245.4,143.4c-0.3,0.5-0.6,0.9-1.1,1.2s-1,0.6-1.6,0.7c-0.6,0.1-1.3,0.1-1.9,0
		c-0.6-0.1-1.3-0.3-1.8-0.6c-0.6-0.3-1.1-0.7-1.6-1.2s-0.8-1-1.1-1.6c-0.2-0.6-0.4-1.2-0.3-1.8c0-0.6,0.2-1.1,0.4-1.6
		c0.3-0.5,0.6-0.9,1.1-1.2s1-0.6,1.7-0.7c0.6-0.1,1.3-0.1,1.9,0c0.6,0.1,1.3,0.3,1.8,0.6c0.6,0.3,1.1,0.7,1.5,1.2s0.8,1,1,1.6
		s0.3,1.2,0.3,1.7C245.8,142.4,245.7,142.9,245.4,143.4z M208.9,182.9c-0.3,0.6-0.7,1.1-1.3,1.5c-0.5,0.4-1.2,0.8-2,1
		s-1.5,0.3-2.3,0.2c-0.8,0-1.5-0.2-2.2-0.5s-1.3-0.7-1.9-1.2c-0.5-0.5-1-1.1-1.3-1.7c-0.3-0.7-0.4-1.3-0.4-2c0-0.6,0.2-1.3,0.5-1.8
		c0.3-0.6,0.8-1.1,1.3-1.5c0.6-0.4,1.2-0.7,2-0.9s1.6-0.3,2.3-0.2c0.8,0.1,1.5,0.3,2.2,0.5c0.7,0.3,1.3,0.7,1.8,1.2s0.9,1,1.2,1.7
		c0.3,0.6,0.4,1.3,0.4,1.9C209.4,181.7,209.2,182.3,208.9,182.9z"/>
	<g>
		
			<linearGradient id="SVGID_28_" gradientUnits="userSpaceOnUse" x1="-8.522" y1="140.6749" x2="447.0105" y2="278.9842" gradientTransform="matrix(1 0 0 -1 0 422)">
			<stop  offset="0" style="stop-color:#B0B0B0"/>
			<stop  offset="1" style="stop-color:#D4D4D4"/>
		</linearGradient>
		<path class="st32" d="M385.4,145.4l-6.5,2.1l-3.1-9.5l44.3-12.9v-4l-48.4,13.6l4.5,13.6l-14.2,4.6l1.4,4.2l-0.8,0.3l6.7-2.3
			l3.6,10.7l1-0.3l1,3l-1,0.4l6.4-2.6l4.3,12.7c-0.4,0.4-0.8,1-1,1.5c-0.3,0.6-0.5,1.3-0.6,2s-0.1,1.5-0.1,2.2
			c0.1,0.8,0.2,1.5,0.5,2.3c0.3,0.9,0.7,1.7,1.3,2.4c0.5,0.7,1.1,1.2,1.7,1.6c0.6,0.4,1.3,0.6,2,0.7c0.7,0.1,1.3-0.1,2-0.4
			c0.6-0.3,1.2-0.8,1.6-1.4c0.4-0.6,0.7-1.3,1-2.1c0.2-0.8,0.3-1.7,0.3-2.5c0-0.9-0.2-1.8-0.5-2.7c-0.2-0.7-0.6-1.4-0.9-2
			c-0.4-0.6-0.8-1.1-1.3-1.5s-1-0.7-1.5-1c-0.5-0.2-1.1-0.3-1.6-0.3l-5.5-16.5l-2.7,1.1l-3.5,1.4l-3.3-9.8l11.9-4.1l6,18.2l30-12.6
			v-4l-28.7,11.7L385.4,145.4z M386,183.7c0.1-0.3,0.2-0.6,0.4-0.9c0.2-0.2,0.4-0.4,0.7-0.6c0.3-0.1,0.5-0.2,0.8-0.1
			c0.3,0,0.5,0.1,0.8,0.3s0.5,0.4,0.7,0.7s0.4,0.6,0.5,1s0.2,0.8,0.2,1.1c0,0.4,0,0.7-0.1,1.1c-0.1,0.3-0.2,0.6-0.4,0.9
			c-0.2,0.2-0.4,0.4-0.7,0.6c-0.3,0.1-0.5,0.2-0.8,0.1c-0.3,0-0.5-0.1-0.8-0.3s-0.5-0.4-0.7-0.7s-0.4-0.6-0.5-1s-0.2-0.8-0.2-1.1
			C385.9,184.4,385.9,184.1,386,183.7z"/>
		
			<linearGradient id="SVGID_29_" gradientUnits="userSpaceOnUse" x1="-14.6453" y1="188.6136" x2="432.8995" y2="324.4977" gradientTransform="matrix(1 0 0 -1 0 422)">
			<stop  offset="0" style="stop-color:#B0B0B0"/>
			<stop  offset="1" style="stop-color:#D4D4D4"/>
		</linearGradient>
		<path class="st33" d="M356.7,138.6l1.4,4.2l6.6-1.9l3-0.9l-1.4-4.1l-3.7-11l57-13.4v-3.9l-43.4,9.9l-2.7-9.2
			c0.4-0.3,0.8-0.7,1.1-1.2c0.3-0.5,0.5-1.1,0.6-1.7s0.1-1.3,0.1-2.1c-0.1-0.7-0.2-1.5-0.5-2.3c-0.3-1-0.7-1.8-1.3-2.6
			c-0.5-0.8-1.1-1.5-1.8-2.1c-0.6-0.6-1.3-1-2.1-1.3c-0.7-0.3-1.4-0.4-2.1-0.3s-1.3,0.4-1.8,0.8s-0.9,1-1.1,1.7
			c-0.3,0.7-0.4,1.5-0.4,2.4s0.2,1.9,0.5,2.8c0.3,0.8,0.6,1.6,1,2.3c0.4,0.7,0.9,1.3,1.4,1.9c0.5,0.5,1.1,1,1.6,1.3
			c0.6,0.4,1.2,0.6,1.7,0.7l3.1,9.5l-15.3,3.3l5.2,15.3L356.7,138.6z M372,103.7c-0.1,0.3-0.2,0.5-0.4,0.7c-0.2,0.2-0.4,0.3-0.7,0.4
			c-0.3,0-0.6,0-0.9-0.1s-0.6-0.3-0.9-0.5s-0.5-0.5-0.7-0.9c-0.2-0.3-0.4-0.7-0.5-1.1s-0.2-0.8-0.2-1.2c0-0.4,0-0.7,0.1-1
			s0.3-0.5,0.5-0.7s0.4-0.3,0.7-0.3c0.3,0,0.6,0,0.9,0.1s0.6,0.3,0.9,0.5s0.5,0.5,0.7,0.9c0.2,0.3,0.4,0.7,0.5,1.1s0.2,0.8,0.2,1.1
			C372.2,103.1,372.1,103.4,372,103.7z"/>
		<g>
			
				<linearGradient id="SVGID_30_" gradientUnits="userSpaceOnUse" x1="6.5242" y1="94.8737" x2="460.8554" y2="232.8183" gradientTransform="matrix(1 0 0 -1 0 422)">
				<stop  offset="0" style="stop-color:#B0B0B0"/>
				<stop  offset="1" style="stop-color:#D4D4D4"/>
			</linearGradient>
			<path class="st34" d="M359.3,174.3l10.2,29.6l10.8-5.6l6.8,19.9l6.3-3.8c-0.1-0.8-0.1-1.5,0-2.2s0.3-1.4,0.5-2s0.5-1.2,0.9-1.7
				c0.2-0.6,0.6-1,1.1-1.3c0.6-0.4,1.2-0.5,1.9-0.5c0.6,0,1.2,0.2,1.8,0.6c0.6,0.3,1.1,0.8,1.6,1.5c0.5,0.6,0.9,1.4,1.1,2.3
				c0.3,0.9,0.4,1.8,0.5,2.7c0,0.9,0,1.8-0.2,2.6s-0.5,1.6-0.9,2.2c-0.4,0.6-0.9,1.2-1.5,1.6c-0.5,0.3-1,0.5-1.5,0.6s-1,0-1.5-0.2
				s-1-0.5-1.4-0.8c-0.5-0.4-0.9-0.9-1.2-1.5l-6.2,3.9l6.2,18.2c0.6-0.2,1.1-0.2,1.6-0.1c0.5,0.1,1.1,0.3,1.5,0.6
				c0.5,0.3,0.9,0.8,1.3,1.3s0.7,1.2,1,1.9c0.3,0.9,0.5,1.8,0.5,2.7s-0.1,1.9-0.3,2.7c-0.2,0.9-0.5,1.7-0.9,2.4s-0.9,1.4-1.5,1.8
				c-0.6,0.5-1.3,0.8-1.9,0.8c-0.7,0.1-1.3,0-1.9-0.3s-1.2-0.7-1.7-1.3s-0.9-1.4-1.2-2.3c-0.2-0.7-0.4-1.5-0.5-2.2
				c-0.1-0.8-0.1-1.5,0-2.3c0.1-0.7,0.3-1.5,0.5-2.1c0.2-0.7,0.5-1.3,0.9-1.8l-13.2-38.6l-7.9,4.2l-3.1,1.6l-1.4-4.1l-10.3-29.4
				L359.3,174.3z M399,216.3c0.2-0.2,0.5-0.4,0.6-0.6c0.2-0.3,0.3-0.6,0.4-0.9c0.1-0.3,0.1-0.7,0.1-1.1c0-0.4-0.1-0.7-0.2-1.1
				c-0.1-0.4-0.3-0.7-0.5-0.9c-0.2-0.3-0.4-0.5-0.7-0.6c-0.2-0.1-0.5-0.2-0.8-0.2s-0.5,0.1-0.8,0.2c-0.2,0.1-0.5,0.4-0.6,0.6
				c-0.2,0.3-0.3,0.6-0.4,0.9c-0.1,0.3-0.1,0.7-0.1,1.1c0,0.4,0.1,0.8,0.2,1.1c0.1,0.4,0.3,0.7,0.5,0.9c0.2,0.3,0.4,0.5,0.7,0.6
				c0.2,0.1,0.5,0.2,0.8,0.2C398.4,216.5,398.7,216.4,399,216.3 M397.3,245.9c-0.1-0.4-0.3-0.7-0.5-0.9s-0.4-0.4-0.7-0.5
				c-0.2-0.1-0.5-0.2-0.8-0.1c-0.3,0-0.5,0.1-0.8,0.3s-0.5,0.4-0.7,0.7s-0.3,0.6-0.4,1s-0.1,0.8-0.1,1.1c0,0.4,0.1,0.8,0.2,1.2
				s0.3,0.7,0.5,0.9s0.4,0.4,0.7,0.5c0.3,0.1,0.5,0.2,0.8,0.1c0.3,0,0.5-0.1,0.8-0.3s0.5-0.4,0.6-0.7c0.2-0.3,0.3-0.6,0.4-1
				s0.1-0.7,0.1-1.1C397.5,246.6,397.5,246.3,397.3,245.9"/>
		</g>
		<g>
			
				<linearGradient id="SVGID_31_" gradientUnits="userSpaceOnUse" x1="-25.3435" y1="196.1497" x2="430.1652" y2="334.4518" gradientTransform="matrix(1 0 0 -1 0 422)">
				<stop  offset="0" style="stop-color:#B0B0B0"/>
				<stop  offset="1" style="stop-color:#D4D4D4"/>
			</linearGradient>
			<path class="st35" d="M328.1,89.8c0.9-0.1,1.8,0.1,2.7,0.4c0.9,0.3,1.8,0.8,2.6,1.5c0.8,0.7,1.6,1.5,2.2,2.4s1.2,1.9,1.5,3
				c0.3,0.9,0.5,1.7,0.5,2.5c0.1,0.8,0,1.5-0.1,2.2s-0.4,1.3-0.7,1.9c-0.3,0.5-0.8,1-1.3,1.4l12.6,36.2l-3.4,0.9L332,105.8
				c-0.8-0.1-1.6-0.4-2.3-0.8c-0.8-0.4-1.5-0.9-2.2-1.5s-1.3-1.4-1.9-2.2c-0.5-0.8-1-1.7-1.3-2.7c-0.4-1.1-0.6-2.2-0.6-3.2
				s0.2-1.9,0.5-2.7c0.3-0.8,0.9-1.5,1.5-2C326.4,90.2,327.2,89.9,328.1,89.8z M332.1,101.1c0.4,0,0.7-0.2,0.9-0.4
				c0.3-0.2,0.5-0.5,0.6-0.8s0.2-0.7,0.2-1.1s-0.1-0.8-0.2-1.3c-0.2-0.5-0.4-0.9-0.6-1.2c-0.3-0.4-0.6-0.7-0.9-1s-0.7-0.5-1.1-0.6
				s-0.8-0.2-1.1-0.1c-0.4,0-0.7,0.2-0.9,0.4c-0.3,0.2-0.5,0.5-0.6,0.8s-0.2,0.7-0.2,1.1s0.1,0.9,0.2,1.3c0.2,0.5,0.4,0.9,0.7,1.3
				c0.3,0.4,0.6,0.7,0.9,1s0.7,0.5,1.1,0.6C331.3,101.1,331.7,101.2,332.1,101.1"/>
		</g>
		<g>
			
				<linearGradient id="SVGID_32_" gradientUnits="userSpaceOnUse" x1="-22.0015" y1="184.9904" x2="433.561" y2="323.3087" gradientTransform="matrix(1 0 0 -1 0 422)">
				<stop  offset="0" style="stop-color:#B0B0B0"/>
				<stop  offset="1" style="stop-color:#D4D4D4"/>
			</linearGradient>
			<path class="st36" d="M323.4,116c0.9-0.2,1.9-0.1,2.8,0.2c0.9,0.3,1.9,0.7,2.7,1.4c0.9,0.6,1.6,1.4,2.3,2.3
				c0.7,0.9,1.2,1.9,1.6,3c0.3,0.9,0.5,1.7,0.6,2.5s0,1.6-0.1,2.3c-0.2,0.7-0.4,1.4-0.8,2s-0.8,1.1-1.3,1.5l4.7,13.3l-3.7,1
				l-4.7-13.3c-0.8-0.1-1.6-0.3-2.4-0.6s-1.6-0.8-2.3-1.4c-0.7-0.6-1.4-1.3-1.9-2.1c-0.6-0.8-1-1.7-1.4-2.7
				c-0.4-1.1-0.6-2.3-0.6-3.3c0-1.1,0.2-2,0.5-2.9c0.4-0.9,0.9-1.6,1.6-2.2C321.7,116.6,322.5,116.2,323.4,116z M327.5,127.5
				c0.4-0.1,0.7-0.3,1-0.5s0.5-0.5,0.6-0.9s0.2-0.7,0.2-1.2c0-0.4-0.1-0.9-0.2-1.3c-0.2-0.5-0.4-0.9-0.7-1.2c-0.3-0.4-0.6-0.7-1-0.9
				c-0.4-0.3-0.7-0.4-1.1-0.5s-0.8-0.1-1.2-0.1c-0.4,0.1-0.7,0.2-1,0.5c-0.3,0.2-0.5,0.5-0.6,0.9s-0.2,0.8-0.2,1.2
				c0,0.4,0.1,0.9,0.2,1.4c0.2,0.5,0.4,0.9,0.7,1.3c0.3,0.4,0.6,0.7,1,0.9c0.4,0.2,0.7,0.4,1.1,0.5
				C326.7,127.5,327.1,127.6,327.5,127.5"/>
		</g>
		<g>
			
				<linearGradient id="SVGID_33_" gradientUnits="userSpaceOnUse" x1="8.577" y1="84.3607" x2="464.1093" y2="222.6699" gradientTransform="matrix(1 0 0 -1 0 422)">
				<stop  offset="0" style="stop-color:#B0B0B0"/>
				<stop  offset="1" style="stop-color:#D4D4D4"/>
			</linearGradient>
			<path class="st37" d="M379.6,233.1c0.6-0.1,1.2-0.1,1.7,0.1c0.6,0.1,1.1,0.4,1.6,0.8c0.5,0.4,0.9,0.8,1.3,1.4
				c0.4,0.6,0.7,1.2,1,2c0.3,0.9,0.5,1.9,0.5,2.9s-0.1,1.9-0.3,2.8c-0.2,0.9-0.6,1.8-1,2.5c-0.5,0.8-1,1.4-1.7,1.9s-1.4,0.8-2.1,0.8
				c-0.7,0.1-1.4,0-2.1-0.3s-1.3-0.8-1.9-1.4c-0.6-0.6-1-1.5-1.4-2.4c-0.3-0.8-0.4-1.6-0.5-2.5c-0.1-0.8,0-1.7,0.1-2.5
				s0.4-1.6,0.7-2.3c0.3-0.7,0.7-1.4,1.2-1.9l-5.2-14.7l-7.5,4.3l3.5,10l-15.8,9.8l10,27.4c0.7-0.2,1.3-0.3,2-0.2
				c0.6,0.1,1.3,0.3,1.8,0.6c0.6,0.3,1.1,0.8,1.5,1.4c0.5,0.6,0.8,1.3,1.1,2.1c0.4,1,0.5,2,0.6,3.1c0,1.1-0.1,2.1-0.4,3.2
				c-0.3,1-0.7,2-1.2,2.9s-1.2,1.7-2,2.3c-0.8,0.6-1.6,1-2.4,1.2s-1.7,0.2-2.4-0.1c-0.8-0.2-1.5-0.7-2.1-1.3
				c-0.6-0.6-1.2-1.5-1.5-2.5c-0.3-0.8-0.5-1.7-0.6-2.6s0-1.8,0.1-2.7c0.2-0.9,0.4-1.8,0.8-2.6c0.4-0.8,0.8-1.6,1.3-2.3l-11.8-32
				l16.3-9.8l-6.4-17.9l-8.4,4.5l2,5.4l1.6,4.3l-15.6,8.9c0.1,0.9,0.1,1.9-0.1,2.8c-0.2,0.9-0.4,1.8-0.8,2.6s-0.9,1.6-1.5,2.3
				s-1.3,1.3-2.1,1.7c-1,0.6-2,0.9-2.9,1c-1,0.1-2,0-2.9-0.4s-1.8-0.9-2.5-1.7s-1.4-1.7-1.8-2.8s-0.6-2.3-0.6-3.5s0.2-2.3,0.6-3.4
				c0.4-1.1,0.9-2.1,1.6-3s1.6-1.6,2.5-2.1c0.8-0.4,1.6-0.7,2.4-0.8s1.6,0,2.4,0.1c0.8,0.2,1.5,0.5,2.2,1s1.3,1,1.8,1.7l12.2-6.7
				l-3.6-9.9l12.1-6.2l-10.5-29.3l-0.9-2.4l-0.1-0.5c0.3-0.1,0.5-0.3,0.8-0.4c0.3-0.1,0.6-0.3,0.9-0.4c0.3-0.1,0.6-0.2,0.9-0.4
				c0.3-0.1,0.6-0.2,0.9-0.4l0.2,0.6l0.8,2.4l14.5,40.9l10.5-5.9L379.6,233.1z M329.8,242.2c0.4-0.2,0.7-0.5,1-0.9s0.5-0.8,0.6-1.2
				s0.2-0.9,0.2-1.4s-0.1-0.9-0.3-1.4c-0.2-0.5-0.4-0.8-0.7-1.1c-0.3-0.3-0.6-0.5-1-0.7s-0.8-0.2-1.2-0.2c-0.4,0-0.8,0.1-1.2,0.4
				c-0.4,0.2-0.7,0.5-1,0.9s-0.5,0.8-0.7,1.2s-0.2,0.9-0.2,1.4s0.1,1,0.3,1.4c0.2,0.5,0.4,0.8,0.7,1.2c0.3,0.3,0.6,0.5,1,0.7
				c0.4,0.1,0.8,0.2,1.2,0.2C329,242.6,329.4,242.4,329.8,242.2 M381.3,243.4c0.3-0.2,0.5-0.5,0.7-0.8s0.3-0.7,0.4-1
				c0.1-0.4,0.1-0.8,0.1-1.2s-0.1-0.8-0.2-1.2s-0.3-0.7-0.5-1s-0.5-0.5-0.7-0.6c-0.3-0.1-0.6-0.2-0.9-0.2s-0.6,0.1-0.9,0.3
				s-0.5,0.5-0.7,0.8s-0.4,0.7-0.5,1c-0.1,0.4-0.1,0.8-0.1,1.2s0.1,0.8,0.2,1.2s0.3,0.7,0.5,1s0.5,0.5,0.8,0.6s0.6,0.2,0.9,0.1
				C380.7,243.7,381,243.6,381.3,243.4 M365,278c-0.1-0.4-0.4-0.7-0.6-1s-0.5-0.4-0.8-0.5s-0.6-0.1-1-0.1c-0.3,0.1-0.7,0.2-1,0.5
				s-0.6,0.6-0.8,0.9c-0.2,0.4-0.4,0.8-0.5,1.2c-0.1,0.4-0.2,0.9-0.2,1.3s0.1,0.9,0.2,1.3c0.2,0.4,0.4,0.8,0.6,1
				c0.3,0.3,0.5,0.4,0.9,0.5c0.3,0.1,0.7,0.1,1,0s0.7-0.2,1-0.5s0.6-0.6,0.8-0.9c0.2-0.4,0.4-0.8,0.5-1.2c0.1-0.4,0.2-0.9,0.2-1.3
				C365.3,278.9,365.2,278.4,365,278"/>
		</g>
		<g>
			
				<linearGradient id="SVGID_34_" gradientUnits="userSpaceOnUse" x1="-27.0231" y1="191.2824" x2="433.1729" y2="331.0075" gradientTransform="matrix(1 0 0 -1 0 422)">
				<stop  offset="0" style="stop-color:#999999"/>
				<stop  offset="1" style="stop-color:#BEBEBE"/>
			</linearGradient>
			<polygon class="st38" points="297,161 295,155.8 279.4,114.8 281.1,114.5 278.9,108.8 282.4,108.3 299.8,154.5 356.8,138.6 
				358.1,142.8 			"/>
		</g>
		<g>
			
				<linearGradient id="SVGID_35_" gradientUnits="userSpaceOnUse" x1="-3.8936" y1="117.1463" x2="456.7609" y2="257.0107" gradientTransform="matrix(1 0 0 -1 0 422)">
				<stop  offset="0" style="stop-color:#B0B0B0"/>
				<stop  offset="1" style="stop-color:#D4D4D4"/>
			</linearGradient>
			<path class="st39" d="M375.6,163.9l-0.6,4.6l-15.6,6.4l-3.3,1.3l-8.3,3.3l-0.8-2.4l-0.5,0.8c-0.3,0.1,0-0.3-0.3-0.1
				c-0.3,0.1-0.3,0.2-0.6,0.4c-0.3,0.1-0.7,0.1-1,0.3c-0.3,0.1-0.5-0.1-0.7,0l-0.5,0.1l1,2.3l-45.3,18.1l6.8,17.7l-10.9,5l6.7,16.9
				c1-0.2,1.9-0.2,2.9,0c0.9,0.2,1.8,0.5,2.6,0.9c0.8,0.5,1.5,1.1,2.2,1.8c0.6,0.7,1.1,1.6,1.5,2.6c0.5,1.2,0.7,2.5,0.7,3.7
				c0,1.3-0.2,2.5-0.6,3.7s-1,2.3-1.8,3.3s-1.8,1.9-2.9,2.5c-1.2,0.7-2.4,1.1-3.5,1.2c-1.2,0.1-2.4,0-3.5-0.3c-1.1-0.4-2.1-1-3-1.8
				c-0.9-0.8-1.6-1.9-2.1-3.1c-0.4-1-0.6-2.1-0.7-3.2c-0.1-1.1,0-2.2,0.3-3.2c0.3-1.1,0.7-2.1,1.2-3s1.2-1.8,2-2.5l-8.9-22.4
				l5.1-2.3l6.2-2.7l-5-12.7l-22.7,9.1l10.6,26L237,257.9c0.1,1.2,0,2.5-0.3,3.8c-0.3,1.2-0.8,2.5-1.6,3.6c-0.7,1.2-1.6,2.3-2.7,3.2
				c-1.1,1-2.3,1.9-3.7,2.6c-1.7,0.9-3.5,1.4-5.2,1.6c-1.8,0.2-3.5,0.1-5.1-0.3s-3.1-1.1-4.4-2.1c-1.3-1-2.3-2.2-3-3.7
				s-1-3.1-0.9-4.8c0.1-1.6,0.5-3.3,1.3-4.8s1.8-3,3.1-4.2s2.9-2.3,4.7-3.1c1.4-0.6,2.9-1,4.3-1.2c1.4-0.2,2.8-0.2,4.2,0
				c1.3,0.2,2.6,0.6,3.7,1.2c1.1,0.6,2.1,1.3,3,2.2l40.4-18.8l-10.9-26.5l13.7-5.3l-5.3-13.2l-21.7,7.4c0.1,1.2,0,2.4-0.2,3.5
				c-0.3,1.1-0.7,2.2-1.4,3.2c-0.6,1-1.5,1.9-2.5,2.7s-2.1,1.4-3.4,1.9c-1.6,0.6-3.2,0.8-4.8,0.8s-3.2-0.3-4.7-0.9
				c-1.5-0.6-2.8-1.4-4-2.5s-2.1-2.4-2.7-3.8c-0.6-1.5-0.9-3-0.8-4.5c0.1-1.5,0.5-2.9,1.1-4.3c0.7-1.3,1.6-2.5,2.8-3.5
				s2.6-1.8,4.2-2.2c1.3-0.4,2.6-0.6,3.9-0.6c1.3,0,2.6,0.2,3.8,0.5s2.3,0.9,3.4,1.5c1,0.7,2,1.4,2.7,2.4l27.6-9l7.4,18.6
				L375.6,163.9z M225.9,264.8c0.7-0.3,1.3-0.8,1.8-1.3s0.9-1.1,1.2-1.7s0.4-1.3,0.5-1.9c0-0.6-0.1-1.3-0.4-1.9
				c-0.3-0.6-0.7-1.1-1.2-1.5s-1.1-0.7-1.7-0.9c-0.6-0.2-1.3-0.2-2.1-0.2c-0.7,0.1-1.5,0.3-2.2,0.6s-1.4,0.8-1.9,1.3s-1,1.1-1.3,1.7
				s-0.5,1.3-0.5,1.9c0,0.7,0.1,1.3,0.4,1.9c0.3,0.6,0.7,1.1,1.2,1.5s1.1,0.7,1.8,0.9c0.7,0.2,1.4,0.2,2.1,0.1
				C224.4,265.4,225.2,265.2,225.9,264.8 M306.4,246.4c-0.2-0.5-0.5-0.9-0.8-1.3c-0.3-0.3-0.7-0.6-1.2-0.8c-0.4-0.2-0.9-0.2-1.4-0.2
				s-1,0.2-1.5,0.4c-0.5,0.3-0.9,0.6-1.3,1c-0.3,0.4-0.6,0.9-0.8,1.4c-0.2,0.5-0.3,1-0.3,1.6c0,0.5,0.1,1.1,0.3,1.6
				c0.2,0.5,0.5,0.9,0.9,1.3c0.4,0.3,0.8,0.6,1.2,0.7c0.4,0.2,0.9,0.2,1.4,0.2s1-0.2,1.5-0.5s0.9-0.6,1.2-1c0.3-0.4,0.6-0.9,0.8-1.4
				c0.2-0.5,0.3-1,0.3-1.6C306.7,247.4,306.6,246.9,306.4,246.4 M240.4,200.7c0.6-0.2,1.2-0.6,1.7-1s0.8-0.9,1.1-1.4
				s0.4-1.1,0.4-1.7c0-0.6-0.1-1.2-0.3-1.8s-0.6-1.1-1.1-1.5s-1-0.8-1.6-1c-0.6-0.3-1.2-0.4-1.9-0.4s-1.3,0-2,0.3
				c-0.7,0.2-1.2,0.5-1.7,0.9s-0.9,0.9-1.1,1.4c-0.3,0.5-0.4,1.1-0.4,1.7c0,0.6,0.1,1.2,0.3,1.8c0.3,0.6,0.6,1.1,1.1,1.6
				c0.5,0.4,1,0.8,1.6,1s1.2,0.4,1.9,0.4C239.1,201,239.8,200.9,240.4,200.7"/>
		</g>
		<g>
			
				<linearGradient id="SVGID_36_" gradientUnits="userSpaceOnUse" x1="-22.8567" y1="178.6098" x2="438.3125" y2="318.6305" gradientTransform="matrix(1 0 0 -1 0 422)">
				<stop  offset="0" style="stop-color:#B0B0B0"/>
				<stop  offset="1" style="stop-color:#D4D4D4"/>
			</linearGradient>
			<path class="st40" d="M362.4,152.8l2.1,3.9l-72,24.9l-5.1,1.7l-2.1-5.4l-5.7-14.5L217.5,181c0,1.2-0.2,2.4-0.5,3.5
				c-0.4,1.1-1,2.2-1.7,3.1c-0.8,1-1.7,1.8-2.8,2.6c-1.1,0.7-2.4,1.3-3.8,1.8c-1.8,0.5-3.7,0.8-5.6,0.7c-1.9-0.1-3.7-0.5-5.4-1.2
				s-3.3-1.6-4.6-2.8s-2.4-2.6-3.1-4.2c-0.7-1.6-1-3.3-0.9-4.9c0.1-1.6,0.6-3.1,1.4-4.5c0.8-1.4,1.9-2.6,3.4-3.6
				c1.4-1,3.1-1.8,5-2.2c1.6-0.4,3.2-0.5,4.8-0.5c1.6,0.1,3.1,0.4,4.6,0.9c1.4,0.5,2.8,1.1,4,2c1.2,0.8,2.3,1.8,3.1,2.9l32.6-8.7
				l-5.8-14.1c-1.3-0.1-2.6-0.3-3.8-0.7s-2.4-1-3.5-1.7s-2.1-1.6-3-2.6s-1.6-2.1-2.1-3.4c-0.6-1.5-0.9-3-0.8-4.4
				c0.1-1.4,0.4-2.7,1.1-3.9c0.7-1.2,1.6-2.2,2.7-3c1.2-0.8,2.5-1.3,4.1-1.6s3.1-0.2,4.7,0.1c1.5,0.3,3,0.9,4.4,1.6
				c1.4,0.8,2.6,1.7,3.6,2.9c1,1.1,1.9,2.4,2.4,3.8c0.5,1.2,0.7,2.3,0.8,3.4c0.1,1.1-0.1,2.2-0.4,3.2c-0.3,1-0.8,1.9-1.5,2.7
				s-1.5,1.5-2.4,2.1l5.7,14l28.9-7.7l7.7,19.7L362.4,152.8z M242.7,145.3c0.6-0.1,1.2-0.4,1.6-0.7c0.5-0.3,0.8-0.7,1.1-1.2
				c0.2-0.5,0.4-1,0.4-1.6s-0.1-1.1-0.3-1.7c-0.2-0.6-0.6-1.1-1-1.6s-1-0.9-1.5-1.2c-0.6-0.3-1.2-0.5-1.8-0.6s-1.3-0.1-1.9,0
				c-0.6,0.1-1.2,0.4-1.7,0.7s-0.8,0.7-1.1,1.2s-0.4,1-0.4,1.6s0.1,1.2,0.3,1.8s0.6,1.1,1.1,1.6c0.4,0.5,1,0.9,1.6,1.2
				s1.2,0.5,1.8,0.6C241.5,145.5,242.1,145.5,242.7,145.3 M205.7,185.3c0.8-0.2,1.4-0.5,2-1c0.5-0.4,1-0.9,1.3-1.5s0.5-1.2,0.5-1.8
				s-0.1-1.3-0.4-1.9c-0.3-0.6-0.7-1.2-1.2-1.7s-1.1-0.9-1.8-1.2s-1.4-0.5-2.2-0.5c-0.8-0.1-1.5,0-2.3,0.2s-1.4,0.5-2,0.9
				s-1,0.9-1.3,1.5s-0.5,1.2-0.5,1.8s0.1,1.3,0.4,2c0.3,0.7,0.7,1.2,1.3,1.7c0.5,0.5,1.2,0.9,1.9,1.2s1.4,0.5,2.2,0.5
				C204.2,185.6,204.9,185.5,205.7,185.3"/>
		</g>
		<g class="st2">
			
				<linearGradient id="SVGID_37_" gradientUnits="userSpaceOnUse" x1="-26.5896" y1="200.1927" x2="428.9401" y2="338.5011" gradientTransform="matrix(1 0 0 -1 0 422)">
				<stop  offset="0" style="stop-color:#9C9C9C"/>
				<stop  offset="1" style="stop-color:#C0C0C0"/>
			</linearGradient>
			<path class="st41" d="M278.9,108.8l2.2,5.7l-116.9,17.6l11.5,25.6l-48.1,10l8.4,17.6c2,0,3.9,0.2,5.7,0.6c1.8,0.4,3.5,1,5.1,1.8
				c1.5,0.8,2.9,1.7,4.1,2.8c1.2,1.1,2.1,2.4,2.8,3.8c0.8,1.7,1.1,3.5,1,5.2s-0.7,3.4-1.7,4.9c-1,1.6-2.3,3-4,4.2s-3.8,2.2-6.1,3
				c-2.4,0.7-4.8,1.1-7.2,1c-2.4,0-4.8-0.4-7-1.1c-2.2-0.7-4.2-1.7-6-3c-1.7-1.3-3.1-2.9-4-4.7c-0.7-1.5-1.1-3-1.1-4.5s0.3-3,1-4.4
				c0.6-1.4,1.6-2.7,2.8-3.9c1.2-1.2,2.7-2.2,4.4-3.1l-8.7-17.9l-57.5,12c0.2,1.7,0,3.4-0.7,5.1c-0.7,1.6-1.7,3.2-3.2,4.6
				c-1.5,1.4-3.3,2.7-5.5,3.9c-2.2,1.1-4.7,2-7.5,2.7c-3.4,0.8-6.9,1.1-10.3,1s-6.8-0.6-9.9-1.5s-6-2.1-8.3-3.7
				c-2.4-1.6-4.3-3.5-5.5-5.7s-1.6-4.4-1.3-6.6c0.3-2.2,1.3-4.2,3-6.1c1.6-1.9,3.9-3.5,6.6-4.9c2.7-1.3,5.9-2.4,9.4-3
				c2.8-0.5,5.5-0.7,8.2-0.6c2.7,0.1,5.3,0.4,7.7,0.9s4.7,1.3,6.8,2.2s3.9,2.1,5.5,3.3L164,152.5l-8.6-19l-3.3-7.2l9.1-1.2
				L278.9,108.8z M143.8,197.1c-0.3-0.7-0.9-1.3-1.5-1.9c-0.7-0.5-1.4-1-2.3-1.3c-0.9-0.3-1.8-0.5-2.8-0.5s-2,0.1-3,0.3
				c-1,0.3-1.9,0.7-2.6,1.2c-0.7,0.5-1.4,1.1-1.8,1.8c-0.4,0.7-0.7,1.4-0.8,2.1c-0.1,0.7,0.1,1.5,0.4,2.2c0.4,0.7,0.9,1.4,1.6,1.9
				c0.7,0.5,1.5,1,2.4,1.2c0.9,0.3,1.9,0.5,2.9,0.5s2-0.1,3-0.4c1-0.3,1.8-0.7,2.6-1.2c0.7-0.5,1.3-1.1,1.7-1.7
				c0.4-0.6,0.7-1.3,0.7-2.1C144.2,198.5,144.1,197.8,143.8,197.1 M37.8,189.4c1.4-0.3,2.6-0.8,3.7-1.3c1-0.6,1.9-1.2,2.5-2
				c0.6-0.7,1-1.6,1.1-2.4c0.1-0.8,0-1.7-0.5-2.6c-0.5-0.9-1.2-1.6-2.1-2.3c-0.9-0.6-2-1.2-3.2-1.6c-1.2-0.4-2.5-0.6-3.9-0.7
				c-1.4-0.1-2.8,0-4.3,0.3c-1.4,0.3-2.7,0.7-3.8,1.3c-1.1,0.6-2,1.2-2.6,2s-1,1.6-1.2,2.5c-0.1,0.9,0,1.8,0.5,2.6
				c0.5,0.9,1.2,1.7,2.2,2.3c0.9,0.6,2.1,1.2,3.3,1.5c1.3,0.4,2.6,0.6,4,0.7C34.9,189.8,36.4,189.7,37.8,189.4"/>
		</g>
	</g>
	
		<linearGradient id="SVGID_38_" gradientUnits="userSpaceOnUse" x1="8.1206" y1="147.3029" x2="435.7346" y2="284.3421" gradientTransform="matrix(1 0 0 -1 0 422)">
		<stop  offset="4.110230e-003" style="stop-color:#939393"/>
		<stop  offset="0.1534" style="stop-color:#888888"/>
		<stop  offset="0.4708" style="stop-color:#6C6C6C"/>
		<stop  offset="0.9276" style="stop-color:#3F3F3F"/>
		<stop  offset="1" style="stop-color:#373737"/>
	</linearGradient>
	<rect class="st42" width="420" height="420"/>
</g>
</svg>
