<?xml version="1.0" encoding="utf-8"?>
<!-- Generator: Adobe Illustrator 19.2.1, SVG Export Plug-In . SVG Version: 6.00 Build 0)  -->
<svg version="1.1" id="Layer_1" xmlns="http://www.w3.org/2000/svg" xmlns:xlink="http://www.w3.org/1999/xlink" x="0px" y="0px"
	 viewBox="0 0 360 199.8" style="enable-background:new 0 0 360 199.8;" xml:space="preserve">
<style type="text/css">
	.st0{fill:none;}
	.st1{fill:#F7BC60;}
	.st2{fill:#FFFFFF;}
	.st3{fill:url(#SVGID_1_);}
	.st4{opacity:0.5;}
</style>
<pattern  y="260" width="69" height="69" patternUnits="userSpaceOnUse" id="Polka_Dot_Pattern" viewBox="2.1 -70.9 69 69" style="overflow:visible;">
	<g>
		<rect x="2.1" y="-70.9" class="st0" width="69" height="69"/>
		<rect x="2.1" y="-70.9" class="st1" width="69" height="69"/>
		<g>
			<path class="st2" d="M61.8-71.7c0,0.1,0,0.1,0,0.2c-0.1,0.1-0.1,0.1-0.2,0.1c-0.1,0.1-0.1,0.3-0.1,0.4c-0.2,0.1,0,0.2,0,0.3
				c0,0,0,0.1,0,0.2c0,0.1,0,0.3,0.1,0.4c0.1,0.2,0.3,0.4,0.4,0.5c0.2,0.1,0.4,0.6,0.6,0.6c0.2,0,0.4-0.1,0.5-0.1
				c0.2,0,0.4,0,0.6-0.1c0.2-0.1,0.1-0.3,0.3-0.5c0.1-0.1,0.3,0,0.4-0.1c0.2-0.1,0.3-0.3,0.4-0.5c0-0.1,0-0.1,0-0.2
				c0-0.1,0.1-0.2,0.1-0.3c0-0.1-0.1-0.1-0.1-0.2c0-0.1,0-0.2,0-0.3c0-0.2,0-0.4-0.1-0.5c-0.4-0.7-1.2-0.9-2-0.8
				c-0.2,0-0.3,0.1-0.4,0.2c-0.2,0.1-0.1,0.2-0.3,0.2c-0.1,0-0.2,0.1-0.2,0.2C61.8-71.7,61.8-71.7,61.8-71.7
				C61.8-71.6,61.8-71.6,61.8-71.7"/>
			<path class="st2" d="M54.1-71.7c0,0.1,0,0.1,0,0.2c-0.1,0.1-0.1,0.1-0.2,0.1c-0.1,0.1-0.1,0.3-0.1,0.4c-0.2,0.1,0,0.2,0,0.3
				c0,0,0,0.1,0,0.2c0,0.1,0,0.3,0.1,0.4c0.1,0.2,0.3,0.4,0.4,0.5c0.2,0.1,0.4,0.6,0.6,0.6c0.2,0,0.4-0.1,0.5-0.1
				c0.2,0,0.4,0,0.6-0.1c0.2-0.1,0.1-0.3,0.3-0.5c0.1-0.1,0.3,0,0.4-0.1c0.2-0.1,0.3-0.3,0.4-0.5c0-0.1,0-0.1,0-0.2
				c0-0.1,0.1-0.2,0.1-0.3c0-0.1-0.1-0.1-0.1-0.2c0-0.1,0-0.2,0-0.3c0-0.2,0-0.4-0.1-0.5c-0.4-0.7-1.2-0.9-2-0.8
				c-0.2,0-0.3,0.1-0.4,0.2c-0.2,0.1-0.1,0.2-0.3,0.2c-0.1,0-0.2,0.1-0.2,0.2C54.1-71.7,54.1-71.7,54.1-71.7
				C54.1-71.6,54.1-71.6,54.1-71.7"/>
			<path class="st2" d="M46.4-71.7c0,0.1,0,0.1,0,0.2c-0.1,0.1-0.1,0.1-0.2,0.1c-0.1,0.1-0.1,0.3-0.1,0.4c-0.2,0.1,0,0.2,0,0.3
				c0,0,0,0.1,0,0.2c0,0.1,0,0.3,0.1,0.4c0.1,0.2,0.3,0.4,0.4,0.5c0.2,0.1,0.4,0.6,0.6,0.6c0.2,0,0.4-0.1,0.5-0.1
				c0.2,0,0.4,0,0.6-0.1c0.2-0.1,0.1-0.3,0.3-0.5c0.1-0.1,0.3,0,0.4-0.1c0.2-0.1,0.3-0.3,0.4-0.5c0-0.1,0-0.1,0-0.2
				c0-0.1,0.1-0.2,0.1-0.3c0-0.1-0.1-0.1-0.1-0.2c0-0.1,0-0.2,0-0.3c0-0.2,0-0.4-0.1-0.5c-0.4-0.7-1.2-0.9-2-0.8
				c-0.2,0-0.3,0.1-0.4,0.2c-0.2,0.1-0.1,0.2-0.3,0.2c-0.1,0-0.2,0.1-0.2,0.2C46.4-71.7,46.4-71.7,46.4-71.7
				C46.4-71.6,46.4-71.6,46.4-71.7"/>
			<path class="st2" d="M38.8-71.7c0,0.1,0,0.1,0,0.2c-0.1,0.1-0.1,0.1-0.2,0.1c-0.1,0.1-0.1,0.3-0.1,0.4c-0.2,0.1,0,0.2,0,0.3
				c0,0,0,0.1,0,0.2c0,0.1,0,0.3,0.1,0.4c0.1,0.2,0.3,0.4,0.4,0.5c0.2,0.1,0.4,0.6,0.6,0.6c0.2,0,0.4-0.1,0.5-0.1
				c0.2,0,0.4,0,0.6-0.1c0.2-0.1,0.1-0.3,0.3-0.5c0.1-0.1,0.3,0,0.4-0.1c0.2-0.1,0.3-0.3,0.4-0.5c0-0.1,0-0.1,0-0.2
				c0-0.1,0.1-0.2,0.1-0.3c0-0.1-0.1-0.1-0.1-0.2c0-0.1,0-0.2,0-0.3c0-0.2,0-0.4-0.1-0.5c-0.4-0.7-1.2-0.9-2-0.8
				c-0.2,0-0.3,0.1-0.4,0.2c-0.2,0.1-0.1,0.2-0.3,0.2c-0.1,0-0.2,0.1-0.2,0.2C38.8-71.7,38.8-71.7,38.8-71.7
				C38.8-71.6,38.8-71.6,38.8-71.7"/>
			<path class="st2" d="M31.1-71.7c0,0.1,0,0.1,0,0.2c-0.1,0.1-0.1,0.1-0.2,0.1c-0.1,0.1-0.1,0.3-0.1,0.4c-0.2,0.1,0,0.2,0,0.3
				c0,0,0,0.1,0,0.2c0,0.1,0,0.3,0.1,0.4c0.1,0.2,0.3,0.4,0.4,0.5c0.2,0.1,0.4,0.6,0.6,0.6c0.2,0,0.4-0.1,0.5-0.1
				c0.2,0,0.4,0,0.6-0.1c0.2-0.1,0.1-0.3,0.3-0.5c0.1-0.1,0.3,0,0.4-0.1c0.2-0.1,0.3-0.3,0.4-0.5c0-0.1,0-0.1,0-0.2
				c0-0.1,0.1-0.2,0.1-0.3c0-0.1-0.1-0.1-0.1-0.2c0-0.1,0-0.2,0-0.3c0-0.2,0-0.4-0.1-0.5c-0.4-0.7-1.2-0.9-2-0.8
				c-0.2,0-0.3,0.1-0.4,0.2c-0.2,0.1-0.1,0.2-0.3,0.2c-0.1,0-0.2,0.1-0.2,0.2C31.1-71.7,31.1-71.7,31.1-71.7
				C31.1-71.6,31.1-71.6,31.1-71.7"/>
			<path class="st2" d="M23.4-71.7c0,0.1,0,0.1,0,0.2c-0.1,0.1-0.1,0.1-0.2,0.1c-0.1,0.1-0.1,0.3-0.1,0.4c-0.2,0.1,0,0.2,0,0.3
				c0,0,0,0.1,0,0.2c0,0.1,0,0.3,0.1,0.4c0.1,0.2,0.3,0.4,0.4,0.5c0.2,0.1,0.4,0.6,0.6,0.6c0.2,0,0.4-0.1,0.5-0.1
				c0.2,0,0.4,0,0.6-0.1c0.2-0.1,0.1-0.3,0.3-0.5c0.1-0.1,0.3,0,0.4-0.1c0.2-0.1,0.3-0.3,0.4-0.5c0-0.1,0-0.1,0-0.2
				c0-0.1,0.1-0.2,0.1-0.3c0-0.1-0.1-0.1-0.1-0.2c0-0.1,0-0.2,0-0.3c0-0.2,0-0.4-0.1-0.5c-0.4-0.7-1.2-0.9-2-0.8
				c-0.2,0-0.3,0.1-0.4,0.2c-0.2,0.1-0.1,0.2-0.3,0.2c-0.1,0-0.2,0.1-0.2,0.2C23.4-71.7,23.4-71.7,23.4-71.7
				C23.4-71.6,23.4-71.6,23.4-71.7"/>
			<path class="st2" d="M15.8-71.7c0,0.1,0,0.1,0,0.2c-0.1,0.1-0.1,0.1-0.2,0.1c-0.1,0.1-0.1,0.3-0.1,0.4c-0.2,0.1,0,0.2,0,0.3
				c0,0,0,0.1,0,0.2c0,0.1,0,0.3,0.1,0.4c0.1,0.2,0.3,0.4,0.4,0.5c0.2,0.1,0.4,0.6,0.6,0.6c0.2,0,0.4-0.1,0.5-0.1
				c0.2,0,0.4,0,0.6-0.1c0.2-0.1,0.1-0.3,0.3-0.5c0.1-0.1,0.3,0,0.4-0.1c0.2-0.1,0.3-0.3,0.4-0.5c0-0.1,0-0.1,0-0.2
				c0-0.1,0.1-0.2,0.1-0.3c0-0.1-0.1-0.1-0.1-0.2c0-0.1,0-0.2,0-0.3c0-0.2,0-0.4-0.1-0.5c-0.4-0.7-1.2-0.9-2-0.8
				c-0.2,0-0.3,0.1-0.4,0.2c-0.2,0.1-0.1,0.2-0.3,0.2c-0.1,0-0.2,0.1-0.2,0.2C15.8-71.7,15.8-71.7,15.8-71.7
				C15.8-71.6,15.8-71.6,15.8-71.7"/>
			<path class="st2" d="M8.1-71.7c0,0.1,0,0.1,0,0.2C8-71.4,8-71.4,7.9-71.3c-0.1,0.1-0.1,0.3-0.1,0.4c-0.2,0.1,0,0.2,0,0.3
				c0,0,0,0.1,0,0.2c0,0.1,0,0.3,0.1,0.4c0.1,0.2,0.3,0.4,0.4,0.5c0.2,0.1,0.4,0.6,0.6,0.6c0.2,0,0.4-0.1,0.5-0.1
				c0.2,0,0.4,0,0.6-0.1c0.2-0.1,0.1-0.3,0.3-0.5c0.1-0.1,0.3,0,0.4-0.1c0.2-0.1,0.3-0.3,0.4-0.5c0-0.1,0-0.1,0-0.2
				c0-0.1,0.1-0.2,0.1-0.3c0-0.1-0.1-0.1-0.1-0.2c0-0.1,0-0.2,0-0.3c0-0.2,0-0.4-0.1-0.5c-0.4-0.7-1.2-0.9-2-0.8
				c-0.2,0-0.3,0.1-0.4,0.2c-0.2,0.1-0.1,0.2-0.3,0.2c-0.1,0-0.2,0.1-0.2,0.2C8.1-71.7,8.1-71.7,8.1-71.7
				C8.1-71.6,8.1-71.6,8.1-71.7"/>
			<path class="st2" d="M0.4-71.7c0,0.1,0,0.1,0,0.2c-0.1,0.1-0.1,0.1-0.2,0.1c-0.1,0.1-0.1,0.3-0.1,0.4c-0.2,0.1,0,0.2,0,0.3
				c0,0,0,0.1,0,0.2c0,0.1,0,0.3,0.1,0.4c0.1,0.2,0.3,0.4,0.4,0.5C0.8-69.4,1-69,1.2-68.9c0.2,0,0.4-0.1,0.5-0.1
				c0.2,0,0.4,0,0.6-0.1c0.2-0.1,0.1-0.3,0.3-0.5c0.1-0.1,0.3,0,0.4-0.1c0.2-0.1,0.3-0.3,0.4-0.5c0-0.1,0-0.1,0-0.2
				c0-0.1,0.1-0.2,0.1-0.3c0-0.1-0.1-0.1-0.1-0.2c0-0.1,0-0.2,0-0.3c0-0.2,0-0.4-0.1-0.5c-0.4-0.7-1.2-0.9-2-0.8
				c-0.2,0-0.3,0.1-0.4,0.2c-0.2,0.1-0.1,0.2-0.3,0.2c-0.1,0-0.2,0.1-0.2,0.2C0.4-71.7,0.4-71.7,0.4-71.7
				C0.4-71.6,0.4-71.6,0.4-71.7"/>
		</g>
		<g>
			<path class="st2" d="M69.4-71.7c0,0.1,0,0.1,0,0.2c-0.1,0.1-0.1,0.1-0.2,0.1c-0.1,0.1-0.1,0.3-0.1,0.4c-0.2,0.1,0,0.2,0,0.3
				c0,0,0,0.1,0,0.2c0,0.1,0,0.3,0.1,0.4c0.1,0.2,0.3,0.4,0.4,0.5c0.2,0.1,0.4,0.6,0.6,0.6c0.2,0,0.4-0.1,0.5-0.1
				c0.2,0,0.4,0,0.6-0.1c0.2-0.1,0.1-0.3,0.3-0.5c0.1-0.1,0.3,0,0.4-0.1c0.2-0.1,0.3-0.3,0.4-0.5c0-0.1,0-0.1,0-0.2
				c0-0.1,0.1-0.2,0.1-0.3c0-0.1-0.1-0.1-0.1-0.2c0-0.1,0-0.2,0-0.3c0-0.2,0-0.4-0.1-0.5c-0.4-0.7-1.2-0.9-2-0.8
				c-0.2,0-0.3,0.1-0.4,0.2c-0.2,0.1-0.1,0.2-0.3,0.2c-0.1,0-0.2,0.1-0.2,0.2C69.4-71.7,69.4-71.7,69.4-71.7
				C69.4-71.6,69.4-71.6,69.4-71.7"/>
		</g>
		<path class="st2" d="M0.5-71.7c0,0.1,0,0.1,0,0.2c-0.1,0.1-0.1,0.1-0.2,0.1c-0.1,0.1-0.1,0.3-0.1,0.4c-0.2,0.1,0,0.2,0,0.3
			c0,0,0,0.1,0,0.2c0,0.1,0,0.3,0.1,0.4c0.1,0.2,0.3,0.4,0.4,0.5C0.9-69.4,1-69,1.3-68.9c0.2,0,0.4-0.1,0.5-0.1c0.2,0,0.4,0,0.6-0.1
			c0.2-0.1,0.1-0.3,0.3-0.5c0.1-0.1,0.3,0,0.4-0.1c0.2-0.1,0.3-0.3,0.4-0.5c0-0.1,0-0.1,0-0.2c0-0.1,0.1-0.2,0.1-0.3
			c0-0.1-0.1-0.1-0.1-0.2c0-0.1,0-0.2,0-0.3c0-0.2,0-0.4-0.1-0.5c-0.4-0.7-1.2-0.9-2-0.8c-0.2,0-0.3,0.1-0.4,0.2
			c-0.2,0.1-0.1,0.2-0.3,0.2c-0.1,0-0.2,0.1-0.2,0.2C0.5-71.7,0.5-71.7,0.5-71.7C0.5-71.6,0.5-71.6,0.5-71.7"/>
		<g>
			<g>
				<path class="st2" d="M69.4-64c0,0.1,0,0.1,0,0.2c-0.1,0.1-0.1,0.1-0.2,0.1c-0.1,0.1-0.1,0.3-0.1,0.4c-0.2,0.1,0,0.2,0,0.3
					c0,0,0,0.1,0,0.2c0,0.1,0,0.3,0.1,0.4c0.1,0.2,0.3,0.4,0.4,0.5c0.2,0.1,0.4,0.6,0.6,0.6c0.2,0,0.4-0.1,0.5-0.1
					c0.2,0,0.4,0,0.6-0.1c0.2-0.1,0.1-0.3,0.3-0.5c0.1-0.1,0.3,0,0.4-0.1c0.2-0.1,0.3-0.3,0.4-0.5c0-0.1,0-0.1,0-0.2
					c0-0.1,0.1-0.2,0.1-0.3c0-0.1-0.1-0.1-0.1-0.2c0-0.1,0-0.2,0-0.3c0-0.2,0-0.4-0.1-0.5c-0.4-0.7-1.2-0.9-2-0.8
					c-0.2,0-0.3,0.1-0.4,0.2c-0.2,0.1-0.1,0.2-0.3,0.2c-0.1,0-0.2,0.1-0.2,0.2C69.4-64,69.4-64.1,69.4-64C69.4-64,69.4-64,69.4-64"
					/>
				<path class="st2" d="M61.8-64c0,0.1,0,0.1,0,0.2c-0.1,0.1-0.1,0.1-0.2,0.1c-0.1,0.1-0.1,0.3-0.1,0.4c-0.2,0.1,0,0.2,0,0.3
					c0,0,0,0.1,0,0.2c0,0.1,0,0.3,0.1,0.4c0.1,0.2,0.3,0.4,0.4,0.5c0.2,0.1,0.4,0.6,0.6,0.6c0.2,0,0.4-0.1,0.5-0.1
					c0.2,0,0.4,0,0.6-0.1c0.2-0.1,0.1-0.3,0.3-0.5c0.1-0.1,0.3,0,0.4-0.1c0.2-0.1,0.3-0.3,0.4-0.5c0-0.1,0-0.1,0-0.2
					c0-0.1,0.1-0.2,0.1-0.3c0-0.1-0.1-0.1-0.1-0.2c0-0.1,0-0.2,0-0.3c0-0.2,0-0.4-0.1-0.5c-0.4-0.7-1.2-0.9-2-0.8
					c-0.2,0-0.3,0.1-0.4,0.2c-0.2,0.1-0.1,0.2-0.3,0.2c-0.1,0-0.2,0.1-0.2,0.2C61.8-64,61.8-64.1,61.8-64C61.8-64,61.8-64,61.8-64"
					/>
				<path class="st2" d="M54.1-64c0,0.1,0,0.1,0,0.2c-0.1,0.1-0.1,0.1-0.2,0.1c-0.1,0.1-0.1,0.3-0.1,0.4c-0.2,0.1,0,0.2,0,0.3
					c0,0,0,0.1,0,0.2c0,0.1,0,0.3,0.1,0.4c0.1,0.2,0.3,0.4,0.4,0.5c0.2,0.1,0.4,0.6,0.6,0.6c0.2,0,0.4-0.1,0.5-0.1
					c0.2,0,0.4,0,0.6-0.1c0.2-0.1,0.1-0.3,0.3-0.5c0.1-0.1,0.3,0,0.4-0.1c0.2-0.1,0.3-0.3,0.4-0.5c0-0.1,0-0.1,0-0.2
					c0-0.1,0.1-0.2,0.1-0.3c0-0.1-0.1-0.1-0.1-0.2c0-0.1,0-0.2,0-0.3c0-0.2,0-0.4-0.1-0.5c-0.4-0.7-1.2-0.9-2-0.8
					c-0.2,0-0.3,0.1-0.4,0.2c-0.2,0.1-0.1,0.2-0.3,0.2c-0.1,0-0.2,0.1-0.2,0.2C54.1-64,54.1-64.1,54.1-64C54.1-64,54.1-64,54.1-64"
					/>
				<path class="st2" d="M46.5-64c0,0.1,0,0.1,0,0.2c-0.1,0.1-0.1,0.1-0.2,0.1c-0.1,0.1-0.1,0.3-0.1,0.4c-0.2,0.1,0,0.2,0,0.3
					c0,0,0,0.1,0,0.2c0,0.1,0,0.3,0.1,0.4c0.1,0.2,0.3,0.4,0.4,0.5c0.2,0.1,0.4,0.6,0.6,0.6c0.2,0,0.4-0.1,0.5-0.1
					c0.2,0,0.4,0,0.6-0.1c0.2-0.1,0.1-0.3,0.3-0.5c0.1-0.1,0.3,0,0.4-0.1c0.2-0.1,0.3-0.3,0.4-0.5c0-0.1,0-0.1,0-0.2
					c0-0.1,0.1-0.2,0.1-0.3c0-0.1-0.1-0.1-0.1-0.2c0-0.1,0-0.2,0-0.3c0-0.2,0-0.4-0.1-0.5c-0.4-0.7-1.2-0.9-2-0.8
					c-0.2,0-0.3,0.1-0.4,0.2c-0.2,0.1-0.1,0.2-0.3,0.2c-0.1,0-0.2,0.1-0.2,0.2C46.5-64,46.5-64.1,46.5-64C46.5-64,46.5-64,46.5-64"
					/>
				<path class="st2" d="M38.8-64c0,0.1,0,0.1,0,0.2c-0.1,0.1-0.1,0.1-0.2,0.1c-0.1,0.1-0.1,0.3-0.1,0.4c-0.2,0.1,0,0.2,0,0.3
					c0,0,0,0.1,0,0.2c0,0.1,0,0.3,0.1,0.4c0.1,0.2,0.3,0.4,0.4,0.5c0.2,0.1,0.4,0.6,0.6,0.6c0.2,0,0.4-0.1,0.5-0.1
					c0.2,0,0.4,0,0.6-0.1c0.2-0.1,0.1-0.3,0.3-0.5c0.1-0.1,0.3,0,0.4-0.1c0.2-0.1,0.3-0.3,0.4-0.5c0-0.1,0-0.1,0-0.2
					c0-0.1,0.1-0.2,0.1-0.3c0-0.1-0.1-0.1-0.1-0.2c0-0.1,0-0.2,0-0.3c0-0.2,0-0.4-0.1-0.5c-0.4-0.7-1.2-0.9-2-0.8
					c-0.2,0-0.3,0.1-0.4,0.2c-0.2,0.1-0.1,0.2-0.3,0.2c-0.1,0-0.2,0.1-0.2,0.2C38.8-64,38.8-64.1,38.8-64C38.8-64,38.8-64,38.8-64"
					/>
				<path class="st2" d="M31.1-64c0,0.1,0,0.1,0,0.2c-0.1,0.1-0.1,0.1-0.2,0.1c-0.1,0.1-0.1,0.3-0.1,0.4c-0.2,0.1,0,0.2,0,0.3
					c0,0,0,0.1,0,0.2c0,0.1,0,0.3,0.1,0.4c0.1,0.2,0.3,0.4,0.4,0.5c0.2,0.1,0.4,0.6,0.6,0.6c0.2,0,0.4-0.1,0.5-0.1
					c0.2,0,0.4,0,0.6-0.1c0.2-0.1,0.1-0.3,0.3-0.5c0.1-0.1,0.3,0,0.4-0.1c0.2-0.1,0.3-0.3,0.4-0.5c0-0.1,0-0.1,0-0.2
					c0-0.1,0.1-0.2,0.1-0.3c0-0.1-0.1-0.1-0.1-0.2c0-0.1,0-0.2,0-0.3c0-0.2,0-0.4-0.1-0.5c-0.4-0.7-1.2-0.9-2-0.8
					c-0.2,0-0.3,0.1-0.4,0.2c-0.2,0.1-0.1,0.2-0.3,0.2c-0.1,0-0.2,0.1-0.2,0.2C31.1-64,31.1-64.1,31.1-64C31.1-64,31.1-64,31.1-64"
					/>
				<path class="st2" d="M23.5-64c0,0.1,0,0.1,0,0.2c-0.1,0.1-0.1,0.1-0.2,0.1c-0.1,0.1-0.1,0.3-0.1,0.4c-0.2,0.1,0,0.2,0,0.3
					c0,0,0,0.1,0,0.2c0,0.1,0,0.3,0.1,0.4c0.1,0.2,0.3,0.4,0.4,0.5c0.2,0.1,0.4,0.6,0.6,0.6c0.2,0,0.4-0.1,0.5-0.1
					c0.2,0,0.4,0,0.6-0.1c0.2-0.1,0.1-0.3,0.3-0.5c0.1-0.1,0.3,0,0.4-0.1c0.2-0.1,0.3-0.3,0.4-0.5c0-0.1,0-0.1,0-0.2
					c0-0.1,0.1-0.2,0.1-0.3c0-0.1-0.1-0.1-0.1-0.2c0-0.1,0-0.2,0-0.3c0-0.2,0-0.4-0.1-0.5c-0.4-0.7-1.2-0.9-2-0.8
					c-0.2,0-0.3,0.1-0.4,0.2c-0.2,0.1-0.1,0.2-0.3,0.2c-0.1,0-0.2,0.1-0.2,0.2C23.5-64,23.5-64.1,23.5-64C23.5-64,23.5-64,23.5-64"
					/>
				<path class="st2" d="M15.8-64c0,0.1,0,0.1,0,0.2c-0.1,0.1-0.1,0.1-0.2,0.1c-0.1,0.1-0.1,0.3-0.1,0.4c-0.2,0.1,0,0.2,0,0.3
					c0,0,0,0.1,0,0.2c0,0.1,0,0.3,0.1,0.4c0.1,0.2,0.3,0.4,0.4,0.5c0.2,0.1,0.4,0.6,0.6,0.6c0.2,0,0.4-0.1,0.5-0.1
					c0.2,0,0.4,0,0.6-0.1c0.2-0.1,0.1-0.3,0.3-0.5c0.1-0.1,0.3,0,0.4-0.1c0.2-0.1,0.3-0.3,0.4-0.5c0-0.1,0-0.1,0-0.2
					c0-0.1,0.1-0.2,0.1-0.3c0-0.1-0.1-0.1-0.1-0.2c0-0.1,0-0.2,0-0.3c0-0.2,0-0.4-0.1-0.5c-0.4-0.7-1.2-0.9-2-0.8
					c-0.2,0-0.3,0.1-0.4,0.2c-0.2,0.1-0.1,0.2-0.3,0.2c-0.1,0-0.2,0.1-0.2,0.2C15.8-64,15.8-64.1,15.8-64C15.8-64,15.8-64,15.8-64"
					/>
				<path class="st2" d="M8.2-64c0,0.1,0,0.1,0,0.2C8.1-63.7,8-63.7,8-63.7c-0.1,0.1-0.1,0.3-0.1,0.4c-0.2,0.1,0,0.2,0,0.3
					c0,0,0,0.1,0,0.2c0,0.1,0,0.3,0.1,0.4C8-62.2,8.2-62,8.3-61.9c0.2,0.1,0.4,0.6,0.6,0.6c0.2,0,0.4-0.1,0.5-0.1
					c0.2,0,0.4,0,0.6-0.1c0.2-0.1,0.1-0.3,0.3-0.5c0.1-0.1,0.3,0,0.4-0.1c0.2-0.1,0.3-0.3,0.4-0.5c0-0.1,0-0.1,0-0.2
					c0-0.1,0.1-0.2,0.1-0.3c0-0.1-0.1-0.1-0.1-0.2c0-0.1,0-0.2,0-0.3c0-0.2,0-0.4-0.1-0.5c-0.4-0.7-1.2-0.9-2-0.8
					c-0.2,0-0.3,0.1-0.4,0.2c-0.2,0.1-0.1,0.2-0.3,0.2c-0.1,0-0.2,0.1-0.2,0.2C8.2-64,8.2-64.1,8.2-64C8.1-64,8.1-64,8.2-64"/>
				<path class="st2" d="M0.5-64c0,0.1,0,0.1,0,0.2c-0.1,0.1-0.1,0.1-0.2,0.1c-0.1,0.1-0.1,0.3-0.1,0.4c-0.2,0.1,0,0.2,0,0.3
					c0,0,0,0.1,0,0.2c0,0.1,0,0.3,0.1,0.4c0.1,0.2,0.3,0.4,0.4,0.5c0.2,0.1,0.4,0.6,0.6,0.6c0.2,0,0.4-0.1,0.5-0.1
					c0.2,0,0.4,0,0.6-0.1c0.2-0.1,0.1-0.3,0.3-0.5C2.8-62,3-61.9,3.1-62c0.2-0.1,0.3-0.3,0.4-0.5c0-0.1,0-0.1,0-0.2
					c0-0.1,0.1-0.2,0.1-0.3c0-0.1-0.1-0.1-0.1-0.2c0-0.1,0-0.2,0-0.3c0-0.2,0-0.4-0.1-0.5c-0.4-0.7-1.2-0.9-2-0.8
					c-0.2,0-0.3,0.1-0.4,0.2c-0.2,0.1-0.1,0.2-0.3,0.2c-0.1,0-0.2,0.1-0.2,0.2C0.5-64,0.5-64.1,0.5-64C0.5-64,0.5-64,0.5-64"/>
			</g>
			<g>
				<path class="st2" d="M69.4-56.3c0,0.1,0,0.1,0,0.2c-0.1,0.1-0.1,0.1-0.2,0.1c-0.1,0.1-0.1,0.3-0.1,0.4c-0.2,0.1,0,0.2,0,0.3
					c0,0,0,0.1,0,0.2c0,0.1,0,0.3,0.1,0.4c0.1,0.2,0.3,0.4,0.4,0.5c0.2,0.1,0.4,0.6,0.6,0.6c0.2,0,0.4-0.1,0.5-0.1
					c0.2,0,0.4,0,0.6-0.1c0.2-0.1,0.1-0.3,0.3-0.5c0.1-0.1,0.3,0,0.4-0.1c0.2-0.1,0.3-0.3,0.4-0.5c0-0.1,0-0.1,0-0.2
					c0-0.1,0.1-0.2,0.1-0.3c0-0.1-0.1-0.1-0.1-0.2c0-0.1,0-0.2,0-0.3c0-0.2,0-0.4-0.1-0.5c-0.4-0.7-1.2-0.9-2-0.8
					c-0.2,0-0.3,0.1-0.4,0.2c-0.2,0.1-0.1,0.2-0.3,0.2c-0.1,0-0.2,0.1-0.2,0.2C69.4-56.4,69.4-56.4,69.4-56.3
					C69.4-56.3,69.4-56.3,69.4-56.3"/>
				<path class="st2" d="M61.8-56.3c0,0.1,0,0.1,0,0.2c-0.1,0.1-0.1,0.1-0.2,0.1c-0.1,0.1-0.1,0.3-0.1,0.4c-0.2,0.1,0,0.2,0,0.3
					c0,0,0,0.1,0,0.2c0,0.1,0,0.3,0.1,0.4c0.1,0.2,0.3,0.4,0.4,0.5c0.2,0.1,0.4,0.6,0.6,0.6c0.2,0,0.4-0.1,0.5-0.1
					c0.2,0,0.4,0,0.6-0.1c0.2-0.1,0.1-0.3,0.3-0.5c0.1-0.1,0.3,0,0.4-0.1c0.2-0.1,0.3-0.3,0.4-0.5c0-0.1,0-0.1,0-0.2
					c0-0.1,0.1-0.2,0.1-0.3c0-0.1-0.1-0.1-0.1-0.2c0-0.1,0-0.2,0-0.3c0-0.2,0-0.4-0.1-0.5c-0.4-0.7-1.2-0.9-2-0.8
					c-0.2,0-0.3,0.1-0.4,0.2c-0.2,0.1-0.1,0.2-0.3,0.2c-0.1,0-0.2,0.1-0.2,0.2C61.8-56.4,61.8-56.4,61.8-56.3
					C61.8-56.3,61.8-56.3,61.8-56.3"/>
				<path class="st2" d="M54.1-56.3c0,0.1,0,0.1,0,0.2C54-56.1,54-56.1,53.9-56c-0.1,0.1-0.1,0.3-0.1,0.4c-0.2,0.1,0,0.2,0,0.3
					c0,0,0,0.1,0,0.2c0,0.1,0,0.3,0.1,0.4c0.1,0.2,0.3,0.4,0.4,0.5c0.2,0.1,0.4,0.6,0.6,0.6c0.2,0,0.4-0.1,0.5-0.1
					c0.2,0,0.4,0,0.6-0.1c0.2-0.1,0.1-0.3,0.3-0.5c0.1-0.1,0.3,0,0.4-0.1c0.2-0.1,0.3-0.3,0.4-0.5c0-0.1,0-0.1,0-0.2
					c0-0.1,0.1-0.2,0.1-0.3c0-0.1-0.1-0.1-0.1-0.2c0-0.1,0-0.2,0-0.3c0-0.2,0-0.4-0.1-0.5c-0.4-0.7-1.2-0.9-2-0.8
					c-0.2,0-0.3,0.1-0.4,0.2c-0.2,0.1-0.1,0.2-0.3,0.2c-0.1,0-0.2,0.1-0.2,0.2C54.1-56.4,54.1-56.4,54.1-56.3
					C54.1-56.3,54.1-56.3,54.1-56.3"/>
				<path class="st2" d="M46.5-56.3c0,0.1,0,0.1,0,0.2c-0.1,0.1-0.1,0.1-0.2,0.1c-0.1,0.1-0.1,0.3-0.1,0.4c-0.2,0.1,0,0.2,0,0.3
					c0,0,0,0.1,0,0.2c0,0.1,0,0.3,0.1,0.4c0.1,0.2,0.3,0.4,0.4,0.5c0.2,0.1,0.4,0.6,0.6,0.6c0.2,0,0.4-0.1,0.5-0.1
					c0.2,0,0.4,0,0.6-0.1c0.2-0.1,0.1-0.3,0.3-0.5c0.1-0.1,0.3,0,0.4-0.1c0.2-0.1,0.3-0.3,0.4-0.5c0-0.1,0-0.1,0-0.2
					c0-0.1,0.1-0.2,0.1-0.3c0-0.1-0.1-0.1-0.1-0.2c0-0.1,0-0.2,0-0.3c0-0.2,0-0.4-0.1-0.5c-0.4-0.7-1.2-0.9-2-0.8
					c-0.2,0-0.3,0.1-0.4,0.2c-0.2,0.1-0.1,0.2-0.3,0.2c-0.1,0-0.2,0.1-0.2,0.2C46.5-56.4,46.5-56.4,46.5-56.3
					C46.5-56.3,46.5-56.3,46.5-56.3"/>
				<path class="st2" d="M38.8-56.3c0,0.1,0,0.1,0,0.2c-0.1,0.1-0.1,0.1-0.2,0.1c-0.1,0.1-0.1,0.3-0.1,0.4c-0.2,0.1,0,0.2,0,0.3
					c0,0,0,0.1,0,0.2c0,0.1,0,0.3,0.1,0.4c0.1,0.2,0.3,0.4,0.4,0.5c0.2,0.1,0.4,0.6,0.6,0.6c0.2,0,0.4-0.1,0.5-0.1
					c0.2,0,0.4,0,0.6-0.1c0.2-0.1,0.1-0.3,0.3-0.5c0.1-0.1,0.3,0,0.4-0.1c0.2-0.1,0.3-0.3,0.4-0.5c0-0.1,0-0.1,0-0.2
					c0-0.1,0.1-0.2,0.1-0.3c0-0.1-0.1-0.1-0.1-0.2c0-0.1,0-0.2,0-0.3c0-0.2,0-0.4-0.1-0.5c-0.4-0.7-1.2-0.9-2-0.8
					c-0.2,0-0.3,0.1-0.4,0.2c-0.2,0.1-0.1,0.2-0.3,0.2c-0.1,0-0.2,0.1-0.2,0.2C38.8-56.4,38.8-56.4,38.8-56.3
					C38.8-56.3,38.8-56.3,38.8-56.3"/>
				<path class="st2" d="M31.1-56.3c0,0.1,0,0.1,0,0.2c-0.1,0.1-0.1,0.1-0.2,0.1c-0.1,0.1-0.1,0.3-0.1,0.4c-0.2,0.1,0,0.2,0,0.3
					c0,0,0,0.1,0,0.2c0,0.1,0,0.3,0.1,0.4c0.1,0.2,0.3,0.4,0.4,0.5c0.2,0.1,0.4,0.6,0.6,0.6c0.2,0,0.4-0.1,0.5-0.1
					c0.2,0,0.4,0,0.6-0.1c0.2-0.1,0.1-0.3,0.3-0.5c0.1-0.1,0.3,0,0.4-0.1c0.2-0.1,0.3-0.3,0.4-0.5c0-0.1,0-0.1,0-0.2
					c0-0.1,0.1-0.2,0.1-0.3c0-0.1-0.1-0.1-0.1-0.2c0-0.1,0-0.2,0-0.3c0-0.2,0-0.4-0.1-0.5c-0.4-0.7-1.2-0.9-2-0.8
					c-0.2,0-0.3,0.1-0.4,0.2c-0.2,0.1-0.1,0.2-0.3,0.2c-0.1,0-0.2,0.1-0.2,0.2C31.1-56.4,31.1-56.4,31.1-56.3
					C31.1-56.3,31.1-56.3,31.1-56.3"/>
				<path class="st2" d="M23.5-56.3c0,0.1,0,0.1,0,0.2c-0.1,0.1-0.1,0.1-0.2,0.1c-0.1,0.1-0.1,0.3-0.1,0.4c-0.2,0.1,0,0.2,0,0.3
					c0,0,0,0.1,0,0.2c0,0.1,0,0.3,0.1,0.4c0.1,0.2,0.3,0.4,0.4,0.5c0.2,0.1,0.4,0.6,0.6,0.6c0.2,0,0.4-0.1,0.5-0.1
					c0.2,0,0.4,0,0.6-0.1c0.2-0.1,0.1-0.3,0.3-0.5c0.1-0.1,0.3,0,0.4-0.1c0.2-0.1,0.3-0.3,0.4-0.5c0-0.1,0-0.1,0-0.2
					c0-0.1,0.1-0.2,0.1-0.3c0-0.1-0.1-0.1-0.1-0.2c0-0.1,0-0.2,0-0.3c0-0.2,0-0.4-0.1-0.5c-0.4-0.7-1.2-0.9-2-0.8
					c-0.2,0-0.3,0.1-0.4,0.2c-0.2,0.1-0.1,0.2-0.3,0.2c-0.1,0-0.2,0.1-0.2,0.2C23.5-56.4,23.5-56.4,23.5-56.3
					C23.5-56.3,23.5-56.3,23.5-56.3"/>
				<path class="st2" d="M15.8-56.3c0,0.1,0,0.1,0,0.2c-0.1,0.1-0.1,0.1-0.2,0.1c-0.1,0.1-0.1,0.3-0.1,0.4c-0.2,0.1,0,0.2,0,0.3
					c0,0,0,0.1,0,0.2c0,0.1,0,0.3,0.1,0.4c0.1,0.2,0.3,0.4,0.4,0.5c0.2,0.1,0.4,0.6,0.6,0.6c0.2,0,0.4-0.1,0.5-0.1
					c0.2,0,0.4,0,0.6-0.1c0.2-0.1,0.1-0.3,0.3-0.5c0.1-0.1,0.3,0,0.4-0.1c0.2-0.1,0.3-0.3,0.4-0.5c0-0.1,0-0.1,0-0.2
					c0-0.1,0.1-0.2,0.1-0.3c0-0.1-0.1-0.1-0.1-0.2c0-0.1,0-0.2,0-0.3c0-0.2,0-0.4-0.1-0.5c-0.4-0.7-1.2-0.9-2-0.8
					c-0.2,0-0.3,0.1-0.4,0.2c-0.2,0.1-0.1,0.2-0.3,0.2c-0.1,0-0.2,0.1-0.2,0.2C15.8-56.4,15.8-56.4,15.8-56.3
					C15.8-56.3,15.8-56.3,15.8-56.3"/>
				<path class="st2" d="M8.2-56.3c0,0.1,0,0.1,0,0.2C8.1-56.1,8-56.1,8-56c-0.1,0.1-0.1,0.3-0.1,0.4c-0.2,0.1,0,0.2,0,0.3
					c0,0,0,0.1,0,0.2c0,0.1,0,0.3,0.1,0.4c0.1,0.2,0.3,0.4,0.4,0.5c0.2,0.1,0.4,0.6,0.6,0.6c0.2,0,0.4-0.1,0.5-0.1
					c0.2,0,0.4,0,0.6-0.1c0.2-0.1,0.1-0.3,0.3-0.5c0.1-0.1,0.3,0,0.4-0.1c0.2-0.1,0.3-0.3,0.4-0.5c0-0.1,0-0.1,0-0.2
					c0-0.1,0.1-0.2,0.1-0.3c0-0.1-0.1-0.1-0.1-0.2c0-0.1,0-0.2,0-0.3c0-0.2,0-0.4-0.1-0.5c-0.4-0.7-1.2-0.9-2-0.8
					c-0.2,0-0.3,0.1-0.4,0.2c-0.2,0.1-0.1,0.2-0.3,0.2c-0.1,0-0.2,0.1-0.2,0.2C8.2-56.4,8.2-56.4,8.2-56.3
					C8.1-56.3,8.1-56.3,8.2-56.3"/>
				<path class="st2" d="M0.5-56.3c0,0.1,0,0.1,0,0.2c-0.1,0.1-0.1,0.1-0.2,0.1c-0.1,0.1-0.1,0.3-0.1,0.4c-0.2,0.1,0,0.2,0,0.3
					c0,0,0,0.1,0,0.2c0,0.1,0,0.3,0.1,0.4c0.1,0.2,0.3,0.4,0.4,0.5c0.2,0.1,0.4,0.6,0.6,0.6c0.2,0,0.4-0.1,0.5-0.1
					c0.2,0,0.4,0,0.6-0.1c0.2-0.1,0.1-0.3,0.3-0.5c0.1-0.1,0.3,0,0.4-0.1c0.2-0.1,0.3-0.3,0.4-0.5c0-0.1,0-0.1,0-0.2
					c0-0.1,0.1-0.2,0.1-0.3c0-0.1-0.1-0.1-0.1-0.2c0-0.1,0-0.2,0-0.3c0-0.2,0-0.4-0.1-0.5c-0.4-0.7-1.2-0.9-2-0.8
					c-0.2,0-0.3,0.1-0.4,0.2c-0.2,0.1-0.1,0.2-0.3,0.2c-0.1,0-0.2,0.1-0.2,0.2C0.5-56.4,0.5-56.4,0.5-56.3
					C0.5-56.3,0.5-56.3,0.5-56.3"/>
			</g>
			<g>
				<path class="st2" d="M69.4-48.7c0,0.1,0,0.1,0,0.2c-0.1,0.1-0.1,0.1-0.2,0.1c-0.1,0.1-0.1,0.3-0.1,0.4c-0.2,0.1,0,0.2,0,0.3
					c0,0,0,0.1,0,0.2c0,0.1,0,0.3,0.1,0.4c0.1,0.2,0.3,0.4,0.4,0.5c0.2,0.1,0.4,0.6,0.6,0.6c0.2,0,0.4-0.1,0.5-0.1
					c0.2,0,0.4,0,0.6-0.1c0.2-0.1,0.1-0.3,0.3-0.5c0.1-0.1,0.3,0,0.4-0.1c0.2-0.1,0.3-0.3,0.4-0.5c0-0.1,0-0.1,0-0.2
					c0-0.1,0.1-0.2,0.1-0.3c0-0.1-0.1-0.1-0.1-0.2c0-0.1,0-0.2,0-0.3c0-0.2,0-0.4-0.1-0.5c-0.4-0.7-1.2-0.9-2-0.8
					c-0.2,0-0.3,0.1-0.4,0.2c-0.2,0.1-0.1,0.2-0.3,0.2c-0.1,0-0.2,0.1-0.2,0.2C69.4-48.7,69.4-48.8,69.4-48.7
					C69.4-48.7,69.4-48.7,69.4-48.7"/>
				<path class="st2" d="M61.8-48.7c0,0.1,0,0.1,0,0.2c-0.1,0.1-0.1,0.1-0.2,0.1c-0.1,0.1-0.1,0.3-0.1,0.4c-0.2,0.1,0,0.2,0,0.3
					c0,0,0,0.1,0,0.2c0,0.1,0,0.3,0.1,0.4c0.1,0.2,0.3,0.4,0.4,0.5c0.2,0.1,0.4,0.6,0.6,0.6c0.2,0,0.4-0.1,0.5-0.1
					c0.2,0,0.4,0,0.6-0.1c0.2-0.1,0.1-0.3,0.3-0.5c0.1-0.1,0.3,0,0.4-0.1c0.2-0.1,0.3-0.3,0.4-0.5c0-0.1,0-0.1,0-0.2
					c0-0.1,0.1-0.2,0.1-0.3c0-0.1-0.1-0.1-0.1-0.2c0-0.1,0-0.2,0-0.3c0-0.2,0-0.4-0.1-0.5c-0.4-0.7-1.2-0.9-2-0.8
					c-0.2,0-0.3,0.1-0.4,0.2c-0.2,0.1-0.1,0.2-0.3,0.2c-0.1,0-0.2,0.1-0.2,0.2C61.8-48.7,61.8-48.8,61.8-48.7
					C61.8-48.7,61.8-48.7,61.8-48.7"/>
				<path class="st2" d="M54.1-48.7c0,0.1,0,0.1,0,0.2c-0.1,0.1-0.1,0.1-0.2,0.1c-0.1,0.1-0.1,0.3-0.1,0.4c-0.2,0.1,0,0.2,0,0.3
					c0,0,0,0.1,0,0.2c0,0.1,0,0.3,0.1,0.4c0.1,0.2,0.3,0.4,0.4,0.5c0.2,0.1,0.4,0.6,0.6,0.6c0.2,0,0.4-0.1,0.5-0.1
					c0.2,0,0.4,0,0.6-0.1c0.2-0.1,0.1-0.3,0.3-0.5c0.1-0.1,0.3,0,0.4-0.1c0.2-0.1,0.3-0.3,0.4-0.5c0-0.1,0-0.1,0-0.2
					c0-0.1,0.1-0.2,0.1-0.3c0-0.1-0.1-0.1-0.1-0.2c0-0.1,0-0.2,0-0.3c0-0.2,0-0.4-0.1-0.5c-0.4-0.7-1.2-0.9-2-0.8
					c-0.2,0-0.3,0.1-0.4,0.2c-0.2,0.1-0.1,0.2-0.3,0.2c-0.1,0-0.2,0.1-0.2,0.2C54.1-48.7,54.1-48.8,54.1-48.7
					C54.1-48.7,54.1-48.7,54.1-48.7"/>
				<path class="st2" d="M46.5-48.7c0,0.1,0,0.1,0,0.2c-0.1,0.1-0.1,0.1-0.2,0.1c-0.1,0.1-0.1,0.3-0.1,0.4c-0.2,0.1,0,0.2,0,0.3
					c0,0,0,0.1,0,0.2c0,0.1,0,0.3,0.1,0.4c0.1,0.2,0.3,0.4,0.4,0.5c0.2,0.1,0.4,0.6,0.6,0.6c0.2,0,0.4-0.1,0.5-0.1
					c0.2,0,0.4,0,0.6-0.1c0.2-0.1,0.1-0.3,0.3-0.5c0.1-0.1,0.3,0,0.4-0.1c0.2-0.1,0.3-0.3,0.4-0.5c0-0.1,0-0.1,0-0.2
					c0-0.1,0.1-0.2,0.1-0.3c0-0.1-0.1-0.1-0.1-0.2c0-0.1,0-0.2,0-0.3c0-0.2,0-0.4-0.1-0.5c-0.4-0.7-1.2-0.9-2-0.8
					c-0.2,0-0.3,0.1-0.4,0.2c-0.2,0.1-0.1,0.2-0.3,0.2c-0.1,0-0.2,0.1-0.2,0.2C46.5-48.7,46.5-48.8,46.5-48.7
					C46.5-48.7,46.5-48.7,46.5-48.7"/>
				<path class="st2" d="M38.8-48.7c0,0.1,0,0.1,0,0.2c-0.1,0.1-0.1,0.1-0.2,0.1c-0.1,0.1-0.1,0.3-0.1,0.4c-0.2,0.1,0,0.2,0,0.3
					c0,0,0,0.1,0,0.2c0,0.1,0,0.3,0.1,0.4c0.1,0.2,0.3,0.4,0.4,0.5c0.2,0.1,0.4,0.6,0.6,0.6c0.2,0,0.4-0.1,0.5-0.1
					c0.2,0,0.4,0,0.6-0.1c0.2-0.1,0.1-0.3,0.3-0.5c0.1-0.1,0.3,0,0.4-0.1c0.2-0.1,0.3-0.3,0.4-0.5c0-0.1,0-0.1,0-0.2
					c0-0.1,0.1-0.2,0.1-0.3c0-0.1-0.1-0.1-0.1-0.2c0-0.1,0-0.2,0-0.3c0-0.2,0-0.4-0.1-0.5c-0.4-0.7-1.2-0.9-2-0.8
					c-0.2,0-0.3,0.1-0.4,0.2c-0.2,0.1-0.1,0.2-0.3,0.2c-0.1,0-0.2,0.1-0.2,0.2C38.8-48.7,38.8-48.8,38.8-48.7
					C38.8-48.7,38.8-48.7,38.8-48.7"/>
				<path class="st2" d="M31.1-48.7c0,0.1,0,0.1,0,0.2c-0.1,0.1-0.1,0.1-0.2,0.1c-0.1,0.1-0.1,0.3-0.1,0.4c-0.2,0.1,0,0.2,0,0.3
					c0,0,0,0.1,0,0.2c0,0.1,0,0.3,0.1,0.4c0.1,0.2,0.3,0.4,0.4,0.5c0.2,0.1,0.4,0.6,0.6,0.6c0.2,0,0.4-0.1,0.5-0.1
					c0.2,0,0.4,0,0.6-0.1c0.2-0.1,0.1-0.3,0.3-0.5c0.1-0.1,0.3,0,0.4-0.1c0.2-0.1,0.3-0.3,0.4-0.5c0-0.1,0-0.1,0-0.2
					c0-0.1,0.1-0.2,0.1-0.3c0-0.1-0.1-0.1-0.1-0.2c0-0.1,0-0.2,0-0.3c0-0.2,0-0.4-0.1-0.5c-0.4-0.7-1.2-0.9-2-0.8
					c-0.2,0-0.3,0.1-0.4,0.2c-0.2,0.1-0.1,0.2-0.3,0.2c-0.1,0-0.2,0.1-0.2,0.2C31.1-48.7,31.1-48.8,31.1-48.7
					C31.1-48.7,31.1-48.7,31.1-48.7"/>
				<path class="st2" d="M23.5-48.7c0,0.1,0,0.1,0,0.2c-0.1,0.1-0.1,0.1-0.2,0.1c-0.1,0.1-0.1,0.3-0.1,0.4c-0.2,0.1,0,0.2,0,0.3
					c0,0,0,0.1,0,0.2c0,0.1,0,0.3,0.1,0.4c0.1,0.2,0.3,0.4,0.4,0.5c0.2,0.1,0.4,0.6,0.6,0.6c0.2,0,0.4-0.1,0.5-0.1
					c0.2,0,0.4,0,0.6-0.1c0.2-0.1,0.1-0.3,0.3-0.5c0.1-0.1,0.3,0,0.4-0.1c0.2-0.1,0.3-0.3,0.4-0.5c0-0.1,0-0.1,0-0.2
					c0-0.1,0.1-0.2,0.1-0.3c0-0.1-0.1-0.1-0.1-0.2c0-0.1,0-0.2,0-0.3c0-0.2,0-0.4-0.1-0.5c-0.4-0.7-1.2-0.9-2-0.8
					c-0.2,0-0.3,0.1-0.4,0.2c-0.2,0.1-0.1,0.2-0.3,0.2c-0.1,0-0.2,0.1-0.2,0.2C23.5-48.7,23.5-48.8,23.5-48.7
					C23.5-48.7,23.5-48.7,23.5-48.7"/>
				<path class="st2" d="M15.8-48.7c0,0.1,0,0.1,0,0.2c-0.1,0.1-0.1,0.1-0.2,0.1c-0.1,0.1-0.1,0.3-0.1,0.4c-0.2,0.1,0,0.2,0,0.3
					c0,0,0,0.1,0,0.2c0,0.1,0,0.3,0.1,0.4c0.1,0.2,0.3,0.4,0.4,0.5c0.2,0.1,0.4,0.6,0.6,0.6c0.2,0,0.4-0.1,0.5-0.1
					c0.2,0,0.4,0,0.6-0.1c0.2-0.1,0.1-0.3,0.3-0.5c0.1-0.1,0.3,0,0.4-0.1c0.2-0.1,0.3-0.3,0.4-0.5c0-0.1,0-0.1,0-0.2
					c0-0.1,0.1-0.2,0.1-0.3c0-0.1-0.1-0.1-0.1-0.2c0-0.1,0-0.2,0-0.3c0-0.2,0-0.4-0.1-0.5c-0.4-0.7-1.2-0.9-2-0.8
					c-0.2,0-0.3,0.1-0.4,0.2c-0.2,0.1-0.1,0.2-0.3,0.2c-0.1,0-0.2,0.1-0.2,0.2C15.8-48.7,15.8-48.8,15.8-48.7
					C15.8-48.7,15.8-48.7,15.8-48.7"/>
				<path class="st2" d="M8.2-48.7c0,0.1,0,0.1,0,0.2C8.1-48.4,8-48.4,8-48.4c-0.1,0.1-0.1,0.3-0.1,0.4c-0.2,0.1,0,0.2,0,0.3
					c0,0,0,0.1,0,0.2c0,0.1,0,0.3,0.1,0.4c0.1,0.2,0.3,0.4,0.4,0.5C8.5-46.4,8.7-46,8.9-46c0.2,0,0.4-0.1,0.5-0.1
					c0.2,0,0.4,0,0.6-0.1c0.2-0.1,0.1-0.3,0.3-0.5c0.1-0.1,0.3,0,0.4-0.1c0.2-0.1,0.3-0.3,0.4-0.5c0-0.1,0-0.1,0-0.2
					c0-0.1,0.1-0.2,0.1-0.3c0-0.1-0.1-0.1-0.1-0.2c0-0.1,0-0.2,0-0.3c0-0.2,0-0.4-0.1-0.5c-0.4-0.7-1.2-0.9-2-0.8
					c-0.2,0-0.3,0.1-0.4,0.2c-0.2,0.1-0.1,0.2-0.3,0.2c-0.1,0-0.2,0.1-0.2,0.2C8.2-48.7,8.2-48.8,8.2-48.7
					C8.1-48.7,8.1-48.7,8.2-48.7"/>
				<path class="st2" d="M0.5-48.7c0,0.1,0,0.1,0,0.2c-0.1,0.1-0.1,0.1-0.2,0.1c-0.1,0.1-0.1,0.3-0.1,0.4c-0.2,0.1,0,0.2,0,0.3
					c0,0,0,0.1,0,0.2c0,0.1,0,0.3,0.1,0.4c0.1,0.2,0.3,0.4,0.4,0.5C0.9-46.4,1-46,1.3-46c0.2,0,0.4-0.1,0.5-0.1c0.2,0,0.4,0,0.6-0.1
					c0.2-0.1,0.1-0.3,0.3-0.5c0.1-0.1,0.3,0,0.4-0.1c0.2-0.1,0.3-0.3,0.4-0.5c0-0.1,0-0.1,0-0.2c0-0.1,0.1-0.2,0.1-0.3
					c0-0.1-0.1-0.1-0.1-0.2c0-0.1,0-0.2,0-0.3c0-0.2,0-0.4-0.1-0.5c-0.4-0.7-1.2-0.9-2-0.8c-0.2,0-0.3,0.1-0.4,0.2
					c-0.2,0.1-0.1,0.2-0.3,0.2c-0.1,0-0.2,0.1-0.2,0.2C0.5-48.7,0.5-48.8,0.5-48.7C0.5-48.7,0.5-48.7,0.5-48.7"/>
			</g>
			<g>
				<path class="st2" d="M69.4-41c0,0.1,0,0.1,0,0.2c-0.1,0.1-0.1,0.1-0.2,0.1c-0.1,0.1-0.1,0.3-0.1,0.4c-0.2,0.1,0,0.2,0,0.3
					c0,0,0,0.1,0,0.2c0,0.1,0,0.3,0.1,0.4c0.1,0.2,0.3,0.4,0.4,0.5c0.2,0.1,0.4,0.6,0.6,0.6c0.2,0,0.4-0.1,0.5-0.1
					c0.2,0,0.4,0,0.6-0.1c0.2-0.1,0.1-0.3,0.3-0.5c0.1-0.1,0.3,0,0.4-0.1c0.2-0.1,0.3-0.3,0.4-0.5c0-0.1,0-0.1,0-0.2
					c0-0.1,0.1-0.2,0.1-0.3c0-0.1-0.1-0.1-0.1-0.2c0-0.1,0-0.2,0-0.3c0-0.2,0-0.4-0.1-0.5c-0.4-0.7-1.2-0.9-2-0.8
					c-0.2,0-0.3,0.1-0.4,0.2c-0.2,0.1-0.1,0.2-0.3,0.2c-0.1,0-0.2,0.1-0.2,0.2C69.4-41.1,69.4-41.1,69.4-41C69.4-41,69.4-41,69.4-41
					"/>
				<path class="st2" d="M61.8-41c0,0.1,0,0.1,0,0.2c-0.1,0.1-0.1,0.1-0.2,0.1c-0.1,0.1-0.1,0.3-0.1,0.4c-0.2,0.1,0,0.2,0,0.3
					c0,0,0,0.1,0,0.2c0,0.1,0,0.3,0.1,0.4c0.1,0.2,0.3,0.4,0.4,0.5c0.2,0.1,0.4,0.6,0.6,0.6c0.2,0,0.4-0.1,0.5-0.1
					c0.2,0,0.4,0,0.6-0.1c0.2-0.1,0.1-0.3,0.3-0.5c0.1-0.1,0.3,0,0.4-0.1c0.2-0.1,0.3-0.3,0.4-0.5c0-0.1,0-0.1,0-0.2
					c0-0.1,0.1-0.2,0.1-0.3c0-0.1-0.1-0.1-0.1-0.2c0-0.1,0-0.2,0-0.3c0-0.2,0-0.4-0.1-0.5c-0.4-0.7-1.2-0.9-2-0.8
					c-0.2,0-0.3,0.1-0.4,0.2c-0.2,0.1-0.1,0.2-0.3,0.2c-0.1,0-0.2,0.1-0.2,0.2C61.8-41.1,61.8-41.1,61.8-41C61.8-41,61.8-41,61.8-41
					"/>
				<path class="st2" d="M54.1-41c0,0.1,0,0.1,0,0.2c-0.1,0.1-0.1,0.1-0.2,0.1c-0.1,0.1-0.1,0.3-0.1,0.4c-0.2,0.1,0,0.2,0,0.3
					c0,0,0,0.1,0,0.2c0,0.1,0,0.3,0.1,0.4c0.1,0.2,0.3,0.4,0.4,0.5c0.2,0.1,0.4,0.6,0.6,0.6c0.2,0,0.4-0.1,0.5-0.1
					c0.2,0,0.4,0,0.6-0.1c0.2-0.1,0.1-0.3,0.3-0.5c0.1-0.1,0.3,0,0.4-0.1c0.2-0.1,0.3-0.3,0.4-0.5c0-0.1,0-0.1,0-0.2
					c0-0.1,0.1-0.2,0.1-0.3c0-0.1-0.1-0.1-0.1-0.2c0-0.1,0-0.2,0-0.3c0-0.2,0-0.4-0.1-0.5c-0.4-0.7-1.2-0.9-2-0.8
					c-0.2,0-0.3,0.1-0.4,0.2c-0.2,0.1-0.1,0.2-0.3,0.2c-0.1,0-0.2,0.1-0.2,0.2C54.1-41.1,54.1-41.1,54.1-41C54.1-41,54.1-41,54.1-41
					"/>
				<path class="st2" d="M46.5-41c0,0.1,0,0.1,0,0.2c-0.1,0.1-0.1,0.1-0.2,0.1c-0.1,0.1-0.1,0.3-0.1,0.4c-0.2,0.1,0,0.2,0,0.3
					c0,0,0,0.1,0,0.2c0,0.1,0,0.3,0.1,0.4c0.1,0.2,0.3,0.4,0.4,0.5c0.2,0.1,0.4,0.6,0.6,0.6c0.2,0,0.4-0.1,0.5-0.1
					c0.2,0,0.4,0,0.6-0.1c0.2-0.1,0.1-0.3,0.3-0.5c0.1-0.1,0.3,0,0.4-0.1c0.2-0.1,0.3-0.3,0.4-0.5c0-0.1,0-0.1,0-0.2
					c0-0.1,0.1-0.2,0.1-0.3c0-0.1-0.1-0.1-0.1-0.2c0-0.1,0-0.2,0-0.3c0-0.2,0-0.4-0.1-0.5c-0.4-0.7-1.2-0.9-2-0.8
					c-0.2,0-0.3,0.1-0.4,0.2c-0.2,0.1-0.1,0.2-0.3,0.2c-0.1,0-0.2,0.1-0.2,0.2C46.5-41.1,46.5-41.1,46.5-41C46.5-41,46.5-41,46.5-41
					"/>
				<path class="st2" d="M38.8-41c0,0.1,0,0.1,0,0.2c-0.1,0.1-0.1,0.1-0.2,0.1c-0.1,0.1-0.1,0.3-0.1,0.4c-0.2,0.1,0,0.2,0,0.3
					c0,0,0,0.1,0,0.2c0,0.1,0,0.3,0.1,0.4c0.1,0.2,0.3,0.4,0.4,0.5c0.2,0.1,0.4,0.6,0.6,0.6c0.2,0,0.4-0.1,0.5-0.1
					c0.2,0,0.4,0,0.6-0.1c0.2-0.1,0.1-0.3,0.3-0.5c0.1-0.1,0.3,0,0.4-0.1c0.2-0.1,0.3-0.3,0.4-0.5c0-0.1,0-0.1,0-0.2
					c0-0.1,0.1-0.2,0.1-0.3c0-0.1-0.1-0.1-0.1-0.2c0-0.1,0-0.2,0-0.3c0-0.2,0-0.4-0.1-0.5c-0.4-0.7-1.2-0.9-2-0.8
					c-0.2,0-0.3,0.1-0.4,0.2c-0.2,0.1-0.1,0.2-0.3,0.2c-0.1,0-0.2,0.1-0.2,0.2C38.8-41.1,38.8-41.1,38.8-41C38.8-41,38.8-41,38.8-41
					"/>
				<path class="st2" d="M31.1-41c0,0.1,0,0.1,0,0.2c-0.1,0.1-0.1,0.1-0.2,0.1c-0.1,0.1-0.1,0.3-0.1,0.4c-0.2,0.1,0,0.2,0,0.3
					c0,0,0,0.1,0,0.2c0,0.1,0,0.3,0.1,0.4c0.1,0.2,0.3,0.4,0.4,0.5c0.2,0.1,0.4,0.6,0.6,0.6c0.2,0,0.4-0.1,0.5-0.1
					c0.2,0,0.4,0,0.6-0.1c0.2-0.1,0.1-0.3,0.3-0.5c0.1-0.1,0.3,0,0.4-0.1c0.2-0.1,0.3-0.3,0.4-0.5c0-0.1,0-0.1,0-0.2
					c0-0.1,0.1-0.2,0.1-0.3c0-0.1-0.1-0.1-0.1-0.2c0-0.1,0-0.2,0-0.3c0-0.2,0-0.4-0.1-0.5c-0.4-0.7-1.2-0.9-2-0.8
					c-0.2,0-0.3,0.1-0.4,0.2c-0.2,0.1-0.1,0.2-0.3,0.2c-0.1,0-0.2,0.1-0.2,0.2C31.1-41.1,31.1-41.1,31.1-41C31.1-41,31.1-41,31.1-41
					"/>
				<path class="st2" d="M23.5-41c0,0.1,0,0.1,0,0.2c-0.1,0.1-0.1,0.1-0.2,0.1c-0.1,0.1-0.1,0.3-0.1,0.4c-0.2,0.1,0,0.2,0,0.3
					c0,0,0,0.1,0,0.2c0,0.1,0,0.3,0.1,0.4c0.1,0.2,0.3,0.4,0.4,0.5c0.2,0.1,0.4,0.6,0.6,0.6c0.2,0,0.4-0.1,0.5-0.1
					c0.2,0,0.4,0,0.6-0.1c0.2-0.1,0.1-0.3,0.3-0.5c0.1-0.1,0.3,0,0.4-0.1c0.2-0.1,0.3-0.3,0.4-0.5c0-0.1,0-0.1,0-0.2
					c0-0.1,0.1-0.2,0.1-0.3c0-0.1-0.1-0.1-0.1-0.2c0-0.1,0-0.2,0-0.3c0-0.2,0-0.4-0.1-0.5c-0.4-0.7-1.2-0.9-2-0.8
					c-0.2,0-0.3,0.1-0.4,0.2c-0.2,0.1-0.1,0.2-0.3,0.2c-0.1,0-0.2,0.1-0.2,0.2C23.5-41.1,23.5-41.1,23.5-41C23.5-41,23.5-41,23.5-41
					"/>
				<path class="st2" d="M15.8-41c0,0.1,0,0.1,0,0.2c-0.1,0.1-0.1,0.1-0.2,0.1c-0.1,0.1-0.1,0.3-0.1,0.4c-0.2,0.1,0,0.2,0,0.3
					c0,0,0,0.1,0,0.2c0,0.1,0,0.3,0.1,0.4c0.1,0.2,0.3,0.4,0.4,0.5c0.2,0.1,0.4,0.6,0.6,0.6c0.2,0,0.4-0.1,0.5-0.1
					c0.2,0,0.4,0,0.6-0.1c0.2-0.1,0.1-0.3,0.3-0.5c0.1-0.1,0.3,0,0.4-0.1c0.2-0.1,0.3-0.3,0.4-0.5c0-0.1,0-0.1,0-0.2
					c0-0.1,0.1-0.2,0.1-0.3c0-0.1-0.1-0.1-0.1-0.2c0-0.1,0-0.2,0-0.3c0-0.2,0-0.4-0.1-0.5c-0.4-0.7-1.2-0.9-2-0.8
					c-0.2,0-0.3,0.1-0.4,0.2c-0.2,0.1-0.1,0.2-0.3,0.2c-0.1,0-0.2,0.1-0.2,0.2C15.8-41.1,15.8-41.1,15.8-41C15.8-41,15.8-41,15.8-41
					"/>
				<path class="st2" d="M8.2-41c0,0.1,0,0.1,0,0.2C8.1-40.8,8-40.8,8-40.7c-0.1,0.1-0.1,0.3-0.1,0.4c-0.2,0.1,0,0.2,0,0.3
					c0,0,0,0.1,0,0.2c0,0.1,0,0.3,0.1,0.4c0.1,0.2,0.3,0.4,0.4,0.5c0.2,0.1,0.4,0.6,0.6,0.6c0.2,0,0.4-0.1,0.5-0.1
					c0.2,0,0.4,0,0.6-0.1c0.2-0.1,0.1-0.3,0.3-0.5c0.1-0.1,0.3,0,0.4-0.1c0.2-0.1,0.3-0.3,0.4-0.5c0-0.1,0-0.1,0-0.2
					c0-0.1,0.1-0.2,0.1-0.3c0-0.1-0.1-0.1-0.1-0.2c0-0.1,0-0.2,0-0.3c0-0.2,0-0.4-0.1-0.5c-0.4-0.7-1.2-0.9-2-0.8
					c-0.2,0-0.3,0.1-0.4,0.2c-0.2,0.1-0.1,0.2-0.3,0.2c-0.1,0-0.2,0.1-0.2,0.2C8.2-41.1,8.2-41.1,8.2-41C8.1-41,8.1-41,8.2-41"/>
				<path class="st2" d="M0.5-41c0,0.1,0,0.1,0,0.2c-0.1,0.1-0.1,0.1-0.2,0.1c-0.1,0.1-0.1,0.3-0.1,0.4c-0.2,0.1,0,0.2,0,0.3
					c0,0,0,0.1,0,0.2c0,0.1,0,0.3,0.1,0.4c0.1,0.2,0.3,0.4,0.4,0.5c0.2,0.1,0.4,0.6,0.6,0.6c0.2,0,0.4-0.1,0.5-0.1
					c0.2,0,0.4,0,0.6-0.1c0.2-0.1,0.1-0.3,0.3-0.5C2.8-39,3-39,3.1-39c0.2-0.1,0.3-0.3,0.4-0.5c0-0.1,0-0.1,0-0.2
					c0-0.1,0.1-0.2,0.1-0.3c0-0.1-0.1-0.1-0.1-0.2c0-0.1,0-0.2,0-0.3c0-0.2,0-0.4-0.1-0.5c-0.4-0.7-1.2-0.9-2-0.8
					c-0.2,0-0.3,0.1-0.4,0.2c-0.2,0.1-0.1,0.2-0.3,0.2c-0.1,0-0.2,0.1-0.2,0.2C0.5-41.1,0.5-41.1,0.5-41C0.5-41,0.5-41,0.5-41"/>
			</g>
			<g>
				<path class="st2" d="M69.4-33.4c0,0.1,0,0.1,0,0.2c-0.1,0.1-0.1,0.1-0.2,0.1c-0.1,0.1-0.1,0.3-0.1,0.4c-0.2,0.1,0,0.2,0,0.3
					c0,0,0,0.1,0,0.2c0,0.1,0,0.3,0.1,0.4c0.1,0.2,0.3,0.4,0.4,0.5c0.2,0.1,0.4,0.6,0.6,0.6c0.2,0,0.4-0.1,0.5-0.1
					c0.2,0,0.4,0,0.6-0.1c0.2-0.1,0.1-0.3,0.3-0.5c0.1-0.1,0.3,0,0.4-0.1c0.2-0.1,0.3-0.3,0.4-0.5c0-0.1,0-0.1,0-0.2
					c0-0.1,0.1-0.2,0.1-0.3c0-0.1-0.1-0.1-0.1-0.2c0-0.1,0-0.2,0-0.3c0-0.2,0-0.4-0.1-0.5c-0.4-0.7-1.2-0.9-2-0.8
					c-0.2,0-0.3,0.1-0.4,0.2c-0.2,0.1-0.1,0.2-0.3,0.2c-0.1,0-0.2,0.1-0.2,0.2C69.4-33.4,69.4-33.5,69.4-33.4
					C69.4-33.4,69.4-33.4,69.4-33.4"/>
				<path class="st2" d="M61.8-33.4c0,0.1,0,0.1,0,0.2c-0.1,0.1-0.1,0.1-0.2,0.1c-0.1,0.1-0.1,0.3-0.1,0.4c-0.2,0.1,0,0.2,0,0.3
					c0,0,0,0.1,0,0.2c0,0.1,0,0.3,0.1,0.4c0.1,0.2,0.3,0.4,0.4,0.5c0.2,0.1,0.4,0.6,0.6,0.6c0.2,0,0.4-0.1,0.5-0.1
					c0.2,0,0.4,0,0.6-0.1c0.2-0.1,0.1-0.3,0.3-0.5c0.1-0.1,0.3,0,0.4-0.1c0.2-0.1,0.3-0.3,0.4-0.5c0-0.1,0-0.1,0-0.2
					c0-0.1,0.1-0.2,0.1-0.3c0-0.1-0.1-0.1-0.1-0.2c0-0.1,0-0.2,0-0.3c0-0.2,0-0.4-0.1-0.5c-0.4-0.7-1.2-0.9-2-0.8
					c-0.2,0-0.3,0.1-0.4,0.2c-0.2,0.1-0.1,0.2-0.3,0.2c-0.1,0-0.2,0.1-0.2,0.2C61.8-33.4,61.8-33.5,61.8-33.4
					C61.8-33.4,61.8-33.4,61.8-33.4"/>
				<path class="st2" d="M54.1-33.4c0,0.1,0,0.1,0,0.2c-0.1,0.1-0.1,0.1-0.2,0.1c-0.1,0.1-0.1,0.3-0.1,0.4c-0.2,0.1,0,0.2,0,0.3
					c0,0,0,0.1,0,0.2c0,0.1,0,0.3,0.1,0.4c0.1,0.2,0.3,0.4,0.4,0.5c0.2,0.1,0.4,0.6,0.6,0.6c0.2,0,0.4-0.1,0.5-0.1
					c0.2,0,0.4,0,0.6-0.1c0.2-0.1,0.1-0.3,0.3-0.5c0.1-0.1,0.3,0,0.4-0.1c0.2-0.1,0.3-0.3,0.4-0.5c0-0.1,0-0.1,0-0.2
					c0-0.1,0.1-0.2,0.1-0.3c0-0.1-0.1-0.1-0.1-0.2c0-0.1,0-0.2,0-0.3c0-0.2,0-0.4-0.1-0.5c-0.4-0.7-1.2-0.9-2-0.8
					c-0.2,0-0.3,0.1-0.4,0.2c-0.2,0.1-0.1,0.2-0.3,0.2c-0.1,0-0.2,0.1-0.2,0.2C54.1-33.4,54.1-33.5,54.1-33.4
					C54.1-33.4,54.1-33.4,54.1-33.4"/>
				<path class="st2" d="M46.5-33.4c0,0.1,0,0.1,0,0.2c-0.1,0.1-0.1,0.1-0.2,0.1c-0.1,0.1-0.1,0.3-0.1,0.4c-0.2,0.1,0,0.2,0,0.3
					c0,0,0,0.1,0,0.2c0,0.1,0,0.3,0.1,0.4c0.1,0.2,0.3,0.4,0.4,0.5c0.2,0.1,0.4,0.6,0.6,0.6c0.2,0,0.4-0.1,0.5-0.1
					c0.2,0,0.4,0,0.6-0.1c0.2-0.1,0.1-0.3,0.3-0.5c0.1-0.1,0.3,0,0.4-0.1c0.2-0.1,0.3-0.3,0.4-0.5c0-0.1,0-0.1,0-0.2
					c0-0.1,0.1-0.2,0.1-0.3c0-0.1-0.1-0.1-0.1-0.2c0-0.1,0-0.2,0-0.3c0-0.2,0-0.4-0.1-0.5c-0.4-0.7-1.2-0.9-2-0.8
					c-0.2,0-0.3,0.1-0.4,0.2c-0.2,0.1-0.1,0.2-0.3,0.2c-0.1,0-0.2,0.1-0.2,0.2C46.5-33.4,46.5-33.5,46.5-33.4
					C46.5-33.4,46.5-33.4,46.5-33.4"/>
				<path class="st2" d="M38.8-33.4c0,0.1,0,0.1,0,0.2c-0.1,0.1-0.1,0.1-0.2,0.1c-0.1,0.1-0.1,0.3-0.1,0.4c-0.2,0.1,0,0.2,0,0.3
					c0,0,0,0.1,0,0.2c0,0.1,0,0.3,0.1,0.4c0.1,0.2,0.3,0.4,0.4,0.5c0.2,0.1,0.4,0.6,0.6,0.6c0.2,0,0.4-0.1,0.5-0.1
					c0.2,0,0.4,0,0.6-0.1c0.2-0.1,0.1-0.3,0.3-0.5c0.1-0.1,0.3,0,0.4-0.1c0.2-0.1,0.3-0.3,0.4-0.5c0-0.1,0-0.1,0-0.2
					c0-0.1,0.1-0.2,0.1-0.3c0-0.1-0.1-0.1-0.1-0.2c0-0.1,0-0.2,0-0.3c0-0.2,0-0.4-0.1-0.5c-0.4-0.7-1.2-0.9-2-0.8
					c-0.2,0-0.3,0.1-0.4,0.2c-0.2,0.1-0.1,0.2-0.3,0.2c-0.1,0-0.2,0.1-0.2,0.2C38.8-33.4,38.8-33.5,38.8-33.4
					C38.8-33.4,38.8-33.4,38.8-33.4"/>
				<path class="st2" d="M31.1-33.4c0,0.1,0,0.1,0,0.2c-0.1,0.1-0.1,0.1-0.2,0.1c-0.1,0.1-0.1,0.3-0.1,0.4c-0.2,0.1,0,0.2,0,0.3
					c0,0,0,0.1,0,0.2c0,0.1,0,0.3,0.1,0.4c0.1,0.2,0.3,0.4,0.4,0.5c0.2,0.1,0.4,0.6,0.6,0.6c0.2,0,0.4-0.1,0.5-0.1
					c0.2,0,0.4,0,0.6-0.1c0.2-0.1,0.1-0.3,0.3-0.5c0.1-0.1,0.3,0,0.4-0.1c0.2-0.1,0.3-0.3,0.4-0.5c0-0.1,0-0.1,0-0.2
					c0-0.1,0.1-0.2,0.1-0.3c0-0.1-0.1-0.1-0.1-0.2c0-0.1,0-0.2,0-0.3c0-0.2,0-0.4-0.1-0.5c-0.4-0.7-1.2-0.9-2-0.8
					c-0.2,0-0.3,0.1-0.4,0.2c-0.2,0.1-0.1,0.2-0.3,0.2c-0.1,0-0.2,0.1-0.2,0.2C31.1-33.4,31.1-33.5,31.1-33.4
					C31.1-33.4,31.1-33.4,31.1-33.4"/>
				<path class="st2" d="M23.5-33.4c0,0.1,0,0.1,0,0.2c-0.1,0.1-0.1,0.1-0.2,0.1c-0.1,0.1-0.1,0.3-0.1,0.4c-0.2,0.1,0,0.2,0,0.3
					c0,0,0,0.1,0,0.2c0,0.1,0,0.3,0.1,0.4c0.1,0.2,0.3,0.4,0.4,0.5c0.2,0.1,0.4,0.6,0.6,0.6c0.2,0,0.4-0.1,0.5-0.1
					c0.2,0,0.4,0,0.6-0.1c0.2-0.1,0.1-0.3,0.3-0.5c0.1-0.1,0.3,0,0.4-0.1c0.2-0.1,0.3-0.3,0.4-0.5c0-0.1,0-0.1,0-0.2
					c0-0.1,0.1-0.2,0.1-0.3c0-0.1-0.1-0.1-0.1-0.2c0-0.1,0-0.2,0-0.3c0-0.2,0-0.4-0.1-0.5c-0.4-0.7-1.2-0.9-2-0.8
					c-0.2,0-0.3,0.1-0.4,0.2c-0.2,0.1-0.1,0.2-0.3,0.2c-0.1,0-0.2,0.1-0.2,0.2C23.5-33.4,23.5-33.5,23.5-33.4
					C23.5-33.4,23.5-33.4,23.5-33.4"/>
				<path class="st2" d="M15.8-33.4c0,0.1,0,0.1,0,0.2c-0.1,0.1-0.1,0.1-0.2,0.1c-0.1,0.1-0.1,0.3-0.1,0.4c-0.2,0.1,0,0.2,0,0.3
					c0,0,0,0.1,0,0.2c0,0.1,0,0.3,0.1,0.4c0.1,0.2,0.3,0.4,0.4,0.5c0.2,0.1,0.4,0.6,0.6,0.6c0.2,0,0.4-0.1,0.5-0.1
					c0.2,0,0.4,0,0.6-0.1c0.2-0.1,0.1-0.3,0.3-0.5c0.1-0.1,0.3,0,0.4-0.1c0.2-0.1,0.3-0.3,0.4-0.5c0-0.1,0-0.1,0-0.2
					c0-0.1,0.1-0.2,0.1-0.3c0-0.1-0.1-0.1-0.1-0.2c0-0.1,0-0.2,0-0.3c0-0.2,0-0.4-0.1-0.5c-0.4-0.7-1.2-0.9-2-0.8
					c-0.2,0-0.3,0.1-0.4,0.2c-0.2,0.1-0.1,0.2-0.3,0.2c-0.1,0-0.2,0.1-0.2,0.2C15.8-33.4,15.8-33.5,15.8-33.4
					C15.8-33.4,15.8-33.4,15.8-33.4"/>
				<path class="st2" d="M8.2-33.4c0,0.1,0,0.1,0,0.2C8.1-33.1,8-33.1,8-33.1c-0.1,0.1-0.1,0.3-0.1,0.4c-0.2,0.1,0,0.2,0,0.3
					c0,0,0,0.1,0,0.2c0,0.1,0,0.3,0.1,0.4c0.1,0.2,0.3,0.4,0.4,0.5c0.2,0.1,0.4,0.6,0.6,0.6c0.2,0,0.4-0.1,0.5-0.1
					c0.2,0,0.4,0,0.6-0.1c0.2-0.1,0.1-0.3,0.3-0.5c0.1-0.1,0.3,0,0.4-0.1c0.2-0.1,0.3-0.3,0.4-0.5c0-0.1,0-0.1,0-0.2
					c0-0.1,0.1-0.2,0.1-0.3c0-0.1-0.1-0.1-0.1-0.2c0-0.1,0-0.2,0-0.3c0-0.2,0-0.4-0.1-0.5c-0.4-0.7-1.2-0.9-2-0.8
					c-0.2,0-0.3,0.1-0.4,0.2c-0.2,0.1-0.1,0.2-0.3,0.2c-0.1,0-0.2,0.1-0.2,0.2C8.2-33.4,8.2-33.5,8.2-33.4
					C8.1-33.4,8.1-33.4,8.2-33.4"/>
				<path class="st2" d="M0.5-33.4c0,0.1,0,0.1,0,0.2c-0.1,0.1-0.1,0.1-0.2,0.1c-0.1,0.1-0.1,0.3-0.1,0.4c-0.2,0.1,0,0.2,0,0.3
					c0,0,0,0.1,0,0.2c0,0.1,0,0.3,0.1,0.4c0.1,0.2,0.3,0.4,0.4,0.5c0.2,0.1,0.4,0.6,0.6,0.6c0.2,0,0.4-0.1,0.5-0.1
					c0.2,0,0.4,0,0.6-0.1c0.2-0.1,0.1-0.3,0.3-0.5c0.1-0.1,0.3,0,0.4-0.1c0.2-0.1,0.3-0.3,0.4-0.5c0-0.1,0-0.1,0-0.2
					c0-0.1,0.1-0.2,0.1-0.3c0-0.1-0.1-0.1-0.1-0.2c0-0.1,0-0.2,0-0.3c0-0.2,0-0.4-0.1-0.5c-0.4-0.7-1.2-0.9-2-0.8
					c-0.2,0-0.3,0.1-0.4,0.2c-0.2,0.1-0.1,0.2-0.3,0.2c-0.1,0-0.2,0.1-0.2,0.2C0.5-33.4,0.5-33.5,0.5-33.4
					C0.5-33.4,0.5-33.4,0.5-33.4"/>
			</g>
			<g>
				<path class="st2" d="M69.4-25.7c0,0.1,0,0.1,0,0.2c-0.1,0.1-0.1,0.1-0.2,0.1c-0.1,0.1-0.1,0.3-0.1,0.4c-0.2,0.1,0,0.2,0,0.3
					c0,0,0,0.1,0,0.2c0,0.1,0,0.3,0.1,0.4c0.1,0.2,0.3,0.4,0.4,0.5c0.2,0.1,0.4,0.6,0.6,0.6c0.2,0,0.4-0.1,0.5-0.1
					c0.2,0,0.4,0,0.6-0.1c0.2-0.1,0.1-0.3,0.3-0.5c0.1-0.1,0.3,0,0.4-0.1c0.2-0.1,0.3-0.3,0.4-0.5c0-0.1,0-0.1,0-0.2
					c0-0.1,0.1-0.2,0.1-0.3c0-0.1-0.1-0.1-0.1-0.2c0-0.1,0-0.2,0-0.3c0-0.2,0-0.4-0.1-0.5c-0.4-0.7-1.2-0.9-2-0.8
					c-0.2,0-0.3,0.1-0.4,0.2c-0.2,0.1-0.1,0.2-0.3,0.2c-0.1,0-0.2,0.1-0.2,0.2C69.4-25.8,69.4-25.8,69.4-25.7
					C69.4-25.7,69.4-25.7,69.4-25.7"/>
				<path class="st2" d="M61.8-25.7c0,0.1,0,0.1,0,0.2c-0.1,0.1-0.1,0.1-0.2,0.1c-0.1,0.1-0.1,0.3-0.1,0.4c-0.2,0.1,0,0.2,0,0.3
					c0,0,0,0.1,0,0.2c0,0.1,0,0.3,0.1,0.4c0.1,0.2,0.3,0.4,0.4,0.5c0.2,0.1,0.4,0.6,0.6,0.6c0.2,0,0.4-0.1,0.5-0.1
					c0.2,0,0.4,0,0.6-0.1c0.2-0.1,0.1-0.3,0.3-0.5c0.1-0.1,0.3,0,0.4-0.1c0.2-0.1,0.3-0.3,0.4-0.5c0-0.1,0-0.1,0-0.2
					c0-0.1,0.1-0.2,0.1-0.3c0-0.1-0.1-0.1-0.1-0.2c0-0.1,0-0.2,0-0.3c0-0.2,0-0.4-0.1-0.5c-0.4-0.7-1.2-0.9-2-0.8
					c-0.2,0-0.3,0.1-0.4,0.2c-0.2,0.1-0.1,0.2-0.3,0.2c-0.1,0-0.2,0.1-0.2,0.2C61.8-25.8,61.8-25.8,61.8-25.7
					C61.8-25.7,61.8-25.7,61.8-25.7"/>
				<path class="st2" d="M54.1-25.7c0,0.1,0,0.1,0,0.2c-0.1,0.1-0.1,0.1-0.2,0.1c-0.1,0.1-0.1,0.3-0.1,0.4c-0.2,0.1,0,0.2,0,0.3
					c0,0,0,0.1,0,0.2c0,0.1,0,0.3,0.1,0.4c0.1,0.2,0.3,0.4,0.4,0.5c0.2,0.1,0.4,0.6,0.6,0.6c0.2,0,0.4-0.1,0.5-0.1
					c0.2,0,0.4,0,0.6-0.1c0.2-0.1,0.1-0.3,0.3-0.5c0.1-0.1,0.3,0,0.4-0.1c0.2-0.1,0.3-0.3,0.4-0.5c0-0.1,0-0.1,0-0.2
					c0-0.1,0.1-0.2,0.1-0.3c0-0.1-0.1-0.1-0.1-0.2c0-0.1,0-0.2,0-0.3c0-0.2,0-0.4-0.1-0.5c-0.4-0.7-1.2-0.9-2-0.8
					c-0.2,0-0.3,0.1-0.4,0.2c-0.2,0.1-0.1,0.2-0.3,0.2c-0.1,0-0.2,0.1-0.2,0.2C54.1-25.8,54.1-25.8,54.1-25.7
					C54.1-25.7,54.1-25.7,54.1-25.7"/>
				<path class="st2" d="M46.5-25.7c0,0.1,0,0.1,0,0.2c-0.1,0.1-0.1,0.1-0.2,0.1c-0.1,0.1-0.1,0.3-0.1,0.4c-0.2,0.1,0,0.2,0,0.3
					c0,0,0,0.1,0,0.2c0,0.1,0,0.3,0.1,0.4c0.1,0.2,0.3,0.4,0.4,0.5c0.2,0.1,0.4,0.6,0.6,0.6c0.2,0,0.4-0.1,0.5-0.1
					c0.2,0,0.4,0,0.6-0.1c0.2-0.1,0.1-0.3,0.3-0.5c0.1-0.1,0.3,0,0.4-0.1c0.2-0.1,0.3-0.3,0.4-0.5c0-0.1,0-0.1,0-0.2
					c0-0.1,0.1-0.2,0.1-0.3c0-0.1-0.1-0.1-0.1-0.2c0-0.1,0-0.2,0-0.3c0-0.2,0-0.4-0.1-0.5c-0.4-0.7-1.2-0.9-2-0.8
					c-0.2,0-0.3,0.1-0.4,0.2c-0.2,0.1-0.1,0.2-0.3,0.2c-0.1,0-0.2,0.1-0.2,0.2C46.5-25.8,46.5-25.8,46.5-25.7
					C46.5-25.7,46.5-25.7,46.5-25.7"/>
				<path class="st2" d="M38.8-25.7c0,0.1,0,0.1,0,0.2c-0.1,0.1-0.1,0.1-0.2,0.1c-0.1,0.1-0.1,0.3-0.1,0.4c-0.2,0.1,0,0.2,0,0.3
					c0,0,0,0.1,0,0.2c0,0.1,0,0.3,0.1,0.4c0.1,0.2,0.3,0.4,0.4,0.5c0.2,0.1,0.4,0.6,0.6,0.6c0.2,0,0.4-0.1,0.5-0.1
					c0.2,0,0.4,0,0.6-0.1c0.2-0.1,0.1-0.3,0.3-0.5c0.1-0.1,0.3,0,0.4-0.1c0.2-0.1,0.3-0.3,0.4-0.5c0-0.1,0-0.1,0-0.2
					c0-0.1,0.1-0.2,0.1-0.3c0-0.1-0.1-0.1-0.1-0.2c0-0.1,0-0.2,0-0.3c0-0.2,0-0.4-0.1-0.5c-0.4-0.7-1.2-0.9-2-0.8
					c-0.2,0-0.3,0.1-0.4,0.2c-0.2,0.1-0.1,0.2-0.3,0.2c-0.1,0-0.2,0.1-0.2,0.2C38.8-25.8,38.8-25.8,38.8-25.7
					C38.8-25.7,38.8-25.7,38.8-25.7"/>
				<path class="st2" d="M31.1-25.7c0,0.1,0,0.1,0,0.2c-0.1,0.1-0.1,0.1-0.2,0.1c-0.1,0.1-0.1,0.3-0.1,0.4c-0.2,0.1,0,0.2,0,0.3
					c0,0,0,0.1,0,0.2c0,0.1,0,0.3,0.1,0.4c0.1,0.2,0.3,0.4,0.4,0.5c0.2,0.1,0.4,0.6,0.6,0.6c0.2,0,0.4-0.1,0.5-0.1
					c0.2,0,0.4,0,0.6-0.1c0.2-0.1,0.1-0.3,0.3-0.5c0.1-0.1,0.3,0,0.4-0.1c0.2-0.1,0.3-0.3,0.4-0.5c0-0.1,0-0.1,0-0.2
					c0-0.1,0.1-0.2,0.1-0.3c0-0.1-0.1-0.1-0.1-0.2c0-0.1,0-0.2,0-0.3c0-0.2,0-0.4-0.1-0.5c-0.4-0.7-1.2-0.9-2-0.8
					c-0.2,0-0.3,0.1-0.4,0.2c-0.2,0.1-0.1,0.2-0.3,0.2c-0.1,0-0.2,0.1-0.2,0.2C31.1-25.8,31.1-25.8,31.1-25.7
					C31.1-25.7,31.1-25.7,31.1-25.7"/>
				<path class="st2" d="M23.5-25.7c0,0.1,0,0.1,0,0.2c-0.1,0.1-0.1,0.1-0.2,0.1c-0.1,0.1-0.1,0.3-0.1,0.4c-0.2,0.1,0,0.2,0,0.3
					c0,0,0,0.1,0,0.2c0,0.1,0,0.3,0.1,0.4c0.1,0.2,0.3,0.4,0.4,0.5c0.2,0.1,0.4,0.6,0.6,0.6c0.2,0,0.4-0.1,0.5-0.1
					c0.2,0,0.4,0,0.6-0.1c0.2-0.1,0.1-0.3,0.3-0.5c0.1-0.1,0.3,0,0.4-0.1c0.2-0.1,0.3-0.3,0.4-0.5c0-0.1,0-0.1,0-0.2
					c0-0.1,0.1-0.2,0.1-0.3c0-0.1-0.1-0.1-0.1-0.2c0-0.1,0-0.2,0-0.3c0-0.2,0-0.4-0.1-0.5c-0.4-0.7-1.2-0.9-2-0.8
					c-0.2,0-0.3,0.1-0.4,0.2c-0.2,0.1-0.1,0.2-0.3,0.2c-0.1,0-0.2,0.1-0.2,0.2C23.5-25.8,23.5-25.8,23.5-25.7
					C23.5-25.7,23.5-25.7,23.5-25.7"/>
				<path class="st2" d="M15.8-25.7c0,0.1,0,0.1,0,0.2c-0.1,0.1-0.1,0.1-0.2,0.1c-0.1,0.1-0.1,0.3-0.1,0.4c-0.2,0.1,0,0.2,0,0.3
					c0,0,0,0.1,0,0.2c0,0.1,0,0.3,0.1,0.4c0.1,0.2,0.3,0.4,0.4,0.5c0.2,0.1,0.4,0.6,0.6,0.6c0.2,0,0.4-0.1,0.5-0.1
					c0.2,0,0.4,0,0.6-0.1c0.2-0.1,0.1-0.3,0.3-0.5c0.1-0.1,0.3,0,0.4-0.1c0.2-0.1,0.3-0.3,0.4-0.5c0-0.1,0-0.1,0-0.2
					c0-0.1,0.1-0.2,0.1-0.3c0-0.1-0.1-0.1-0.1-0.2c0-0.1,0-0.2,0-0.3c0-0.2,0-0.4-0.1-0.5c-0.4-0.7-1.2-0.9-2-0.8
					c-0.2,0-0.3,0.1-0.4,0.2c-0.2,0.1-0.1,0.2-0.3,0.2c-0.1,0-0.2,0.1-0.2,0.2C15.8-25.8,15.8-25.8,15.8-25.7
					C15.8-25.7,15.8-25.7,15.8-25.7"/>
				<path class="st2" d="M8.2-25.7c0,0.1,0,0.1,0,0.2C8.1-25.4,8-25.5,8-25.4c-0.1,0.1-0.1,0.3-0.1,0.4c-0.2,0.1,0,0.2,0,0.3
					c0,0,0,0.1,0,0.2c0,0.1,0,0.3,0.1,0.4C8-24,8.2-23.8,8.3-23.6c0.2,0.1,0.4,0.6,0.6,0.6c0.2,0,0.4-0.1,0.5-0.1
					c0.2,0,0.4,0,0.6-0.1c0.2-0.1,0.1-0.3,0.3-0.5c0.1-0.1,0.3,0,0.4-0.1c0.2-0.1,0.3-0.3,0.4-0.5c0-0.1,0-0.1,0-0.2
					c0-0.1,0.1-0.2,0.1-0.3c0-0.1-0.1-0.1-0.1-0.2c0-0.1,0-0.2,0-0.3c0-0.2,0-0.4-0.1-0.5c-0.4-0.7-1.2-0.9-2-0.8
					c-0.2,0-0.3,0.1-0.4,0.2c-0.2,0.1-0.1,0.2-0.3,0.2c-0.1,0-0.2,0.1-0.2,0.2C8.2-25.8,8.2-25.8,8.2-25.7
					C8.1-25.7,8.1-25.7,8.2-25.7"/>
				<path class="st2" d="M0.5-25.7c0,0.1,0,0.1,0,0.2c-0.1,0.1-0.1,0.1-0.2,0.1c-0.1,0.1-0.1,0.3-0.1,0.4c-0.2,0.1,0,0.2,0,0.3
					c0,0,0,0.1,0,0.2c0,0.1,0,0.3,0.1,0.4c0.1,0.2,0.3,0.4,0.4,0.5C0.9-23.5,1-23.1,1.3-23c0.2,0,0.4-0.1,0.5-0.1
					c0.2,0,0.4,0,0.6-0.1c0.2-0.1,0.1-0.3,0.3-0.5c0.1-0.1,0.3,0,0.4-0.1c0.2-0.1,0.3-0.3,0.4-0.5c0-0.1,0-0.1,0-0.2
					c0-0.1,0.1-0.2,0.1-0.3c0-0.1-0.1-0.1-0.1-0.2c0-0.1,0-0.2,0-0.3c0-0.2,0-0.4-0.1-0.5c-0.4-0.7-1.2-0.9-2-0.8
					c-0.2,0-0.3,0.1-0.4,0.2c-0.2,0.1-0.1,0.2-0.3,0.2c-0.1,0-0.2,0.1-0.2,0.2C0.5-25.8,0.5-25.8,0.5-25.7
					C0.5-25.7,0.5-25.7,0.5-25.7"/>
			</g>
			<g>
				<path class="st2" d="M69.4-18.1c0,0.1,0,0.1,0,0.2c-0.1,0.1-0.1,0.1-0.2,0.1c-0.1,0.1-0.1,0.3-0.1,0.4c-0.2,0.1,0,0.2,0,0.3
					c0,0,0,0.1,0,0.2c0,0.1,0,0.3,0.1,0.4c0.1,0.2,0.3,0.4,0.4,0.5c0.2,0.1,0.4,0.6,0.6,0.6c0.2,0,0.4-0.1,0.5-0.1
					c0.2,0,0.4,0,0.6-0.1c0.2-0.1,0.1-0.3,0.3-0.5c0.1-0.1,0.3,0,0.4-0.1c0.2-0.1,0.3-0.3,0.4-0.5c0-0.1,0-0.1,0-0.2
					c0-0.1,0.1-0.2,0.1-0.3c0-0.1-0.1-0.1-0.1-0.2c0-0.1,0-0.2,0-0.3c0-0.2,0-0.4-0.1-0.5c-0.4-0.7-1.2-0.9-2-0.8
					c-0.2,0-0.3,0.1-0.4,0.2c-0.2,0.1-0.1,0.2-0.3,0.2c-0.1,0-0.2,0.1-0.2,0.2C69.4-18.1,69.4-18.2,69.4-18.1
					C69.4-18,69.4-18.1,69.4-18.1"/>
				<path class="st2" d="M61.8-18.1c0,0.1,0,0.1,0,0.2c-0.1,0.1-0.1,0.1-0.2,0.1c-0.1,0.1-0.1,0.3-0.1,0.4c-0.2,0.1,0,0.2,0,0.3
					c0,0,0,0.1,0,0.2c0,0.1,0,0.3,0.1,0.4c0.1,0.2,0.3,0.4,0.4,0.5c0.2,0.1,0.4,0.6,0.6,0.6c0.2,0,0.4-0.1,0.5-0.1
					c0.2,0,0.4,0,0.6-0.1c0.2-0.1,0.1-0.3,0.3-0.5c0.1-0.1,0.3,0,0.4-0.1c0.2-0.1,0.3-0.3,0.4-0.5c0-0.1,0-0.1,0-0.2
					c0-0.1,0.1-0.2,0.1-0.3c0-0.1-0.1-0.1-0.1-0.2c0-0.1,0-0.2,0-0.3c0-0.2,0-0.4-0.1-0.5c-0.4-0.7-1.2-0.9-2-0.8
					c-0.2,0-0.3,0.1-0.4,0.2c-0.2,0.1-0.1,0.2-0.3,0.2c-0.1,0-0.2,0.1-0.2,0.2C61.8-18.1,61.8-18.2,61.8-18.1
					C61.8-18,61.8-18.1,61.8-18.1"/>
				<path class="st2" d="M54.1-18.1c0,0.1,0,0.1,0,0.2c-0.1,0.1-0.1,0.1-0.2,0.1c-0.1,0.1-0.1,0.3-0.1,0.4c-0.2,0.1,0,0.2,0,0.3
					c0,0,0,0.1,0,0.2c0,0.1,0,0.3,0.1,0.4c0.1,0.2,0.3,0.4,0.4,0.5c0.2,0.1,0.4,0.6,0.6,0.6c0.2,0,0.4-0.1,0.5-0.1
					c0.2,0,0.4,0,0.6-0.1c0.2-0.1,0.1-0.3,0.3-0.5c0.1-0.1,0.3,0,0.4-0.1c0.2-0.1,0.3-0.3,0.4-0.5c0-0.1,0-0.1,0-0.2
					c0-0.1,0.1-0.2,0.1-0.3c0-0.1-0.1-0.1-0.1-0.2c0-0.1,0-0.2,0-0.3c0-0.2,0-0.4-0.1-0.5c-0.4-0.7-1.2-0.9-2-0.8
					c-0.2,0-0.3,0.1-0.4,0.2c-0.2,0.1-0.1,0.2-0.3,0.2c-0.1,0-0.2,0.1-0.2,0.2C54.1-18.1,54.1-18.2,54.1-18.1
					C54.1-18,54.1-18.1,54.1-18.1"/>
				<path class="st2" d="M46.5-18.1c0,0.1,0,0.1,0,0.2c-0.1,0.1-0.1,0.1-0.2,0.1c-0.1,0.1-0.1,0.3-0.1,0.4c-0.2,0.1,0,0.2,0,0.3
					c0,0,0,0.1,0,0.2c0,0.1,0,0.3,0.1,0.4c0.1,0.2,0.3,0.4,0.4,0.5c0.2,0.1,0.4,0.6,0.6,0.6c0.2,0,0.4-0.1,0.5-0.1
					c0.2,0,0.4,0,0.6-0.1c0.2-0.1,0.1-0.3,0.3-0.5c0.1-0.1,0.3,0,0.4-0.1c0.2-0.1,0.3-0.3,0.4-0.5c0-0.1,0-0.1,0-0.2
					c0-0.1,0.1-0.2,0.1-0.3c0-0.1-0.1-0.1-0.1-0.2c0-0.1,0-0.2,0-0.3c0-0.2,0-0.4-0.1-0.5c-0.4-0.7-1.2-0.9-2-0.8
					c-0.2,0-0.3,0.1-0.4,0.2c-0.2,0.1-0.1,0.2-0.3,0.2c-0.1,0-0.2,0.1-0.2,0.2C46.5-18.1,46.5-18.2,46.5-18.1
					C46.5-18,46.5-18.1,46.5-18.1"/>
				<path class="st2" d="M38.8-18.1c0,0.1,0,0.1,0,0.2c-0.1,0.1-0.1,0.1-0.2,0.1c-0.1,0.1-0.1,0.3-0.1,0.4c-0.2,0.1,0,0.2,0,0.3
					c0,0,0,0.1,0,0.2c0,0.1,0,0.3,0.1,0.4c0.1,0.2,0.3,0.4,0.4,0.5c0.2,0.1,0.4,0.6,0.6,0.6c0.2,0,0.4-0.1,0.5-0.1
					c0.2,0,0.4,0,0.6-0.1c0.2-0.1,0.1-0.3,0.3-0.5c0.1-0.1,0.3,0,0.4-0.1c0.2-0.1,0.3-0.3,0.4-0.5c0-0.1,0-0.1,0-0.2
					c0-0.1,0.1-0.2,0.1-0.3c0-0.1-0.1-0.1-0.1-0.2c0-0.1,0-0.2,0-0.3c0-0.2,0-0.4-0.1-0.5c-0.4-0.7-1.2-0.9-2-0.8
					c-0.2,0-0.3,0.1-0.4,0.2c-0.2,0.1-0.1,0.2-0.3,0.2c-0.1,0-0.2,0.1-0.2,0.2C38.8-18.1,38.8-18.2,38.8-18.1
					C38.8-18,38.8-18.1,38.8-18.1"/>
				<path class="st2" d="M31.1-18.1c0,0.1,0,0.1,0,0.2c-0.1,0.1-0.1,0.1-0.2,0.1c-0.1,0.1-0.1,0.3-0.1,0.4c-0.2,0.1,0,0.2,0,0.3
					c0,0,0,0.1,0,0.2c0,0.1,0,0.3,0.1,0.4c0.1,0.2,0.3,0.4,0.4,0.5c0.2,0.1,0.4,0.6,0.6,0.6c0.2,0,0.4-0.1,0.5-0.1
					c0.2,0,0.4,0,0.6-0.1c0.2-0.1,0.1-0.3,0.3-0.5c0.1-0.1,0.3,0,0.4-0.1c0.2-0.1,0.3-0.3,0.4-0.5c0-0.1,0-0.1,0-0.2
					c0-0.1,0.1-0.2,0.1-0.3c0-0.1-0.1-0.1-0.1-0.2c0-0.1,0-0.2,0-0.3c0-0.2,0-0.4-0.1-0.5c-0.4-0.7-1.2-0.9-2-0.8
					c-0.2,0-0.3,0.1-0.4,0.2c-0.2,0.1-0.1,0.2-0.3,0.2c-0.1,0-0.2,0.1-0.2,0.2C31.1-18.1,31.1-18.2,31.1-18.1
					C31.1-18,31.1-18.1,31.1-18.1"/>
				<path class="st2" d="M23.5-18.1c0,0.1,0,0.1,0,0.2c-0.1,0.1-0.1,0.1-0.2,0.1c-0.1,0.1-0.1,0.3-0.1,0.4c-0.2,0.1,0,0.2,0,0.3
					c0,0,0,0.1,0,0.2c0,0.1,0,0.3,0.1,0.4c0.1,0.2,0.3,0.4,0.4,0.5c0.2,0.1,0.4,0.6,0.6,0.6c0.2,0,0.4-0.1,0.5-0.1
					c0.2,0,0.4,0,0.6-0.1c0.2-0.1,0.1-0.3,0.3-0.5c0.1-0.1,0.3,0,0.4-0.1c0.2-0.1,0.3-0.3,0.4-0.5c0-0.1,0-0.1,0-0.2
					c0-0.1,0.1-0.2,0.1-0.3c0-0.1-0.1-0.1-0.1-0.2c0-0.1,0-0.2,0-0.3c0-0.2,0-0.4-0.1-0.5c-0.4-0.7-1.2-0.9-2-0.8
					c-0.2,0-0.3,0.1-0.4,0.2c-0.2,0.1-0.1,0.2-0.3,0.2c-0.1,0-0.2,0.1-0.2,0.2C23.5-18.1,23.5-18.2,23.5-18.1
					C23.5-18,23.5-18.1,23.5-18.1"/>
				<path class="st2" d="M15.8-18.1c0,0.1,0,0.1,0,0.2c-0.1,0.1-0.1,0.1-0.2,0.1c-0.1,0.1-0.1,0.3-0.1,0.4c-0.2,0.1,0,0.2,0,0.3
					c0,0,0,0.1,0,0.2c0,0.1,0,0.3,0.1,0.4c0.1,0.2,0.3,0.4,0.4,0.5c0.2,0.1,0.4,0.6,0.6,0.6c0.2,0,0.4-0.1,0.5-0.1
					c0.2,0,0.4,0,0.6-0.1c0.2-0.1,0.1-0.3,0.3-0.5c0.1-0.1,0.3,0,0.4-0.1c0.2-0.1,0.3-0.3,0.4-0.5c0-0.1,0-0.1,0-0.2
					c0-0.1,0.1-0.2,0.1-0.3c0-0.1-0.1-0.1-0.1-0.2c0-0.1,0-0.2,0-0.3c0-0.2,0-0.4-0.1-0.5c-0.4-0.7-1.2-0.9-2-0.8
					c-0.2,0-0.3,0.1-0.4,0.2c-0.2,0.1-0.1,0.2-0.3,0.2c-0.1,0-0.2,0.1-0.2,0.2C15.8-18.1,15.8-18.2,15.8-18.1
					C15.8-18,15.8-18.1,15.8-18.1"/>
				<path class="st2" d="M8.2-18.1c0,0.1,0,0.1,0,0.2C8.1-17.8,8-17.8,8-17.8c-0.1,0.1-0.1,0.3-0.1,0.4c-0.2,0.1,0,0.2,0,0.3
					c0,0,0,0.1,0,0.2c0,0.1,0,0.3,0.1,0.4C8-16.3,8.2-16.1,8.3-16c0.2,0.1,0.4,0.6,0.6,0.6c0.2,0,0.4-0.1,0.5-0.1
					c0.2,0,0.4,0,0.6-0.1c0.2-0.1,0.1-0.3,0.3-0.5c0.1-0.1,0.3,0,0.4-0.1c0.2-0.1,0.3-0.3,0.4-0.5c0-0.1,0-0.1,0-0.2
					c0-0.1,0.1-0.2,0.1-0.3c0-0.1-0.1-0.1-0.1-0.2c0-0.1,0-0.2,0-0.3c0-0.2,0-0.4-0.1-0.5c-0.4-0.7-1.2-0.9-2-0.8
					c-0.2,0-0.3,0.1-0.4,0.2c-0.2,0.1-0.1,0.2-0.3,0.2c-0.1,0-0.2,0.1-0.2,0.2C8.2-18.1,8.2-18.2,8.2-18.1C8.1-18,8.1-18.1,8.2-18.1
					"/>
				<path class="st2" d="M0.5-18.1c0,0.1,0,0.1,0,0.2c-0.1,0.1-0.1,0.1-0.2,0.1c-0.1,0.1-0.1,0.3-0.1,0.4c-0.2,0.1,0,0.2,0,0.3
					c0,0,0,0.1,0,0.2c0,0.1,0,0.3,0.1,0.4c0.1,0.2,0.3,0.4,0.4,0.5c0.2,0.1,0.4,0.6,0.6,0.6c0.2,0,0.4-0.1,0.5-0.1
					c0.2,0,0.4,0,0.6-0.1c0.2-0.1,0.1-0.3,0.3-0.5C2.8-16.1,3-16,3.1-16c0.2-0.1,0.3-0.3,0.4-0.5c0-0.1,0-0.1,0-0.2
					c0-0.1,0.1-0.2,0.1-0.3c0-0.1-0.1-0.1-0.1-0.2c0-0.1,0-0.2,0-0.3c0-0.2,0-0.4-0.1-0.5c-0.4-0.7-1.2-0.9-2-0.8
					c-0.2,0-0.3,0.1-0.4,0.2c-0.2,0.1-0.1,0.2-0.3,0.2c-0.1,0-0.2,0.1-0.2,0.2C0.5-18.1,0.5-18.2,0.5-18.1C0.5-18,0.5-18.1,0.5-18.1
					"/>
			</g>
			<g>
				<path class="st2" d="M69.4-10.4c0,0.1,0,0.1,0,0.2c-0.1,0.1-0.1,0.1-0.2,0.1c-0.1,0.1-0.1,0.3-0.1,0.4c-0.2,0.1,0,0.2,0,0.3
					c0,0,0,0.1,0,0.2c0,0.1,0,0.3,0.1,0.4c0.1,0.2,0.3,0.4,0.4,0.5c0.2,0.1,0.4,0.6,0.6,0.6c0.2,0,0.4-0.1,0.5-0.1
					c0.2,0,0.4,0,0.6-0.1c0.2-0.1,0.1-0.3,0.3-0.5c0.1-0.1,0.3,0,0.4-0.1c0.2-0.1,0.3-0.3,0.4-0.5c0-0.1,0-0.1,0-0.2
					c0-0.1,0.1-0.2,0.1-0.3c0-0.1-0.1-0.1-0.1-0.2c0-0.1,0-0.2,0-0.3c0-0.2,0-0.4-0.1-0.5c-0.4-0.7-1.2-0.9-2-0.8
					c-0.2,0-0.3,0.1-0.4,0.2c-0.2,0.1-0.1,0.2-0.3,0.2c-0.1,0-0.2,0.1-0.2,0.2C69.4-10.5,69.4-10.5,69.4-10.4
					C69.4-10.4,69.4-10.4,69.4-10.4"/>
				<path class="st2" d="M61.8-10.4c0,0.1,0,0.1,0,0.2c-0.1,0.1-0.1,0.1-0.2,0.1c-0.1,0.1-0.1,0.3-0.1,0.4c-0.2,0.1,0,0.2,0,0.3
					c0,0,0,0.1,0,0.2c0,0.1,0,0.3,0.1,0.4c0.1,0.2,0.3,0.4,0.4,0.5c0.2,0.1,0.4,0.6,0.6,0.6c0.2,0,0.4-0.1,0.5-0.1
					c0.2,0,0.4,0,0.6-0.1C63.9-8,63.8-8.2,64-8.3c0.1-0.1,0.3,0,0.4-0.1c0.2-0.1,0.3-0.3,0.4-0.5c0-0.1,0-0.1,0-0.2
					c0-0.1,0.1-0.2,0.1-0.3c0-0.1-0.1-0.1-0.1-0.2c0-0.1,0-0.2,0-0.3c0-0.2,0-0.4-0.1-0.5c-0.4-0.7-1.2-0.9-2-0.8
					c-0.2,0-0.3,0.1-0.4,0.2c-0.2,0.1-0.1,0.2-0.3,0.2c-0.1,0-0.2,0.1-0.2,0.2C61.8-10.5,61.8-10.5,61.8-10.4
					C61.8-10.4,61.8-10.4,61.8-10.4"/>
				<path class="st2" d="M54.1-10.4c0,0.1,0,0.1,0,0.2c-0.1,0.1-0.1,0.1-0.2,0.1c-0.1,0.1-0.1,0.3-0.1,0.4c-0.2,0.1,0,0.2,0,0.3
					c0,0,0,0.1,0,0.2c0,0.1,0,0.3,0.1,0.4c0.1,0.2,0.3,0.4,0.4,0.5c0.2,0.1,0.4,0.6,0.6,0.6c0.2,0,0.4-0.1,0.5-0.1
					c0.2,0,0.4,0,0.6-0.1c0.2-0.1,0.1-0.3,0.3-0.5c0.1-0.1,0.3,0,0.4-0.1c0.2-0.1,0.3-0.3,0.4-0.5c0-0.1,0-0.1,0-0.2
					c0-0.1,0.1-0.2,0.1-0.3c0-0.1-0.1-0.1-0.1-0.2c0-0.1,0-0.2,0-0.3c0-0.2,0-0.4-0.1-0.5c-0.4-0.7-1.2-0.9-2-0.8
					c-0.2,0-0.3,0.1-0.4,0.2c-0.2,0.1-0.1,0.2-0.3,0.2c-0.1,0-0.2,0.1-0.2,0.2C54.1-10.5,54.1-10.5,54.1-10.4
					C54.1-10.4,54.1-10.4,54.1-10.4"/>
				<path class="st2" d="M46.5-10.4c0,0.1,0,0.1,0,0.2c-0.1,0.1-0.1,0.1-0.2,0.1c-0.1,0.1-0.1,0.3-0.1,0.4c-0.2,0.1,0,0.2,0,0.3
					c0,0,0,0.1,0,0.2c0,0.1,0,0.3,0.1,0.4c0.1,0.2,0.3,0.4,0.4,0.5c0.2,0.1,0.4,0.6,0.6,0.6c0.2,0,0.4-0.1,0.5-0.1
					c0.2,0,0.4,0,0.6-0.1c0.2-0.1,0.1-0.3,0.3-0.5c0.1-0.1,0.3,0,0.4-0.1c0.2-0.1,0.3-0.3,0.4-0.5c0-0.1,0-0.1,0-0.2
					c0-0.1,0.1-0.2,0.1-0.3c0-0.1-0.1-0.1-0.1-0.2c0-0.1,0-0.2,0-0.3c0-0.2,0-0.4-0.1-0.5c-0.4-0.7-1.2-0.9-2-0.8
					c-0.2,0-0.3,0.1-0.4,0.2c-0.2,0.1-0.1,0.2-0.3,0.2c-0.1,0-0.2,0.1-0.2,0.2C46.5-10.5,46.5-10.5,46.5-10.4
					C46.5-10.4,46.5-10.4,46.5-10.4"/>
				<path class="st2" d="M38.8-10.4c0,0.1,0,0.1,0,0.2c-0.1,0.1-0.1,0.1-0.2,0.1c-0.1,0.1-0.1,0.3-0.1,0.4c-0.2,0.1,0,0.2,0,0.3
					c0,0,0,0.1,0,0.2c0,0.1,0,0.3,0.1,0.4c0.1,0.2,0.3,0.4,0.4,0.5c0.2,0.1,0.4,0.6,0.6,0.6c0.2,0,0.4-0.1,0.5-0.1
					c0.2,0,0.4,0,0.6-0.1C40.9-8,40.8-8.2,41-8.3c0.1-0.1,0.3,0,0.4-0.1c0.2-0.1,0.3-0.3,0.4-0.5c0-0.1,0-0.1,0-0.2
					c0-0.1,0.1-0.2,0.1-0.3c0-0.1-0.1-0.1-0.1-0.2c0-0.1,0-0.2,0-0.3c0-0.2,0-0.4-0.1-0.5c-0.4-0.7-1.2-0.9-2-0.8
					c-0.2,0-0.3,0.1-0.4,0.2c-0.2,0.1-0.1,0.2-0.3,0.2c-0.1,0-0.2,0.1-0.2,0.2C38.8-10.5,38.8-10.5,38.8-10.4
					C38.8-10.4,38.8-10.4,38.8-10.4"/>
				<path class="st2" d="M31.1-10.4c0,0.1,0,0.1,0,0.2c-0.1,0.1-0.1,0.1-0.2,0.1c-0.1,0.1-0.1,0.3-0.1,0.4c-0.2,0.1,0,0.2,0,0.3
					c0,0,0,0.1,0,0.2c0,0.1,0,0.3,0.1,0.4c0.1,0.2,0.3,0.4,0.4,0.5c0.2,0.1,0.4,0.6,0.6,0.6c0.2,0,0.4-0.1,0.5-0.1
					c0.2,0,0.4,0,0.6-0.1c0.2-0.1,0.1-0.3,0.3-0.5c0.1-0.1,0.3,0,0.4-0.1c0.2-0.1,0.3-0.3,0.4-0.5c0-0.1,0-0.1,0-0.2
					c0-0.1,0.1-0.2,0.1-0.3c0-0.1-0.1-0.1-0.1-0.2c0-0.1,0-0.2,0-0.3c0-0.2,0-0.4-0.1-0.5c-0.4-0.7-1.2-0.9-2-0.8
					c-0.2,0-0.3,0.1-0.4,0.2c-0.2,0.1-0.1,0.2-0.3,0.2c-0.1,0-0.2,0.1-0.2,0.2C31.1-10.5,31.1-10.5,31.1-10.4
					C31.1-10.4,31.1-10.4,31.1-10.4"/>
				<path class="st2" d="M23.5-10.4c0,0.1,0,0.1,0,0.2c-0.1,0.1-0.1,0.1-0.2,0.1c-0.1,0.1-0.1,0.3-0.1,0.4c-0.2,0.1,0,0.2,0,0.3
					c0,0,0,0.1,0,0.2c0,0.1,0,0.3,0.1,0.4c0.1,0.2,0.3,0.4,0.4,0.5c0.2,0.1,0.4,0.6,0.6,0.6c0.2,0,0.4-0.1,0.5-0.1
					c0.2,0,0.4,0,0.6-0.1c0.2-0.1,0.1-0.3,0.3-0.5c0.1-0.1,0.3,0,0.4-0.1c0.2-0.1,0.3-0.3,0.4-0.5c0-0.1,0-0.1,0-0.2
					c0-0.1,0.1-0.2,0.1-0.3c0-0.1-0.1-0.1-0.1-0.2c0-0.1,0-0.2,0-0.3c0-0.2,0-0.4-0.1-0.5c-0.4-0.7-1.2-0.9-2-0.8
					c-0.2,0-0.3,0.1-0.4,0.2c-0.2,0.1-0.1,0.2-0.3,0.2c-0.1,0-0.2,0.1-0.2,0.2C23.5-10.5,23.5-10.5,23.5-10.4
					C23.5-10.4,23.5-10.4,23.5-10.4"/>
				<path class="st2" d="M15.8-10.4c0,0.1,0,0.1,0,0.2c-0.1,0.1-0.1,0.1-0.2,0.1c-0.1,0.1-0.1,0.3-0.1,0.4c-0.2,0.1,0,0.2,0,0.3
					c0,0,0,0.1,0,0.2c0,0.1,0,0.3,0.1,0.4c0.1,0.2,0.3,0.4,0.4,0.5c0.2,0.1,0.4,0.6,0.6,0.6c0.2,0,0.4-0.1,0.5-0.1
					c0.2,0,0.4,0,0.6-0.1C17.9-8,17.8-8.2,18-8.3c0.1-0.1,0.3,0,0.4-0.1c0.2-0.1,0.3-0.3,0.4-0.5c0-0.1,0-0.1,0-0.2
					c0-0.1,0.1-0.2,0.1-0.3c0-0.1-0.1-0.1-0.1-0.2c0-0.1,0-0.2,0-0.3c0-0.2,0-0.4-0.1-0.5c-0.4-0.7-1.2-0.9-2-0.8
					c-0.2,0-0.3,0.1-0.4,0.2c-0.2,0.1-0.1,0.2-0.3,0.2c-0.1,0-0.2,0.1-0.2,0.2C15.8-10.5,15.8-10.5,15.8-10.4
					C15.8-10.4,15.8-10.4,15.8-10.4"/>
				<path class="st2" d="M8.2-10.4c0,0.1,0,0.1,0,0.2C8.1-10.1,8-10.2,8-10.1C7.9-10,7.9-9.8,7.9-9.8c-0.2,0.1,0,0.2,0,0.3
					c0,0,0,0.1,0,0.2c0,0.1,0,0.3,0.1,0.4C8-8.7,8.2-8.5,8.3-8.3c0.2,0.1,0.4,0.6,0.6,0.6c0.2,0,0.4-0.1,0.5-0.1
					c0.2,0,0.4,0,0.6-0.1c0.2-0.1,0.1-0.3,0.3-0.5c0.1-0.1,0.3,0,0.4-0.1c0.2-0.1,0.3-0.3,0.4-0.5c0-0.1,0-0.1,0-0.2
					c0-0.1,0.1-0.2,0.1-0.3c0-0.1-0.1-0.1-0.1-0.2c0-0.1,0-0.2,0-0.3c0-0.2,0-0.4-0.1-0.5c-0.4-0.7-1.2-0.9-2-0.8
					c-0.2,0-0.3,0.1-0.4,0.2c-0.2,0.1-0.1,0.2-0.3,0.2c-0.1,0-0.2,0.1-0.2,0.2C8.2-10.5,8.2-10.5,8.2-10.4
					C8.1-10.4,8.1-10.4,8.2-10.4"/>
				<path class="st2" d="M0.5-10.4c0,0.1,0,0.1,0,0.2c-0.1,0.1-0.1,0.1-0.2,0.1C0.3-10,0.2-9.8,0.2-9.8c-0.2,0.1,0,0.2,0,0.3
					c0,0,0,0.1,0,0.2c0,0.1,0,0.3,0.1,0.4c0.1,0.2,0.3,0.4,0.4,0.5C0.9-8.2,1-7.8,1.3-7.7c0.2,0,0.4-0.1,0.5-0.1
					c0.2,0,0.4,0,0.6-0.1C2.6-8,2.5-8.2,2.7-8.3c0.1-0.1,0.3,0,0.4-0.1c0.2-0.1,0.3-0.3,0.4-0.5c0-0.1,0-0.1,0-0.2
					c0-0.1,0.1-0.2,0.1-0.3c0-0.1-0.1-0.1-0.1-0.2c0-0.1,0-0.2,0-0.3c0-0.2,0-0.4-0.1-0.5c-0.4-0.7-1.2-0.9-2-0.8
					c-0.2,0-0.3,0.1-0.4,0.2c-0.2,0.1-0.1,0.2-0.3,0.2c-0.1,0-0.2,0.1-0.2,0.2C0.5-10.5,0.5-10.5,0.5-10.4
					C0.5-10.4,0.5-10.4,0.5-10.4"/>
			</g>
		</g>
		<g>
			<path class="st2" d="M69.4-2.8c0,0.1,0,0.1,0,0.2c-0.1,0.1-0.1,0.1-0.2,0.1c-0.1,0.1-0.1,0.3-0.1,0.4c-0.2,0.1,0,0.2,0,0.3
				c0,0,0,0.1,0,0.2c0,0.1,0,0.3,0.1,0.4c0.1,0.2,0.3,0.4,0.4,0.5C69.8-0.5,70-0.1,70.2,0c0.2,0,0.4-0.1,0.5-0.1
				c0.2,0,0.4,0,0.6-0.1c0.2-0.1,0.1-0.3,0.3-0.5c0.1-0.1,0.3,0,0.4-0.1c0.2-0.1,0.3-0.3,0.4-0.5c0-0.1,0-0.1,0-0.2
				c0-0.1,0.1-0.2,0.1-0.3c0-0.1-0.1-0.1-0.1-0.2c0-0.1,0-0.2,0-0.3c0-0.2,0-0.4-0.1-0.5c-0.4-0.7-1.2-0.9-2-0.8
				c-0.2,0-0.3,0.1-0.4,0.2c-0.2,0.1-0.1,0.2-0.3,0.2c-0.1,0-0.2,0.1-0.2,0.2C69.4-2.8,69.4-2.9,69.4-2.8
				C69.4-2.7,69.4-2.8,69.4-2.8"/>
			<path class="st2" d="M61.8-2.8c0,0.1,0,0.1,0,0.2c-0.1,0.1-0.1,0.1-0.2,0.1c-0.1,0.1-0.1,0.3-0.1,0.4c-0.2,0.1,0,0.2,0,0.3
				c0,0,0,0.1,0,0.2c0,0.1,0,0.3,0.1,0.4C61.6-1,61.8-0.8,62-0.7c0.2,0.1,0.4,0.6,0.6,0.6c0.2,0,0.4-0.1,0.5-0.1
				c0.2,0,0.4,0,0.6-0.1c0.2-0.1,0.1-0.3,0.3-0.5c0.1-0.1,0.3,0,0.4-0.1c0.2-0.1,0.3-0.3,0.4-0.5c0-0.1,0-0.1,0-0.2
				c0-0.1,0.1-0.2,0.1-0.3c0-0.1-0.1-0.1-0.1-0.2c0-0.1,0-0.2,0-0.3c0-0.2,0-0.4-0.1-0.5c-0.4-0.7-1.2-0.9-2-0.8
				c-0.2,0-0.3,0.1-0.4,0.2c-0.2,0.1-0.1,0.2-0.3,0.2c-0.1,0-0.2,0.1-0.2,0.2C61.8-2.8,61.8-2.9,61.8-2.8
				C61.8-2.7,61.8-2.8,61.8-2.8"/>
			<path class="st2" d="M54.1-2.8c0,0.1,0,0.1,0,0.2C54-2.5,54-2.5,53.9-2.5c-0.1,0.1-0.1,0.3-0.1,0.4c-0.2,0.1,0,0.2,0,0.3
				c0,0,0,0.1,0,0.2c0,0.1,0,0.3,0.1,0.4C54-1,54.1-0.8,54.3-0.7c0.2,0.1,0.4,0.6,0.6,0.6c0.2,0,0.4-0.1,0.5-0.1
				c0.2,0,0.4,0,0.6-0.1c0.2-0.1,0.1-0.3,0.3-0.5c0.1-0.1,0.3,0,0.4-0.1C56.9-0.8,57-1,57.1-1.2c0-0.1,0-0.1,0-0.2
				c0-0.1,0.1-0.2,0.1-0.3c0-0.1-0.1-0.1-0.1-0.2c0-0.1,0-0.2,0-0.3c0-0.2,0-0.4-0.1-0.5c-0.4-0.7-1.2-0.9-2-0.8
				c-0.2,0-0.3,0.1-0.4,0.2c-0.2,0.1-0.1,0.2-0.3,0.2c-0.1,0-0.2,0.1-0.2,0.2C54.1-2.8,54.1-2.9,54.1-2.8
				C54.1-2.7,54.1-2.8,54.1-2.8"/>
			<path class="st2" d="M46.5-2.8c0,0.1,0,0.1,0,0.2c-0.1,0.1-0.1,0.1-0.2,0.1c-0.1,0.1-0.1,0.3-0.1,0.4c-0.2,0.1,0,0.2,0,0.3
				c0,0,0,0.1,0,0.2c0,0.1,0,0.3,0.1,0.4c0.1,0.2,0.3,0.4,0.4,0.5C46.8-0.5,47-0.1,47.2,0c0.2,0,0.4-0.1,0.5-0.1
				c0.2,0,0.4,0,0.6-0.1c0.2-0.1,0.1-0.3,0.3-0.5c0.1-0.1,0.3,0,0.4-0.1c0.2-0.1,0.3-0.3,0.4-0.5c0-0.1,0-0.1,0-0.2
				c0-0.1,0.1-0.2,0.1-0.3c0-0.1-0.1-0.1-0.1-0.2c0-0.1,0-0.2,0-0.3c0-0.2,0-0.4-0.1-0.5c-0.4-0.7-1.2-0.9-2-0.8
				c-0.2,0-0.3,0.1-0.4,0.2c-0.2,0.1-0.1,0.2-0.3,0.2c-0.1,0-0.2,0.1-0.2,0.2C46.5-2.8,46.5-2.9,46.5-2.8
				C46.5-2.7,46.5-2.8,46.5-2.8"/>
			<path class="st2" d="M38.8-2.8c0,0.1,0,0.1,0,0.2c-0.1,0.1-0.1,0.1-0.2,0.1c-0.1,0.1-0.1,0.3-0.1,0.4c-0.2,0.1,0,0.2,0,0.3
				c0,0,0,0.1,0,0.2c0,0.1,0,0.3,0.1,0.4C38.6-1,38.8-0.8,39-0.7c0.2,0.1,0.4,0.6,0.6,0.6c0.2,0,0.4-0.1,0.5-0.1
				c0.2,0,0.4,0,0.6-0.1c0.2-0.1,0.1-0.3,0.3-0.5c0.1-0.1,0.3,0,0.4-0.1c0.2-0.1,0.3-0.3,0.4-0.5c0-0.1,0-0.1,0-0.2
				c0-0.1,0.1-0.2,0.1-0.3c0-0.1-0.1-0.1-0.1-0.2c0-0.1,0-0.2,0-0.3c0-0.2,0-0.4-0.1-0.5c-0.4-0.7-1.2-0.9-2-0.8
				c-0.2,0-0.3,0.1-0.4,0.2c-0.2,0.1-0.1,0.2-0.3,0.2c-0.1,0-0.2,0.1-0.2,0.2C38.8-2.8,38.8-2.9,38.8-2.8
				C38.8-2.7,38.8-2.8,38.8-2.8"/>
			<path class="st2" d="M31.1-2.8c0,0.1,0,0.1,0,0.2c-0.1,0.1-0.1,0.1-0.2,0.1c-0.1,0.1-0.1,0.3-0.1,0.4c-0.2,0.1,0,0.2,0,0.3
				c0,0,0,0.1,0,0.2c0,0.1,0,0.3,0.1,0.4C31-1,31.1-0.8,31.3-0.7c0.2,0.1,0.4,0.6,0.6,0.6c0.2,0,0.4-0.1,0.5-0.1
				c0.2,0,0.4,0,0.6-0.1c0.2-0.1,0.1-0.3,0.3-0.5c0.1-0.1,0.3,0,0.4-0.1c0.2-0.1,0.3-0.3,0.4-0.5c0-0.1,0-0.1,0-0.2
				c0-0.1,0.1-0.2,0.1-0.3c0-0.1-0.1-0.1-0.1-0.2c0-0.1,0-0.2,0-0.3c0-0.2,0-0.4-0.1-0.5c-0.4-0.7-1.2-0.9-2-0.8
				c-0.2,0-0.3,0.1-0.4,0.2c-0.2,0.1-0.1,0.2-0.3,0.2c-0.1,0-0.2,0.1-0.2,0.2C31.1-2.8,31.1-2.9,31.1-2.8
				C31.1-2.7,31.1-2.8,31.1-2.8"/>
			<path class="st2" d="M23.5-2.8c0,0.1,0,0.1,0,0.2c-0.1,0.1-0.1,0.1-0.2,0.1c-0.1,0.1-0.1,0.3-0.1,0.4c-0.2,0.1,0,0.2,0,0.3
				c0,0,0,0.1,0,0.2c0,0.1,0,0.3,0.1,0.4c0.1,0.2,0.3,0.4,0.4,0.5C23.8-0.5,24-0.1,24.3,0c0.2,0,0.4-0.1,0.5-0.1
				c0.2,0,0.4,0,0.6-0.1c0.2-0.1,0.1-0.3,0.3-0.5c0.1-0.1,0.3,0,0.4-0.1c0.2-0.1,0.3-0.3,0.4-0.5c0-0.1,0-0.1,0-0.2
				c0-0.1,0.1-0.2,0.1-0.3c0-0.1-0.1-0.1-0.1-0.2c0-0.1,0-0.2,0-0.3c0-0.2,0-0.4-0.1-0.5c-0.4-0.7-1.2-0.9-2-0.8
				c-0.2,0-0.3,0.1-0.4,0.2c-0.2,0.1-0.1,0.2-0.3,0.2c-0.1,0-0.2,0.1-0.2,0.2C23.5-2.8,23.5-2.9,23.5-2.8
				C23.5-2.7,23.5-2.8,23.5-2.8"/>
			<path class="st2" d="M15.8-2.8c0,0.1,0,0.1,0,0.2c-0.1,0.1-0.1,0.1-0.2,0.1c-0.1,0.1-0.1,0.3-0.1,0.4c-0.2,0.1,0,0.2,0,0.3
				c0,0,0,0.1,0,0.2c0,0.1,0,0.3,0.1,0.4C15.7-1,15.8-0.8,16-0.7c0.2,0.1,0.4,0.6,0.6,0.6c0.2,0,0.4-0.1,0.5-0.1
				c0.2,0,0.4,0,0.6-0.1c0.2-0.1,0.1-0.3,0.3-0.5c0.1-0.1,0.3,0,0.4-0.1c0.2-0.1,0.3-0.3,0.4-0.5c0-0.1,0-0.1,0-0.2
				c0-0.1,0.1-0.2,0.1-0.3c0-0.1-0.1-0.1-0.1-0.2c0-0.1,0-0.2,0-0.3c0-0.2,0-0.4-0.1-0.5c-0.4-0.7-1.2-0.9-2-0.8
				c-0.2,0-0.3,0.1-0.4,0.2c-0.2,0.1-0.1,0.2-0.3,0.2c-0.1,0-0.2,0.1-0.2,0.2C15.8-2.8,15.8-2.9,15.8-2.8
				C15.8-2.7,15.8-2.8,15.8-2.8"/>
			<path class="st2" d="M8.2-2.8c0,0.1,0,0.1,0,0.2C8.1-2.5,8-2.5,8-2.5C7.9-2.4,7.9-2.2,7.9-2.1c-0.2,0.1,0,0.2,0,0.3
				c0,0,0,0.1,0,0.2c0,0.1,0,0.3,0.1,0.4C8-1,8.2-0.8,8.3-0.7C8.5-0.5,8.7-0.1,8.9,0c0.2,0,0.4-0.1,0.5-0.1c0.2,0,0.4,0,0.6-0.1
				c0.2-0.1,0.1-0.3,0.3-0.5c0.1-0.1,0.3,0,0.4-0.1c0.2-0.1,0.3-0.3,0.4-0.5c0-0.1,0-0.1,0-0.2c0-0.1,0.1-0.2,0.1-0.3
				c0-0.1-0.1-0.1-0.1-0.2c0-0.1,0-0.2,0-0.3c0-0.2,0-0.4-0.1-0.5c-0.4-0.7-1.2-0.9-2-0.8C9-3.5,8.8-3.4,8.7-3.4
				C8.5-3.3,8.6-3.2,8.4-3.1C8.3-3.1,8.2-3,8.2-2.9C8.2-2.8,8.2-2.9,8.2-2.8C8.1-2.7,8.1-2.8,8.2-2.8"/>
			<path class="st2" d="M0.5-2.8c0,0.1,0,0.1,0,0.2C0.4-2.5,0.4-2.5,0.3-2.5C0.3-2.4,0.2-2.2,0.2-2.1c-0.2,0.1,0,0.2,0,0.3
				c0,0,0,0.1,0,0.2c0,0.1,0,0.3,0.1,0.4C0.3-1,0.5-0.8,0.7-0.7C0.9-0.5,1-0.1,1.3,0c0.2,0,0.4-0.1,0.5-0.1c0.2,0,0.4,0,0.6-0.1
				c0.2-0.1,0.1-0.3,0.3-0.5c0.1-0.1,0.3,0,0.4-0.1C3.3-0.8,3.4-1,3.5-1.2c0-0.1,0-0.1,0-0.2c0-0.1,0.1-0.2,0.1-0.3
				c0-0.1-0.1-0.1-0.1-0.2c0-0.1,0-0.2,0-0.3c0-0.2,0-0.4-0.1-0.5c-0.4-0.7-1.2-0.9-2-0.8C1.3-3.5,1.2-3.4,1-3.4
				C0.9-3.3,0.9-3.2,0.7-3.1C0.6-3.1,0.5-3,0.5-2.9C0.5-2.8,0.5-2.9,0.5-2.8C0.5-2.7,0.5-2.8,0.5-2.8"/>
		</g>
	</g>
</pattern>
<radialGradient id="SVGID_1_" cx="180" cy="130" r="157.0032" gradientTransform="matrix(1 0 0 0.7685 0 0)" gradientUnits="userSpaceOnUse">
	<stop  offset="0" style="stop-color:#FFFFFF"/>
	<stop  offset="0.2206" style="stop-color:#FCFCFC"/>
	<stop  offset="0.386" style="stop-color:#F2F2F2"/>
	<stop  offset="0.5329" style="stop-color:#E2E2E2"/>
	<stop  offset="0.6264" style="stop-color:#D4D4D4"/>
	<stop  offset="1" style="stop-color:#D4D4D4"/>
	<stop  offset="1" style="stop-color:#313131"/>
</radialGradient>
<rect class="st3" width="360" height="199.8"/>
<g class="st4">
	<path class="st2" d="M145.1,199.8c9.1,0,18.2,0,27.4,0c55.8-30.9,68.7-51,74.5-64.9c4.6-13.9,2.1-21.7-1.2-28.1
		C238.3,95,229.4,90.9,222,87.7c-14.9-5.4-24-5-30.7-4.5c-12.9,1.5-16.3,5-18.1,7.3c-2.8,5,2.7,7.5,6.7,9.7
		c-3.6-2.5-8.3-5.5-3.9-10.4c2.6-2.1,7.4-5.4,21.6-5.4c7.2,0.5,17.3,1,30.8,9.2c6.1,4.6,14.4,10.5,15.6,24.9
		c-0.2,7.4-1.7,16.8-13.9,30.6C217.6,162.4,194.3,180.2,145.1,199.8z"/>
	<path class="st2" d="M64.1,199.8c9.9,0,19.8,0,29.6,0c25.3-5.6,50.9-13.3,71.5-21.6c20.9-8.3,36.8-17.2,47.6-25.3
		c21.8-16.5,24.6-29.3,24.3-37.8c-1-8.7-5.2-14.1-9.7-17.9c-4.6-3.8-9.4-6-13.5-7.6c-17.3-5.5-26-2.6-30.8-1.2
		c-9.2,4.2-5.3,8.3-2.9,11.4c-1.1-1.9-2.1-3.8-1.6-5.9c0.6-2,2.7-4.4,9.3-5.9c3.3-0.6,7.8-1.1,14-0.3c6.1,0.9,13.9,2.8,22.2,8.9
		c3.9,3,7.7,7.3,9.5,13.7c1.6,6.4,1.1,14.8-7.9,26.2c-8.7,11-28.4,24.9-59.7,36.9C135.3,185.5,94.3,194.6,64.1,199.8z"/>
	<path class="st2" d="M38.5,199.8c10.3,0,20.7,0,31,0c33.4-5.9,76.8-16.6,106.5-29.7c30.5-13,47-27.2,53.6-37.9
		c6.8-11,6-18.9,3.6-24.7c-2.6-5.8-6.8-9.7-10.7-12.4c-8.5-5.4-16.1-7-22-7.6c-5.9-0.5-10.2,0-13.4,0.7c-6.3,1.6-8.2,4-8.6,6
		c-0.4,2.1,0.7,3.9,1.8,5.8c-0.7-2.1-1.6-4.1-0.4-6.4c1.2-2.1,4.5-4.6,13-5.3c4.2-0.3,9.9,0,17,2.2c6.8,2.4,15.6,6.4,20.7,16.6
		c2.2,5,3.1,11.9-1.6,20.8c-4.7,8.8-15.1,19.6-35.9,30.5c-19.8,10.9-50.1,20.5-79.4,27.4C84.3,192.6,55.8,196.8,38.5,199.8z"/>
	<path class="st2" d="M3.2,199.8c13.1,0,26.2,0,39.3,0c18.9-3.2,49.6-7.9,79.7-15.6c30.1-7.6,59.7-18,77.7-29.2
		c19.1-11.2,27.5-21.8,30.9-30.2c3.4-8.6,1.7-15-0.9-19.6c-5.8-9.5-14.5-13.1-21.3-15.2c-7-1.9-12.5-2.1-16.6-1.7
		c-8.2,0.8-11.3,3.4-12.4,5.4c-1.1,2.2-0.2,4.2,0.6,6.3c-0.5-2.3-0.9-4.7,1.4-7c2.4-2.1,7.4-4.8,19.1-3.5c5.5,0.7,13.1,2.6,20.3,8.3
		c3.5,2.9,6.7,6.7,8.2,12c1.4,5.3,1,12.2-5.3,21.2c-5.9,8.6-19,18.9-39.8,28.1c-20.4,9.3-48.6,17.5-76,22.7
		c-27.6,5.5-53.4,8.8-71.5,11.4C18.2,195.7,7.5,197.7,3.2,199.8z"/>
	<path class="st2" d="M0.5,162.8c0,7,0,14,0,21c68,0,137.1-9.3,176.7-25.4c40.9-16,50.5-33.8,50.4-44c-0.3-10.8-7.3-16.3-13.2-19.7
		c-6.2-3.3-12-4.4-16.4-4.7c-9.2-0.5-13.5,1.6-15.7,3.6c-2.2,2.1-2.2,4.3-2.1,6.4c0.5-1.9,0.9-3.9,2.9-5.7c2-1.7,5.7-3.3,12.5-3.3
		c6.2,0.4,18.1,1.6,26,13.3c3,5.9,5.9,15.2-9.1,29.2c-7.9,6.9-20.8,14.9-46.3,22.4c-12.8,3.8-29.5,7.1-53.1,9.4
		C88.9,167.4,57.6,168.6,0.5,162.8z"/>
	<path class="st2" d="M0.5,131.8C46,144,74.7,147.6,96.6,149.2c21.6,1.4,36.3,0.8,48-0.4c23-2.4,34.9-6.4,44.1-9.9
		c17.5-7.2,22.5-13.5,26.1-18.4c5.6-9.8,2.5-15.2-0.3-18.9c-6.5-7.1-14.3-8.2-19.1-8.6c-10.3-0.1-12.8,3.9-15.1,6.9
		c3.4-2.5,7.3-5.8,16.4-4.8c4.3,0.7,10.7,2.2,14.8,9.1c1.6,3.6,3.3,8.5-4.2,17.1c-4.4,4.4-10.7,9.5-29.4,15c-10,2.4-22.9,5.4-47,4.7
		c-12.2-0.4-27.5-1.8-48.3-6.3c-20.8-4.6-47.1-12.4-81.9-28.4C0.5,114.8,0.5,123.3,0.5,131.8z"/>
	<path class="st2" d="M0.5,91.8c50.3,30.5,86,39.2,111.1,43.3c25.2,3.6,39.9,2.6,51.8,1.1c22.3-3.4,30.4-8.3,36.7-12.2
		c10.8-8.1,10.4-13.3,10-17.1c-2.1-7.3-8.2-9.3-12.2-10.4c-8.8-1.8-13.5,1.2-17.5,3.4c4.9-1.8,10.9-4.3,19.3-0.9
		c3.5,1.9,9.2,5.1,6.5,13.7c-2.4,4.2-5.2,10.4-24.8,16.7c-10.4,2.7-24.9,6.4-54,3.1c-14.5-1.9-33-5.6-55.4-15.2
		c-22.1-9.4-48-24.7-71.3-47.2C0.5,77.3,0.5,84.5,0.5,91.8z"/>
	<path class="st2" d="M0.5,57.3C13.6,73.8,30.9,89,48.2,100.2c17.4,11.4,35,19,50,23.7c30.6,9.3,51,8.7,64.8,7.5
		c27.2-3.5,33.7-10.4,38.5-14.7c7.3-9.4,1.9-13.6-1-16.1c-7.9-4.5-14.8-2.2-20.2-0.8c6.2-0.9,15.4-2.8,21.2,4.7c1.1,1.9,1.7,4.5,0,8
		c-1.8,3.5-5.7,7.9-17.6,12.4c-5.9,2.1-14.1,4.1-26.2,4.8c-12.1,0.6-28-0.2-48.7-6.1c-20.1-5.6-44.5-17.7-64.7-35.3
		C23.9,71,9,49.1,0.5,33.4C0.5,41.4,0.5,49.4,0.5,57.3z"/>
	<path class="st2" d="M0.5,42.1C13,63.1,36.3,88.5,62,103.9c25.7,16,51.2,23,69.5,25.3c18.9,2.3,31.7,1.2,41.1-0.6
		c9.4-1.9,15.4-4.3,19.6-6.6c15.8-9.8,11.1-15.9,9.1-19c-6.8-6.3-15.1-4.3-21-3.1c3.7-0.4,7.4-0.9,11.4-0.3c3.8,0.7,8.3,2.4,9.6,7.1
		c0.5,2.3,0.2,5.4-3.6,9.3c-4,3.8-11,8.7-28.9,11.7c-8.7,1.3-20.8,2-36.5-0.3c-15.6-2.3-34.8-7.6-54.5-18.7
		C57.9,98.1,39.9,81.5,27,65C13.9,48.5,6,32.1,0.5,22C0.5,28.7,0.5,35.4,0.5,42.1z"/>
	<path class="st2" d="M0.5,0c0,9.5,0,19.1,0,28.6c6.8,13,18.6,32.9,35.8,50.1c16.9,17.4,39.2,32.2,59.7,39.7
		c20.8,8.1,38.4,10.5,52,11c13.7,0.4,23.4-1.2,30.4-3.1c14.2-4,19.2-8.7,21.9-12.3c2.4-3.7,2.2-6.5,1.3-8.6
		c-5.1-8.2-14.9-6.3-21.2-5.6c4.1-0.2,8.3-0.4,12.4,0.9c3.7,1.3,8.3,4.1,6.2,10.3c-1.2,2.9-4.4,7-13.7,10.8c-9.4,3.4-25,7.9-54.6,3
		c-14.1-2.5-31.5-8.2-47.8-18.2c-16.3-9.9-31.7-24-42-39.2c-10.8-15.3-17.3-30.8-22-42.8C13.9,12.4,10.9,3.6,7.2,0C5,0,2.7,0,0.5,0z
		"/>
	<path class="st2" d="M0.5,0c0,3.4,0,6.9,0,10.3c4.2,5.6,8.6,16,15.9,29.5C23.7,53.1,33.8,69.4,48.8,84
		c14.5,14.7,33.3,26.3,50.9,33.4c17.7,7.2,34.2,10,46.7,10.5c26,0.9,37.6-4.2,44.9-8c6.9-4.1,8.8-7.9,9.2-10.6c0.4-5.7-4.3-8-8.1-9
		c-4.1-1-8.1-0.6-12.1-0.3c3.7,0.1,7.7,0.1,11.3,1.2c3.5,1.2,6.9,3.5,6.3,8.3c-0.5,2.3-2.2,5.3-7.4,8.6c-5.4,3.2-14,6.9-31.2,7.7
		c-16.3,0.6-44.3-2.1-73.3-21c-14.3-9.2-27.5-22.8-36.8-39.9C39.9,47.7,34.6,26.8,36.5,0C24.5,0,12.5,0,0.5,0z"/>
	<path class="st2" d="M87.2,0c-10.8,21.2-14,35.7-14.9,47.1c-0.7,11.3,1,19.5,3.3,26.2c4.7,13.3,12.2,21,19,27.2
		c14.2,11.7,27.2,16.6,38.2,19.3c21.8,5.1,34.7,3.1,43.2,1.3c16.6-4.3,18.4-9.8,19-12.9c-0.5-6.8-8.8-7.5-14.9-8.3
		c5.4,1.3,12.3,2.8,12.1,8.4c-0.6,2.7-2.6,6.9-15.3,10.4c-6.7,1.6-16.1,3.2-33.5,0.1c-8.6-2-19.9-4.7-32.6-14.4
		c-6.2-5.1-13.3-11.6-17.4-24.4c-2-6.5-2.9-14.7-0.1-26.7c3.2-12.2,10.1-28.2,33.1-53.4C113.4,0,100.3,0,87.2,0z"/>
	<path class="st2" d="M133.1,0c-24.6,24.9-32.5,40.9-36.3,53.1c-3.4,12.1-2.8,20.2-1.1,26.8c3.7,12.8,10.6,19.3,16.7,24.4
		c12.4,9.6,23.4,12.3,31.8,14.2c17,3.1,26.1,1.5,32.6,0c12.3-3.4,14.3-7.4,15-10c0.6-5.5-6.3-7.1-11.5-8.5c4.7,1.8,10.9,3.8,9.4,8.9
		c-1.1,2.4-3.6,6.1-15.7,8.7c-6.4,1.1-15.1,2.2-30.9-1.5c-7.7-2.3-17.9-5.4-28.3-15.4c-4.9-5.3-10.6-12.2-11.2-25.4
		c-0.1-6.7,1.3-15.1,8-26.9c7-11.8,19.3-27.1,48.1-48.2C150.8,0,142,0,133.1,0z"/>
	<path class="st2" d="M165.9,0c-29.1,19.9-42.5,34.8-50.4,46.5c-7.6,11.6-9.6,20-10.1,26.8c-0.4,13.4,4.8,20.5,9.4,25.9
		c9.8,10.3,19.9,13.6,27.4,16c15.5,4,24.3,3,30.7,2.1c12.2-2.4,14.8-6,16.1-8.4c1.7-5.1-4.3-7.2-8.8-9c4.1,2.2,9.5,4.7,6.6,9.6
		c-1.8,2.3-5.3,5.7-18.2,7.1c-6.7,0.4-15.9,0.8-30.6-4.8c-7.3-3.2-16.2-7.4-23.3-19.4c-3.2-6.4-5.5-14.2-0.6-28.2
		c6.2-13.9,19.6-34,75.2-64.3C181.6,0,173.7,0,165.9,0z"/>
	<path class="st2" d="M217.1,199.8c-9.1,0-18.2,0-27.4,0c29.2-18.9,43.4-33.5,51.9-45c8.3-11.5,10.9-19.9,11.8-26.8
		c1.3-13.5-3.6-20.8-7.9-26.3c-9.3-10.6-19.2-14-26.7-16.6c-15.4-4.3-24.2-3.4-30.7-2.5c-12.3,2.2-15.1,5.8-16.4,8.1
		c-2,5.1,4,7.2,8.4,9.1c-5-1.5-11.6-3.3-10.7-8.6c0.9-2.5,3-6.4,15.1-9.5c6.4-1.3,15.3-2.7,31.7,0.5c8.1,2,18.7,4.8,30.5,14.4
		c5.6,5.1,12.2,11.7,14.9,24.5c1.2,6.6,1.2,14.8-3.4,26.8C253.3,160.1,243.8,176,217.1,199.8z"/>
	<path class="st2" d="M296.4,199.8c-9.9,0-19.8,0-29.6,0c13.2-22.9,16.7-37.7,17.7-49.3c0.8-11.4-0.8-19.6-3.3-26.3
		c-5-13.1-12.4-20.7-19.2-26.5c-14-11.3-27-15.3-37.3-17.9c-20.9-4.5-32.9-2.4-40.9-0.7c-15.6,4.3-17.4,9.5-17.9,12.5
		c0.4,6.5,8.5,7.4,14.4,8.3c-6.4-0.5-15.8-0.8-16.3-8.7c0.8-3.5,3.1-10.3,24.9-14.7c11-1.6,28.5-3.1,54.3,6
		c12.7,4.7,27.3,12.4,40.4,27c6.7,7.3,12.4,16.7,16.5,29.8C303.7,152.7,305.7,169.8,296.4,199.8z"/>
	<path class="st2" d="M360,179.8c0,6.7,0,13.4,0,20c-2.7,0-5.4,0-8.1,0c-7.2-8.5-12-39.8-34.5-70.3c-10.7-15.1-26.2-28.6-42.4-37.9
		c-16.2-9.5-33.1-14.8-46.8-17c-28.7-4.4-43.8,0-53,3.4c-9.1,3.8-12.2,7.8-13.4,10.7c-2.1,6.1,2.5,8.9,6.2,10.2
		c4,1.3,8.2,1,12.3,0.9c-3.7,0.4-7.5,0.9-11.5,0.2c-3.8-0.7-8.4-2.5-9.4-7.4c-0.4-2.3,0.2-5.6,4.4-9.6c4.5-3.8,12.1-8.8,31.3-11.3
		c9.3-1.1,22.1-1.4,38.4,1.7c16.1,3,35.6,9.3,54.7,21.2c19.2,11.4,35.9,28.3,47.6,44.4C347.7,155.2,354.8,170.5,360,179.8z"/>
	<path class="st2" d="M360,162.8c0,7,0,14,0,21c-4.7-7.8-10.5-21.1-20.4-36.3c-9.8-15.1-23.6-32.1-41.5-45
		c-17.5-13.3-37.2-21.7-54.1-26.2c-17.1-4.6-31.4-5.3-41.9-4.8c-21.8,1.4-30.9,6.5-36.5,10.3c-5.2,4.1-6.3,7.5-6.1,10
		c0.5,5.2,5.1,7.2,9,8.1c4,0.8,7.9,0.4,11.7,0c-6.1,1-14.9,3-21.2-4c-1.2-1.8-2.1-4.2-1-7.6c1.3-3.3,4.4-7.6,14.7-12.3
		c5.1-2.2,12.4-4.4,23.3-5.7c10.9-1.2,25.5-1.3,45.6,3c19.5,4.2,44.8,14.1,67.4,31.3C332,121.4,350,145,360,162.8z"/>
	<path class="st2" d="M360,147.9c0,5.7,0,11.5,0,17.2c-9-16.4-24.9-38.9-46.2-56c-21.1-17.5-45.9-28.8-65.8-33.9
		c-20.5-5.3-36-5.8-47.6-5c-11.7,0.9-19.6,3-25.2,5.1c-11.3,4.5-14.9,8.9-16.5,12.3c-1.5,3.5-0.7,6,0.4,7.8c6,7.3,15,5.4,21.2,4.4
		c-5.6,1.3-13,3.5-20.6-1.6c-2.7-2.7-7.9-7.5,2-17.1c6.1-4.3,14.9-11.5,45.7-12.9c15.3-0.2,38.2,1.4,68,13.4
		c14.6,6,30.7,14.8,45.6,26.4C336,119.6,349.8,133.8,360,147.9z"/>
	<path class="st2" d="M360,122.7c0,10,0,20,0,30c-8.1-12.2-19.3-25.3-32.1-36.7c-12.8-11.4-27.2-21-41.1-28
		c-28.2-14.2-52.7-18.2-69.5-19c-34.1-0.9-45.4,6.5-52.7,10.6c-12.5,9.7-7.6,15.2-5.2,18.1c7.3,5.7,15,3.5,20.8,2.3
		c-4.6,2-10.2,4.5-18.7,1.8c-3.7-1.6-9.5-4.4-8.7-12.5c1.3-4,2.7-9.8,18.8-17c8.9-3.2,20.5-7.6,47.5-7.2c13.7,0.6,31.3,2.2,55.4,10
		C298.3,82.8,328.7,96.7,360,122.7z"/>
	<path class="st2" d="M360,131.8c-21.3-21.5-45.8-37-67.2-46.9c-21.7-10-40.3-14.3-54.9-16.7c-29.6-4.2-45-0.8-55.9,1.7
		c-20.8,6-24.1,12.3-26.8,16.6c-3.4,8.7,2.3,12.1,5.7,14c8.3,3.5,14.4,1,19.5-0.7c-3.9,2.3-8.5,5.2-17.4,3.6
		c-4.1-1-10.2-3-12.6-10.2c-0.5-3.8-1.2-8.9,9.1-17c6-4,13.7-8.9,35.6-12.7c11.6-1.7,26-2.8,51.2,0.3c25.1,3.7,61,11.7,113.8,42.4
		C360,114.8,360,123.3,360,131.8z"/>
	<path class="st2" d="M360,91.8c-35.9-15.9-62.7-23.4-83.7-27.8c-21-4.3-36.3-5.4-48.5-5.7c-23.9-0.3-36.7,2.8-46.5,5.3
		c-18.4,5.7-24.6,10.8-28.8,15.3c-7.2,8.6-5.4,13.5-3.7,17.1c4.3,6.8,10.8,8.2,15.1,8.9c9.2,1,13-2.4,16.3-4.9
		c-2.4,3-5,6.8-15.1,6.7c-4.8-0.3-12.3-1.5-18.7-8.5c-2.8-3.7-5.8-8.9-0.2-18.6c3.6-4.8,8.5-11,25.9-18.1c9.1-3.4,20.9-7.4,43.9-9.7
		c11.7-1.1,26.4-1.6,48,0c21.9,1.8,50.7,5.6,96,18.4C360,77.3,360,84.5,360,91.8z"/>
	<path class="st2" d="M360,0c0,9.5,0,19.1,0,28.6c-40.7-2.7-68.5-2.1-91.4-0.4c-22.6,1.8-40.2,4.5-54.7,7.8
		c-29,6.5-46.7,14.7-58.3,22.3c-22.8,15.4-21.9,27.4-19.5,34.5c3.1,7.4,9.1,11.1,14.3,13.4c5.3,2.2,10.1,2.9,13.8,3.1
		c7.7,0.2,11.5-1.6,13.6-3.4c2-1.9,2.3-3.9,2.6-6c0.5,2.2,0.9,4.6-1.2,6.9c-2.2,2.1-7.1,4.8-18.3,3.8c-5.4-0.6-12.7-2.2-20.1-7.4
		c-3.5-2.6-7-6.1-8.9-11c-1.9-5-2.3-11.4,2.4-20c4.5-8.2,15.2-18.3,34-27.9c18.5-9.6,45.3-18.3,72.7-24.4
		c27.5-6.2,54.4-10,74.1-12.9c19.9-2.8,32.6-4.9,38.4-7C355.5,0,357.8,0,360,0z"/>
	<path class="st2" d="M333,0c-13,2.6-35.6,5.5-62.2,10.7c-26.4,5.1-56.9,12.3-81.1,21.9c-24.4,9.4-41.4,20.4-50.3,30
		c-9.1,9.7-11,17.9-10.4,24c1.9,12.6,11,17.8,18,21.1c7.4,3.1,13.6,3.7,18.2,3.7c9.5-0.2,13.2-2.8,14.8-4.9c1.5-2.3,0.9-4.4,0.2-6.6
		c1.2,1.8,2.3,3.6,2,5.7c-0.4,2-2.1,4.4-8.2,6c-3,0.7-7.2,1.3-12.9,0.9c-5.7-0.5-13.2-1.9-21.8-6.8c-4-2.5-8.4-6.1-11.4-11.6
		c-2.9-5.5-4.4-12.9,0.9-23.7c5.3-10.4,19.6-24.6,49.2-38.3C206.7,18.4,251.5,6.5,287.3,0C302.6,0,317.8,0,333,0z"/>
	<path class="st2" d="M295.2,0c-30.9,5.3-72.5,14.8-103,27.1c-31.2,12.2-50.2,26.2-58.4,37.1c-8.5,11.3-8.7,19.6-6.9,25.9
		c2,6.2,5.9,10.4,9.8,13.4c8.3,5.9,16.1,7.8,22.1,8.6c6.1,0.7,10.6,0.2,13.8-0.4c6.6-1.5,8.6-3.9,9.2-5.9c0.5-2.1-0.6-4-1.7-5.8
		c1.4,1.7,2.7,3.4,2.8,5.3c0,1.9-1.1,4.2-6,6.1c-4.9,1.4-13.9,4.3-31.3-1.6c-4.1-1.7-8.9-4-13.4-8c-4.4-4-8.4-9.5-8.9-18.5
		c0.1-8.8,4.1-21.8,26.9-38.1c11.2-8,27.6-16.7,48.4-24.7c20.6-8,45.7-15.2,70.1-20.5C277.7,0,286.5,0,295.2,0z"/>
	<path class="st2" d="M240.2,0c-37.5,11.1-65.5,24.2-83.7,35.9c-18.5,11.8-27,22.1-31.8,30.3c-8.6,16.6-3,25.5,1.2,31.8
		c10.3,12,21.9,14,29.5,15.7c15.8,2.1,22.1-1,25.7-2.9c6.5-4.6,2.1-8.1-0.9-10.9c3.4,2.6,8.1,5.7,3,10.5c-3,2.1-8.1,5.3-22.8,4.7
		c-7.3-0.8-17.9-1.7-30.7-11.1c-5.6-5.1-13.4-11.9-11.7-27.1c1.6-7.7,5.1-17.6,19.7-30.9c14.6-13.1,40.2-29.5,85.6-46
		C228.9,0,234.6,0,240.2,0z"/>
	<path class="st2" d="M227.3,0c-43.6,15-70.1,30.7-85.6,43.5c-15.6,13-20.3,23.1-22.5,30.9c-3.2,15.6,4.3,22.9,9.6,28.2
		c12.3,9.9,23.1,11.1,30.5,12.1c15,0.9,20.3-2.2,23.5-4.3c5.4-4.7,0.8-7.9-2.5-10.6c3.9,2.3,9,5,5.5,9.9c-2.1,2.2-6.1,5.6-19.5,6.4
		c-6.9,0-16.4,0.1-30.7-6.5c-6.9-3.8-15.6-8.6-20.5-21.6c-1.8-6.8-2.9-15.3,5.2-29.4c8.9-13.9,26.9-33.3,80.6-58.8
		C209.6,0,218.5,0,227.3,0z"/>
	<path class="st2" d="M206.5,0c-52.1,23.1-72.4,42-82.7,55.8c-9.8,14-9.5,22.9-8.4,29.9c3.5,13.5,12.1,18.7,18.7,22.8
		c14,7.2,23.7,7.3,30.8,7.5c13.7-0.5,17.9-3.8,20.3-6c3.8-4.8-1.1-7.7-4.9-10c4.1,2.2,9.5,4.7,6.5,9.6c-1.8,2.3-5.4,5.7-18.3,7
		c-6.7,0.3-15.9,0.7-30.7-4.9c-7.3-3.3-16.1-7.5-23-19.6c-3.1-6.4-5.3-14.3,0-28.3c6.4-14,20.4-33.9,75.9-63.7
		C195.9,0,201.2,0,206.5,0z"/>
	<path class="st2" d="M194.6,0c-54.9,28.1-70.5,47.9-77.8,61.8c-6.4,14-4.5,22.2-1.9,28.7c6.1,12.4,15,16.8,22.1,20.3
		c14.6,6,23.9,5.7,30.7,5.5c13.1-1.2,16.8-4.6,18.8-6.8c3.1-4.9-2.1-7.5-6.1-9.7c4.4,1.9,10.4,4.1,8.4,9.2
		c-1.4,2.4-4.2,5.9-16.5,8.1c-6.5,0.8-15.3,1.7-30.7-2.6c-7.5-2.6-17.4-6-26.7-16.6c-4.3-5.6-9.1-12.9-7.8-26.3
		c0.9-6.8,3.6-15.3,11.9-26.8c8.6-11.5,22.8-26,52-44.9C178.9,0,186.7,0,194.6,0z"/>
</g>
<g>
	<g>
		<g>
			<g>
				<path class="st2" d="M172.2,126.8c-0.8-4.6-1.1-4.8-5.8-4.9c4.6-0.5,4.8-0.8,4.6-5.4c0.8,4.6,1.1,4.8,5.8,4.9
					C172.2,121.9,172,122.2,172.2,126.8z"/>
			</g>
			<g>
				<path class="st2" d="M173.9,109.7c-0.4-2.4-0.6-2.5-3-2.5c2.4-0.3,2.5-0.4,2.4-2.8c0.4,2.4,0.6,2.5,3,2.5
					C173.9,107.2,173.8,107.3,173.9,109.7z"/>
			</g>
			<g>
				<path class="st2" d="M157.2,131.4c-0.4-2.4-0.6-2.5-3-2.5c2.4-0.3,2.5-0.4,2.4-2.8c0.4,2.4,0.6,2.5,3,2.5
					C157.2,128.9,157.1,129,157.2,131.4z"/>
			</g>
			<g>
				<path class="st2" d="M177.1,140.4c-0.4-2.4-0.6-2.5-3-2.5c2.4-0.3,2.5-0.4,2.4-2.8c0.4,2.4,0.6,2.5,3,2.5
					C177.1,137.9,177,138,177.1,140.4z"/>
			</g>
			<g>
				<path class="st2" d="M179.1,130.6c-0.2-1.2-0.3-1.3-1.5-1.3c1.2-0.1,1.3-0.2,1.2-1.4c0.2,1.2,0.3,1.3,1.5,1.3
					C179.1,129.4,179,129.4,179.1,130.6z"/>
			</g>
			<g>
				<path class="st2" d="M157.9,122.7c-0.2-1.2-0.3-1.3-1.5-1.3c1.2-0.1,1.3-0.2,1.2-1.4c0.2,1.2,0.3,1.3,1.5,1.3
					C157.9,121.4,157.8,121.5,157.9,122.7z"/>
			</g>
			<g>
				<path class="st2" d="M178.7,112.3c-0.2-1.2-0.3-1.3-1.5-1.3c1.2-0.1,1.3-0.2,1.2-1.4c0.2,1.2,0.3,1.3,1.5,1.3
					C178.7,111,178.7,111.1,178.7,112.3z"/>
			</g>
			<g>
				<path class="st2" d="M146.4,126c-0.2-1.2-0.3-1.3-1.5-1.3c1.2-0.1,1.3-0.2,1.2-1.4c0.2,1.2,0.3,1.3,1.5,1.3
					C146.4,124.7,146.4,124.8,146.4,126z"/>
			</g>
		</g>
		<g>
			<g>
				<path class="st2" d="M83.2,82.9c-1.2-6.7-1.6-7-8.4-7.1c6.7-0.8,7-1.2,6.7-7.9c1.2,6.7,1.6,7,8.4,7.1
					C83.2,75.9,82.9,76.2,83.2,82.9z"/>
			</g>
			<g>
				<path class="st2" d="M36.6,143.3c-1.2-6.7-1.6-7-8.4-7.1c6.7-0.8,7-1.2,6.7-7.9c1.2,6.7,1.6,7,8.4,7.1
					C36.6,136.2,36.3,136.6,36.6,143.3z"/>
			</g>
			<g>
				<path class="st2" d="M92.1,168.3c-1.2-6.7-1.6-7-8.4-7.1c6.7-0.8,7-1.2,6.7-7.9c1.2,6.7,1.6,7,8.4,7.1
					C92.1,161.2,91.8,161.6,92.1,168.3z"/>
			</g>
			<g>
				<path class="st2" d="M97.5,141c-0.6-3.4-0.8-3.5-4.2-3.6c3.4-0.4,3.6-0.6,3.4-4c0.6,3.4,0.8,3.5,4.2,3.6
					C97.6,137.5,97.4,137.7,97.5,141z"/>
			</g>
			<g>
				<path class="st2" d="M38.6,119c-0.6-3.4-0.8-3.5-4.2-3.6c3.4-0.4,3.6-0.6,3.4-4c0.6,3.4,0.8,3.5,4.2,3.6
					C38.6,115.5,38.5,115.7,38.6,119z"/>
			</g>
			<g>
				<path class="st2" d="M96.6,90c-0.6-3.4-0.8-3.5-4.2-3.6c3.4-0.4,3.6-0.6,3.4-4c0.6,3.4,0.8,3.5,4.2,3.6
					C96.6,86.4,96.4,86.6,96.6,90z"/>
			</g>
			<g>
				<path class="st2" d="M6.7,128.1c-0.6-3.4-0.8-3.5-4.2-3.6c3.4-0.4,3.6-0.6,3.4-4c0.6,3.4,0.8,3.5,4.2,3.6
					C6.7,124.6,6.6,124.7,6.7,128.1z"/>
			</g>
		</g>
		<g>
			<g>
				<path class="st2" d="M117.5,105.7c1.1,6.1,1.5,6.4,7.7,6.5c-6.2,0.7-6.5,1.1-6.2,7.2c-1.1-6.1-1.5-6.4-7.7-6.5
					C117.5,112.2,117.8,111.8,117.5,105.7z"/>
			</g>
			<g>
				<path class="st2" d="M115.2,128.5c0.6,3.2,0.8,3.4,4,3.4c-3.2,0.4-3.4,0.6-3.2,3.8c-0.6-3.2-0.8-3.4-4-3.4
					C115.2,131.9,115.4,131.7,115.2,128.5z"/>
			</g>
			<g>
				<path class="st2" d="M137.7,99.4c0.6,3.2,0.8,3.4,4,3.4c-3.2,0.4-3.4,0.6-3.2,3.8c-0.6-3.2-0.8-3.4-4-3.4
					C137.7,102.8,137.8,102.6,137.7,99.4z"/>
			</g>
			<g>
				<path class="st2" d="M110.9,87.4c0.6,3.2,0.8,3.4,4,3.4c-3.2,0.4-3.4,0.6-3.2,3.8c-0.6-3.2-0.8-3.4-4-3.4
					C110.9,90.8,111.1,90.6,110.9,87.4z"/>
			</g>
			<g>
				<path class="st2" d="M108.3,100.5c0.3,1.6,0.4,1.7,2,1.7c-1.6,0.2-1.7,0.3-1.6,1.9c-0.3-1.6-0.4-1.7-2-1.7
					C108.3,102.2,108.4,102.1,108.3,100.5z"/>
			</g>
			<g>
				<path class="st2" d="M136.7,111.1c0.3,1.6,0.4,1.7,2,1.7c-1.6,0.2-1.7,0.3-1.6,1.9c-0.3-1.6-0.4-1.7-2-1.7
					C136.7,112.8,136.8,112.7,136.7,111.1z"/>
			</g>
			<g>
				<path class="st2" d="M108.8,125.1c0.3,1.6,0.4,1.7,2,1.7c-1.6,0.2-1.7,0.3-1.6,1.9c-0.3-1.6-0.4-1.7-2-1.7
					C108.8,126.8,108.9,126.7,108.8,125.1z"/>
			</g>
			<g>
				<path class="st2" d="M152.1,106.7c0.3,1.6,0.4,1.7,2,1.7c-1.6,0.2-1.7,0.3-1.6,1.9c-0.3-1.6-0.4-1.7-2-1.7
					C152.1,108.4,152.2,108.3,152.1,106.7z"/>
			</g>
		</g>
		<g>
			<g>
				<path class="st2" d="M132.6,33.4c0.9,5.1,1.2,5.3,6.4,5.4c-5.1,0.6-5.4,0.9-5.1,6c-0.9-5.1-1.2-5.3-6.4-5.4
					C132.6,38.7,132.8,38.5,132.6,33.4z"/>
			</g>
			<g>
				<path class="st2" d="M130.7,52.2c0.5,2.6,0.6,2.8,3.3,2.8c-2.7,0.3-2.8,0.5-2.7,3.1c-0.5-2.6-0.6-2.8-3.3-2.8
					C130.7,55,130.8,54.9,130.7,52.2z"/>
			</g>
			<g>
				<path class="st2" d="M149.2,28.2c0.5,2.6,0.6,2.8,3.3,2.8c-2.7,0.3-2.8,0.5-2.7,3.1c-0.5-2.6-0.6-2.8-3.3-2.8
					C149.2,31,149.3,30.9,149.2,28.2z"/>
			</g>
			<g>
				<path class="st2" d="M127.1,18.3c0.5,2.6,0.6,2.8,3.3,2.8c-2.7,0.3-2.8,0.5-2.7,3.1c-0.5-2.7-0.6-2.8-3.3-2.8
					C127.1,21.1,127.3,20.9,127.1,18.3z"/>
			</g>
			<g>
				<path class="st2" d="M125,29.1c0.2,1.3,0.3,1.4,1.7,1.4c-1.4,0.2-1.4,0.2-1.4,1.6c-0.2-1.3-0.3-1.4-1.7-1.4
					C125,30.5,125,30.4,125,29.1z"/>
			</g>
			<g>
				<path class="st2" d="M148.4,37.8c0.2,1.3,0.3,1.4,1.7,1.4c-1.4,0.2-1.4,0.2-1.4,1.6c-0.2-1.3-0.3-1.4-1.7-1.4
					C148.4,39.3,148.5,39.2,148.4,37.8z"/>
			</g>
			<g>
				<path class="st2" d="M125.4,49.4c0.2,1.3,0.3,1.4,1.7,1.4c-1.4,0.2-1.4,0.2-1.4,1.6c-0.2-1.3-0.3-1.4-1.7-1.4
					C125.4,50.8,125.4,50.8,125.4,49.4z"/>
			</g>
			<g>
				<path class="st2" d="M161.1,34.2c0.2,1.3,0.3,1.4,1.7,1.4c-1.4,0.2-1.4,0.2-1.4,1.6c-0.2-1.3-0.3-1.4-1.7-1.4
					C161.1,35.6,161.2,35.6,161.1,34.2z"/>
			</g>
		</g>
		<g>
			<g>
				<path class="st2" d="M173,165.7c-0.5-2.6-0.6-2.7-3.3-2.8c2.6-0.3,2.8-0.5,2.6-3.1c0.5,2.6,0.6,2.7,3.3,2.8
					C173,163,172.9,163.1,173,165.7z"/>
			</g>
			<g>
				<path class="st2" d="M155.5,179.9c-0.2-1.3-0.3-1.4-1.7-1.4c1.3-0.2,1.4-0.2,1.3-1.6c0.2,1.3,0.3,1.4,1.7,1.4
					C155.5,178.5,155.4,178.6,155.5,179.9z"/>
			</g>
			<g>
				<path class="st2" d="M178.2,168.5c-0.2-1.3-0.3-1.4-1.7-1.4c1.3-0.2,1.4-0.2,1.3-1.6c0.2,1.3,0.3,1.4,1.7,1.4
					C178.2,167.1,178.2,167.2,178.2,168.5z"/>
			</g>
		</g>
		<g>
			<g>
				<path class="st2" d="M164.2,80.7c-1.1-6.1-1.4-6.4-7.6-6.4c6.1-0.7,6.4-1.1,6.1-7.2c1.1,6.1,1.4,6.4,7.6,6.4
					C164.2,74.3,164,74.6,164.2,80.7z"/>
			</g>
			<g>
				<path class="st2" d="M166.5,58.2c-0.6-3.2-0.8-3.3-4-3.4c3.2-0.4,3.4-0.5,3.2-3.7c0.6,3.2,0.8,3.3,4,3.4
					C166.5,54.8,166.3,55,166.5,58.2z"/>
			</g>
			<g>
				<path class="st2" d="M144.3,86.9c-0.6-3.2-0.8-3.3-4-3.4c3.2-0.4,3.3-0.6,3.2-3.7c0.6,3.2,0.8,3.3,4,3.4
					C144.3,83.5,144.2,83.7,144.3,86.9z"/>
			</g>
			<g>
				<path class="st2" d="M170.7,98.8c-0.6-3.2-0.7-3.3-4-3.4c3.2-0.4,3.4-0.6,3.2-3.7c0.6,3.2,0.8,3.3,4,3.4
					C170.7,95.4,170.6,95.6,170.7,98.8z"/>
			</g>
			<g>
				<path class="st2" d="M173.3,85.8c-0.3-1.6-0.4-1.7-2-1.7c1.6-0.2,1.7-0.3,1.6-1.9c0.3,1.6,0.4,1.7,2,1.7
					C173.3,84.1,173.2,84.2,173.3,85.8z"/>
			</g>
			<g>
				<path class="st2" d="M145.3,75.4c-0.3-1.6-0.4-1.7-2-1.7c1.6-0.2,1.7-0.3,1.6-1.9c0.3,1.6,0.4,1.7,2,1.7
					C145.3,73.7,145.2,73.7,145.3,75.4z"/>
			</g>
			<g>
				<path class="st2" d="M172.8,61.5c-0.3-1.6-0.4-1.7-2-1.7c1.6-0.2,1.7-0.3,1.6-1.9c0.3,1.6,0.4,1.7,2,1.7
					C172.8,59.8,172.8,59.9,172.8,61.5z"/>
			</g>
			<g>
				<path class="st2" d="M130.1,79.7c-0.3-1.6-0.4-1.7-2-1.7c1.6-0.2,1.7-0.3,1.6-1.9c0.3,1.6,0.4,1.7,2,1.7
					C130.1,78,130,78.1,130.1,79.7z"/>
			</g>
		</g>
		<g>
			<g>
				<path class="st2" d="M74.5,50.1c1.2,6.6,1.6,6.9,8.3,7c-6.7,0.8-7,1.1-6.7,7.8c-1.2-6.6-1.6-6.9-8.3-7
					C74.5,57.1,74.8,56.8,74.5,50.1z"/>
			</g>
			<g>
				<path class="st2" d="M72,74.7c0.6,3.5,0.8,3.6,4.4,3.7c-3.5,0.4-3.7,0.6-3.5,4.1c-0.6-3.5-0.8-3.6-4.4-3.7
					C72,78.4,72.2,78.2,72,74.7z"/>
			</g>
			<g>
				<path class="st2" d="M96.2,43.4c0.6,3.5,0.8,3.6,4.4,3.7c-3.5,0.4-3.6,0.6-3.5,4.1c-0.6-3.5-0.8-3.6-4.4-3.7
					C96.2,47,96.4,46.8,96.2,43.4z"/>
			</g>
			<g>
				<path class="st2" d="M67.4,30.4c0.6,3.5,0.8,3.6,4.4,3.7c-3.5,0.4-3.7,0.6-3.5,4.1c-0.6-3.5-0.8-3.6-4.4-3.7
					C67.4,34.1,67.5,33.9,67.4,30.4z"/>
			</g>
			<g>
				<path class="st2" d="M64.6,44.5c0.3,1.7,0.4,1.8,2.2,1.9c-1.8,0.2-1.8,0.3-1.8,2.1c-0.3-1.7-0.4-1.8-2.2-1.9
					C64.6,46.4,64.7,46.3,64.6,44.5z"/>
			</g>
			<g>
				<path class="st2" d="M95.2,55.9c0.3,1.7,0.4,1.8,2.2,1.9c-1.8,0.2-1.8,0.3-1.8,2.1c-0.3-1.7-0.4-1.8-2.2-1.9
					C95.2,57.8,95.2,57.7,95.2,55.9z"/>
			</g>
			<g>
				<path class="st2" d="M65.1,71c0.3,1.7,0.4,1.8,2.2,1.9c-1.8,0.2-1.8,0.3-1.8,2.1c-0.3-1.7-0.4-1.8-2.2-1.9
					C65.1,72.9,65.2,72.8,65.1,71z"/>
			</g>
			<g>
				<path class="st2" d="M111.7,51.2c0.3,1.7,0.4,1.8,2.2,1.9c-1.8,0.2-1.8,0.3-1.8,2.1c-0.3-1.7-0.4-1.8-2.2-1.9
					C111.7,53.1,111.8,53,111.7,51.2z"/>
			</g>
		</g>
		<g>
			<g>
				<path class="st2" d="M114.5,155.1c1.3,7.4,1.8,7.8,9.3,7.9c-7.5,0.9-7.8,1.3-7.5,8.7c-1.3-7.4-1.8-7.8-9.3-7.8
					C114.5,162.9,114.8,162.5,114.5,155.1z"/>
			</g>
			<g>
				<path class="st2" d="M138.8,147.5c0.7,3.9,0.9,4.1,4.9,4.1c-3.9,0.5-4.1,0.7-3.9,4.6c-0.7-3.9-0.9-4.1-4.9-4.1
					C138.8,151.6,139,151.4,138.8,147.5z"/>
			</g>
			<g>
				<path class="st2" d="M106.6,133c0.7,3.9,0.9,4.1,4.9,4.1c-3.9,0.5-4.1,0.7-3.9,4.6c-0.7-3.9-0.9-4.1-4.9-4.1
					C106.6,137.1,106.7,136.9,106.6,133z"/>
			</g>
			<g>
				<path class="st2" d="M103.4,148.8c0.3,2,0.5,2.1,2.5,2.1c-2,0.2-2.1,0.3-2,2.3c-0.3-2-0.5-2.1-2.5-2.1
					C103.4,150.9,103.5,150.8,103.4,148.8z"/>
			</g>
			<g>
				<path class="st2" d="M137.6,161.6c0.3,2,0.5,2,2.5,2.1c-2,0.2-2.1,0.3-2,2.3c-0.3-2-0.5-2.1-2.5-2.1
					C137.6,163.7,137.7,163.6,137.6,161.6z"/>
			</g>
			<g>
				<path class="st2" d="M104,178.5c0.3,2,0.5,2,2.5,2.1c-2,0.2-2.1,0.3-2,2.3c-0.3-2-0.5-2.1-2.5-2.1
					C104,180.5,104.1,180.4,104,178.5z"/>
			</g>
			<g>
				<path class="st2" d="M156.2,156.3c0.3,2,0.5,2.1,2.5,2.1c-2,0.2-2.1,0.3-2,2.3c-0.3-2-0.5-2.1-2.5-2.1
					C156.2,158.4,156.3,158.3,156.2,156.3z"/>
			</g>
		</g>
	</g>
	<g>
		<g>
			<g>
				<path class="st2" d="M186.2,106.5c0.8,4.6,1.1,4.8,5.8,4.9c-4.6,0.5-4.8,0.8-4.6,5.4c-0.8-4.6-1.1-4.8-5.8-4.9
					C186.2,111.3,186.4,111.1,186.2,106.5z"/>
			</g>
			<g>
				<path class="st2" d="M184.5,123.5c0.4,2.4,0.6,2.5,3,2.5c-2.4,0.3-2.5,0.4-2.4,2.8c-0.4-2.4-0.6-2.5-3-2.5
					C184.5,126,184.6,125.9,184.5,123.5z"/>
			</g>
			<g>
				<path class="st2" d="M201.2,101.8c0.4,2.4,0.6,2.5,3,2.5c-2.4,0.3-2.5,0.4-2.4,2.8c-0.4-2.4-0.6-2.5-3-2.5
					C201.2,104.3,201.3,104.2,201.2,101.8z"/>
			</g>
			<g>
				<path class="st2" d="M181.3,92.8c0.4,2.4,0.6,2.5,3,2.5c-2.4,0.3-2.5,0.4-2.4,2.8c-0.4-2.4-0.6-2.5-3-2.5
					C181.3,95.3,181.4,95.2,181.3,92.8z"/>
			</g>
			<g>
				<path class="st2" d="M179.3,102.6c0.2,1.2,0.3,1.3,1.5,1.3c-1.2,0.1-1.3,0.2-1.2,1.4c-0.2-1.2-0.3-1.3-1.5-1.3
					C179.3,103.9,179.4,103.8,179.3,102.6z"/>
			</g>
			<g>
				<path class="st2" d="M200.5,110.5c0.2,1.2,0.3,1.3,1.5,1.3c-1.2,0.1-1.3,0.2-1.2,1.4c-0.2-1.2-0.3-1.3-1.5-1.3
					C200.5,111.8,200.6,111.7,200.5,110.5z"/>
			</g>
			<g>
				<path class="st2" d="M179.7,120.9c0.2,1.2,0.3,1.3,1.5,1.3c-1.2,0.1-1.3,0.2-1.2,1.4c-0.2-1.2-0.3-1.3-1.5-1.3
					C179.7,122.2,179.7,122.2,179.7,120.9z"/>
			</g>
			<g>
				<path class="st2" d="M212,107.2c0.2,1.2,0.3,1.3,1.5,1.3c-1.2,0.1-1.3,0.2-1.2,1.4c-0.2-1.2-0.3-1.3-1.5-1.3
					C212,108.5,212,108.5,212,107.2z"/>
			</g>
		</g>
		<g>
			<g>
				<path class="st2" d="M275.2,150.3c1.2,6.7,1.6,7,8.4,7.1c-6.7,0.8-7,1.2-6.7,7.9c-1.2-6.7-1.6-7-8.4-7.1
					C275.2,157.4,275.5,157,275.2,150.3z"/>
			</g>
			<g>
				<path class="st2" d="M321.8,89.9c1.2,6.7,1.6,7,8.4,7.1c-6.7,0.8-7,1.2-6.7,7.9c-1.2-6.7-1.6-7-8.4-7.1
					C321.8,97,322.1,96.6,321.8,89.9z"/>
			</g>
			<g>
				<path class="st2" d="M266.3,65c1.2,6.7,1.6,7,8.4,7.1c-6.7,0.8-7,1.2-6.7,7.9c-1.2-6.7-1.6-7-8.4-7.1
					C266.3,72,266.6,71.7,266.3,65z"/>
			</g>
			<g>
				<path class="st2" d="M260.9,92.2c0.6,3.4,0.8,3.5,4.2,3.6c-3.4,0.4-3.6,0.6-3.4,4c-0.6-3.4-0.8-3.5-4.2-3.6
					C260.9,95.8,261,95.6,260.9,92.2z"/>
			</g>
			<g>
				<path class="st2" d="M319.8,114.2c0.6,3.4,0.8,3.5,4.2,3.6c-3.4,0.4-3.5,0.6-3.4,4c-0.6-3.4-0.8-3.5-4.2-3.6
					C319.8,117.8,319.9,117.6,319.8,114.2z"/>
			</g>
			<g>
				<path class="st2" d="M261.9,143.2c0.6,3.4,0.8,3.5,4.2,3.6c-3.4,0.4-3.6,0.6-3.4,4c-0.6-3.4-0.8-3.5-4.2-3.6
					C261.9,146.8,262,146.6,261.9,143.2z"/>
			</g>
			<g>
				<path class="st2" d="M351.7,105.1c0.6,3.4,0.8,3.5,4.2,3.6c-3.4,0.4-3.6,0.6-3.4,4c-0.6-3.4-0.8-3.5-4.2-3.6
					C351.7,108.7,351.9,108.5,351.7,105.1z"/>
			</g>
		</g>
		<g>
			<g>
				<path class="st2" d="M240.9,127.6c-1.1-6.1-1.5-6.4-7.7-6.5c6.2-0.7,6.5-1.1,6.2-7.2c1.1,6.1,1.5,6.4,7.7,6.5
					C240.9,121,240.6,121.4,240.9,127.6z"/>
			</g>
			<g>
				<path class="st2" d="M243.2,104.7c-0.6-3.2-0.8-3.4-4-3.4c3.2-0.4,3.4-0.6,3.2-3.8c0.6,3.2,0.8,3.4,4,3.4
					C243.2,101.3,243,101.5,243.2,104.7z"/>
			</g>
			<g>
				<path class="st2" d="M220.7,133.8c-0.6-3.2-0.8-3.4-4-3.4c3.2-0.4,3.4-0.6,3.2-3.8c0.6,3.2,0.8,3.4,4,3.4
					C220.7,130.4,220.6,130.6,220.7,133.8z"/>
			</g>
			<g>
				<path class="st2" d="M247.5,145.9c-0.6-3.2-0.8-3.4-4-3.4c3.2-0.4,3.4-0.6,3.2-3.8c0.6,3.2,0.8,3.4,4,3.4
					C247.5,142.5,247.3,142.6,247.5,145.9z"/>
			</g>
			<g>
				<path class="st2" d="M250.1,132.7c-0.3-1.6-0.4-1.7-2-1.7c1.6-0.2,1.7-0.3,1.6-1.9c0.3,1.6,0.4,1.7,2,1.7
					C250.1,131,250,131.1,250.1,132.7z"/>
			</g>
			<g>
				<path class="st2" d="M221.7,122.1c-0.3-1.6-0.4-1.7-2-1.7c1.6-0.2,1.7-0.3,1.6-1.9c0.3,1.6,0.4,1.7,2,1.7
					C221.7,120.4,221.6,120.5,221.7,122.1z"/>
			</g>
			<g>
				<path class="st2" d="M249.6,108.1c-0.3-1.6-0.4-1.7-2-1.7c1.6-0.2,1.7-0.3,1.6-1.9c0.3,1.6,0.4,1.7,2,1.7
					C249.6,106.4,249.5,106.5,249.6,108.1z"/>
			</g>
			<g>
				<path class="st2" d="M206.3,126.5c-0.3-1.6-0.4-1.7-2-1.7c1.6-0.2,1.7-0.3,1.6-1.9c0.3,1.6,0.4,1.7,2,1.7
					C206.3,124.8,206.2,124.9,206.3,126.5z"/>
			</g>
		</g>
		<g>
			<g>
				<path class="st2" d="M187.3,48.9c0.9,5,1.2,5.3,6.3,5.3c-5.1,0.6-5.3,0.9-5.1,5.9c-0.9-5-1.2-5.3-6.3-5.3
					C187.3,54.2,187.5,53.9,187.3,48.9z"/>
			</g>
			<g>
				<path class="st2" d="M185.4,67.5c0.5,2.6,0.6,2.7,3.3,2.8c-2.6,0.3-2.8,0.5-2.6,3.1c-0.5-2.6-0.6-2.7-3.3-2.8
					C185.4,70.3,185.6,70.1,185.4,67.5z"/>
			</g>
			<g>
				<path class="st2" d="M203.7,43.8c0.5,2.6,0.6,2.7,3.3,2.8c-2.6,0.3-2.8,0.5-2.6,3.1c-0.5-2.6-0.6-2.7-3.3-2.8
					C203.7,46.6,203.9,46.4,203.7,43.8z"/>
			</g>
			<g>
				<path class="st2" d="M181.9,34c0.5,2.6,0.6,2.7,3.3,2.8c-2.6,0.3-2.8,0.5-2.6,3.1c-0.5-2.6-0.6-2.7-3.3-2.8
					C181.9,36.7,182,36.6,181.9,34z"/>
			</g>
			<g>
				<path class="st2" d="M179.8,44.7c0.2,1.3,0.3,1.4,1.7,1.4c-1.3,0.2-1.4,0.2-1.3,1.6c-0.2-1.3-0.3-1.4-1.7-1.4
					C179.8,46.1,179.8,46,179.8,44.7z"/>
			</g>
			<g>
				<path class="st2" d="M202.9,53.3c0.2,1.3,0.3,1.4,1.7,1.4c-1.3,0.2-1.4,0.2-1.3,1.6c-0.2-1.3-0.3-1.4-1.7-1.4
					C202.9,54.7,203,54.6,202.9,53.3z"/>
			</g>
			<g>
				<path class="st2" d="M180.2,64.7c0.2,1.3,0.3,1.4,1.7,1.4c-1.3,0.2-1.4,0.2-1.3,1.6c-0.2-1.3-0.3-1.4-1.7-1.4
					C180.2,66.1,180.2,66,180.2,64.7z"/>
			</g>
			<g>
				<path class="st2" d="M215.5,49.7c0.2,1.3,0.3,1.4,1.7,1.4c-1.3,0.2-1.4,0.2-1.3,1.6c-0.2-1.3-0.3-1.4-1.7-1.4
					C215.5,51.1,215.6,51.1,215.5,49.7z"/>
			</g>
		</g>
		<g>
			<g>
				<path class="st2" d="M194.2,152.5c1.1,6.1,1.4,6.4,7.6,6.4c-6.1,0.7-6.4,1.1-6.1,7.2c-1.1-6.1-1.4-6.4-7.6-6.4
					C194.2,158.9,194.5,158.6,194.2,152.5z"/>
			</g>
			<g>
				<path class="st2" d="M214.1,146.3c0.6,3.2,0.8,3.3,4,3.4c-3.2,0.4-3.4,0.6-3.2,3.7c-0.6-3.2-0.8-3.3-4-3.4
					C214.1,149.7,214.2,149.5,214.1,146.3z"/>
			</g>
			<g>
				<path class="st2" d="M187.7,134.4c0.6,3.2,0.7,3.3,4,3.4c-3.2,0.4-3.4,0.6-3.2,3.7c-0.6-3.2-0.8-3.3-4-3.4
					C187.7,137.8,187.8,137.6,187.7,134.4z"/>
			</g>
			<g>
				<path class="st2" d="M185.1,147.4c0.3,1.6,0.4,1.7,2,1.7c-1.6,0.2-1.7,0.3-1.6,1.9c-0.3-1.6-0.4-1.7-2-1.7
					C185.1,149.1,185.2,149,185.1,147.4z"/>
			</g>
			<g>
				<path class="st2" d="M213.1,157.9c0.3,1.6,0.4,1.7,2,1.7c-1.6,0.2-1.7,0.3-1.6,1.9c-0.3-1.6-0.4-1.7-2-1.7
					C213.1,159.6,213.2,159.5,213.1,157.9z"/>
			</g>
			<g>
				<path class="st2" d="M185.6,171.7c0.3,1.6,0.4,1.7,2,1.7c-1.6,0.2-1.7,0.3-1.6,1.9c-0.3-1.6-0.4-1.7-2-1.7
					C185.6,173.4,185.6,173.3,185.6,171.7z"/>
			</g>
			<g>
				<path class="st2" d="M228.3,153.5c0.3,1.6,0.4,1.7,2,1.7c-1.6,0.2-1.7,0.3-1.6,1.9c-0.3-1.6-0.4-1.7-2-1.7
					C228.3,155.2,228.4,155.2,228.3,153.5z"/>
			</g>
		</g>
		<g>
			<g>
				<path class="st2" d="M286.4,158.5c-0.6-3.5-0.8-3.6-4.4-3.7c3.5-0.4,3.7-0.6,3.5-4.1c0.6,3.5,0.8,3.6,4.4,3.7
					C286.4,154.9,286.2,155.1,286.4,158.5z"/>
			</g>
			<g>
				<path class="st2" d="M293.3,162.2c-0.3-1.7-0.4-1.8-2.2-1.9c1.8-0.2,1.8-0.3,1.8-2.1c0.3,1.7,0.4,1.8,2.2,1.9
					C293.3,160.4,293.2,160.5,293.3,162.2z"/>
			</g>
		</g>
		<g>
			<g>
				<path class="st2" d="M243.9,78.2c-1.3-7.4-1.8-7.8-9.3-7.9c7.5-0.9,7.8-1.3,7.5-8.7c1.3,7.4,1.8,7.8,9.3,7.9
					C243.9,70.3,243.6,70.7,243.9,78.2z"/>
			</g>
			<g>
				<path class="st2" d="M246.7,50.7c-0.7-3.9-0.9-4.1-4.9-4.1c3.9-0.5,4.1-0.7,3.9-4.6c0.7,3.9,0.9,4.1,4.9,4.1
					C246.7,46.6,246.5,46.8,246.7,50.7z"/>
			</g>
			<g>
				<path class="st2" d="M219.6,85.7c-0.7-3.9-0.9-4.1-4.9-4.1c3.9-0.5,4.1-0.7,3.9-4.6c0.7,3.9,0.9,4.1,4.9,4.1
					C219.6,81.6,219.4,81.8,219.6,85.7z"/>
			</g>
			<g>
				<path class="st2" d="M251.9,100.2c-0.7-3.9-0.9-4.1-4.9-4.1c3.9-0.5,4.1-0.7,3.9-4.6c0.7,3.9,0.9,4.1,4.9,4.1
					C251.9,96.1,251.7,96.3,251.9,100.2z"/>
			</g>
			<g>
				<path class="st2" d="M255,84.4c-0.3-2-0.5-2.1-2.5-2.1c2-0.2,2.1-0.3,2-2.3c0.3,2,0.5,2.1,2.5,2.1C255,82.3,254.9,82.5,255,84.4
					z"/>
			</g>
			<g>
				<path class="st2" d="M220.8,71.6c-0.3-2-0.5-2.1-2.5-2.1c2-0.2,2.1-0.3,2-2.3c0.3,2,0.5,2.1,2.5,2.1
					C220.8,69.6,220.7,69.7,220.8,71.6z"/>
			</g>
			<g>
				<path class="st2" d="M254.4,54.8c-0.3-2-0.5-2-2.5-2.1c2-0.2,2.1-0.3,2-2.3c0.3,2,0.5,2.1,2.5,2.1
					C254.4,52.7,254.3,52.8,254.4,54.8z"/>
			</g>
			<g>
				<path class="st2" d="M202.2,76.9c-0.3-2-0.5-2-2.5-2.1c2-0.2,2.1-0.3,2-2.3c0.3,2,0.5,2.1,2.5,2.1
					C202.2,74.8,202.1,75,202.2,76.9z"/>
			</g>
		</g>
	</g>
</g>
</svg>
