<?xml version="1.0" encoding="utf-8"?>
<!-- Generator: Adobe Illustrator 19.2.1, SVG Export Plug-In . SVG Version: 6.00 Build 0)  -->
<svg version="1.1" id="Layer_1" xmlns="http://www.w3.org/2000/svg" xmlns:xlink="http://www.w3.org/1999/xlink" x="0px" y="0px"
	 viewBox="0 0 600 600" style="enable-background:new 0 0 600 600;" xml:space="preserve">
<style type="text/css">
	.st0{enable-background:new    ;}
	.st1{fill:#B4B4B4;}
	.st2{opacity:0.251;}
	.st3{fill:#FFFFFF;}
	.st4{opacity:0.502;}
	.st5{opacity:0.349;}
	.st6{fill:#121212;}
	.st7{opacity:0.149;}
	.st8{opacity:0.1;}
	.st9{opacity:0.13;}
	.st10{opacity:0.749;enable-background:new    ;}
	.st11{opacity:0.102;enable-background:new    ;}
	.st12{opacity:5.000000e-002;enable-background:new    ;}
	.st13{opacity:0.502;enable-background:new    ;}
</style>
<g id="BG_1_" class="st0">
	<g id="BG">
		<g>
			<rect class="st1" width="600" height="600"/>
		</g>
	</g>
</g>
<g id="Squares_1_1_">
	<g id="Rectangle_2" class="st2">
		<g>
			<rect class="st3" width="100" height="100"/>
		</g>
	</g>
	<g id="Rectangle_2_1_" class="st2">
		<g>
			<rect class="st3" width="200" height="200"/>
		</g>
	</g>
	<g id="Rectangle_2_2_" class="st2">
		<g>
			<rect x="100" y="100" class="st3" width="200" height="200"/>
		</g>
	</g>
	<g id="Rectangle_2_3_" class="st4">
		<g>
			<rect x="200" y="200" class="st3" width="200" height="200"/>
		</g>
	</g>
	<g id="Rectangle_2_4_" class="st2">
		<g>
			<rect x="300" y="300" class="st3" width="200" height="200"/>
		</g>
	</g>
	<g id="Rectangle_2_5_" class="st2">
		<g>
			<rect x="400" y="400" class="st3" width="200" height="200"/>
		</g>
	</g>
	<g id="Rectangle_2_6_" class="st2">
		<g>
			<rect x="500" y="500" class="st3" width="100" height="100"/>
		</g>
	</g>
	<g id="Rectangle_2_7_" class="st5">
		<g>
			<rect x="120" class="st6" width="200" height="80"/>
		</g>
	</g>
	<g id="Rectangle_2_8_" class="st4">
		<g>
			<rect x="220" class="st3" width="200" height="180"/>
		</g>
	</g>
	<g id="Rectangle_2_9_" class="st4">
		<g>
			<rect x="320" y="80" class="st3" width="200" height="200"/>
		</g>
	</g>
	<g id="Rectangle_2_11_" class="st4">
		<g>
			<rect x="520" y="280" class="st3" width="80" height="200"/>
		</g>
	</g>
	<g id="Rectangle_2_12_" class="st7">
		<g>
			<rect y="120" class="st6" width="80" height="200"/>
		</g>
	</g>
	<g id="Rectangle_2_13_" class="st8">
		<g>
			<rect y="220" class="st6" width="180" height="200"/>
		</g>
	</g>
	<g id="Rectangle_2_14_" class="st7">
		<g>
			<rect x="80" y="320" class="st3" width="200" height="200"/>
		</g>
	</g>
	<g id="Rectangle_2_15_" class="st7">
		<g>
			<rect x="180" y="420" class="st3" width="200" height="180"/>
		</g>
	</g>
	<g id="Rectangle_2_16_" class="st7">
		<g>
			<rect x="280" y="520" class="st3" width="200" height="80"/>
		</g>
	</g>
	<g id="Rectangle_2_17_" class="st5">
		<g>
			<rect y="340" class="st3" width="60" height="200"/>
		</g>
	</g>
	<g id="Rectangle_2_18_" class="st5">
		<g>
			<rect y="440" class="st3" width="160" height="160"/>
		</g>
	</g>
	<g id="Rectangle_2_19_" class="st5">
		<g>
			<rect x="60" y="540" class="st6" width="200" height="60"/>
		</g>
	</g>
	<g id="Rectangle_2_20_" class="st2">
		<g>
			<rect x="340" class="st3" width="200" height="60"/>
		</g>
	</g>
	<g id="Rectangle_2_21_" class="st2">
		<g>
			<rect x="440" class="st3" width="160" height="160"/>
		</g>
	</g>
	<g id="Rectangle_2_22_" class="st2">
		<g>
			<rect x="540" y="60" class="st6" width="60" height="200"/>
		</g>
	</g>
</g>
<g id="Squares_2_1_" class="st9">
	<g id="Rectangle_2_23_" class="st2">
		<g>
			<rect x="550" class="st3" width="50" height="50"/>
		</g>
	</g>
	<g id="Rectangle_2_24_" class="st2">
		<g>
			<rect x="450" class="st3" width="150" height="150"/>
		</g>
	</g>
	<g id="Rectangle_2_25_" class="st2">
		<g>
			<rect x="350" y="50" class="st3" width="200" height="200"/>
		</g>
	</g>
	<g id="Rectangle_2_26_" class="st4">
		<g>
			<rect x="250" y="150" class="st3" width="200" height="200"/>
		</g>
	</g>
	<g id="Rectangle_2_27_" class="st2">
		<g>
			<rect x="150" y="250" class="st3" width="200" height="200"/>
		</g>
	</g>
	<g id="Rectangle_2_28_" class="st2">
		<g>
			<rect x="50" y="350" class="st3" width="200" height="200"/>
		</g>
	</g>
	<g id="Rectangle_2_29_" class="st2">
		<g>
			<rect y="450" class="st3" width="150" height="150"/>
		</g>
	</g>
	<g id="Rectangle_2_30_" class="st5">
		<g>
			<rect x="570" y="70" class="st6" width="30" height="200"/>
		</g>
	</g>
	<g id="Rectangle_2_31_" class="st4">
		<g>
			<rect x="470" y="170" class="st3" width="130" height="200"/>
		</g>
	</g>
	<g id="Rectangle_2_32_" class="st4">
		<g>
			<rect x="370" y="270" class="st3" width="200" height="200"/>
		</g>
	</g>
	<g id="Rectangle_2_33_" class="st4">
		<g>
			<rect x="270" y="370" class="st6" width="200" height="200"/>
		</g>
	</g>
	<g id="Rectangle_2_34_" class="st4">
		<g>
			<rect x="170" y="470" class="st3" width="200" height="130"/>
		</g>
	</g>
	<g id="Rectangle_2_35_" class="st7">
		<g>
			<rect x="330" class="st6" width="200" height="30"/>
		</g>
	</g>
	<g id="Rectangle_2_36_" class="st7">
		<g>
			<rect x="230" class="st6" width="200" height="130"/>
		</g>
	</g>
	<g id="Rectangle_2_37_" class="st7">
		<g>
			<rect x="130" y="30" class="st3" width="200" height="200"/>
		</g>
	</g>
	<g id="Rectangle_2_38_" class="st7">
		<g>
			<rect x="30" y="130" class="st3" width="200" height="200"/>
		</g>
	</g>
	<g id="Rectangle_2_39_" class="st7">
		<g>
			<rect y="230" class="st3" width="130" height="200"/>
		</g>
	</g>
	<g id="Rectangle_2_40_" class="st5">
		<g>
			<rect x="110" class="st3" width="200" height="10"/>
		</g>
	</g>
	<g id="Rectangle_2_41_" class="st5">
		<g>
			<rect x="10" class="st3" width="200" height="110"/>
		</g>
	</g>
	<g id="Rectangle_2_42_" class="st5">
		<g>
			<rect y="10" class="st6" width="110" height="200"/>
		</g>
	</g>
	<g id="Rectangle_2_43_" class="st5">
		<g>
			<rect y="110" class="st3" width="10" height="200"/>
		</g>
	</g>
	<g id="Rectangle_2_44_" class="st2">
		<g>
			<rect x="590" y="290" class="st3" width="10" height="200"/>
		</g>
	</g>
	<g id="Rectangle_2_45_" class="st2">
		<g>
			<rect x="490" y="390" class="st3" width="110" height="200"/>
		</g>
	</g>
	<g id="Rectangle_2_46_" class="st2">
		<g>
			<rect x="390" y="490" class="st6" width="200" height="110"/>
		</g>
	</g>
	<g id="Rectangle_2_47_" class="st2">
		<g>
			<rect x="290" y="590" class="st3" width="200" height="10"/>
		</g>
	</g>
</g>
<g id="Light_Lines_1_" class="st10">
	<g id="Light_Lines">
		<g>
			<path class="st3" d="M191,309H91V109H0v2h89v200h100v100h200v189h2V409H191V309z M511,489V289H411V189H311V89H211V0h-2v91h100
				v100h100v100h100v200h91v-2H511z"/>
		</g>
	</g>
</g>
<g id="Dark_Lines_1_" class="st11">
	<g id="Dark_Lines">
		<g>
			<path class="st6" d="M531,169V69H331V0h-2v71h200v100h71v-2H531z M171,429H0v2h169v100h100v69h2v-71H171V429z"/>
		</g>
	</g>
</g>
<g id="Dark_Triangles_1_" class="st12">
	<g id="Dark_Triangles">
		<g>
			<path class="st6" d="M210,290l80-80h-80V290z M510,510v80l80-80H510z M510,90l-80,80h80V90z M150,530v-80l-80,80H150z"/>
		</g>
	</g>
</g>
<g id="Light_Triangles_1_" class="st13">
	<g id="Light_Triangles">
		<g>
			<path class="st3" d="M110,90h80l-80-80V90z M0,240l70,70v-80H0V240z M410,310v80l80-80H410z M360,600h10v-70h-80L360,600z"/>
		</g>
	</g>
</g>
</svg>
